  0
SECTION
  2
HEADER
  9
$ACADVER
  1
AC1015
  9
$ACADMAINTVER
 70
     6
  9
$DWGCODEPAGE
  3
ANSI_1252
  9
$INSBASE
 10
0.0
 20
0.0
 30
0.0
  9
$EXTMIN
 10
-25.4
 20
-50.8
 30
0.0
  9
$EXTMAX
 10
100.4
 20
50.8
 30
0.0
  9
$LIMMIN
 10
0.0
 20
0.0
  9
$LIMMAX
 10
420.0
 20
297.0
  9
$ORTHOMODE
 70
     0
  9
$REGENMODE
 70
     1
  9
$FILLMODE
 70
     1
  9
$QTEXTMODE
 70
     0
  9
$MIRRTEXT
 70
     1
  9
$LTSCALE
 40
1.0
  9
$ATTMODE
 70
     1
  9
$TEXTSIZE
 40
3.5
  9
$TRACEWID
 40
1.0
  9
$TEXTSTYLE
  7
Standard
  9
$CLAYER
  8
0
  9
$CELTYPE
  6
ByLayer
  9
$CECOLOR
 62
   256
  9
$CELTSCALE
 40
1.0
  9
$DISPSILH
 70
     0
  9
$DIMSCALE
 40
1.0
  9
$DIMASZ
 40
3.302
  9
$DIMEXO
 40
0.0
  9
$DIMDLI
 40
3.75
  9
$DIMRND
 40
0.0
  9
$DIMDLE
 40
0.0
  9
$DIMEXE
 40
1.0
  9
$DIMTP
 40
0.0
  9
$DIMTM
 40
0.0
  9
$DIMTXT
 40
3.5
  9
$DIMCEN
 40
2.5
  9
$DIMTSZ
 40
0.0
  9
$DIMTOL
 70
     0
  9
$DIMLIM
 70
     0
  9
$DIMTIH
 70
     1
  9
$DIMTOH
 70
     1
  9
$DIMSE1
 70
     0
  9
$DIMSE2
 70
     0
  9
$DIMTAD
 70
     1
  9
$DIMZIN
 70
     1
  9
$DIMBLK
  1

  9
$DIMASO
 70
     1
  9
$DIMSHO
 70
     1
  9
$DIMPOST
  1

  9
$DIMAPOST
  1

  9
$DIMALT
 70
     0
  9
$DIMALTD
 70
     3
  9
$DIMALTF
 40
0.0393700787
  9
$DIMLFAC
 40
1.0
  9
$DIMTOFL
 70
     1
  9
$DIMTVP
 40
0.0
  9
$DIMTIX
 70
     0
  9
$DIMSOXD
 70
     0
  9
$DIMSAH
 70
     0
  9
$DIMBLK1
  1

  9
$DIMBLK2
  1

  9
$DIMSTYLE
  2
ISO-25
  9
$DIMCLRD
 70
     0
  9
$DIMCLRE
 70
     0
  9
$DIMCLRT
 70
     0
  9
$DIMTFAC
 40
1.0
  9
$DIMGAP
 40
1.524
  9
$DIMJUST
 70
     0
  9
$DIMSD1
 70
     0
  9
$DIMSD2
 70
     0
  9
$DIMTOLJ
 70
     0
  9
$DIMTZIN
 70
     1
  9
$DIMALTZ
 70
     0
  9
$DIMALTTZ
 70
     0
  9
$DIMUPT
 70
     0
  9
$DIMDEC
 70
     2
  9
$DIMTDEC
 70
     2
  9
$DIMALTU
 70
     2
  9
$DIMALTTD
 70
     3
  9
$DIMTXSTY
  7
Standard
  9
$DIMAUNIT
 70
     0
  9
$DIMADEC
 70
     2
  9
$DIMALTRND
 40
0.0
  9
$DIMAZIN
 70
     0
  9
$DIMDSEP
 70
    44
  9
$DIMATFIT
 70
     3
  9
$DIMFRAC
 70
     0
  9
$DIMLDRBLK
  1

  9
$DIMLUNIT
 70
     2
  9
$DIMLWD
 70
    -2
  9
$DIMLWE
 70
    -2
  9
$DIMTMOVE
 70
     0
  9
$LUNITS
 70
     2
  9
$LUPREC
 70
     2
  9
$SKETCHINC
 40
1.0
  9
$FILLETRAD
 40
10.0
  9
$AUNITS
 70
     0
  9
$AUPREC
 70
     2
  9
$MENU
  1
.
  9
$ELEVATION
 40
0.0
  9
$PELEVATION
 40
0.0
  9
$THICKNESS
 40
0.0
  9
$LIMCHECK
 70
     0
  9
$CHAMFERA
 40
0.0
  9
$CHAMFERB
 40
0.0
  9
$CHAMFERC
 40
0.0
  9
$CHAMFERD
 40
0.0
  9
$SKPOLY
 70
     0
  9
$TDCREATE
 40
2459600.46472441
  9
$TDUCREATE
 40
2459600.71472441
  9
$TDUPDATE
 40
2459600.464750092
  9
$TDUUPDATE
 40
2459600.714750092
  9
$TDINDWG
 40
0.0000000116
  9
$TDUSRTIMER
 40
0.0000000116
  9
$USRTIMER
 70
     1
  9
$ANGBASE
 50
0.0
  9
$ANGDIR
 70
     0
  9
$PDMODE
 70
     0
  9
$PDSIZE
 40
-1.0
  9
$PLINEWID
 40
0.0
  9
$SPLFRAME
 70
     0
  9
$SPLINETYPE
 70
     6
  9
$SPLINESEGS
 70
     8
  9
$HANDSEED
  5
13E
  9
$SURFTAB1
 70
     6
  9
$SURFTAB2
 70
     6
  9
$SURFTYPE
 70
     6
  9
$SURFU
 70
     6
  9
$SURFV
 70
     6
  9
$UCSBASE
  2

  9
$UCSNAME
  2

  9
$UCSORG
 10
0.0
 20
0.0
 30
0.0
  9
$UCSXDIR
 10
1.0
 20
0.0
 30
0.0
  9
$UCSYDIR
 10
0.0
 20
1.0
 30
0.0
  9
$UCSORTHOREF
  2

  9
$UCSORTHOVIEW
 70
     0
  9
$UCSORGTOP
 10
0.0
 20
0.0
 30
0.0
  9
$UCSORGBOTTOM
 10
0.0
 20
0.0
 30
0.0
  9
$UCSORGLEFT
 10
0.0
 20
0.0
 30
0.0
  9
$UCSORGRIGHT
 10
0.0
 20
0.0
 30
0.0
  9
$UCSORGFRONT
 10
0.0
 20
0.0
 30
0.0
  9
$UCSORGBACK
 10
0.0
 20
0.0
 30
0.0
  9
$PUCSBASE
  2

  9
$PUCSNAME
  2

  9
$PUCSORG
 10
0.0
 20
0.0
 30
0.0
  9
$PUCSXDIR
 10
1.0
 20
0.0
 30
0.0
  9
$PUCSYDIR
 10
0.0
 20
1.0
 30
0.0
  9
$PUCSORTHOREF
  2

  9
$PUCSORTHOVIEW
 70
     0
  9
$PUCSORGTOP
 10
0.0
 20
0.0
 30
0.0
  9
$PUCSORGBOTTOM
 10
0.0
 20
0.0
 30
0.0
  9
$PUCSORGLEFT
 10
0.0
 20
0.0
 30
0.0
  9
$PUCSORGRIGHT
 10
0.0
 20
0.0
 30
0.0
  9
$PUCSORGFRONT
 10
0.0
 20
0.0
 30
0.0
  9
$PUCSORGBACK
 10
0.0
 20
0.0
 30
0.0
  9
$USERI1
 70
     0
  9
$USERI2
 70
     0
  9
$USERI3
 70
     0
  9
$USERI4
 70
     0
  9
$USERI5
 70
     0
  9
$USERR1
 40
0.0
  9
$USERR2
 40
0.0
  9
$USERR3
 40
0.0
  9
$USERR4
 40
0.0
  9
$USERR5
 40
0.0
  9
$WORLDVIEW
 70
     1
  9
$SHADEDGE
 70
     3
  9
$SHADEDIF
 70
    70
  9
$TILEMODE
 70
     1
  9
$MAXACTVP
 70
    64
  9
$PINSBASE
 10
0.0
 20
0.0
 30
0.0
  9
$PLIMCHECK
 70
     0
  9
$PEXTMIN
 10
1.0000000000E+20
 20
1.0000000000E+20
 30
1.0000000000E+20
  9
$PEXTMAX
 10
-1.0000000000E+20
 20
-1.0000000000E+20
 30
-1.0000000000E+20
  9
$PLIMMIN
 10
0.0
 20
0.0
  9
$PLIMMAX
 10
420.0
 20
297.0
  9
$UNITMODE
 70
     0
  9
$VISRETAIN
 70
     1
  9
$PLINEGEN
 70
     0
  9
$PSLTSCALE
 70
     1
  9
$TREEDEPTH
 70
  3020
  9
$CMLSTYLE
  2
Standard
  9
$CMLJUST
 70
     0
  9
$CMLSCALE
 40
20.0
  9
$PROXYGRAPHICS
 70
     1
  9
$MEASUREMENT
 70
     1
  9
$CELWEIGHT
370
    -1
  9
$ENDCAPS
280
     0
  9
$JOINSTYLE
280
     0
  9
$LWDISPLAY
290
     1
  9
$INSUNITS
 70
     4
  9
$HYPERLINKBASE
  1

  9
$STYLESHEET
  1

  9
$XEDIT
290
     1
  9
$CEPSNTYPE
380
     0
  9
$PSTYLEMODE
290
     1
  9
$FINGERPRINTGUID
  2
{674556c3-b091-456e-8e03-61fc632d1067}
  9
$VERSIONGUID
  2
{FAEB1C32-E019-11D5-929B-00C0DF256EC4}
  9
$EXTNAMES
290
     1
  9
$PSVPSCALE
 40
0.0
  9
$OLESTARTUP
290
     0
  0
ENDSEC
  0
SECTION
  2
CLASSES
  0
CLASS
  1
ACDBDICTIONARYWDFLT
  2
AcDbDictionaryWithDefault
  3
ObjectDBX Classes
 90
        0
280
     0
281
     0
  0
CLASS
  1
VISUALSTYLE
  2
AcDbVisualStyle
  3
ObjectDBX Classes
 90
     4095
280
     0
281
     0
  0
CLASS
  1
MATERIAL
  2
AcDbMaterial
  3
ObjectDBX Classes
 90
     1153
280
     0
281
     0
  0
CLASS
  1
SCALE
  2
AcDbScale
  3
ObjectDBX Classes
 90
     1153
280
     0
281
     0
  0
CLASS
  1
TABLESTYLE
  2
AcDbTableStyle
  3
ObjectDBX Classes
 90
     4095
280
     0
281
     0
  0
CLASS
  1
MLEADERSTYLE
  2
AcDbMLeaderStyle
  3
ACDB_MLEADERSTYLE_CLASS
 90
     4095
280
     0
281
     0
  0
CLASS
  1
SUN
  2
AcDbSun
  3
SCENEOE
 90
     1153
280
     0
281
     0
  0
CLASS
  1
ACDBPLACEHOLDER
  2
AcDbPlaceHolder
  3
ObjectDBX Classes
 90
        0
280
     0
281
     0
  0
CLASS
  1
LAYOUT
  2
AcDbLayout
  3
ObjectDBX Classes
 90
        0
280
     0
281
     0
  0
ENDSEC
  0
SECTION
  2
TABLES
  0
TABLE
  2
VPORT
  5
8
330
0
100
AcDbSymbolTable
 70
     1
  0
VPORT
  5
29
330
8
100
AcDbSymbolTableRecord
100
AcDbViewportTableRecord
  2
*Active
 70
     0
 10
0.0
 20
0.0
 11
1.0
 21
1.0
 12
37.5
 22
0.0
 13
0.0
 23
0.0
 14
10.0
 24
10.0
 15
10.0
 25
10.0
 16
0.0
 26
0.0
 36
1.0
 17
0.0
 27
0.0
 37
0.0
 40
103.632
 41
1.2381889764
 42
50.0
 43
0.0
 44
0.0
 50
0.0
 51
0.0
 71
     0
 72
   100
 73
     1
 74
     3
 75
     0
 76
     0
 77
     0
 78
     0
281
     0
 65
     1
110
0.0
120
0.0
130
0.0
111
1.0
121
0.0
131
0.0
112
0.0
122
1.0
132
0.0
 79
     0
146
0.0
  0
ENDTAB
  0
TABLE
  2
LTYPE
  5
5
330
0
100
AcDbSymbolTable
 70
     6
  0
LTYPE
  5
14
330
5
100
AcDbSymbolTableRecord
100
AcDbLinetypeTableRecord
  2
ByBlock
 70
     0
  3

 72
    65
 73
     0
 40
0.0
  0
LTYPE
  5
15
330
5
100
AcDbSymbolTableRecord
100
AcDbLinetypeTableRecord
  2
ByLayer
 70
     0
  3

 72
    65
 73
     0
 40
0.0
  0
LTYPE
  5
16
330
5
100
AcDbSymbolTableRecord
100
AcDbLinetypeTableRecord
  2
Continuous
 70
     0
  3
Solid line
 72
    65
 73
     0
 40
0.0
  0
LTYPE
  5
6E
330
5
100
AcDbSymbolTableRecord
100
AcDbLinetypeTableRecord
  2
HIDDEN
 70
     0
  3
Hidden __ __ __ __ __ __ __ __ __ __ __ __ __ __
 72
    65
 73
     2
 40
1.905
 49
1.27
 74
     0
 49
-0.635
 74
     0
  0
LTYPE
  5
6F
330
5
100
AcDbSymbolTableRecord
100
AcDbLinetypeTableRecord
  2
PHANTOM
 70
     0
  3
Phantom ______  __  __  ______  __  __  ______
 72
    65
 73
     6
 40
12.7
 49
6.35
 74
     0
 49
-1.27
 74
     0
 49
1.27
 74
     0
 49
-1.27
 74
     0
 49
1.27
 74
     0
 49
-1.27
 74
     0
  0
LTYPE
  5
70
330
5
100
AcDbSymbolTableRecord
100
AcDbLinetypeTableRecord
  2
CENTER
 70
     0
  3
Center ____ _ ____ _ ____ _ ____ _ ____ _ ____
 72
    65
 73
     4
 40
10.16
 49
6.35
 74
     0
 49
-1.27
 74
     0
 49
1.27
 74
     0
 49
-1.27
 74
     0
  0
LTYPE
  5
71
330
5
100
AcDbSymbolTableRecord
100
AcDbLinetypeTableRecord
  2
CENTERX2
 70
     0
  3
Center (2x) ________  __  ________  __  _____
 72
    65
 73
     4
 40
20.32
 49
12.7
 74
     0
 49
-2.54
 74
     0
 49
2.54
 74
     0
 49
-2.54
 74
     0
  0
LTYPE
  5
72
330
5
100
AcDbSymbolTableRecord
100
AcDbLinetypeTableRecord
  2
DOT2
 70
     0
  3
Dot (.5x) ........................................
 72
    65
 73
     2
 40
0.635
 49
0.0
 74
     0
 49
-0.635
 74
     0
  0
ENDTAB
  0
TABLE
  2
LAYER
  5
2
330
0
100
AcDbSymbolTable
 70
     1
  0
LAYER
  5
10
330
2
100
AcDbSymbolTableRecord
100
AcDbLayerTableRecord
  2
0
 70
     0
 62
     7
  6
Continuous
370
    -3
390
F
  0
ENDTAB
  0
TABLE
  2
STYLE
  5
3
330
0
100
AcDbSymbolTable
 70
     2
  0
STYLE
  5
11
330
3
100
AcDbSymbolTableRecord
100
AcDbTextStyleTableRecord
  2
Standard
 70
     0
 40
0.0
 41
1.0
 50
0.0
 71
     0
 42
3.5
  3
txt
  4

  0
STYLE
  5
13A
330
3
100
AcDbSymbolTableRecord
100
AcDbTextStyleTableRecord
  2
SLDTEXTSTYLE0
 70
     0
 40
0.0
 41
0.7
 50
0.0
 71
     0
 42
3.5
  3
TXT
  4

  0
ENDTAB
  0
TABLE
  2
VIEW
  5
6
330
0
100
AcDbSymbolTable
 70
     0
  0
ENDTAB
  0
TABLE
  2
UCS
  5
7
330
0
100
AcDbSymbolTable
 70
     0
  0
ENDTAB
  0
TABLE
  2
APPID
  5
9
330
0
100
AcDbSymbolTable
 70
     1
  0
APPID
  5
12
330
9
100
AcDbSymbolTableRecord
100
AcDbRegAppTableRecord
  2
ACAD
 70
     0
  0
ENDTAB
  0
TABLE
  2
DIMSTYLE
  5
A
330
0
100
AcDbSymbolTable
 70
     1
100
AcDbDimStyleTable
  0
DIMSTYLE
105
27
330
A
100
AcDbSymbolTableRecord
100
AcDbDimStyleTableRecord
  2
ISO-25
 70
     0
 41
2.5
 42
0.625
 43
3.75
 44
1.25
 73
     0
 74
     0
 77
     1
 78
     8
140
2.5
141
2.5
143
0.0393700787
147
0.625
171
     3
172
     1
178
     0
271
     2
272
     2
274
     3
278
    44
283
     0
284
     8
340
11
  0
ENDTAB
  0
TABLE
  2
BLOCK_RECORD
  5
1
330
0
100
AcDbSymbolTable
 70
     1
  0
BLOCK_RECORD
  5
1F
330
1
100
AcDbSymbolTableRecord
100
AcDbBlockTableRecord
  2
*Model_Space
340
22
  0
BLOCK_RECORD
  5
1B
330
1
100
AcDbSymbolTableRecord
100
AcDbBlockTableRecord
  2
*Paper_Space
340
1E
  0
BLOCK_RECORD
  5
23
330
1
100
AcDbSymbolTableRecord
100
AcDbBlockTableRecord
  2
*Paper_Space0
340
26
  0
ENDTAB
  0
ENDSEC
  0
SECTION
  2
BLOCKS
  0
BLOCK
  5
20
330
1F
100
AcDbEntity
  8
0
100
AcDbBlockBegin
  2
*Model_Space
 70
     0
 10
0.0
 20
0.0
 30
0.0
  3
*Model_Space
  1

  0
ENDBLK
  5
21
330
1F
100
AcDbEntity
  8
0
100
AcDbBlockEnd
  0
BLOCK
  5
1C
330
1B
100
AcDbEntity
 67
     1
  8
0
100
AcDbBlockBegin
  2
*Paper_Space
 70
     0
 10
0.0
 20
0.0
 30
0.0
  3
*Paper_Space
  1

  0
ENDBLK
  5
1D
330
1B
100
AcDbEntity
 67
     1
  8
0
100
AcDbBlockEnd
  0
BLOCK
  5
24
330
23
100
AcDbEntity
  8
0
100
AcDbBlockBegin
  2
*Paper_Space0
 70
     0
 10
0.0
 20
0.0
 30
0.0
  3
*Paper_Space0
  1

  0
ENDBLK
  5
25
330
23
100
AcDbEntity
  8
0
100
AcDbBlockEnd
  0
ENDSEC
  0
SECTION
  2
ENTITIES
  0
LINE
  5
73
330
1F
100
AcDbEntity
  8
0
  6
Continuous
 62
     7
370
    25
100
AcDbLine
 10
89.5403661281
 20
-8.1086510297
 30
0.0
 11
88.7257006509
 21
-8.1086510297
 31
0.0
  0
SPLINE
  5
74
330
1F
100
AcDbEntity
  8
0
  6
Continuous
 62
     7
370
    25
100
AcDbSpline
210
0.0
220
0.0
230
1.0
 70
     8
 71
     3
 72
    18
 73
    14
 74
     0
 42
0.00000001
 43
0.00000001
 40
0.0928020744176243
 40
0.0928020744176243
 40
0.0928020744176243
 40
0.0928020744176243
 40
0.1696073769823652
 40
0.2524962702573226
 40
0.3362721187854051
 40
0.4197766787978681
 40
0.5020301677617867
 40
0.5851025114122509
 40
0.6698193335995485
 40
0.7541646585335058
 40
0.8366448104063474
 40
0.9180029854907682
 40
1.0
 40
1.0
 40
1.0
 40
1.0
 10
89.5403661280932
 20
-8.108651029664493
 30
0.0
 10
89.55347068202207
 20
-8.213318789023846
 30
0.0
 10
89.59553052813258
 20
-8.429399672273027
 30
0.0
 10
89.7004662375168
 20
-8.747652910876845
 30
0.0
 10
89.8471670541025
 20
-9.059472700516912
 30
0.0
 10
90.03513266743091
 20
-9.34717771404971
 30
0.0
 10
90.2565908656812
 20
-9.608819123230507
 30
0.0
 10
90.51527977885105
 20
-9.836329502807871
 30
0.0
 10
90.80194167375814
 20
-10.03198787964982
 30
0.0
 10
91.11095614781911
 20
-10.18905780155898
 30
0.0
 10
91.43387851692651
 20
-10.30020592127424
 30
0.0
 10
91.76512020479859
 20
-10.37337456102191
 30
0.0
 10
91.98976325383566
 20
-10.38085868726409
 30
0.0
 10
92.10252403846151
 20
-10.38461538461539
 30
0.0
  0
SPLINE
  5
75
330
1F
100
AcDbEntity
  8
0
  6
Continuous
 62
     7
370
    25
100
AcDbSpline
210
0.0
220
0.0
230
1.0
 70
     8
 71
     3
 72
    18
 73
    14
 74
     0
 42
0.00000001
 43
0.00000001
 40
0.0
 40
0.0
 40
0.0
 40
0.0
 40
0.0815961672528935
 40
0.1628725050838383
 40
0.2450917893813273
 40
0.3304223696386525
 40
0.4161157649492909
 40
0.4998514098558199
 40
0.5830133118464943
 40
0.667130036856624
 40
0.751291146739252
 40
0.8337708989585909
 40
0.9089236931724901
 40
0.9089236931724901
 40
0.9089236931724901
 40
0.9089236931724901
 10
92.10252403846151
 20
-10.38461538461539
 30
0.0
 10
92.21460580639658
 20
-10.37980059240213
 30
0.0
 10
92.43833001958461
 20
-10.37018988033523
 30
0.0
 10
92.76954327569324
 20
-10.3018078946042
 30
0.0
 10
93.09174077660899
 20
-10.1855805486528
 30
0.0
 10
93.40323844989457
 20
-10.02872301853134
 30
0.0
 10
93.69270134997959
 20
-9.830761891939371
 30
0.0
 10
93.95603661393787
 20
-9.60346788935771
 30
0.0
 10
94.1809589061894
 20
-9.340567656209391
 30
0.0
 10
94.36937766020556
 20
-9.050290375949931
 30
0.0
 10
94.52148478563623
 20
-8.740126725984295
 30
0.0
 10
94.62423283482752
 20
-8.42358053542417
 30
0.0
 10
94.6685988596317
 20
-8.210900128824035
 30
0.0
 10
94.68227391374415
 20
-8.108651029662738
 30
0.0
  0
LINE
  5
76
330
1F
100
AcDbEntity
  8
0
  6
Continuous
 62
     7
370
    25
100
AcDbLine
 10
95.4993742664
 20
-8.1086510297
 30
0.0
 11
94.6822739137
 21
-8.1086510297
 31
0.0
  0
SPLINE
  5
77
330
1F
100
AcDbEntity
  8
0
  6
Continuous
 62
     7
370
    25
100
AcDbSpline
210
0.0
220
0.0
230
1.0
 70
     8
 71
     3
 72
    23
 73
    19
 74
     0
 42
0.00000001
 43
0.00000001
 40
0.0641494333893109
 40
0.0641494333893109
 40
0.0641494333893109
 40
0.0641494333893109
 40
0.0646199913407676
 40
0.1274334841444694
 40
0.1890041265579403
 40
0.2499300706860466
 40
0.3106684537406719
 40
0.3723289611368243
 40
0.4349391099970076
 40
0.4995755441940343
 40
0.5641912077719229
 40
0.6267352169294775
 40
0.6881093335614008
 40
0.7492936065367511
 40
0.8103305278109452
 40
0.8719011702244148
 40
0.9350459146845299
 40
0.9999999999999999
 40
0.9999999999999999
 40
0.9999999999999999
 40
0.9999999999999999
 10
95.49937426638532
 20
-8.10865102966149
 30
0.0
 10
95.49930275254113
 20
-8.109493340068664
 30
0.0
 10
95.48963715626336
 20
-8.2227699502652
 30
0.0
 10
95.45776626489102
 20
-8.445344617484732
 30
0.0
 10
95.38028752352565
 20
-8.769581830362998
 30
0.0
 10
95.2725423791183
 20
-9.081430731493322
 30
0.0
 10
95.12962026633429
 20
-9.378873391181006
 30
0.0
 10
94.95851419994224
 20
-9.664456496909816
 30
0.0
 10
94.75475206544901
 20
-9.936700562101821
 30
0.0
 10
94.52181142111306
 20
-10.19145594800886
 30
0.0
 10
94.26879573978377
 20
-10.42605252040405
 30
0.0
 10
93.99893576210486
 20
-10.63192436428966
 30
0.0
 10
93.71339840923801
 20
-10.80357514105901
 30
0.0
 10
93.41579887066699
 20
-10.94711249144914
 30
0.0
 10
93.1038462204367
 20
-11.05767452001103
 30
0.0
 10
92.77861921716293
 20
-11.1347495795314
 30
0.0
 10
92.44050239948905
 20
-11.18293929961881
 30
0.0
 10
92.2102579115289
 20
-11.18915562709441
 30
0.0
 10
92.09350961538459
 20
-11.1923076923077
 30
0.0
  0
SPLINE
  5
78
330
1F
100
AcDbEntity
  8
0
  6
Continuous
 62
     7
370
    25
100
AcDbSpline
210
0.0
220
0.0
230
1.0
 70
     8
 71
     3
 72
    22
 73
    18
 74
     0
 42
0.00000001
 43
0.00000001
 40
0.0
 40
0.0
 40
0.0
 40
0.0
 40
0.0637745323056322
 40
0.1260788099895051
 40
0.1869040927472057
 40
0.2475739349176186
 40
0.3080033561644461
 40
0.3691318984609779
 40
0.4320332277442047
 40
0.4967907944370912
 40
0.5616108232295643
 40
0.6249138657484625
 40
0.6867263492419248
 40
0.7480788332577714
 40
0.8095822911398957
 40
0.8716307425688271
 40
0.9309827479063214
 40
0.9309827479063214
 40
0.9309827479063214
 40
0.9309827479063214
 10
92.09350961538459
 20
-11.1923076923077
 30
0.0
 10
91.97917437763465
 20
-11.18908576588943
 30
0.0
 10
91.75313978052777
 20
-11.18271619117043
 30
0.0
 10
91.42070884284985
 20
-11.13526505443832
 30
0.0
 10
91.10051902953583
 20
-11.05547103217186
 30
0.0
 10
90.79360117553182
 20
-10.94349085245957
 30
0.0
 10
90.49958390372122
 20
-10.79989725398298
 30
0.0
 10
90.21825926796846
 20
-10.62522503021506
 30
0.0
 10
89.94885224592328
 20
-10.41946156670378
 30
0.0
 10
89.69769766267497
 20
-10.18224109151879
 30
0.0
 10
89.46570179741086
 20
-9.925265968243417
 30
0.0
 10
89.2640785377017
 20
-9.650357803032483
 30
0.0
 10
89.08994949788901
 20
-9.364355079636049
 30
0.0
 10
88.95198341595847
 20
-9.06282162400707
 30
0.0
 10
88.84036000427268
 20
-8.750220497342509
 30
0.0
 10
88.76474593628306
 20
-8.430589535590098
 30
0.0
 10
88.73507320533086
 20
-8.214619157339637
 30
0.0
 10
88.72570065086782
 20
-8.108651029661484
 30
0.0
  0
LINE
  5
79
330
1F
100
AcDbEntity
  8
0
  6
Continuous
 62
     7
370
    25
100
AcDbLine
 10
95.5112347926
 20
-7.6086510297
 30
0.0
 11
94.7026442762
 21
-7.6086510393
 31
0.0
  0
SPLINE
  5
7A
330
1F
100
AcDbEntity
  8
0
  6
Continuous
 62
     7
370
    25
100
AcDbSpline
210
0.0
220
0.0
230
1.0
 70
     8
 71
     3
 72
    19
 73
    15
 74
     0
 42
0.00000001
 43
0.00000001
 40
0.0304311454256825
 40
0.0304311454256825
 40
0.0304311454256825
 40
0.0304311454256825
 40
0.0848228516583609
 40
0.1687042390531336
 40
0.2527478017045668
 40
0.3384562437319052
 40
0.4233396935695005
 40
0.5058129796970067
 40
0.5861290243408124
 40
0.6674688148835285
 40
0.7488519083156234
 40
0.8304114859759791
 40
0.9134348225799793
 40
1.0
 40
1.0
 40
1.0
 40
1.0
 10
94.70264427615804
 20
-7.608651039281482
 30
0.0
 10
94.69915904721685
 20
-7.533788887922294
 30
0.0
 10
94.68704338683091
 20
-7.343768877546768
 30
0.0
 10
94.63047294690762
 20
-7.04158532150815
 30
0.0
 10
94.5201861586455
 20
-6.709331132960155
 30
0.0
 10
94.37197212347606
 20
-6.390636297094072
 30
0.0
 10
94.18736772781884
 20
-6.09403545108918
 30
0.0
 10
93.97124585027835
 20
-5.828734411415534
 30
0.0
 10
93.7216260992238
 20
-5.60174895559308
 30
0.0
 10
93.4441039572827
 20
-5.41276695409408
 30
0.0
 10
93.14179658383712
 20
-5.262894993356706
 30
0.0
 10
92.82026697497939
 20
-5.153310530660059
 30
0.0
 10
92.47886249382753
 20
-5.089239403732543
 30
0.0
 10
92.24522171246382
 20
-5.081085285202859
 30
0.0
 10
92.12596153846152
 20
-5.076923076923082
 30
0.0
  0
SPLINE
  5
7B
330
1F
100
AcDbEntity
  8
0
  6
Continuous
 62
     7
370
    25
100
AcDbSpline
210
0.0
220
0.0
230
1.0
 70
     8
 71
     3
 72
    23
 73
    19
 74
     0
 42
0.00000001
 43
0.00000001
 40
0.0
 40
0.0
 40
0.0
 40
0.0
 40
0.0656337996756894
 40
0.1291880880571266
 40
0.1912186831121871
 40
0.251912817881157
 40
0.3125074743865506
 40
0.3734944337751974
 40
0.4351515996540494
 40
0.4987414744066481
 40
0.5620952169966292
 40
0.6241865668116543
 40
0.685475718465195
 40
0.7460968148060523
 40
0.8076116364477842
 40
0.8699665806571895
 40
0.9339510189149068
 40
0.9714723444547708
 40
0.9714723444547708
 40
0.9714723444547708
 40
0.9714723444547708
 10
92.12596153846152
 20
-5.076923076923082
 30
0.0
 10
92.03509283144156
 20
-5.079390764735741
 30
0.0
 10
91.85623445996016
 20
-5.084247955268889
 30
0.0
 10
91.59362084334639
 20
-5.121355134061975
 30
0.0
 10
91.34230554786556
 20
-5.180382087692635
 30
0.0
 10
91.10202434742916
 20
-5.263557953449281
 30
0.0
 10
90.87410573640256
 20
-5.372821256232144
 30
0.0
 10
90.65691321014741
 20
-5.504601225654304
 30
0.0
 10
90.45157638085966
 20
-5.661215239254963
 30
0.0
 10
90.26092276977222
 20
-5.840142172083467
 30
0.0
 10
90.0870261525342
 20
-6.035995550057524
 30
0.0
 10
89.9318038192754
 20
-6.243238654540015
 30
0.0
 10
89.80428983223001
 20
-6.46432686100198
 30
0.0
 10
89.69875513409322
 20
-6.695542098790476
 30
0.0
 10
89.61477446292798
 20
-6.937285530264333
 30
0.0
 10
89.55874896466725
 20
-7.191524266940601
 30
0.0
 10
89.52598387168479
 20
-7.416404905935423
 30
0.0
 10
89.51955297296155
 20
-7.556723047118518
 30
0.0
 10
89.51799412787919
 20
-7.608651029679
 30
0.0
  0
LINE
  5
7C
330
1F
100
AcDbEntity
  8
0
  6
Continuous
 62
     7
370
    25
100
AcDbLine
 10
89.5179941276
 20
-7.6086510297
 30
0.0
 11
88.7115483849
 21
-7.6086510297
 31
0.0
  0
SPLINE
  5
7D
330
1F
100
AcDbEntity
  8
0
  6
Continuous
 62
     7
370
    25
100
AcDbSpline
210
0.0
220
0.0
230
1.0
 70
     8
 71
     3
 72
    15
 73
    11
 74
     0
 42
0.00000001
 43
0.00000001
 40
0.0417196836554124
 40
0.0417196836554124
 40
0.0417196836554124
 40
0.0417196836554124
 40
0.1298759972204455
 40
0.2546807008782875
 40
0.3760546726568541
 40
0.4953080925370531
 40
0.6151502400677074
 40
0.7381208964567354
 40
0.8656331872619918
 40
0.9999999999999999
 40
0.9999999999999999
 40
0.9999999999999999
 40
0.9999999999999999
 10
88.7115483849119
 20
-7.608651029663504
 30
0.0
 10
88.71467197828731
 20
-7.517586664903577
 30
0.0
 10
88.72533824915439
 20
-7.297827184051283
 30
0.0
 10
88.7789258707403
 20
-6.955494079999458
 30
0.0
 10
88.88106569666638
 20
-6.591396508855699
 30
0.0
 10
89.01904412358583
 20
-6.244386945271341
 30
0.0
 10
89.20623463067948
 20
-5.919241886175187
 30
0.0
 10
89.43576083767691
 20
-5.611913757917248
 30
0.0
 10
89.71711216820911
 20
-5.32894098879385
 30
0.0
 10
89.93052476788661
 20
-5.162382237963182
 30
0.0
 10
90.04002403846152
 20
-5.076923076923082
 30
0.0
  0
LINE
  5
7E
330
1F
100
AcDbEntity
  8
0
  6
Continuous
 62
     7
370
    25
100
AcDbLine
 10
90.0400240385
 20
-5.0769230769
 30
0.0
 11
88.8230769231
 21
-5.0769230769
 31
0.0
  0
LINE
  5
7F
330
1F
100
AcDbEntity
  8
0
  6
Continuous
 62
     7
370
    25
100
AcDbLine
 10
88.8230769231
 20
-5.0769230769
 30
0.0
 11
88.8230769231
 21
-4.2692307692
 31
0.0
  0
LINE
  5
80
330
1F
100
AcDbEntity
  8
0
  6
Continuous
 62
     7
370
    25
100
AcDbLine
 10
88.8230769231
 20
-4.2692307692
 30
0.0
 11
95.4
 21
-4.2692307692
 31
0.0
  0
LINE
  5
81
330
1F
100
AcDbEntity
  8
0
  6
Continuous
 62
     7
370
    25
100
AcDbLine
 10
95.4
 20
-4.2692307692
 30
0.0
 11
95.4
 21
-5.0769230769
 31
0.0
  0
LINE
  5
82
330
1F
100
AcDbEntity
  8
0
  6
Continuous
 62
     7
370
    25
100
AcDbLine
 10
95.4
 20
-5.0769230769
 30
0.0
 11
94.2623798077
 21
-5.0769230769
 31
0.0
  0
SPLINE
  5
83
330
1F
100
AcDbEntity
  8
0
  6
Continuous
 62
     7
370
    25
100
AcDbSpline
210
0.0
220
0.0
230
1.0
 70
     8
 71
     3
 72
    15
 73
    11
 74
     0
 42
0.00000001
 43
0.00000001
 40
0.0
 40
0.0
 40
0.0
 40
0.0
 40
0.134290706811985
 40
0.2624597290896142
 40
0.386304973326999
 40
0.5071927513398152
 40
0.6273215273298087
 40
0.7481593295869925
 40
0.872377468402038
 40
0.9496520580696298
 40
0.9496520580696298
 40
0.9496520580696298
 40
0.9496520580696298
 10
94.2623798076923
 20
-5.076923076923082
 30
0.0
 10
94.36516911482433
 20
-5.168142153196556
 30
0.0
 10
94.56606204586653
 20
-5.346422055171161
 30
0.0
 10
94.83092120658623
 20
-5.641377296452128
 30
0.0
 10
95.04538443889957
 20
-5.957916479573204
 30
0.0
 10
95.22111107226603
 20
-6.288096705476178
 30
0.0
 10
95.35257762697607
 20
-6.635152173815629
 30
0.0
 10
95.44618799326385
 20
-6.997268935294334
 30
0.0
 10
95.49820587530814
 20
-7.323790386813376
 30
0.0
 10
95.5085529656186
 20
-7.529615536852517
 30
0.0
 10
95.51123479260914
 20
-7.608651029676901
 30
0.0
  0
LINE
  5
84
330
1F
100
AcDbEntity
  8
0
  6
Continuous
 62
     7
370
    25
100
AcDbLine
 10
93.219290867
 20
10.293618045
 30
0.0
 11
93.1364876122
 21
9.4740948222
 31
0.0
  0
SPLINE
  5
85
330
1F
100
AcDbEntity
  8
0
  6
Continuous
 62
     7
370
    25
100
AcDbSpline
210
0.0
220
0.0
230
1.0
 70
     8
 71
     3
 72
    22
 73
    18
 74
     0
 42
0.00000001
 43
0.00000001
 40
0.1009709801651317
 40
0.1009709801651317
 40
0.1009709801651317
 40
0.1009709801651317
 40
0.1218543208715095
 40
0.1807411422529132
 40
0.239220172906273
 40
0.2982908476520746
 40
0.3586668844713206
 40
0.4203630901392507
 40
0.4847897502400841
 40
0.5499292216712867
 40
0.6137025569754182
 40
0.6766586109829371
 40
0.7393677017074046
 40
0.8022197328944127
 40
0.866753671772711
 40
0.9320565331884858
 40
1.0
 40
1.0
 40
1.0
 40
1.0
 10
93.2192908665575
 20
10.29361804754378
 30
0.0
 10
93.2395311053461
 20
10.29712791454602
 30
0.0
 10
93.31660332457452
 20
10.31203202469882
 30
0.0
 10
93.44821735024615
 20
10.34688824041565
 30
0.0
 10
93.60944031962168
 20
10.41149406650092
 30
0.0
 10
93.76611003129804
 20
10.49000301341246
 30
0.0
 10
93.91333583429191
 20
10.59077529105267
 30
0.0
 10
94.05588668258032
 20
10.70643258702165
 30
0.0
 10
94.18713919116547
 20
10.84147304573162
 30
0.0
 10
94.30898867048191
 20
10.98750523875746
 30
0.0
 10
94.41593434012809
 20
11.14319626502686
 30
0.0
 10
94.50636799486657
 20
11.30620193906905
 30
0.0
 10
94.58130226855576
 20
11.47605279021876
 30
0.0
 10
94.63646458234179
 20
11.6548483912387
 30
0.0
 10
94.67869433322946
 20
11.83968555312404
 30
0.0
 10
94.70178191380793
 20
12.03307735357473
 30
0.0
 10
94.70569631852868
 20
12.16400703990124
 30
0.0
 10
94.7076923076923
 20
12.23076923076922
 30
0.0
  0
SPLINE
  5
86
330
1F
100
AcDbEntity
  8
0
  6
Continuous
 62
     7
370
    25
100
AcDbSpline
210
0.0
220
0.0
230
1.0
 70
     8
 71
     3
 72
    23
 73
    19
 74
     0
 42
0.00000001
 43
0.00000001
 40
0.0
 40
0.0
 40
0.0
 40
0.0
 40
0.0679550917509015
 40
0.133269126305779
 40
0.1978141067626578
 40
0.2606768917584896
 40
0.3233967118350632
 40
0.3863635374494224
 40
0.4496444140175333
 40
0.5147950306322633
 40
0.5792327139565755
 40
0.6413292160061648
 40
0.7013770551684466
 40
0.7607388971833067
 40
0.8192279334371855
 40
0.8781248301909743
 40
0.938153979357732
 40
1.0
 40
1.0
 40
1.0
 40
1.0
 10
94.7076923076923
 20
12.23076923076922
 30
0.0
 10
94.70569616311269
 20
12.29753131212351
 30
0.0
 10
94.7017814536002
 20
12.42846078367888
 30
0.0
 10
94.6786960823169
 20
12.62185414090677
 30
0.0
 10
94.63645817218298
 20
12.8066855533891
 30
0.0
 10
94.58132549527475
 20
12.98550203799901
 30
0.0
 10
94.50628130581691
 20
13.15527543713589
 30
0.0
 10
94.416500275309
 20
13.31813862599799
 30
0.0
 10
94.30833293840014
 20
13.47235715513614
 30
0.0
 10
94.18734840434689
 20
13.61848438269612
 30
0.0
 10
94.0551366797971
 20
13.75296363419608
 30
0.0
 10
93.91462028838052
 20
13.87134106717496
 30
0.0
 10
93.76493200026445
 20
13.96896500068251
 30
0.0
 10
93.61005634138122
 20
14.05058677207926
 30
0.0
 10
93.44812105264181
 20
14.11447724916892
 30
0.0
 10
93.27937234845888
 20
14.15942073247205
 30
0.0
 10
93.10345426080885
 20
14.18734132797121
 30
0.0
 10
92.98363783937411
 20
14.19063586626238
 30
0.0
 10
92.92283653846152
 20
14.19230769230768
 30
0.0
  0
SPLINE
  5
87
330
1F
100
AcDbEntity
  8
0
  6
Continuous
 62
     7
370
    25
100
AcDbSpline
210
0.0
220
0.0
230
1.0
 70
     8
 71
     3
 72
    12
 73
     8
 74
     0
 42
0.00000001
 43
0.00000001
 40
0.0
 40
0.0
 40
0.0
 40
0.0
 40
0.0611412171779528
 40
0.1200003251182181
 40
0.1782349480506049
 40
0.2362691812577342
 40
0.2653984586309689
 40
0.2653984586309689
 40
0.2653984586309689
 40
0.2653984586309689
 10
92.92283653846152
 20
14.19230769230768
 30
0.0
 10
92.86139340712194
 20
14.19089265333909
 30
0.0
 10
92.74080052269224
 20
14.18811539203938
 30
0.0
 10
92.56417522449163
 20
14.15670295052976
 30
0.0
 10
92.39362467246275
 20
14.1131368548882
 30
0.0
 10
92.25781851505543
 20
14.0584624568793
 30
0.0
 10
92.1798144098675
 20
14.01864330885452
 30
0.0
 10
92.15414508707806
 20
14.00461086886873
 30
0.0
  0
LINE
  5
88
330
1F
100
AcDbEntity
  8
0
  6
Continuous
 62
     7
370
    25
100
AcDbLine
 10
91.6595764844
 20
14.7252679756
 30
0.0
 11
92.1541450871
 21
14.0046108689
 31
0.0
  0
SPLINE
  5
89
330
1F
100
AcDbEntity
  8
0
  6
Continuous
 62
     7
370
    25
100
AcDbSpline
210
0.0
220
0.0
230
1.0
 70
     8
 71
     3
 72
    12
 73
     8
 74
     0
 42
0.00000001
 43
0.00000001
 40
0.7013047266523973
 40
0.7013047266523973
 40
0.7013047266523973
 40
0.7013047266523973
 40
0.7476830982958168
 40
0.8085603823504786
 40
0.8707400017097263
 40
0.9343398838527697
 40
1.0
 40
1.0
 40
1.0
 40
1.0
 10
91.6595764844176
 20
14.72526797560434
 30
0.0
 10
91.71778527209912
 20
14.75427318379134
 30
0.0
 10
91.85522342473294
 20
14.81572259117283
 30
0.0
 10
92.07956760244772
 20
14.89482279959864
 30
0.0
 10
92.33442014038998
 20
14.95598914446207
 30
0.0
 10
92.60086184227181
 20
14.99255530650476
 30
0.0
 10
92.78209683435449
 20
14.99749220627645
 30
0.0
 10
92.87415865384614
 20
14.99999999999999
 30
0.0
  0
SPLINE
  5
8A
330
1F
100
AcDbEntity
  8
0
  6
Continuous
 62
     7
370
    25
100
AcDbSpline
210
0.0
220
0.0
230
1.0
 70
     8
 71
     3
 72
    19
 73
    15
 74
     0
 42
0.00000001
 43
0.00000001
 40
0.0
 40
0.0
 40
0.0
 40
0.0
 40
0.0859502599033707
 40
0.1691297707146052
 40
0.2504058567884861
 40
0.3319304435015744
 40
0.4133484749288627
 40
0.4941586485941851
 40
0.5760103068925035
 40
0.6607478248300817
 40
0.7457762734019603
 40
0.8300390117361302
 40
0.9140252284007341
 40
0.9999999999999999
 40
0.9999999999999999
 40
0.9999999999999999
 40
0.9999999999999999
 10
92.87415865384614
 20
14.99999999999999
 30
0.0
 10
93.00011117752311
 20
14.99634948092325
 30
0.0
 10
93.24795593650767
 20
14.98916612330301
 30
0.0
 10
93.60885727665456
 20
14.91728646021125
 30
0.0
 10
93.95247558373765
 20
14.80642622927521
 30
0.0
 10
94.27286500592089
 20
14.645433030581
 30
0.0
 10
94.57224459241978
 20
14.44925154607453
 30
0.0
 10
94.83664066123994
 20
14.20707165848151
 30
0.0
 10
95.07243981150228
 20
13.93090899164282
 30
0.0
 10
95.26953561648995
 20
13.61848079178297
 30
0.0
 10
95.43052064826314
 20
13.28229371048558
 30
0.0
 10
95.54614402871931
 20
12.92910044217851
 30
0.0
 10
95.61733049438438
 20
12.56234555845737
 30
0.0
 10
95.62625484680079
 20
12.31341933730013
 30
0.0
 10
95.63076923076922
 20
12.18749999999999
 30
0.0
  0
SPLINE
  5
8B
330
1F
100
AcDbEntity
  8
0
  6
Continuous
 62
     7
370
    25
100
AcDbSpline
210
0.0
220
0.0
230
1.0
 70
     8
 71
     3
 72
    19
 73
    15
 74
     0
 42
0.00000001
 43
0.00000001
 40
0.0
 40
0.0
 40
0.0
 40
0.0
 40
0.0843477440695393
 40
0.1670781128704509
 40
0.249604612598358
 40
0.3329741209629523
 40
0.4161613684367837
 40
0.4978114481482218
 40
0.5806859207771491
 40
0.664926458751436
 40
0.7494280084058383
 40
0.8324843719397186
 40
0.9156262555771806
 40
0.9427716157708275
 40
0.9427716157708275
 40
0.9427716157708275
 40
0.9427716157708275
 10
95.63076923076922
 20
12.18749999999999
 30
0.0
 10
95.62685072600655
 20
12.06638910111501
 30
0.0
 10
95.61908885414809
 20
11.82648961527858
 30
0.0
 10
95.54958454105291
 20
11.47367983864759
 30
0.0
 10
95.43773117041785
 20
11.13407232234394
 30
0.0
 10
95.28040196290964
 20
10.81202640068027
 30
0.0
 10
95.08503200279287
 20
10.51320435241601
 30
0.0
 10
94.85147184615253
 20
10.24372694630294
 30
0.0
 10
94.57939701805275
 20
10.0108163879466
 30
0.0
 10
94.27475931583872
 20
9.815241621755245
 30
0.0
 10
93.94786139649112
 20
9.659466362862531
 30
0.0
 10
93.60641221775158
 20
9.543739720778424
 30
0.0
 10
93.3328251554576
 20
9.491304927067272
 30
0.0
 10
93.17531554288574
 20
9.476980205000112
 30
0.0
 10
93.13648761221997
 20
9.474094822227437
 30
0.0
  0
SPLINE
  5
8C
330
1F
100
AcDbEntity
  8
0
  6
Continuous
 62
     7
370
    25
100
AcDbSpline
210
0.0
220
0.0
230
1.0
 70
     8
 71
     3
 72
    22
 73
    18
 74
     0
 42
0.00000001
 43
0.00000001
 40
0.0
 40
0.0
 40
0.0
 40
0.0
 40
0.0706035220300929
 40
0.1379091884941338
 40
0.203208379908485
 40
0.266995055686951
 40
0.3290661655424156
 40
0.3906170134553948
 40
0.452620242174243
 40
0.5157190082355102
 40
0.5779010364736383
 40
0.6389083646078121
 40
0.6983326330448374
 40
0.7572814867603931
 40
0.8163827597167325
 40
0.8762594915189976
 40
0.9287046636408984
 40
0.9287046636408984
 40
0.9287046636408984
 40
0.9287046636408984
 10
91.1307692307692
 20
12.16045673076922
 30
0.0
 10
91.1327505992011
 20
12.09188999319248
 30
0.0
 10
91.13662078732622
 20
11.95795923641143
 30
0.0
 10
91.15958446531951
 20
11.76157645574982
 30
0.0
 10
91.2013809759131
 20
11.57510994315898
 30
0.0
 10
91.25933548235416
 20
11.3985055756362
 30
0.0
 10
91.33078660415805
 20
11.23067388520595
 30
0.0
 10
91.42246466750754
 20
11.07494083200932
 30
0.0
 10
91.52924868858153
 20
10.92810178255635
 30
0.0
 10
91.65094548569978
 20
10.79250283999636
 30
0.0
 10
91.7840972712668
 20
10.66953075503976
 30
0.0
 10
91.92673772666504
 20
10.56363830283192
 30
0.0
 10
92.07540164381028
 20
10.47229450018094
 30
0.0
 10
92.23133837678228
 20
10.39802709459789
 30
0.0
 10
92.39448643527672
 20
10.34019543663798
 30
0.0
 10
92.55643544593819
 20
10.30025219569725
 30
0.0
 10
92.66468283048941
 20
10.28520745404384
 30
0.0
 10
92.71540416332157
 20
10.28034596596091
 30
0.0
  0
LINE
  5
8D
330
1F
100
AcDbEntity
  8
0
  6
Continuous
 62
     7
370
    25
100
AcDbLine
 10
92.7154041633
 20
10.280345966
 30
0.0
 11
92.6339459576
 21
9.4741349118
 31
0.0
  0
SPLINE
  5
8E
330
1F
100
AcDbEntity
  8
0
  6
Continuous
 62
     7
370
    25
100
AcDbSpline
210
0.0
220
0.0
230
1.0
 70
     8
 71
     3
 72
    19
 73
    15
 74
     0
 42
0.00000001
 43
0.00000001
 40
0.0903273129593461
 40
0.0903273129593461
 40
0.0903273129593461
 40
0.0903273129593461
 40
0.0978181896147143
 40
0.1997260534018264
 40
0.3052763574779413
 40
0.4158114905382913
 40
0.4744722311435615
 40
0.5372738797760965
 40
0.6036574205596538
 40
0.6742988630901255
 40
0.749834485316227
 40
0.8285984767571024
 40
0.9123777781577805
 40
1.0
 40
1.0
 40
1.0
 40
1.0
 10
92.63394595757941
 20
9.474134911814863
 30
0.0
 10
92.62687512943019
 20
9.474714242183493
 30
0.0
 10
92.52364362892015
 20
9.483594814559135
 30
0.0
 10
92.32182951013904
 20
9.51409105663053
 30
0.0
 10
92.02855529998492
 20
9.583686243216174
 30
0.0
 10
91.77975880216604
 20
9.661626876693902
 30
0.0
 10
91.57594345998429
 20
9.743978445381284
 30
0.0
 10
91.41162019837908
 20
9.812513547177943
 30
0.0
 10
91.2425202957755
 20
9.897818108424952
 30
0.0
 10
91.06284523182603
 20
9.98877823149787
 30
0.0
 10
90.8772255477698
 20
10.0935816087064
 30
0.0
 10
90.68255896915493
 20
10.20753613570499
 30
0.0
 10
90.48194144088133
 20
10.33379238089065
 30
0.0
 10
90.3457992245322
 20
10.42230137080907
 30
0.0
 10
90.27620192307691
 20
10.46754807692307
 30
0.0
  0
LINE
  5
8F
330
1F
100
AcDbEntity
  8
0
  6
Continuous
 62
     7
370
    25
100
AcDbLine
 10
90.2762019231
 20
10.4675480769
 30
0.0
 11
86.1692307692
 21
13.1538461538
 31
0.0
  0
LINE
  5
90
330
1F
100
AcDbEntity
  8
0
  6
Continuous
 62
     7
370
    25
100
AcDbLine
 10
86.1692307692
 20
13.1538461538
 30
0.0
 11
86.6578125
 21
13.7758413462
 31
0.0
  0
LINE
  5
91
330
1F
100
AcDbEntity
  8
0
  6
Continuous
 62
     7
370
    25
100
AcDbLine
 10
86.6578125
 20
13.7758413462
 30
0.0
 11
90.2942307692
 21
11.3978365385
 31
0.0
  0
SPLINE
  5
92
330
1F
100
AcDbEntity
  8
0
  6
Continuous
 62
     7
370
    25
100
AcDbSpline
210
0.0
220
0.0
230
1.0
 70
     8
 71
     3
 72
     9
 73
     5
 74
     0
 42
0.00000001
 43
0.00000001
 40
0.0
 40
0.0
 40
0.0
 40
0.0
 40
0.5126593363417808
 40
0.9999999999999999
 40
0.9999999999999999
 40
0.9999999999999999
 40
0.9999999999999999
 10
90.29423076923075
 20
11.39783653846153
 30
0.0
 10
90.26899512755006
 20
11.55616010784724
 30
0.0
 10
90.2197701551527
 20
11.8649881309853
 30
0.0
 10
90.21164972399964
 20
12.1775861557623
 30
0.0
 10
90.20769230769231
 20
12.32992788461538
 30
0.0
  0
SPLINE
  5
93
330
1F
100
AcDbEntity
  8
0
  6
Continuous
 62
     7
370
    25
100
AcDbSpline
210
0.0
220
0.0
230
1.0
 70
     8
 71
     3
 72
    17
 73
    13
 74
     0
 42
0.00000001
 43
0.00000001
 40
0.0
 40
0.0
 40
0.0
 40
0.0
 40
0.065231864431669
 40
0.1284069839392138
 40
0.1900701621942034
 40
0.2509474462488653
 40
0.3115508987630051
 40
0.3728688651161756
 40
0.4350307475864009
 40
0.4990798398946163
 40
0.5631002312279596
 40
0.5821869015837053
 40
0.5821869015837053
 40
0.5821869015837053
 40
0.5821869015837053
 10
90.2076923076923
 20
12.32992788461537
 30
0.0
 10
90.21015088054116
 20
12.421400018236
 30
0.0
 10
90.21499050803104
 20
12.60146019120581
 30
0.0
 10
90.25223469671234
 20
12.86582053697538
 30
0.0
 10
90.31092783729677
 20
13.11984923931009
 30
0.0
 10
90.39648508287543
 20
13.36249334905032
 30
0.0
 10
90.50577679169976
 20
13.59462400802923
 30
0.0
 10
90.63676268371728
 20
13.81757251811933
 30
0.0
 10
90.79620499786608
 20
14.02715106284099
 30
0.0
 10
90.97431821177422
 20
14.22604659448521
 30
0.0
 10
91.12670455318782
 20
14.36557210880835
 30
0.0
 10
91.21715697510824
 20
14.43909898465624
 30
0.0
 10
91.2381669338468
 20
14.45568377248038
 30
0.0
  0
LINE
  5
94
330
1F
100
AcDbEntity
  8
0
  6
Continuous
 62
     7
370
    25
100
AcDbLine
 10
91.2381669338
 20
14.4556837725
 30
0.0
 11
91.7538786203
 21
13.7042181722
 31
0.0
  0
SPLINE
  5
95
330
1F
100
AcDbEntity
  8
0
  6
Continuous
 62
     7
370
    25
100
AcDbSpline
210
0.0
220
0.0
230
1.0
 70
     8
 71
     3
 72
    16
 73
    12
 74
     0
 42
0.00000001
 43
0.00000001
 40
0.4320385302488925
 40
0.4320385302488925
 40
0.4320385302488925
 40
0.4320385302488925
 40
0.4806903707558233
 40
0.5458612524020318
 40
0.6097910404915275
 40
0.6730075778908181
 40
0.7358259506650142
 40
0.7998285868515265
 40
0.864768052732373
 40
0.9310839010856699
 40
1.0
 40
1.0
 40
1.0
 40
1.0
 10
91.75387862032606
 20
13.70421817216719
 30
0.0
 10
91.71915128194864
 20
13.66986554352798
 30
0.0
 10
91.64107908322241
 20
13.58625662038119
 30
0.0
 10
91.52938062427695
 20
13.44684121280072
 30
0.0
 10
91.42261152807332
 20
13.28573014103521
 30
0.0
 10
91.33147298979912
 20
13.11785061499924
 30
0.0
 10
91.25955746836081
 20
12.94083780606143
 30
0.0
 10
91.20162150656684
 20
12.75707340668024
 30
0.0
 10
91.15973348624456
 20
12.56528849792673
 30
0.0
 10
91.13668064806305
 20
12.36534667653428
 30
0.0
 10
91.13276480127094
 20
12.22962327942339
 30
0.0
 10
91.1307692307692
 20
12.16045673076922
 30
0.0
  0
LINE
  5
96
330
1F
100
AcDbEntity
  8
0
  6
Continuous
 62
     7
370
    25
100
AcDbLine
 10
86.1730014745
 20
18.8000199083
 30
0.0
 11
87.0941858183
 21
18.8000199083
 31
0.0
  0
SPLINE
  5
97
330
1F
100
AcDbEntity
  8
0
  6
Continuous
 62
     7
370
    25
100
AcDbSpline
210
0.0
220
0.0
230
1.0
 70
     8
 71
     3
 72
    23
 73
    19
 74
     0
 42
0.00000001
 43
0.00000001
 40
0.0206262074197548
 40
0.0206262074197548
 40
0.0206262074197548
 40
0.0206262074197548
 40
0.0686942494126013
 40
0.1347775516001005
 40
0.1994865078476898
 40
0.2632675172251489
 40
0.3264318843358036
 40
0.3899966091036066
 40
0.4537776184810647
 40
0.518838453741135
 40
0.5835474099887255
 40
0.6450577974152233
 40
0.7048351491014302
 40
0.7635481304817902
 40
0.8219020076899275
 40
0.8800349939988231
 40
0.939123299281351
 40
1.0
 40
1.0
 40
1.0
 40
1.0
 10
87.09418581827421
 20
18.80001990826571
 30
0.0
 10
87.09577232380543
 20
18.75205201727879
 30
0.0
 10
87.10059882632642
 20
18.63819810449169
 30
0.0
 10
87.12128361445416
 20
18.46054235982113
 30
0.0
 10
87.1631157200557
 20
18.27053300058924
 30
0.0
 10
87.22143863504107
 20
18.08811353318925
 30
0.0
 10
87.29303918602953
 20
17.91162680846691
 30
0.0
 10
87.38367075114071
 20
17.74399826145125
 30
0.0
 10
87.4910321924809
 20
17.5844322142758
 30
0.0
 10
87.61270238816263
 20
17.43400635939385
 30
0.0
 10
87.74596738804671
 20
17.29686374736627
 30
0.0
 10
87.88768831547478
 20
17.17642995428156
 30
0.0
 10
88.03624702013506
 20
17.07474741136193
 30
0.0
 10
88.19214986583036
 20
16.99113213833381
 30
0.0
 10
88.35495502024342
 20
16.92631044720715
 30
0.0
 10
88.52393211016306
 20
16.87851455032577
 30
0.0
 10
88.70018901634631
 20
16.8512638603032
 30
0.0
 10
88.81998055614028
 20
16.84787402900148
 30
0.0
 10
88.88076923076923
 20
16.84615384615383
 30
0.0
  0
SPLINE
  5
98
330
1F
100
AcDbEntity
  8
0
  6
Continuous
 62
     7
370
    25
100
AcDbSpline
210
0.0
220
0.0
230
1.0
 70
     8
 71
     3
 72
    11
 73
     7
 74
     0
 42
0.00000001
 43
0.00000001
 40
0.0
 40
0.0
 40
0.0
 40
0.0
 40
0.0595545584719112
 40
0.117452489448943
 40
0.1744843092114458
 40
0.2112379194265509
 40
0.2112379194265509
 40
0.2112379194265509
 40
0.2112379194265509
 10
88.88076923076922
 20
16.84615384615383
 30
0.0
 10
88.94157800091025
 20
16.84771363427569
 30
0.0
 10
89.06150402532631
 20
16.85078982193663
 30
0.0
 10
89.23772747982076
 20
16.88040833137444
 30
0.0
 10
89.38644073419125
 20
16.92414526912435
 30
0.0
 10
89.47592023168552
 20
16.95848885387074
 30
0.0
 10
89.51040180426185
 20
16.97328437263117
 30
0.0
  0
LINE
  5
99
330
1F
100
AcDbEntity
  8
0
  6
Continuous
 62
     7
370
    25
100
AcDbLine
 10
89.5104018043
 20
16.9732843726
 30
0.0
 11
90.003047673
 21
16.2554289811
 31
0.0
  0
SPLINE
  5
9A
330
1F
100
AcDbEntity
  8
0
  6
Continuous
 62
     7
370
    25
100
AcDbSpline
210
0.0
220
0.0
230
1.0
 70
     8
 71
     3
 72
    12
 73
     8
 74
     0
 42
0.00000001
 43
0.00000001
 40
0.7411443417329258
 40
0.7411443417329258
 40
0.7411443417329258
 40
0.7411443417329258
 40
0.751029132269983
 40
0.8114692303282788
 40
0.8727528247620502
 40
0.9353919320704353
 40
1.0
 40
1.0
 40
1.0
 40
1.0
 10
90.003047673048
 20
16.25542898107317
 30
0.0
 10
89.99019022266599
 20
16.24968111162543
 30
0.0
 10
89.89831094141988
 20
16.20970907069532
 30
0.0
 10
89.72082986391753
 20
16.14792592256363
 30
0.0
 10
89.4657323848945
 20
16.0842387449133
 30
0.0
 10
89.1992614047334
 20
16.04545867053227
 30
0.0
 10
89.01791671207225
 20
16.04081785240257
 30
0.0
 10
88.92584134615383
 20
16.03846153846152
 30
0.0
  0
SPLINE
  5
9B
330
1F
100
AcDbEntity
  8
0
  6
Continuous
 62
     7
370
    25
100
AcDbSpline
210
0.0
220
0.0
230
1.0
 70
     8
 71
     3
 72
    19
 73
    15
 74
     0
 42
0.00000001
 43
0.00000001
 40
0.0
 40
0.0
 40
0.0
 40
0.0
 40
0.0852509209904119
 40
0.1673302640104402
 40
0.2481807684308643
 40
0.329200218208602
 40
0.4099461068796867
 40
0.4906242307199385
 40
0.5730350744520017
 40
0.658308350221621
 40
0.7442669205444987
 40
0.8289815135743541
 40
0.9139364100040852
 40
0.9767043119560992
 40
0.9767043119560992
 40
0.9767043119560992
 40
0.9767043119560992
 10
88.92584134615383
 20
16.03846153846152
 30
0.0
 10
88.7999268082059
 20
16.04293047757858
 30
0.0
 10
88.55278211307757
 20
16.05170209850205
 30
0.0
 10
88.19159761904257
 20
16.12202786267222
 30
0.0
 10
87.84989321377226
 20
16.23854467340845
 30
0.0
 10
87.52805099803781
 20
16.39845794374202
 30
0.0
 10
87.23346368839782
 20
16.6037356275588
 30
0.0
 10
86.9671293639187
 20
16.84751808676057
 30
0.0
 10
86.73379903949986
 20
17.13177564127594
 30
0.0
 10
86.53345749453402
 20
17.44908679509838
 30
0.0
 10
86.37123314924536
 20
17.79154161873408
 30
0.0
 10
86.25597966355947
 20
18.15168588453085
 30
0.0
 10
86.1890599715443
 20
18.48958709941039
 30
0.0
 10
86.17675352113196
 20
18.70734623620067
 30
0.0
 10
86.17300147453894
 20
18.80001990827605
 30
0.0
  0
SPLINE
  5
9C
330
1F
100
AcDbEntity
  8
0
  6
Continuous
 62
     7
370
    25
100
AcDbSpline
210
0.0
220
0.0
230
1.0
 70
     8
 71
     3
 72
    21
 73
    17
 74
     0
 42
0.00000001
 43
0.00000001
 40
0.0
 40
0.0
 40
0.0
 40
0.0
 40
0.0607444003473579
 40
0.1197042918913692
 40
0.1777109406099854
 40
0.2359380001764013
 40
0.294523383491417
 40
0.3541708239680886
 40
0.4159372497787731
 40
0.4805055772006165
 40
0.5454250189134051
 40
0.6090674161268932
 40
0.6724939987715435
 40
0.7355210938368596
 40
0.7991634910503476
 40
0.8532996212064654
 40
0.8532996212064654
 40
0.8532996212064654
 40
0.8532996212064654
 10
88.88076923076923
 20
20.88461538461537
 30
0.0
 10
88.81998068799054
 20
20.88289504737537
 30
0.0
 10
88.70018940802363
 20
20.87950491182459
 30
0.0
 10
88.52393060716176
 20
20.852256440409
 30
0.0
 10
88.35496056915134
 20
20.80445228597158
 30
0.0
 10
88.19212899526703
 20
20.73966153118525
 30
0.0
 10
88.03632604061526
 20
20.65592928899876
 30
0.0
 10
87.8870606460246
 20
20.55447617471651
 30
0.0
 10
87.74659217764359
 20
20.43196938683393
 30
0.0
 10
87.61260560895258
 20
20.29507350933218
 30
0.0
 10
87.49105711906954
 20
20.14450442013365
 30
0.0
 10
87.38366596858049
 20
19.98497553878369
 30
0.0
 10
87.29303370832375
 20
19.81733908781411
 30
0.0
 10
87.22146520202556
 20
19.64084724652819
 30
0.0
 10
87.1662017624985
 20
19.46840605798356
 30
0.0
 10
87.14023669577398
 20
19.35331607647936
 30
0.0
 10
87.13046060350266
 20
19.30001990859019
 30
0.0
  0
LINE
  5
9D
330
1F
100
AcDbEntity
  8
0
  6
Continuous
 62
     7
370
    25
100
AcDbLine
 10
86.1954524094
 20
19.3000199083
 30
0.0
 11
87.1304606052
 21
19.3000199083
 31
0.0
  0
SPLINE
  5
9E
330
1F
100
AcDbEntity
  8
0
  6
Continuous
 62
     7
370
    25
100
AcDbSpline
210
0.0
220
0.0
230
1.0
 70
     8
 71
     3
 72
    18
 73
    14
 74
     0
 42
0.00000001
 43
0.00000001
 40
0.0909607790318066
 40
0.0909607790318066
 40
0.0909607790318066
 40
0.0909607790318066
 40
0.1689989257467532
 40
0.2519366043672965
 40
0.335673157426428
 40
0.4193975247149807
 40
0.5012516785727568
 40
0.5836875475485915
 40
0.6676380780878696
 40
0.7519252025359062
 40
0.8346020734294786
 40
0.9165278702569879
 40
1.0
 40
1.0
 40
1.0
 40
1.0
 10
86.19545240943434
 20
19.30001990827251
 30
0.0
 10
86.20932502462391
 20
19.4128973528244
 30
0.0
 10
86.25382916863927
 20
19.64411459335258
 30
0.0
 10
86.36611853256905
 20
19.98356996507421
 30
0.0
 10
86.52473071700011
 20
20.31335125148003
 30
0.0
 10
86.72357545129977
 20
20.61864975434845
 30
0.0
 10
86.96042127437397
 20
20.8933310960714
 30
0.0
 10
87.23546597026565
 20
21.13010623812211
 30
0.0
 10
87.54115412092553
 20
21.33197550960264
 30
0.0
 10
87.87162234252423
 20
21.49100185849419
 30
0.0
 10
88.21591532497759
 20
21.60752779439428
 30
0.0
 10
88.57196212099869
 20
21.67875593290121
 30
0.0
 10
88.81313961688664
 20
21.68776237160425
 30
0.0
 10
88.93485576923075
 20
21.69230769230768
 30
0.0
  0
SPLINE
  5
9F
330
1F
100
AcDbEntity
  8
0
  6
Continuous
 62
     7
370
    25
100
AcDbSpline
210
0.0
220
0.0
230
1.0
 70
     8
 71
     3
 72
    19
 73
    15
 74
     0
 42
0.00000001
 43
0.00000001
 40
0.0
 40
0.0
 40
0.0
 40
0.0
 40
0.0983245088581586
 40
0.199426671512931
 40
0.3050089432614296
 40
0.415573801435508
 40
0.4739965209392892
 40
0.5369942764771822
 40
0.6032870609501406
 40
0.6740745755125429
 40
0.749405428958701
 40
0.8282455593131731
 40
0.9120501031722217
 40
0.9999999999999999
 40
0.9999999999999999
 40
0.9999999999999999
 40
0.9999999999999999
 10
88.93485576923075
 20
21.69230769230768
 30
0.0
 10
89.02933626777478
 20
21.68926400177326
 30
0.0
 10
89.22096632589897
 20
21.68309063686717
 30
0.0
 10
89.51160585442561
 20
21.64035287862229
 30
0.0
 10
89.80770835070057
 20
21.56663307588702
 30
0.0
 10
90.05857467025633
 20
21.48426139859712
 30
0.0
 10
90.26640390813307
 20
21.4035232812606
 30
0.0
 10
90.43105581586791
 20
21.32971673860717
 30
0.0
 10
90.60315518773467
 20
21.24398024140909
 30
0.0
 10
90.7834067580039
 20
21.14822824298113
 30
0.0
 10
90.97204570428808
 20
21.04264214636061
 30
0.0
 10
91.16776366536668
 20
20.92435163815433
 30
0.0
 10
91.37084599071933
 20
20.79495221383326
 30
0.0
 10
91.50777016965398
 20
20.70282460749119
 30
0.0
 10
91.5778846153846
 20
20.65564903846152
 30
0.0
  0
LINE
  5
A0
330
1F
100
AcDbEntity
  8
0
  6
Continuous
 62
     7
370
    25
100
AcDbLine
 10
91.5778846154
 20
20.6556490385
 30
0.0
 11
95.6307692308
 21
17.8846153846
 31
0.0
  0
LINE
  5
A1
330
1F
100
AcDbEntity
  8
0
  6
Continuous
 62
     7
370
    25
100
AcDbLine
 10
95.6307692308
 20
17.8846153846
 30
0.0
 11
95.1818509615
 21
17.2391826923
 31
0.0
  0
LINE
  5
A2
330
1F
100
AcDbEntity
  8
0
  6
Continuous
 62
     7
370
    25
100
AcDbLine
 10
95.1818509615
 20
17.2391826923
 30
0.0
 11
91.5237980769
 21
19.7415865385
 31
0.0
  0
SPLINE
  5
A3
330
1F
100
AcDbEntity
  8
0
  6
Continuous
 62
     7
370
    25
100
AcDbSpline
210
0.0
220
0.0
230
1.0
 70
     8
 71
     3
 72
     9
 73
     5
 74
     0
 42
0.00000001
 43
0.00000001
 40
0.0
 40
0.0
 40
0.0
 40
0.0
 40
0.5079925144248065
 40
1.0
 40
1.0
 40
1.0
 40
1.0
 10
91.52379807692307
 20
19.74158653846152
 30
0.0
 10
91.54423416794847
 20
19.58194672024435
 30
0.0
 10
91.58446328638063
 20
19.26769047889416
 30
0.0
 10
91.58972090472564
 20
18.95092372800393
 30
0.0
 10
91.59230769230768
 20
18.7950721153846
 30
0.0
  0
SPLINE
  5
A4
330
1F
100
AcDbEntity
  8
0
  6
Continuous
 62
     7
370
    25
100
AcDbSpline
210
0.0
220
0.0
230
1.0
 70
     8
 71
     3
 72
    17
 73
    13
 74
     0
 42
0.00000001
 43
0.00000001
 40
0.0
 40
0.0
 40
0.0
 40
0.0
 40
0.0662936843405447
 40
0.1301287051187805
 40
0.1928586513869661
 40
0.2543552908492361
 40
0.3159039921922567
 40
0.3773311471755274
 40
0.4401971057734578
 40
0.504165789278632
 40
0.568023106606894
 40
0.623652050132914
 40
0.623652050132914
 40
0.623652050132914
 40
0.623652050132914
 10
91.59230769230768
 20
18.7950721153846
 30
0.0
 10
91.5898877813117
 20
18.70059256408772
 30
0.0
 10
91.58513770764267
 20
18.51513746692779
 30
0.0
 10
91.5474873447683
 20
18.24248464322197
 30
0.0
 10
91.48950129702787
 20
17.98049321229106
 30
0.0
 10
91.4029759448021
 20
17.72985768717194
 30
0.0
 10
91.29544334072169
 20
17.48963624635641
 30
0.0
 10
91.16209698422372
 20
17.26035244589232
 30
0.0
 10
91.0052227035156
 20
17.04231821883713
 30
0.0
 10
90.82565581096549
 20
16.83786273102509
 30
0.0
 10
90.63528168362045
 20
16.65836963582939
 30
0.0
 10
90.50224072669876
 20
16.55170904152754
 30
0.0
 10
90.43790064582898
 20
16.50542419754587
 30
0.0
  0
LINE
  5
A5
330
1F
100
AcDbEntity
  8
0
  6
Continuous
 62
     7
370
    25
100
AcDbLine
 10
89.931206375
 20
17.243750135
 30
0.0
 11
90.4379006458
 21
16.5054241975
 31
0.0
  0
SPLINE
  5
A6
330
1F
100
AcDbEntity
  8
0
  6
Continuous
 62
     7
370
    25
100
AcDbSpline
210
0.0
220
0.0
230
1.0
 70
     8
 71
     3
 72
    17
 73
    13
 74
     0
 42
0.00000001
 43
0.00000001
 40
0.3751896024418552
 40
0.3751896024418552
 40
0.3751896024418552
 40
0.3751896024418552
 40
0.4105475713490255
 40
0.4747272014139079
 40
0.5397577476420269
 40
0.6041235506948182
 40
0.6683922873003795
 40
0.7320428323550283
 40
0.7966882308896768
 40
0.8628712533349654
 40
0.9304441516162866
 40
1.0
 40
1.0
 40
1.0
 40
1.0
 10
89.9312063752455
 20
17.24375013474639
 30
0.0
 10
89.95860158620219
 20
17.26726115803728
 30
0.0
 10
90.03381642040311
 20
17.33562415772797
 30
0.0
 10
90.14690722161026
 20
17.46014750238526
 30
0.0
 10
90.26942018870426
 20
17.61532695595685
 30
0.0
 10
90.37626633671827
 20
17.78200621640363
 30
0.0
 10
90.46586011513114
 20
17.95683577634738
 30
0.0
 10
90.54099565453916
 20
18.13869310895087
 30
0.0
 10
90.59848064040514
 20
18.32893899904437
 30
0.0
 10
90.64027019618605
 20
18.52730852759954
 30
0.0
 10
90.66323574705666
 20
18.73383742183968
 30
0.0
 10
90.66721325625015
 20
18.87374578467451
 30
0.0
 10
90.66923076923075
 20
18.94471153846152
 30
0.0
  0
SPLINE
  5
A7
330
1F
100
AcDbEntity
  8
0
  6
Continuous
 62
     7
370
    25
100
AcDbSpline
210
0.0
220
0.0
230
1.0
 70
     8
 71
     3
 72
    23
 73
    19
 74
     0
 42
0.00000001
 43
0.00000001
 40
0.0
 40
0.0
 40
0.0
 40
0.0
 40
0.0727329198987668
 40
0.1415862688361225
 40
0.2084196140601615
 40
0.2725362381327691
 40
0.3357213363127385
 40
0.3980597494831433
 40
0.459748723832651
 40
0.5224807065591142
 40
0.5842663248129342
 40
0.6448451240948532
 40
0.7038143552387259
 40
0.7614435286618486
 40
0.8199811634634986
 40
0.8784837505557715
 40
0.9382475860283666
 40
1.0
 40
1.0
 40
1.0
 40
1.0
 10
90.66923076923077
 20
18.94471153846153
 30
0.0
 10
90.66727144579188
 20
19.01628299894152
 30
0.0
 10
90.66345730914593
 20
19.15560830113783
 30
0.0
 10
90.64034686966629
 20
19.35974519239512
 30
0.0
 10
90.5990686264711
 20
19.55232160866182
 30
0.0
 10
90.54077798259841
 20
19.73457698636495
 30
0.0
 10
90.46693537514533
 20
19.90629068494336
 30
0.0
 10
90.37694607187905
 20
20.06751679272317
 30
0.0
 10
90.26883859290777
 20
20.21660845623316
 30
0.0
 10
90.14732362494412
 20
20.35409646664941
 30
0.0
 10
90.01414804532946
 20
20.47887101855318
 30
0.0
 10
89.87146278034177
 20
20.58645543873212
 30
0.0
 10
89.72370056636014
 20
20.67960407803745
 30
0.0
 10
89.5678364958487
 20
20.7539158657444
 30
0.0
 10
89.40642032773175
 20
20.81380356205538
 30
0.0
 10
89.23711767148964
 20
20.85559110303007
 30
0.0
 10
89.06109746122596
 20
20.87867093547062
 30
0.0
 10
88.94153086524828
 20
20.88261240124889
 30
0.0
 10
88.88076923076922
 20
20.88461538461537
 30
0.0
  0
LINE
  5
A8
330
1F
100
AcDbEntity
  8
0
  6
Continuous
 62
     7
370
    25
100
AcDbLine
 10
92.3786460992
 20
1.9735597329
 30
0.0
 11
92.2962917298
 21
1.1584792209
 31
0.0
  0
SPLINE
  5
A9
330
1F
100
AcDbEntity
  8
0
  6
Continuous
 62
     7
370
    25
100
AcDbSpline
210
0.0
220
0.0
230
1.0
 70
     8
 71
     3
 72
    19
 73
    15
 74
     0
 42
0.00000001
 43
0.00000001
 40
0.059882201228996
 40
0.059882201228996
 40
0.059882201228996
 40
0.059882201228996
 40
0.0847327446980166
 40
0.1681786536463141
 40
0.2514881976122818
 40
0.3358406713894914
 40
0.4198344941507985
 40
0.5023448759880107
 40
0.5836490197324398
 40
0.6659310052762734
 40
0.7487165252643919
 40
0.8310473361373638
 40
0.9144098067945614
 40
1.0
 40
1.0
 40
1.0
 40
1.0
 10
92.37864609915776
 20
1.973559732898487
 30
0.0
 10
92.41226719488604
 20
1.976124866476007
 30
0.0
 10
92.55855208835531
 20
1.989751000591429
 30
0.0
 10
92.81482967520358
 20
2.040561816017123
 30
0.0
 10
93.1377544377946
 20
2.152126535714653
 30
0.0
 10
93.44533943047522
 20
2.302779540681183
 30
0.0
 10
93.72992528828898
 20
2.491538388716934
 30
0.0
 10
93.9836519623416
 20
2.713933703027483
 30
0.0
 10
94.20270119177795
 20
2.967578646817846
 30
0.0
 10
94.3844519375015
 20
3.249449647317658
 30
0.0
 10
94.5288627378603
 20
3.553789321947804
 30
0.0
 10
94.63120296113175
 20
3.875877004798474
 30
0.0
 10
94.69773017015325
 20
4.211810218058874
 30
0.0
 10
94.70434253278002
 20
4.441389241014189
 30
0.0
 10
94.7076923076923
 20
4.557692307692304
 30
0.0
  0
SPLINE
  5
AA
330
1F
100
AcDbEntity
  8
0
  6
Continuous
 62
     7
370
    25
100
AcDbSpline
210
0.0
220
0.0
230
1.0
 70
     8
 71
     3
 72
    17
 73
    13
 74
     0
 42
0.00000001
 43
0.00000001
 40
0.0
 40
0.0
 40
0.0
 40
0.0
 40
0.0856056949735269
 40
0.1689832639222341
 40
0.2509075823297899
 40
0.3337080961143221
 40
0.4160049842563386
 40
0.4976595675743789
 40
0.5798932856419631
 40
0.6639023210428556
 40
0.7484662538082572
 40
0.8118325203837728
 40
0.8118325203837728
 40
0.8118325203837728
 40
0.8118325203837728
 10
94.7076923076923
 20
4.557692307692304
 30
0.0
 10
94.70432301557676
 20
4.673988684949192
 30
0.0
 10
94.6976721265329
 20
4.903554503172824
 30
0.0
 10
94.63153801866243
 20
5.239020957888608
 30
0.0
 10
94.52841431970825
 20
5.560228314122221
 30
0.0
 10
94.38461435145437
 20
5.864251882022696
 30
0.0
 10
94.20201099918937
 20
6.145994576566926
 30
0.0
 10
93.98488888671461
 20
6.401463745683221
 30
0.0
 10
93.72925326895121
 20
6.621960174313622
 30
0.0
 10
93.44496248055557
 20
6.810532301220276
 30
0.0
 10
93.16253423392794
 20
6.951520468074286
 30
0.0
 10
92.97338040475196
 20
7.019794504833494
 30
0.0
 10
92.89104239876735
 20
7.044866009168855
 30
0.0
  0
LINE
  5
AB
330
1F
100
AcDbEntity
  8
0
  6
Continuous
 62
     7
370
    25
100
AcDbLine
 10
92.9735343077
 20
7.8613077687
 30
0.0
 11
92.8910423988
 21
7.0448660092
 31
0.0
  0
SPLINE
  5
AC
330
1F
100
AcDbEntity
  8
0
  6
Continuous
 62
     7
370
    25
100
AcDbSpline
210
0.0
220
0.0
230
1.0
 70
     8
 71
     3
 72
    21
 73
    17
 74
     0
 42
0.00000001
 43
0.00000001
 40
0.1592357176605834
 40
0.1592357176605834
 40
0.1592357176605834
 40
0.1592357176605834
 40
0.1832651398530904
 40
0.2431724430697084
 40
0.3028983539197438
 40
0.3637735975039108
 40
0.4256053049523808
 40
0.489659042510183
 40
0.5537845767921159
 40
0.6162215328110733
 40
0.6778544713083421
 40
0.7395168974879379
 40
0.8020965355763713
 40
0.8658658412779713
 40
0.9315077951965112
 40
1.0
 40
1.0
 40
1.0
 40
1.0
 10
92.97353430766833
 20
7.861307768749882
 30
0.0
 10
93.01514484479456
 20
7.851067935557818
 30
0.0
 10
93.15978453702932
 20
7.812502325151383
 30
0.0
 10
93.40225955313129
 20
7.728497485926529
 30
0.0
 10
93.69510110933199
 20
7.593862347820273
 30
0.0
 10
93.97643995036064
 20
7.429572008448228
 30
0.0
 10
94.24683115020581
 20
7.234473564343809
 30
0.0
 10
94.5039787342834
 20
7.013320429822205
 30
0.0
 10
94.74097757232379
 20
6.768901319718639
 30
0.0
 10
94.94753597974653
 20
6.503745509755319
 30
0.0
 10
95.12450561383676
 20
6.22306370868153
 30
0.0
 10
95.26705639684616
 20
5.923123657403776
 30
0.0
 10
95.37945276907583
 20
5.606664405550714
 30
0.0
 10
95.45839566846824
 20
5.273003373280545
 30
0.0
 10
95.50612571246464
 20
4.922658906760812
 30
0.0
 10
95.51225490084984
 20
4.683446051819184
 30
0.0
 10
95.5153846153846
 20
4.561298076923074
 30
0.0
  0
SPLINE
  5
AD
330
1F
100
AcDbEntity
  8
0
  6
Continuous
 62
     7
370
    25
100
AcDbSpline
210
0.0
220
0.0
230
1.0
 70
     8
 71
     3
 72
    23
 73
    19
 74
     0
 42
0.00000001
 43
0.00000001
 40
0.0
 40
0.0
 40
0.0
 40
0.0
 40
0.0687422616054889
 40
0.1346351922242768
 40
0.1983241870671473
 40
0.2608250125604213
 40
0.3227135881590247
 40
0.3845545346076187
 40
0.4469128577247565
 40
0.5109576325148304
 40
0.5749307010013373
 40
0.636684537796093
 40
0.6974831152940635
 40
0.7571338075238552
 40
0.8169656636752661
 40
0.8768183516571967
 40
0.9376625803840031
 40
0.9688739183712466
 40
0.9688739183712466
 40
0.9688739183712466
 40
0.9688739183712466
 10
95.5153846153846
 20
4.561298076923074
 30
0.0
 10
95.5122443965391
 20
4.438551655328637
 30
0.0
 10
95.50609411928585
 20
4.1981465874673
 30
0.0
 10
95.45858110655274
 20
3.846565491093213
 30
0.0
 10
95.379489151374
 20
3.51230647097498
 30
0.0
 10
95.2666870272112
 20
3.195432931925084
 30
0.0
 10
95.12450105756979
 20
2.894203325469108
 30
0.0
 10
94.94807099865453
 20
2.611895190456412
 30
0.0
 10
94.74091631375565
 20
2.346523979129906
 30
0.0
 10
94.5039953327703
 20
2.102053162060465
 30
0.0
 10
94.24682687364191
 20
1.880913891221971
 30
0.0
 10
93.97644106037286
 20
1.685811869747388
 30
0.0
 10
93.69510082010574
 20
1.521522459647292
 30
0.0
 10
93.40225963025803
 20
1.386887078236137
 30
0.0
 10
93.09919431994382
 20
1.281890987875293
 30
0.0
 10
92.78497908790418
 20
1.208525321013881
 30
0.0
 10
92.51603588701916
 20
1.169377446568515
 30
0.0
 10
92.35197753656713
 20
1.160598087882894
 30
0.0
 10
92.29629172975979
 20
1.15847922090233
 30
0.0
  0
SPLINE
  5
AE
330
1F
100
AcDbEntity
  8
0
  6
Continuous
 62
     7
370
    25
100
AcDbSpline
210
0.0
220
0.0
230
1.0
 70
     8
 71
     3
 72
    23
 73
    19
 74
     0
 42
0.00000001
 43
0.00000001
 40
0.0
 40
0.0
 40
0.0
 40
0.0
 40
0.0638470712324885
 40
0.1260459405942221
 40
0.1871687919853112
 40
0.2474038290093148
 40
0.3083856890176017
 40
0.3697864016881887
 40
0.4325918620967849
 40
0.4976499171225387
 40
0.5624114563661559
 40
0.6255685815753671
 40
0.6873446163597968
 40
0.7487232724782817
 40
0.8097875490103094
 40
0.8717652190576225
 40
0.9348349952705177
 40
0.9367803332883846
 40
0.9367803332883846
 40
0.9367803332883846
 40
0.9367803332883846
 10
89.51538461538459
 20
4.557692307692304
 30
0.0
 10
89.51786499389267
 20
4.470424164110673
 30
0.0
 10
89.52276172033675
 20
4.298140690032362
 30
0.0
 10
89.56000604793093
 20
4.044547474850453
 30
0.0
 10
89.61901391111118
 20
3.800415640694581
 30
0.0
 10
89.70285292923386
 20
3.565282077476641
 30
0.0
 10
89.81110717914432
 20
3.339939498306937
 30
0.0
 10
89.94407176767749
 20
3.124172979078406
 30
0.0
 10
90.09998418077181
 20
2.917344712093814
 30
0.0
 10
90.2786059792366
 20
2.723512840397417
 30
0.0
 10
90.47371040502146
 20
2.545586817852672
 30
0.0
 10
90.68165309807337
 20
2.390175493916714
 30
0.0
 10
90.89924880541459
 20
2.257282074030975
 30
0.0
 10
91.12682496945092
 20
2.148583146004733
 30
0.0
 10
91.36515753978966
 20
2.065218786846309
 30
0.0
 10
91.61284296955863
 20
2.006145218841733
 30
0.0
 10
91.78495046649861
 20
1.98123401375126
 30
0.0
 10
91.87344440751843
 20
1.973703321420643
 30
0.0
 10
91.87609259475447
 20
1.973482529500035
 30
0.0
  0
LINE
  5
AF
330
1F
100
AcDbEntity
  8
0
  6
Continuous
 62
     7
370
    25
100
AcDbLine
 10
91.8760925948
 20
1.9734825295
 30
0.0
 11
91.7947743706
 21
1.1686570025
 31
0.0
  0
SPLINE
  5
B0
330
1F
100
AcDbEntity
  8
0
  6
Continuous
 62
     7
370
    25
100
AcDbSpline
210
0.0
220
0.0
230
1.0
 70
     8
 71
     3
 72
    14
 73
    10
 74
     0
 42
0.00000001
 43
0.00000001
 40
0.1308277155008332
 40
0.1308277155008332
 40
0.1308277155008332
 40
0.1308277155008332
 40
0.2552437669620942
 40
0.3786875601321009
 40
0.5004322496304455
 40
0.622704748234443
 40
0.7462347879010117
 40
0.8715860074625639
 40
1.0
 40
1.0
 40
1.0
 40
1.0
 10
91.79477437055156
 20
1.168657002536741
 30
0.0
 10
91.68889679190474
 20
1.1771787957439
 30
0.0
 10
91.47868673806445
 20
1.204857876113279
 30
0.0
 10
91.17033708472157
 20
1.274357175858964
 30
0.0
 10
90.87272207106633
 20
1.375211970361857
 30
0.0
 10
90.58477981847035
 20
1.501139674248878
 30
0.0
 10
90.30826655945172
 20
1.656982110076075
 30
0.0
 10
90.04340027445362
 20
1.841490237329059
 30
0.0
 10
89.87954902600077
 20
1.98345126256197
 30
0.0
 10
89.7966346153846
 20
2.055288461538458
 30
0.0
  0
SPLINE
  5
B1
330
1F
100
AcDbEntity
  8
0
  6
Continuous
 62
     7
370
    25
100
AcDbSpline
210
0.0
220
0.0
230
1.0
 70
     8
 71
     3
 72
    15
 73
    11
 74
     0
 42
0.00000001
 43
0.00000001
 40
0.0
 40
0.0
 40
0.0
 40
0.0
 40
0.1284975211375131
 40
0.252712985515452
 40
0.3748191325670462
 40
0.4964364263727307
 40
0.6179105567458515
 40
0.7412876173092902
 40
0.8687004007446074
 40
1.0
 40
1.0
 40
1.0
 40
1.0
 10
89.7966346153846
 20
2.055288461538458
 30
0.0
 10
89.70927048587552
 20
2.138727695605377
 30
0.0
 10
89.53745355275692
 20
2.302825631219312
 30
0.0
 10
89.31751277653336
 20
2.578865216806121
 30
0.0
 10
89.12744287231975
 20
2.868135042518751
 30
0.0
 10
88.97450403258433
 20
3.175999138300933
 30
0.0
 10
88.8540621298593
 20
3.499183630187205
 30
0.0
 10
88.77032223384963
 20
3.839175968116043
 30
0.0
 10
88.71567074964366
 20
4.194741579297627
 30
0.0
 10
88.71037829242965
 20
4.437894890686265
 30
0.0
 10
88.7076923076923
 20
4.561298076923074
 30
0.0
  0
SPLINE
  5
B2
330
1F
100
AcDbEntity
  8
0
  6
Continuous
 62
     7
370
    25
100
AcDbSpline
210
0.0
220
0.0
230
1.0
 70
     8
 71
     3
 72
    15
 73
    11
 74
     0
 42
0.00000001
 43
0.00000001
 40
0.0
 40
0.0
 40
0.0
 40
0.0
 40
0.1317514273024047
 40
0.2583323505141582
 40
0.3821339760925445
 40
0.5038043916000856
 40
0.624692986540931
 40
0.7468705897275759
 40
0.8715135042348164
 40
1.0
 40
1.0
 40
1.0
 40
1.0
 10
88.7076923076923
 20
4.561298076923074
 30
0.0
 10
88.71032002776359
 20
4.68470420709145
 30
0.0
 10
88.71547234464099
 20
4.926673469413593
 30
0.0
 10
88.77053939917631
 20
5.281036604531891
 30
0.0
 10
88.8547469075965
 20
5.619295525510978
 30
0.0
 10
88.97115949578793
 20
5.942745733931457
 30
0.0
 10
89.12719879719361
 20
6.247244779381389
 30
0.0
 10
89.31339411723046
 20
6.537227978516154
 30
0.0
 10
89.53397792925296
 20
6.81190028707737
 30
0.0
 10
89.70461296221657
 20
6.976530933738736
 30
0.0
 10
89.79122596153844
 20
7.060096153846151
 30
0.0
  0
SPLINE
  5
B3
330
1F
100
AcDbEntity
  8
0
  6
Continuous
 62
     7
370
    25
100
AcDbSpline
210
0.0
220
0.0
230
1.0
 70
     8
 71
     3
 72
    15
 73
    11
 74
     0
 42
0.00000001
 43
0.00000001
 40
0.0
 40
0.0
 40
0.0
 40
0.0
 40
0.1281572795931843
 40
0.2538343627967338
 40
0.3765056225222087
 40
0.4985336856679089
 40
0.6213677287324607
 40
0.7445647449043582
 40
0.8706337982552798
 40
0.9999999999999999
 40
0.9999999999999999
 40
0.9999999999999999
 40
0.9999999999999999
 10
89.79122596153844
 20
7.060096153846151
 30
0.0
 10
89.874061924997
 20
7.132049750013166
 30
0.0
 10
90.03813074783639
 20
7.274564442053797
 30
0.0
 10
90.3041594668825
 20
7.457304861797869
 30
0.0
 10
90.57966258268966
 20
7.614731730774137
 30
0.0
 10
90.86829856555862
 20
7.74089363045421
 30
0.0
 10
91.16754771995349
 20
7.840369405644755
 30
0.0
 10
91.4784386057904
 20
7.910995481729813
 30
0.0
 10
91.80028464135383
 20
7.953004743005173
 30
0.0
 10
92.0188659392662
 20
7.958669515140815
 30
0.0
 10
92.1295673076923
 20
7.961538461538457
 30
0.0
  0
SPLINE
  5
B4
330
1F
100
AcDbEntity
  8
0
  6
Continuous
 62
     7
370
    25
100
AcDbSpline
210
0.0
220
0.0
230
1.0
 70
     8
 71
     3
 72
     9
 73
     5
 74
     0
 42
0.00000001
 43
0.00000001
 40
0.0
 40
0.0
 40
0.0
 40
0.0
 40
0.0624160261588179
 40
0.0654971675031084
 40
0.0654971675031084
 40
0.0654971675031084
 40
0.0654971675031084
 10
92.12956730769231
 20
7.961538461538459
 30
0.0
 10
92.24091031314927
 20
7.959015022721
 30
0.0
 10
92.35774972006949
 20
7.956367015388872
 30
0.0
 10
92.47404365060194
 20
7.946172980972607
 30
0.0
 10
92.47951312682771
 20
7.945676984887955
 30
0.0
  0
LINE
  5
B5
330
1F
100
AcDbEntity
  8
0
  6
Continuous
 62
     7
370
    25
100
AcDbLine
 10
92.4795131268
 20
7.9456769849
 30
0.0
 11
92.3981375255
 21
7.1402834864
 31
0.0
  0
SPLINE
  5
B6
330
1F
100
AcDbEntity
  8
0
  6
Continuous
 62
     7
370
    25
100
AcDbSpline
210
0.0
220
0.0
230
1.0
 70
     8
 71
     3
 72
     8
 73
     4
 74
     0
 42
0.00000001
 43
0.00000001
 40
0.9353034980668321
 40
0.9353034980668321
 40
0.9353034980668321
 40
0.9353034980668321
 40
1.0
 40
1.0
 40
1.0
 40
1.0
 10
92.39813752550808
 20
7.140283486370596
 30
0.0
 10
92.31068222334207
 20
7.147554337705898
 30
0.0
 10
92.22282909244025
 20
7.150700245776025
 30
0.0
 10
92.13497596153846
 20
7.153846153846152
 30
0.0
  0
SPLINE
  5
B7
330
1F
100
AcDbEntity
  8
0
  6
Continuous
 62
     7
370
    25
100
AcDbSpline
210
0.0
220
0.0
230
1.0
 70
     8
 71
     3
 72
    23
 73
    19
 74
     0
 42
0.00000001
 43
0.00000001
 40
0.0
 40
0.0
 40
0.0
 40
0.0
 40
0.0651859924361719
 40
0.1282760815450707
 40
0.1902737127535264
 40
0.2513576562698562
 40
0.3127560806249425
 40
0.3747818039018457
 40
0.4379592701395699
 40
0.5030382784266988
 40
0.5681172867138288
 40
0.6309429748901823
 40
0.6923634629011289
 40
0.7529686336365333
 40
0.813637646347645
 40
0.8743529025141091
 40
0.9365718042786946
 40
1.0
 40
1.0
 40
1.0
 40
1.0
 10
92.13497596153844
 20
7.153846153846151
 30
0.0
 10
92.04590522152202
 20
7.151389249625018
 30
0.0
 10
91.87062760308558
 20
7.146554437199218
 30
0.0
 10
91.61284900412312
 20
7.109229778039485
 30
0.0
 10
91.36513546137526
 20
7.050201019363557
 30
0.0
 10
91.12690627330878
 20
6.966671879011705
 30
0.0
 10
90.89865835891683
 20
6.858455785244393
 30
0.0
 10
90.682290936261
 20
6.723007643053746
 30
0.0
 10
90.4729902454628
 20
6.568231084509889
 30
0.0
 10
90.27923670307148
 20
6.388158417674742
 30
0.0
 10
90.09991455471354
 20
6.194528855976706
 30
0.0
 10
89.94401130834352
 20
5.987616774032167
 30
0.0
 10
89.81169154516654
 20
5.772170198655191
 30
0.0
 10
89.70192698743577
 20
5.547482280141281
 30
0.0
 10
89.61977666748562
 20
5.312318570678771
 30
0.0
 10
89.55966533371107
 20
5.068528800257879
 30
0.0
 10
89.52291911261385
 20
4.816017577315388
 30
0.0
 10
89.51791217758911
 20
4.644351465975118
 30
0.0
 10
89.51538461538459
 20
4.557692307692304
 30
0.0
  0
LINE
  5
B8
330
1F
100
AcDbEntity
  8
0
  6
Continuous
 62
     7
370
    25
100
AcDbLine
 10
95.4
 20
-1.8461538462
 30
0.0
 11
95.4
 21
-2.6538461538
 31
0.0
  0
LINE
  5
B9
330
1F
100
AcDbEntity
  8
0
  6
Continuous
 62
     7
370
    25
100
AcDbLine
 10
95.4
 20
-2.6538461538
 30
0.0
 11
88.8230769231
 21
-2.6538461538
 31
0.0
  0
LINE
  5
BA
330
1F
100
AcDbEntity
  8
0
  6
Continuous
 62
     7
370
    25
100
AcDbLine
 10
88.8230769231
 20
-2.6538461538
 30
0.0
 11
88.8230769231
 21
-1.8461538462
 31
0.0
  0
LINE
  5
BB
330
1F
100
AcDbEntity
  8
0
  6
Continuous
 62
     7
370
    25
100
AcDbLine
 10
88.8230769231
 20
-1.8461538462
 30
0.0
 11
89.7912259615
 21
-1.8461538462
 31
0.0
  0
SPLINE
  5
BC
330
1F
100
AcDbEntity
  8
0
  6
Continuous
 62
     7
370
    25
100
AcDbSpline
210
0.0
220
0.0
230
1.0
 70
     8
 71
     3
 72
    15
 73
    11
 74
     0
 42
0.00000001
 43
0.00000001
 40
0.0
 40
0.0
 40
0.0
 40
0.0
 40
0.1600113821760127
 40
0.3060205251464244
 40
0.4388538946553694
 40
0.5609921737675556
 40
0.6757335017808288
 40
0.7861778170224624
 40
0.8928739439277364
 40
1.0
 40
1.0
 40
1.0
 40
1.0
 10
89.79122596153844
 20
-1.846153846153851
 30
0.0
 10
89.70104204781647
 20
-1.786563762164029
 30
0.0
 10
89.5285660135391
 20
-1.672598189539794
 30
0.0
 10
89.3007615656122
 20
-1.482287229588166
 30
0.0
 10
89.10999459766843
 20
-1.289431181682936
 30
0.0
 10
88.95990306601817
 20
-1.088966000778273
 30
0.0
 10
88.84647051948929
 20
-0.8828570903442753
 30
0.0
 10
88.7667650222948
 20
-0.6728424583224262
 30
0.0
 10
88.71733721824828
 20
-0.4584085437295493
 30
0.0
 10
88.71091158452052
 20
-0.313957355521664
 30
0.0
 10
88.7076923076923
 20
-0.2415865384615434
 30
0.0
  0
SPLINE
  5
BD
330
1F
100
AcDbEntity
  8
0
  6
Continuous
 62
     7
370
    25
100
AcDbSpline
210
0.0
220
0.0
230
1.0
 70
     8
 71
     3
 72
    11
 73
     7
 74
     0
 42
0.00000001
 43
0.00000001
 40
0.0
 40
0.0
 40
0.0
 40
0.0
 40
0.2252775478670092
 40
0.4635231951764822
 40
0.7203235553269236
 40
1.0
 40
1.0
 40
1.0
 40
1.0
 10
88.7076923076923
 20
-0.2415865384615434
 30
0.0
 10
88.71075366179352
 20
-0.1854616989243409
 30
0.0
 10
88.71705259680944
 20
-0.0699811941098561
 30
0.0
 10
88.76130900303139
 20
0.1048311796724904
 30
0.0
 10
88.83196677531045
 20
0.2849429131543277
 30
0.0
 10
88.8984130621633
 20
0.4010233375128778
 30
0.0
 10
88.93305288461536
 20
0.4615384615384564
 30
0.0
  0
LINE
  5
BE
330
1F
100
AcDbEntity
  8
0
  6
Continuous
 62
     7
370
    25
100
AcDbLine
 10
88.9330528846
 20
0.4615384615
 30
0.0
 11
89.6325721154
 21
0.0180288462
 31
0.0
  0
SPLINE
  5
BF
330
1F
100
AcDbEntity
  8
0
  6
Continuous
 62
     7
370
    25
100
AcDbSpline
210
0.0
220
0.0
230
1.0
 70
     8
 71
     3
 72
    11
 73
     7
 74
     0
 42
0.00000001
 43
0.00000001
 40
0.0
 40
0.0
 40
0.0
 40
0.0
 40
0.295138801369376
 40
0.5602299448882381
 40
0.794983356740901
 40
1.0
 40
1.0
 40
1.0
 40
1.0
 10
89.6325721153846
 20
0.0180288461538412
 30
0.0
 10
89.61524000251708
 20
-0.0208229225018142
 30
0.0
 10
89.58234033432194
 20
-0.0945710169976228
 30
0.0
 10
89.54340373683956
 20
-0.2024541874029824
 30
0.0
 10
89.52047709608725
 20
-0.3019204818538017
 30
0.0
 10
89.51700382263896
 20
-0.3652896319297575
 30
0.0
 10
89.51538461538459
 20
-0.3948317307692359
 30
0.0
  0
SPLINE
  5
C0
330
1F
100
AcDbEntity
  8
0
  6
Continuous
 62
     7
370
    25
100
AcDbSpline
210
0.0
220
0.0
230
1.0
 70
     8
 71
     3
 72
    19
 73
    15
 74
     0
 42
0.00000001
 43
0.00000001
 40
0.0
 40
0.0
 40
0.0
 40
0.0
 40
0.0937768653224272
 40
0.1912776221140579
 40
0.2946616123056616
 40
0.4097469279640182
 40
0.4713453571275214
 40
0.5358198704789406
 40
0.6032222067461156
 40
0.6741986992464263
 40
0.7486032884217861
 40
0.8283376853685294
 40
0.9120676245304906
 40
1.0
 40
1.0
 40
1.0
 40
1.0
 10
89.51538461538459
 20
-0.3948317307692359
 30
0.0
 10
89.51967087981694
 20
-0.4596659337260482
 30
0.0
 10
89.52841361679751
 20
-0.5919089142372922
 30
0.0
 10
89.59812675635669
 20
-0.7854123444268033
 30
0.0
 10
89.70752257557106
 20
-0.9748633083377699
 30
0.0
 10
89.8320920702781
 20
-1.123873052696742
 30
0.0
 10
89.95175196402678
 20
-1.239656417768858
 30
0.0
 10
90.05648075778146
 20
-1.322924876333955
 30
0.0
 10
90.17499996901529
 20
-1.397659557751551
 30
0.0
 10
90.30272856642414
 20
-1.470154183034286
 30
0.0
 10
90.44287217397587
 20
-1.537507163227634
 30
0.0
 10
90.59565941790935
 20
-1.597696945152179
 30
0.0
 10
90.75982864054912
 20
-1.653985978685207
 30
0.0
 10
90.87397932763164
 20
-1.685685368364668
 30
0.0
 10
90.9324519230769
 20
-1.701923076923082
 30
0.0
  0
SPLINE
  5
C1
330
1F
100
AcDbEntity
  8
0
  6
Continuous
 62
     7
370
    25
100
AcDbSpline
210
0.0
220
0.0
230
1.0
 70
     8
 71
     3
 72
    15
 73
    11
 74
     0
 42
0.00000001
 43
0.00000001
 40
0.0
 40
0.0
 40
0.0
 40
0.0
 40
0.0708551591251542
 40
0.157725797255714
 40
0.2585976147403173
 40
0.3758886304570592
 40
0.5081644111167595
 40
0.6570319213705493
 40
0.8201760328215129
 40
1.0
 40
1.0
 40
1.0
 40
1.0
 10
90.9324519230769
 20
-1.701923076923082
 30
0.0
 10
90.9845903401409
 20
-1.714113119363649
 30
0.0
 10
91.10065208498203
 20
-1.741248534572062
 30
0.0
 10
91.29447968394359
 20
-1.766927830016898
 30
0.0
 10
91.52333329648366
 20
-1.793321959252508
 30
0.0
 10
91.78747878156543
 20
-1.811346491987503
 30
0.0
 10
92.08793151999106
 20
-1.828373066904125
 30
0.0
 10
92.4233953581906
 20
-1.837779248615217
 30
0.0
 10
92.79479232431656
 20
-1.845854574491735
 30
0.0
 10
93.05384025039952
 20
-1.84605090614553
 30
0.0
 10
93.18966346153846
 20
-1.846153846153851
 30
0.0
  0
LINE
  5
C2
330
1F
100
AcDbEntity
  8
0
  6
Continuous
 62
     7
370
    25
100
AcDbLine
 10
93.1896634615
 20
-1.8461538462
 30
0.0
 11
95.4
 21
-1.8461538462
 31
0.0
  0
ARC
  5
C3
330
1F
100
AcDbEntity
  8
0
  6
Continuous
 62
     7
370
    25
100
AcDbCircle
 10
70.4
 20
-34.925
 30
0.0
 40
3.25
100
AcDbArc
 50
180.0
 51
0.0
  0
LINE
  5
C4
330
1F
100
AcDbEntity
  8
0
  6
Continuous
 62
     7
370
    25
100
AcDbLine
 10
67.15
 20
-9.525
 30
0.0
 11
67.15
 21
-34.925
 31
0.0
  0
ARC
  5
C5
330
1F
100
AcDbEntity
  8
0
  6
Continuous
 62
     7
370
    25
100
AcDbCircle
 10
70.4
 20
-9.525
 30
0.0
 40
3.25
100
AcDbArc
 50
0.0
 51
180.0
  0
LINE
  5
C6
330
1F
100
AcDbEntity
  8
0
  6
Continuous
 62
     7
370
    25
100
AcDbLine
 10
73.65
 20
-9.525
 30
0.0
 11
73.65
 21
-34.925
 31
0.0
  0
ARC
  5
C7
330
1F
100
AcDbEntity
  8
0
  6
Continuous
 62
     7
370
    25
100
AcDbCircle
 10
70.4
 20
9.525
 30
0.0
 40
3.25
100
AcDbArc
 50
180.0
 51
0.0
  0
LINE
  5
C8
330
1F
100
AcDbEntity
  8
0
  6
Continuous
 62
     7
370
    25
100
AcDbLine
 10
67.15
 20
34.925
 30
0.0
 11
67.15
 21
9.525
 31
0.0
  0
ARC
  5
C9
330
1F
100
AcDbEntity
  8
0
  6
Continuous
 62
     7
370
    25
100
AcDbCircle
 10
70.4
 20
34.925
 30
0.0
 40
3.25
100
AcDbArc
 50
0.0
 51
180.0
  0
LINE
  5
CA
330
1F
100
AcDbEntity
  8
0
  6
Continuous
 62
     7
370
    25
100
AcDbLine
 10
73.65
 20
34.925
 30
0.0
 11
73.65
 21
9.525
 31
0.0
  0
LINE
  5
CB
330
1F
100
AcDbEntity
  8
0
  6
Continuous
 62
     7
370
    25
100
AcDbLine
 10
90.4
 20
-38.1
 30
0.0
 11
95.4
 21
-38.1
 31
0.0
  0
ARC
  5
CC
330
1F
100
AcDbEntity
  8
0
  6
Continuous
 62
     7
370
    25
100
AcDbCircle
 10
95.4
 20
-33.1
 30
0.0
 40
5.0
100
AcDbArc
 50
270.0
 51
0.0
  0
LINE
  5
CD
330
1F
100
AcDbEntity
  8
0
  6
Continuous
 62
     7
370
    25
100
AcDbLine
 10
100.4
 20
-33.1
 30
0.0
 11
100.4
 21
33.1
 31
0.0
  0
ARC
  5
CE
330
1F
100
AcDbEntity
  8
0
  6
Continuous
 62
     7
370
    25
100
AcDbCircle
 10
95.4
 20
33.1
 30
0.0
 40
5.0
100
AcDbArc
 50
0.0
 51
90.0
  0
LINE
  5
CF
330
1F
100
AcDbEntity
  8
0
  6
Continuous
 62
     7
370
    25
100
AcDbLine
 10
95.4
 20
38.1
 30
0.0
 11
90.4
 21
38.1
 31
0.0
  0
ARC
  5
D0
330
1F
100
AcDbEntity
  8
0
  6
Continuous
 62
     7
370
    25
100
AcDbCircle
 10
90.4
 20
43.1
 30
0.0
 40
5.0
100
AcDbArc
 50
180.0
 51
270.0
  0
LINE
  5
D1
330
1F
100
AcDbEntity
  8
0
  6
Continuous
 62
     7
370
    25
100
AcDbLine
 10
85.4
 20
43.8
 30
0.0
 11
85.4
 21
43.1
 31
0.0
  0
ARC
  5
D2
330
1F
100
AcDbEntity
  8
0
  6
Continuous
 62
     7
370
    25
100
AcDbCircle
 10
78.4
 20
43.8
 30
0.0
 40
7.000000000000014
100
AcDbArc
 50
0.0
 51
90.0
  0
LINE
  5
D3
330
1F
100
AcDbEntity
  8
0
  6
Continuous
 62
     7
370
    25
100
AcDbLine
 10
26.7090169944
 20
50.8
 30
0.0
 11
78.4
 21
50.8
 31
0.0
  0
ARC
  5
D4
330
1F
100
AcDbEntity
  8
0
  6
Continuous
 62
     7
370
    25
100
AcDbCircle
 10
26.7090169944
 20
50.3
 30
0.0
 40
0.5000000000000023
100
AcDbArc
 50
90.0
 51
153.4349488229
  0
LINE
  5
D5
330
1F
100
AcDbEntity
  8
0
  6
Continuous
 62
     7
370
    25
100
AcDbLine
 10
25.8472135955
 20
49.694427191
 30
0.0
 11
26.2618033989
 21
50.5236067977
 31
0.0
  0
ARC
  5
D6
330
1F
100
AcDbEntity
  8
0
  6
Continuous
 62
     7
370
    25
100
AcDbCircle
 10
25.4
 20
49.9180339887
 30
0.0
 40
0.5000000000000024
100
AcDbArc
 50
206.5650511771
 51
333.4349488229
  0
LINE
  5
D7
330
1F
100
AcDbEntity
  8
0
  6
Continuous
 62
     7
370
    25
100
AcDbLine
 10
24.5381966011
 20
50.5236067977
 30
0.0
 11
24.9527864045
 21
49.694427191
 31
0.0
  0
ARC
  5
D8
330
1F
100
AcDbEntity
  8
0
  6
Continuous
 62
     7
370
    25
100
AcDbCircle
 10
24.0909830056
 20
50.3
 30
0.0
 40
0.5000000000000088
100
AcDbArc
 50
26.5650511771
 51
90.0
  0
LINE
  5
D9
330
1F
100
AcDbEntity
  8
0
  6
Continuous
 62
     7
370
    25
100
AcDbLine
 10
2.2071067812
 20
50.8
 30
0.0
 11
24.0909830056
 21
50.8
 31
0.0
  0
ARC
  5
DA
330
1F
100
AcDbEntity
  8
0
  6
Continuous
 62
     7
370
    25
100
AcDbCircle
 10
2.2071067812
 20
50.3
 30
0.0
 40
0.5
100
AcDbArc
 50
90.0
 51
135.0
  0
LINE
  5
DB
330
1F
100
AcDbEntity
  8
0
  6
Continuous
 62
     7
370
    25
100
AcDbLine
 10
0.3535533906
 20
49.1535533906
 30
0.0
 11
1.8535533906
 21
50.6535533906
 31
0.0
  0
ARC
  5
DC
330
1F
100
AcDbEntity
  8
0
  6
Continuous
 62
     7
370
    25
100
AcDbCircle
 10
0.0
 20
49.5071067812
 30
0.0
 40
0.5000000000000011
100
AcDbArc
 50
225.0
 51
315.0
  0
LINE
  5
DD
330
1F
100
AcDbEntity
  8
0
  6
Continuous
 62
     7
370
    25
100
AcDbLine
 10
-1.8535533906
 20
50.6535533906
 30
0.0
 11
-0.3535533906
 21
49.1535533906
 31
0.0
  0
ARC
  5
DE
330
1F
100
AcDbEntity
  8
0
  6
Continuous
 62
     7
370
    25
100
AcDbCircle
 10
-2.2071067812
 20
50.3
 30
0.0
 40
0.5
100
AcDbArc
 50
45.0
 51
90.0
  0
LINE
  5
DF
330
1F
100
AcDbEntity
  8
0
  6
Continuous
 62
     7
370
    25
100
AcDbLine
 10
-17.9
 20
50.8
 30
0.0
 11
-2.2071067812
 21
50.8
 31
0.0
  0
ARC
  5
E0
330
1F
100
AcDbEntity
  8
0
  6
Continuous
 62
     7
370
    25
100
AcDbCircle
 10
-17.9
 20
43.3
 30
0.0
 40
7.5
100
AcDbArc
 50
90.0
 51
180.0
  0
LINE
  5
E1
330
1F
100
AcDbEntity
  8
0
  6
Continuous
 62
     7
370
    25
100
AcDbLine
 10
-25.4
 20
43.3
 30
0.0
 11
-25.4
 21
-43.3
 31
0.0
  0
ARC
  5
E2
330
1F
100
AcDbEntity
  8
0
  6
Continuous
 62
     7
370
    25
100
AcDbCircle
 10
-17.9
 20
-43.3
 30
0.0
 40
7.5
100
AcDbArc
 50
180.0
 51
270.0
  0
LINE
  5
E3
330
1F
100
AcDbEntity
  8
0
  6
Continuous
 62
     7
370
    25
100
AcDbLine
 10
-17.9
 20
-50.8
 30
0.0
 11
-2.2071067812
 21
-50.8
 31
0.0
  0
ARC
  5
E4
330
1F
100
AcDbEntity
  8
0
  6
Continuous
 62
     7
370
    25
100
AcDbCircle
 10
-2.2071067812
 20
-50.3
 30
0.0
 40
0.5
100
AcDbArc
 50
270.0
 51
315.0
  0
LINE
  5
E5
330
1F
100
AcDbEntity
  8
0
  6
Continuous
 62
     7
370
    25
100
AcDbLine
 10
-1.8535533906
 20
-50.6535533906
 30
0.0
 11
-0.3535533906
 21
-49.1535533906
 31
0.0
  0
ARC
  5
E6
330
1F
100
AcDbEntity
  8
0
  6
Continuous
 62
     7
370
    25
100
AcDbCircle
 10
0.0
 20
-49.5071067812
 30
0.0
 40
0.5000000000000036
100
AcDbArc
 50
45.0
 51
135.0
  0
LINE
  5
E7
330
1F
100
AcDbEntity
  8
0
  6
Continuous
 62
     7
370
    25
100
AcDbLine
 10
0.3535533906
 20
-49.1535533906
 30
0.0
 11
1.8535533906
 21
-50.6535533906
 31
0.0
  0
ARC
  5
E8
330
1F
100
AcDbEntity
  8
0
  6
Continuous
 62
     7
370
    25
100
AcDbCircle
 10
2.2071067812
 20
-50.3
 30
0.0
 40
0.5
100
AcDbArc
 50
225.0
 51
270.0
  0
LINE
  5
E9
330
1F
100
AcDbEntity
  8
0
  6
Continuous
 62
     7
370
    25
100
AcDbLine
 10
2.2071067812
 20
-50.8
 30
0.0
 11
24.0909830056
 21
-50.8
 31
0.0
  0
ARC
  5
EA
330
1F
100
AcDbEntity
  8
0
  6
Continuous
 62
     7
370
    25
100
AcDbCircle
 10
24.0909830056
 20
-50.3
 30
0.0
 40
0.5
100
AcDbArc
 50
270.0
 51
333.4349488229
  0
LINE
  5
EB
330
1F
100
AcDbEntity
  8
0
  6
Continuous
 62
     7
370
    25
100
AcDbLine
 10
24.5381966011
 20
-50.5236067977
 30
0.0
 11
24.9527864045
 21
-49.694427191
 31
0.0
  0
ARC
  5
EC
330
1F
100
AcDbEntity
  8
0
  6
Continuous
 62
     7
370
    25
100
AcDbCircle
 10
25.4
 20
-49.9180339887
 30
0.0
 40
0.5000000000000056
100
AcDbArc
 50
26.5650511771
 51
153.4349488229
  0
LINE
  5
ED
330
1F
100
AcDbEntity
  8
0
  6
Continuous
 62
     7
370
    25
100
AcDbLine
 10
25.8472135955
 20
-49.694427191
 30
0.0
 11
26.2618033989
 21
-50.5236067977
 31
0.0
  0
ARC
  5
EE
330
1F
100
AcDbEntity
  8
0
  6
Continuous
 62
     7
370
    25
100
AcDbCircle
 10
26.7090169944
 20
-50.3
 30
0.0
 40
0.5
100
AcDbArc
 50
206.5650511771
 51
270.0
  0
LINE
  5
EF
330
1F
100
AcDbEntity
  8
0
  6
Continuous
 62
     7
370
    25
100
AcDbLine
 10
78.4
 20
-50.8
 30
0.0
 11
26.7090169944
 21
-50.8
 31
0.0
  0
ARC
  5
F0
330
1F
100
AcDbEntity
  8
0
  6
Continuous
 62
     7
370
    25
100
AcDbCircle
 10
78.4
 20
-43.8
 30
0.0
 40
7.000000000000014
100
AcDbArc
 50
270.0
 51
0.0
  0
LINE
  5
F1
330
1F
100
AcDbEntity
  8
0
  6
Continuous
 62
     7
370
    25
100
AcDbLine
 10
85.4
 20
-43.1
 30
0.0
 11
85.4
 21
-43.8
 31
0.0
  0
ARC
  5
F2
330
1F
100
AcDbEntity
  8
0
  6
Continuous
 62
     7
370
    25
100
AcDbCircle
 10
90.4
 20
-43.1
 30
0.0
 40
5.0
100
AcDbArc
 50
90.0
 51
180.0
  0
CIRCLE
  5
F3
330
1F
100
AcDbEntity
  8
0
  6
Continuous
 62
     7
370
    25
100
AcDbCircle
 10
-15.4
 20
0.0
 30
0.0
 40
2.07
  0
CIRCLE
  5
F4
330
1F
100
AcDbEntity
  8
0
  6
Continuous
 62
     7
370
    25
100
AcDbCircle
 10
-15.4
 20
30.8
 30
0.0
 40
2.069999999999999
  0
CIRCLE
  5
F5
330
1F
100
AcDbEntity
  8
0
  6
Continuous
 62
     7
370
    25
100
AcDbCircle
 10
-15.4
 20
-30.8
 30
0.0
 40
2.069999999999999
  0
CIRCLE
  5
F6
330
1F
100
AcDbEntity
  8
0
  6
Continuous
 62
     7
370
    25
100
AcDbCircle
 10
0.0
 20
22.225
 30
0.0
 40
2.07
  0
CIRCLE
  5
F7
330
1F
100
AcDbEntity
  8
0
  6
Continuous
 62
     7
370
    25
100
AcDbCircle
 10
0.0
 20
-22.225
 30
0.0
 40
2.07
  0
CIRCLE
  5
F8
330
1F
100
AcDbEntity
  8
0
  6
Continuous
 62
     7
370
    25
100
AcDbCircle
 10
15.4
 20
30.8
 30
0.0
 40
2.070000000000002
  0
CIRCLE
  5
F9
330
1F
100
AcDbEntity
  8
0
  6
Continuous
 62
     7
370
    25
100
AcDbCircle
 10
15.4
 20
-30.8
 30
0.0
 40
2.069999999999999
  0
CIRCLE
  5
FA
330
1F
100
AcDbEntity
  8
0
  6
Continuous
 62
     7
370
    25
100
AcDbCircle
 10
0.0
 20
0.0
 30
0.0
 40
2.07
  0
CIRCLE
  5
FB
330
1F
100
AcDbEntity
  8
0
  6
Continuous
 62
     7
370
    25
100
AcDbCircle
 10
15.4
 20
0.0
 30
0.0
 40
2.069999999999991
  0
LINE
  5
FC
330
1F
100
AcDbEntity
  8
0
  6
Continuous
 62
     7
370
    25
100
AcDbLine
 10
95.4
 20
28.9038461538
 30
0.0
 11
90.8098557692
 21
31.8425480769
 31
0.0
  0
LINE
  5
FD
330
1F
100
AcDbEntity
  8
0
  6
Continuous
 62
     7
370
    25
100
AcDbLine
 10
90.8098557692
 20
31.8425480769
 30
0.0
 11
86.4
 21
29.0192307692
 31
0.0
  0
LINE
  5
FE
330
1F
100
AcDbEntity
  8
0
  6
Continuous
 62
     7
370
    25
100
AcDbLine
 10
86.4
 20
29.0192307692
 30
0.0
 11
86.4
 21
29.9513221154
 31
0.0
  0
LINE
  5
FF
330
1F
100
AcDbEntity
  8
0
  6
Continuous
 62
     7
370
    25
100
AcDbLine
 10
86.4
 20
29.9513221154
 30
0.0
 11
90.0814903846
 21
32.3076923077
 31
0.0
  0
LINE
  5
100
330
1F
100
AcDbEntity
  8
0
  6
Continuous
 62
     7
370
    25
100
AcDbLine
 10
90.0814903846
 20
32.3076923077
 30
0.0
 11
86.4
 21
34.6640625
 31
0.0
  0
LINE
  5
101
330
1F
100
AcDbEntity
  8
0
  6
Continuous
 62
     7
370
    25
100
AcDbLine
 10
86.4
 20
34.6640625
 30
0.0
 11
86.4
 21
35.5961538462
 31
0.0
  0
LINE
  5
102
330
1F
100
AcDbEntity
  8
0
  6
Continuous
 62
     7
370
    25
100
AcDbLine
 10
86.4
 20
35.5961538462
 30
0.0
 11
90.8098557692
 21
32.7746394231
 31
0.0
  0
LINE
  5
103
330
1F
100
AcDbEntity
  8
0
  6
Continuous
 62
     7
370
    25
100
AcDbLine
 10
90.8098557692
 20
32.7746394231
 30
0.0
 11
95.4
 21
35.7115384615
 31
0.0
  0
LINE
  5
104
330
1F
100
AcDbEntity
  8
0
  6
Continuous
 62
     7
370
    25
100
AcDbLine
 10
95.4
 20
35.7115384615
 30
0.0
 11
95.4
 21
34.7794471154
 31
0.0
  0
LINE
  5
105
330
1F
100
AcDbEntity
  8
0
  6
Continuous
 62
     7
370
    25
100
AcDbLine
 10
95.4
 20
34.7794471154
 30
0.0
 11
91.5382211538
 21
32.3076923077
 31
0.0
  0
LINE
  5
106
330
1F
100
AcDbEntity
  8
0
  6
Continuous
 62
     7
370
    25
100
AcDbLine
 10
91.5382211538
 20
32.3076923077
 30
0.0
 11
95.4
 21
29.8359375
 31
0.0
  0
LINE
  5
107
330
1F
100
AcDbEntity
  8
0
  6
Continuous
 62
     7
370
    25
100
AcDbLine
 10
95.4
 20
29.8359375
 30
0.0
 11
95.4
 21
28.9038461538
 31
0.0
  0
LINE
  5
108
330
1F
100
AcDbEntity
  8
0
  6
Continuous
 62
     7
370
    25
100
AcDbLine
 10
95.4
 20
22.5
 30
0.0
 11
91.8681490385
 21
25.0204326923
 31
0.0
  0
LINE
  5
109
330
1F
100
AcDbEntity
  8
0
  6
Continuous
 62
     7
370
    25
100
AcDbLine
 10
91.8681490385
 20
25.0204326923
 30
0.0
 11
88.8230769231
 21
22.8461538462
 31
0.0
  0
LINE
  5
10A
330
1F
100
AcDbEntity
  8
0
  6
Continuous
 62
     7
370
    25
100
AcDbLine
 10
88.8230769231
 20
22.8461538462
 30
0.0
 11
88.8230769231
 21
23.8070913462
 31
0.0
  0
LINE
  5
10B
330
1F
100
AcDbEntity
  8
0
  6
Continuous
 62
     7
370
    25
100
AcDbLine
 10
88.8230769231
 20
23.8070913462
 30
0.0
 11
91.1956730769
 21
25.5
 31
0.0
  0
LINE
  5
10C
330
1F
100
AcDbEntity
  8
0
  6
Continuous
 62
     7
370
    25
100
AcDbLine
 10
91.1956730769
 20
25.5
 30
0.0
 11
88.8230769231
 21
27.1929086538
 31
0.0
  0
LINE
  5
10D
330
1F
100
AcDbEntity
  8
0
  6
Continuous
 62
     7
370
    25
100
AcDbLine
 10
88.8230769231
 20
27.1929086538
 30
0.0
 11
88.8230769231
 21
28.1538461538
 31
0.0
  0
LINE
  5
10E
330
1F
100
AcDbEntity
  8
0
  6
Continuous
 62
     7
370
    25
100
AcDbLine
 10
88.8230769231
 20
28.1538461538
 30
0.0
 11
91.8681490385
 21
25.9813701923
 31
0.0
  0
LINE
  5
10F
330
1F
100
AcDbEntity
  8
0
  6
Continuous
 62
     7
370
    25
100
AcDbLine
 10
91.8681490385
 20
25.9813701923
 30
0.0
 11
95.4
 21
28.5
 31
0.0
  0
LINE
  5
110
330
1F
100
AcDbEntity
  8
0
  6
Continuous
 62
     7
370
    25
100
AcDbLine
 10
95.4
 20
28.5
 30
0.0
 11
95.4
 21
27.5390625
 31
0.0
  0
LINE
  5
111
330
1F
100
AcDbEntity
  8
0
  6
Continuous
 62
     7
370
    25
100
AcDbLine
 10
95.4
 20
27.5390625
 30
0.0
 11
92.5424278846
 21
25.5
 31
0.0
  0
LINE
  5
112
330
1F
100
AcDbEntity
  8
0
  6
Continuous
 62
     7
370
    25
100
AcDbLine
 10
92.5424278846
 20
25.5
 30
0.0
 11
95.4
 21
23.4609375
 31
0.0
  0
LINE
  5
113
330
1F
100
AcDbEntity
  8
0
  6
Continuous
 62
     7
370
    25
100
AcDbLine
 10
95.4
 20
23.4609375
 30
0.0
 11
95.4
 21
22.5
 31
0.0
  0
SPLINE
  5
114
330
1F
100
AcDbEntity
  8
0
  6
Continuous
 62
     7
370
    25
100
AcDbSpline
210
0.0
220
0.0
230
1.0
 70
     8
 71
     3
 72
    31
 73
    27
 74
     0
 42
0.00000001
 43
0.00000001
 40
0.0
 40
0.0
 40
0.0
 40
0.0
 40
0.0412914469532476
 40
0.0821355032144635
 40
0.1226360352259636
 40
0.1628308697551229
 40
0.2030066005770565
 40
0.243526083162162
 40
0.2841729362467882
 40
0.3254098107964595
 40
0.3668546660987567
 40
0.4075505951658524
 40
0.4481873740566105
 40
0.4886828510840638
 40
0.5290149651896816
 40
0.5698427286954864
 40
0.6113702381646675
 40
0.653237735282379
 40
0.6954461190732805
 40
0.7377513945470106
 40
0.7800433605771124
 40
0.8228070703900522
 40
0.8659781422330313
 40
0.9095950301662459
 40
0.9542314047047883
 40
1.0
 40
1.0
 40
1.0
 40
1.0
 10
92.16562499999999
 20
-19.26923076923077
 30
0.0
 10
92.08802331114518
 20
-19.26809672773682
 30
0.0
 10
91.93366074372054
 20
-19.26584093202985
 30
0.0
 10
91.70455914368252
 20
-19.23996740355879
 30
0.0
 10
91.47850859855228
 20
-19.2065427588719
 30
0.0
 10
91.25837446308414
 20
-19.14990514925726
 30
0.0
 10
91.04081800290595
 20
-19.08448638210429
 30
0.0
 10
90.82846145669635
 20
-19.00097787179897
 30
0.0
 10
90.62031801227809
 20
-18.90301828486717
 30
0.0
 10
90.416923850442
 20
-18.79179899180978
 30
0.0
 10
90.2216250346243
 20
-18.66659936152862
 30
0.0
 10
90.03711561118635
 20
-18.52804761888572
 30
0.0
 10
89.86117907138663
 20
-18.38136218289349
 30
0.0
 10
89.69988940107855
 20
-18.21968075194177
 30
0.0
 10
89.5467963377894
 20
-18.04986449919495
 30
0.0
 10
89.4059897323681
 20
-17.867109018844
 30
0.0
 10
89.27705575558684
 20
-17.67246254314557
 30
0.0
 10
89.15761028731107
 20
-17.46884828508519
 30
0.0
 10
89.0512574542348
 20
-17.25638474166255
 30
0.0
 10
88.95962912831337
 20
-17.03635616077522
 30
0.0
 10
88.8813225046112
 20
-16.81008837129208
 30
0.0
 10
88.81932814084594
 20
-16.57721942908495
 30
0.0
 10
88.76734048082506
 20
-16.33929498387831
 30
0.0
 10
88.73463744743728
 20
-16.0944401148571
 30
0.0
 10
88.71152988849845
 20
-15.84359154333419
 30
0.0
 10
88.70898213720261
 20
-15.67373319921286
 30
0.0
 10
88.70769230769231
 20
-15.58774038461539
 30
0.0
  0
SPLINE
  5
115
330
1F
100
AcDbEntity
  8
0
  6
Continuous
 62
     7
370
    25
100
AcDbSpline
210
0.0
220
0.0
230
1.0
 70
     8
 71
     3
 72
    19
 73
    15
 74
     0
 42
0.00000001
 43
0.00000001
 40
0.0
 40
0.0
 40
0.0
 40
0.0
 40
0.0912615868737141
 40
0.1820670055083145
 40
0.2718881518415415
 40
0.3620208275407286
 40
0.4500307570621176
 40
0.5339342469733318
 40
0.613304166371453
 40
0.6898932697299468
 40
0.7654314281106561
 40
0.8414490899313755
 40
0.9197390961607292
 40
0.9999999999999999
 40
0.9999999999999999
 40
0.9999999999999999
 40
0.9999999999999999
 10
88.7076923076923
 20
-15.58774038461538
 30
0.0
 10
88.71006263927259
 20
-15.48004854434693
 30
0.0
 10
88.7147914544036
 20
-15.26520315816611
 30
0.0
 10
88.75459734811314
 20
-14.94650047198502
 30
0.0
 10
88.81459156774869
 20
-14.63248249690409
 30
0.0
 10
88.90354400953885
 20
-14.32870340936877
 30
0.0
 10
89.01101053460798
 20
-14.03868405940996
 30
0.0
 10
89.13241733063096
 20
-13.76792407824068
 30
0.0
 10
89.2704141009433
 20
-13.52051247867523
 30
0.0
 10
89.4241559878155
 20
-13.29426695514788
 30
0.0
 10
89.59929253361545
 20
-13.08925019440361
 30
0.0
 10
89.79404107274323
 20
-12.90020755423951
 30
0.0
 10
90.00980341099427
 20
-12.72589350715405
 30
0.0
 10
90.16871511206487
 20
-12.62698970126635
 30
0.0
 10
90.24915865384614
 20
-12.57692307692308
 30
0.0
  0
LINE
  5
116
330
1F
100
AcDbEntity
  8
0
  6
Continuous
 62
     7
370
    25
100
AcDbLine
 10
90.2491586538
 20
-12.5769230769
 30
0.0
 11
90.6692307692
 21
-13.2530048077
 31
0.0
  0
SPLINE
  5
117
330
1F
100
AcDbEntity
  8
0
  6
Continuous
 62
     7
370
    25
100
AcDbSpline
210
0.0
220
0.0
230
1.0
 70
     8
 71
     3
 72
    15
 73
    11
 74
     0
 42
0.00000001
 43
0.00000001
 40
0.0
 40
0.0
 40
0.0
 40
0.0
 40
0.1283242377690962
 40
0.2525844750621367
 40
0.3735064833109015
 40
0.4933644513855718
 40
0.6146085973434222
 40
0.7384702442356683
 40
0.8659947178700185
 40
0.9999999999999999
 40
0.9999999999999999
 40
0.9999999999999999
 40
0.9999999999999999
 10
90.66923076923075
 20
-13.25300480769231
 30
0.0
 10
90.57710061364605
 20
-13.32713874723565
 30
0.0
 10
90.39575804430524
 20
-13.4730588207103
 30
0.0
 10
90.16173250160294
 20
-13.72644542846026
 30
0.0
 10
89.96073153705441
 20
-13.99647477931306
 30
0.0
 10
89.79692189174732
 20
-14.28776118772242
 30
0.0
 10
89.67035244793965
 20
-14.59989610214237
 30
0.0
 10
89.58078906236062
 20
-14.93164857678713
 30
0.0
 10
89.52497815222914
 20
-15.28297130368348
 30
0.0
 10
89.51863485743225
 20
-15.523824672632
 30
0.0
 10
89.51538461538459
 20
-15.64723557692308
 30
0.0
  0
SPLINE
  5
118
330
1F
100
AcDbEntity
  8
0
  6
Continuous
 62
     7
370
    25
100
AcDbSpline
210
0.0
220
0.0
230
1.0
 70
     8
 71
     3
 72
    23
 73
    19
 74
     0
 42
0.00000001
 43
0.00000001
 40
0.0
 40
0.0
 40
0.0
 40
0.0
 40
0.0695216413260454
 40
0.1369209822612553
 40
0.2019692428653324
 40
0.2654615503849177
 40
0.328247884512838
 40
0.3908167166700981
 40
0.4535501756793822
 40
0.5175419816323166
 40
0.5807383719174795
 40
0.6419215091741667
 40
0.7015967244089308
 40
0.7603128802455018
 40
0.8187565130146967
 40
0.8777180795361961
 40
0.9380940530276967
 40
1.0
 40
1.0
 40
1.0
 40
1.0
 10
89.51538461538459
 20
-15.64723557692308
 30
0.0
 10
89.51810220963813
 20
-15.74587289469568
 30
0.0
 10
89.52345443762762
 20
-15.9401364100477
 30
0.0
 10
89.55690999195872
 20
-16.22532366176776
 30
0.0
 10
89.61770372760417
 20
-16.49697542696542
 30
0.0
 10
89.6978061876702
 20
-16.75679439271098
 30
0.0
 10
89.80516407608803
 20
-17.00293261179114
 30
0.0
 10
89.93581773468371
 20
-17.23603497351287
 30
0.0
 10
90.08766069548189
 20
-17.45816909066013
 30
0.0
 10
90.26357352650642
 20
-17.66289785410777
 30
0.0
 10
90.45488438617409
 20
-17.85017244374707
 30
0.0
 10
90.65996531710616
 20
-18.01242679413407
 30
0.0
 10
90.87267360878047
 20
-18.15369319377415
 30
0.0
 10
91.09832094592241
 20
-18.26453708150357
 30
0.0
 10
91.33174508286824
 20
-18.35524466272837
 30
0.0
 10
91.5773521403352
 20
-18.41491908606179
 30
0.0
 10
91.8319955883873
 20
-18.45468544569511
 30
0.0
 10
92.00561417627038
 20
-18.45923514785497
 30
0.0
 10
92.09350961538459
 20
-18.46153846153846
 30
0.0
  0
SPLINE
  5
119
330
1F
100
AcDbEntity
  8
0
  6
Continuous
 62
     7
370
    25
100
AcDbSpline
210
0.0
220
0.0
230
1.0
 70
     8
 71
     3
 72
    19
 73
    15
 74
     0
 42
0.00000001
 43
0.00000001
 40
0.0
 40
0.0
 40
0.0
 40
0.0
 40
0.0805239642078256
 40
0.160374999045653
 40
0.2403334193674263
 40
0.3225392808610309
 40
0.4050330270283451
 40
0.4866047854442859
 40
0.5678723327264887
 40
0.6513383076388828
 40
0.7362417538888151
 40
0.8215319018066941
 40
0.9090063504022954
 40
1.0
 40
1.0
 40
1.0
 40
1.0
 10
92.0935096153846
 20
-18.46153846153846
 30
0.0
 10
92.20861399154644
 20
-18.45689390040491
 30
0.0
 10
92.43786083003366
 20
-18.44764359219308
 30
0.0
 10
92.77568422562749
 20
-18.37728782958787
 30
0.0
 10
93.10170119113694
 20
-18.25956410583855
 30
0.0
 10
93.41414922005085
 20
-18.10052481420508
 30
0.0
 10
93.70365189500862
 20
-17.89865066174898
 30
0.0
 10
93.96333030253253
 20
-17.66165559431459
 30
0.0
 10
94.18811259189431
 20
-17.38928686304095
 30
0.0
 10
94.37447100494212
 20
-17.0839766364221
 30
0.0
 10
94.52428581510526
 20
-16.75288488889415
 30
0.0
 10
94.6310189935183
 20
-16.39959615874714
 30
0.0
 10
94.69543937009085
 20
-16.02699669318648
 30
0.0
 10
94.70355465357333
 20
-15.77189363341445
 30
0.0
 10
94.7076923076923
 20
-15.64182692307692
 30
0.0
  0
SPLINE
  5
11A
330
1F
100
AcDbEntity
  8
0
  6
Continuous
 62
     7
370
    25
100
AcDbSpline
210
0.0
220
0.0
230
1.0
 70
     8
 71
     3
 72
    15
 73
    11
 74
     0
 42
0.00000001
 43
0.00000001
 40
0.0
 40
0.0
 40
0.0
 40
0.0
 40
0.1299810785766151
 40
0.2554473120268492
 40
0.3772983447181155
 40
0.4984417785420217
 40
0.6193721253366251
 40
0.7418565019578119
 40
0.868563689145755
 40
1.0
 40
1.0
 40
1.0
 40
1.0
 10
94.70769230769231
 20
-15.64182692307693
 30
0.0
 10
94.70435074347436
 20
-15.52262787753325
 30
0.0
 10
94.69778368304685
 20
-15.28837012160651
 30
0.0
 10
94.64242349163223
 20
-14.94593995999793
 30
0.0
 10
94.55179700520216
 20
-14.61993447495565
 30
0.0
 10
94.42541733364939
 20
-14.31036525347636
 30
0.0
 10
94.26206086418712
 20
-14.0177979693317
 30
0.0
 10
94.06056585352815
 20
-13.74412294811298
 30
0.0
 10
93.82672888128167
 20
-13.48389453539701
 30
0.0
 10
93.64591124082169
 20
-13.33090230990017
 30
0.0
 10
93.55384615384614
 20
-13.25300480769231
 30
0.0
  0
LINE
  5
11B
330
1F
100
AcDbEntity
  8
0
  6
Continuous
 62
     7
370
    25
100
AcDbLine
 10
93.5538461538
 20
-13.2530048077
 30
0.0
 11
93.9973557692
 21
-12.5769230769
 31
0.0
  0
SPLINE
  5
11C
330
1F
100
AcDbEntity
  8
0
  6
Continuous
 62
     7
370
    25
100
AcDbSpline
210
0.0
220
0.0
230
1.0
 70
     8
 71
     3
 72
    23
 73
    19
 74
     0
 42
0.00000001
 43
0.00000001
 40
0.0
 40
0.0
 40
0.0
 40
0.0
 40
0.0596333961362504
 40
0.1190688615049887
 40
0.178196546215671
 40
0.2369566475521803
 40
0.2959319880758042
 40
0.355855768742913
 40
0.4164733051171476
 40
0.4777415997317961
 40
0.539902990453609
 40
0.6025375151243939
 40
0.6654223850767761
 40
0.7297652560446459
 40
0.7948287708416051
 40
0.8618265399701651
 40
0.9300109324340662
 40
0.9999999999999999
 40
0.9999999999999999
 40
0.9999999999999999
 40
0.9999999999999999
 10
93.99735576923075
 20
-12.57692307692308
 30
0.0
 10
94.05621763844722
 20
-12.61700573976909
 30
0.0
 10
94.17374600690786
 20
-12.69703802604469
 30
0.0
 10
94.33945944977197
 20
-12.8308233486408
 30
0.0
 10
94.49457234712067
 20
-12.97513148731014
 30
0.0
 10
94.63887677888118
 20
-13.12939945073243
 30
0.0
 10
94.77582597114485
 20
-13.29161290457501
 30
0.0
 10
94.89887287703219
 20
-13.46731324353541
 30
0.0
 10
95.0149338497303
 20
-13.65083510158534
 30
0.0
 10
95.11936694968084
 20
-13.84433293573205
 30
0.0
 10
95.21324034793682
 20
-14.0458061591939
 30
0.0
 10
95.29396050121525
 20
-14.2549712753462
 30
0.0
 10
95.3633122021153
 20
-14.47091936517645
 30
0.0
 10
95.4184368081029
 20
-14.69390433249358
 30
0.0
 10
95.46243610705277
 20
-14.9243657852897
 30
0.0
 10
95.49163133964618
 20
-15.16170770238136
 30
0.0
 10
95.51342491966724
 20
-15.40584834078684
 30
0.0
 10
95.5147257202532
 20
-15.57086244415157
 30
0.0
 10
95.5153846153846
 20
-15.65444711538461
 30
0.0
  0
SPLINE
  5
11D
330
1F
100
AcDbEntity
  8
0
  6
Continuous
 62
     7
370
    25
100
AcDbSpline
210
0.0
220
0.0
230
1.0
 70
     8
 71
     3
 72
    23
 73
    19
 74
     0
 42
0.00000001
 43
0.00000001
 40
0.0
 40
0.0
 40
0.0
 40
0.0
 40
0.0695685382011889
 40
0.1363548397987115
 40
0.20112466043093
 40
0.2644879520979901
 40
0.3271833227488739
 40
0.3895786829804759
 40
0.4521727783426251
 40
0.5158754226821208
 40
0.5791877819485282
 40
0.6401324160321594
 40
0.6999901837837891
 40
0.7586503122363208
 40
0.8177942249348475
 40
0.8769663120061778
 40
0.9376253238851796
 40
1.0
 40
1.0
 40
1.0
 40
1.0
 10
95.5153846153846
 20
-15.65444711538461
 30
0.0
 10
95.51308894547256
 20
-15.78201629026369
 30
0.0
 10
95.50858941578308
 20
-16.03205279891631
 30
0.0
 10
95.4592499115933
 20
-16.39804850635909
 30
0.0
 10
95.38459240227365
 20
-16.747712437211
 30
0.0
 10
95.27834739425474
 20
-17.0816590687607
 30
0.0
 10
95.13803866726602
 20
-17.39784678513569
 30
0.0
 10
94.9705752011628
 20
-17.69890785470315
 30
0.0
 10
94.77042281390307
 20
-17.98173552951871
 30
0.0
 10
94.54233645713762
 20
-18.24447568202626
 30
0.0
 10
94.29478564991722
 20
-18.48475146445246
 30
0.0
 10
94.02920081093471
 20
-18.69382918518032
 30
0.0
 10
93.75145059337976
 20
-18.8710160214696
 30
0.0
 10
93.45978427232133
 20
-19.01697674533458
 30
0.0
 10
93.15539781353273
 20
-19.13110441336551
 30
0.0
 10
92.83643169924773
 20
-19.209677250358
 30
0.0
 10
92.50559218996621
 20
-19.26037511216722
 30
0.0
 10
92.27999601808084
 20
-19.26625156846074
 30
0.0
 10
92.16562499999999
 20
-19.26923076923077
 30
0.0
  0
LINE
  5
11E
330
1F
100
AcDbEntity
  8
0
  6
Continuous
 62
     7
370
    25
100
AcDbLine
 10
95.4
 20
-20.7692307692
 30
0.0
 11
95.4
 21
-21.5769230769
 31
0.0
  0
LINE
  5
11F
330
1F
100
AcDbEntity
  8
0
  6
Continuous
 62
     7
370
    25
100
AcDbLine
 10
95.4
 20
-21.5769230769
 30
0.0
 11
86.4
 21
-21.5769230769
 31
0.0
  0
LINE
  5
120
330
1F
100
AcDbEntity
  8
0
  6
Continuous
 62
     7
370
    25
100
AcDbLine
 10
86.4
 20
-21.5769230769
 30
0.0
 11
86.4
 21
-20.7692307692
 31
0.0
  0
LINE
  5
121
330
1F
100
AcDbEntity
  8
0
  6
Continuous
 62
     7
370
    25
100
AcDbLine
 10
86.4
 20
-20.7692307692
 30
0.0
 11
95.4
 21
-20.7692307692
 31
0.0
  0
LINE
  5
122
330
1F
100
AcDbEntity
  8
0
  6
Continuous
 62
     7
370
    25
100
AcDbLine
 10
95.4
 20
-28.7307692308
 30
0.0
 11
91.8681490385
 21
-26.2103365385
 31
0.0
  0
LINE
  5
123
330
1F
100
AcDbEntity
  8
0
  6
Continuous
 62
     7
370
    25
100
AcDbLine
 10
91.8681490385
 20
-26.2103365385
 30
0.0
 11
88.8230769231
 21
-28.3846153846
 31
0.0
  0
LINE
  5
124
330
1F
100
AcDbEntity
  8
0
  6
Continuous
 62
     7
370
    25
100
AcDbLine
 10
88.8230769231
 20
-28.3846153846
 30
0.0
 11
88.8230769231
 21
-27.4236778846
 31
0.0
  0
LINE
  5
125
330
1F
100
AcDbEntity
  8
0
  6
Continuous
 62
     7
370
    25
100
AcDbLine
 10
88.8230769231
 20
-27.4236778846
 30
0.0
 11
91.1956730769
 21
-25.7307692308
 31
0.0
  0
LINE
  5
126
330
1F
100
AcDbEntity
  8
0
  6
Continuous
 62
     7
370
    25
100
AcDbLine
 10
91.1956730769
 20
-25.7307692308
 30
0.0
 11
88.8230769231
 21
-24.0378605769
 31
0.0
  0
LINE
  5
127
330
1F
100
AcDbEntity
  8
0
  6
Continuous
 62
     7
370
    25
100
AcDbLine
 10
88.8230769231
 20
-24.0378605769
 30
0.0
 11
88.8230769231
 21
-23.0769230769
 31
0.0
  0
LINE
  5
128
330
1F
100
AcDbEntity
  8
0
  6
Continuous
 62
     7
370
    25
100
AcDbLine
 10
88.8230769231
 20
-23.0769230769
 30
0.0
 11
91.8681490385
 21
-25.2493990385
 31
0.0
  0
LINE
  5
129
330
1F
100
AcDbEntity
  8
0
  6
Continuous
 62
     7
370
    25
100
AcDbLine
 10
91.8681490385
 20
-25.2493990385
 30
0.0
 11
95.4
 21
-22.7307692308
 31
0.0
  0
LINE
  5
12A
330
1F
100
AcDbEntity
  8
0
  6
Continuous
 62
     7
370
    25
100
AcDbLine
 10
95.4
 20
-22.7307692308
 30
0.0
 11
95.4
 21
-23.6917067308
 31
0.0
  0
LINE
  5
12B
330
1F
100
AcDbEntity
  8
0
  6
Continuous
 62
     7
370
    25
100
AcDbLine
 10
95.4
 20
-23.6917067308
 30
0.0
 11
92.5424278846
 21
-25.7307692308
 31
0.0
  0
LINE
  5
12C
330
1F
100
AcDbEntity
  8
0
  6
Continuous
 62
     7
370
    25
100
AcDbLine
 10
92.5424278846
 20
-25.7307692308
 30
0.0
 11
95.4
 21
-27.7698317308
 31
0.0
  0
LINE
  5
12D
330
1F
100
AcDbEntity
  8
0
  6
Continuous
 62
     7
370
    25
100
AcDbLine
 10
95.4
 20
-27.7698317308
 30
0.0
 11
95.4
 21
-28.7307692308
 31
0.0
  0
LINE
  5
12E
330
1F
100
AcDbEntity
  8
0
  6
Continuous
 62
     7
370
    25
100
AcDbLine
 10
95.4
 20
-35.9423076923
 30
0.0
 11
90.8098557692
 21
-33.0036057692
 31
0.0
  0
LINE
  5
12F
330
1F
100
AcDbEntity
  8
0
  6
Continuous
 62
     7
370
    25
100
AcDbLine
 10
90.8098557692
 20
-33.0036057692
 30
0.0
 11
86.4
 21
-35.8269230769
 31
0.0
  0
LINE
  5
130
330
1F
100
AcDbEntity
  8
0
  6
Continuous
 62
     7
370
    25
100
AcDbLine
 10
86.4
 20
-35.8269230769
 30
0.0
 11
86.4
 21
-34.8948317308
 31
0.0
  0
LINE
  5
131
330
1F
100
AcDbEntity
  8
0
  6
Continuous
 62
     7
370
    25
100
AcDbLine
 10
86.4
 20
-34.8948317308
 30
0.0
 11
90.0814903846
 21
-32.5384615385
 31
0.0
  0
LINE
  5
132
330
1F
100
AcDbEntity
  8
0
  6
Continuous
 62
     7
370
    25
100
AcDbLine
 10
90.0814903846
 20
-32.5384615385
 30
0.0
 11
86.4
 21
-30.1820913462
 31
0.0
  0
LINE
  5
133
330
1F
100
AcDbEntity
  8
0
  6
Continuous
 62
     7
370
    25
100
AcDbLine
 10
86.4
 20
-30.1820913462
 30
0.0
 11
86.4
 21
-29.25
 31
0.0
  0
LINE
  5
134
330
1F
100
AcDbEntity
  8
0
  6
Continuous
 62
     7
370
    25
100
AcDbLine
 10
86.4
 20
-29.25
 30
0.0
 11
90.8098557692
 21
-32.0715144231
 31
0.0
  0
LINE
  5
135
330
1F
100
AcDbEntity
  8
0
  6
Continuous
 62
     7
370
    25
100
AcDbLine
 10
90.8098557692
 20
-32.0715144231
 30
0.0
 11
95.4
 21
-29.1346153846
 31
0.0
  0
LINE
  5
136
330
1F
100
AcDbEntity
  8
0
  6
Continuous
 62
     7
370
    25
100
AcDbLine
 10
95.4
 20
-29.1346153846
 30
0.0
 11
95.4
 21
-30.0667067308
 31
0.0
  0
LINE
  5
137
330
1F
100
AcDbEntity
  8
0
  6
Continuous
 62
     7
370
    25
100
AcDbLine
 10
95.4
 20
-30.0667067308
 30
0.0
 11
91.5382211538
 21
-32.5384615385
 31
0.0
  0
LINE
  5
138
330
1F
100
AcDbEntity
  8
0
  6
Continuous
 62
     7
370
    25
100
AcDbLine
 10
91.5382211538
 20
-32.5384615385
 30
0.0
 11
95.4
 21
-35.0102163462
 31
0.0
  0
LINE
  5
139
330
1F
100
AcDbEntity
  8
0
  6
Continuous
 62
     7
370
    25
100
AcDbLine
 10
95.4
 20
-35.0102163462
 30
0.0
 11
95.4
 21
-35.9423076923
 31
0.0
  0
MTEXT
  5
13B
330
1F
100
AcDbEntity
  8
0
  6
Continuous
 62
     7
100
AcDbMText
 10
-25.4
 20
-51.8195663917
 30
0.0
 40
4.83362
 41
0.0
 71
     1
 72
     1
  1
SOLIDWORKS Educational Product.
  7
SLDTEXTSTYLE0
 73
     1
 44
1.0
  0
MTEXT
  5
13C
330
1F
100
AcDbEntity
  8
0
  6
Continuous
 62
     7
100
AcDbMText
 10
-25.4
 20
-59.0699963917
 30
0.0
 40
4.83362
 41
0.0
 71
     1
 72
     1
  1
For Instructional Use Only.
  7
SLDTEXTSTYLE0
 73
     1
 44
1.0
  0
ENDSEC
  0
SECTION
  2
OBJECTS
  0
DICTIONARY
  5
C
330
0
100
AcDbDictionary
281
     1
  3
ACAD_GROUP
350
D
  3
ACAD_LAYOUT
350
1A
  3
ACAD_MLINESTYLE
350
17
  3
ACAD_PLOTSETTINGS
350
19
  3
ACAD_PLOTSTYLENAME
350
E
  3
ACAD_SCALELIST
350
47
  3
DWGPROPS
350
13D
  0
DICTIONARY
  5
D
102
{ACAD_REACTORS
330
C
102
}
330
C
100
AcDbDictionary
281
     1
  0
DICTIONARY
  5
1A
102
{ACAD_REACTORS
330
C
102
}
330
C
100
AcDbDictionary
281
     1
  3
Layout1
350
1E
  3
Layout2
350
26
  3
Model
350
22
  0
DICTIONARY
  5
17
102
{ACAD_REACTORS
330
C
102
}
330
C
100
AcDbDictionary
281
     1
  3
Standard
350
18
  0
DICTIONARY
  5
19
102
{ACAD_REACTORS
330
C
102
}
330
C
100
AcDbDictionary
281
     1
  0
ACDBDICTIONARYWDFLT
  5
E
102
{ACAD_REACTORS
330
C
102
}
330
C
100
AcDbDictionary
281
     1
  3
Normal
350
F
100
AcDbDictionaryWithDefault
340
F
  0
DICTIONARY
  5
47
102
{ACAD_REACTORS
330
C
102
}
330
C
100
AcDbDictionary
281
     1
  3
A0
350
48
  3
A1
350
49
  3
A2
350
4A
  3
A3
350
4B
  3
A4
350
4C
  3
A5
350
4D
  3
A6
350
4E
  3
A7
350
4F
  3
A8
350
50
  3
A9
350
51
  3
B0
350
52
  3
B1
350
53
  3
B2
350
54
  3
B3
350
55
  3
B4
350
56
  3
B5
350
57
  3
B6
350
58
  3
B7
350
59
  3
B8
350
5A
  3
B9
350
5B
  3
C0
350
5C
  3
C1
350
5D
  3
C2
350
5E
  3
C3
350
5F
  3
C4
350
60
  3
C5
350
61
  3
C6
350
62
  3
C7
350
63
  3
C8
350
64
  3
C9
350
65
  3
D0
350
66
  3
D1
350
67
  3
D2
350
68
  0
XRECORD
  5
13D
102
{ACAD_REACTORS
330
C
102
}
330
C
100
AcDbXrecord
280
     1
  1
DWGPROPS COOKIE
  2

  3

  4

  6

  7

  8
Pitip
  9

300
=
301
=
302
=
303
=
304
=
305
=
306
=
307
=
308
=
309
=
 40
0.0
 41
2459600.71472441
 42
2459600.714750092
  1

 90
        0
  0
LAYOUT
  5
1E
102
{ACAD_REACTORS
330
1A
102
}
330
1A
100
AcDbPlotSettings
  1

  2
none_device
  4

  6

 40
0.0
 41
0.0
 42
0.0
 43
0.0
 44
0.0
 45
0.0
 46
0.0
 47
0.0
 48
0.0
 49
0.0
140
0.0
141
0.0
142
1.0
143
1.0
 70
   688
 72
     1
 73
     0
 74
     5
  7

 75
    16
147
1.0
148
0.0
149
0.0
100
AcDbLayout
  1
Layout1
 70
     1
 71
     1
 10
0.0
 20
0.0
 11
420.0
 21
297.0
 12
0.0
 22
0.0
 32
0.0
 14
1.0000000000E+20
 24
1.0000000000E+20
 34
1.0000000000E+20
 15
-1.0000000000E+20
 25
-1.0000000000E+20
 35
-1.0000000000E+20
146
0.0
 13
0.0
 23
0.0
 33
0.0
 16
1.0
 26
0.0
 36
0.0
 17
0.0
 27
1.0
 37
0.0
 76
     0
330
1B
  0
LAYOUT
  5
26
102
{ACAD_REACTORS
330
1A
102
}
330
1A
100
AcDbPlotSettings
  1

  2
none_device
  4

  6

 40
0.0
 41
0.0
 42
0.0
 43
0.0
 44
0.0
 45
0.0
 46
0.0
 47
0.0
 48
0.0
 49
0.0
140
0.0
141
0.0
142
1.0
143
1.0
 70
   688
 72
     1
 73
     0
 74
     5
  7

 75
    16
147
1.0
148
0.0
149
0.0
100
AcDbLayout
  1
Layout2
 70
     1
 71
     2
 10
0.0
 20
0.0
 11
0.0
 21
0.0
 12
0.0
 22
0.0
 32
0.0
 14
0.0
 24
0.0
 34
0.0
 15
0.0
 25
0.0
 35
0.0
146
0.0
 13
0.0
 23
0.0
 33
0.0
 16
1.0
 26
0.0
 36
0.0
 17
0.0
 27
1.0
 37
0.0
 76
     0
330
23
  0
LAYOUT
  5
22
102
{ACAD_REACTORS
330
1A
102
}
330
1A
100
AcDbPlotSettings
  1

  2
none_device
  4
ANSI_A_(11.00_x_8.50_Inches)
  6

 40
6.35
 41
19.05
 42
6.35000508
 43
19.05000254
 44
279.4
 45
215.9
 46
54.45937246
 47
88.89999873
 48
0.0
 49
0.0
140
0.0
141
0.0
142
0.0828248031
143
1.0
 70
  1696
 72
     0
 73
     0
 74
     0
  7

 75
     0
147
0.0179189148
148
-1300.4909072572
149
0.0
100
AcDbLayout
  1
Model
 70
     1
 71
     0
 10
0.0
 20
0.0
 11
420.0
 21
297.0
 12
0.0
 22
0.0
 32
0.0
 14
-25.4
 24
-50.8
 34
0.0
 15
100.4
 25
50.8
 35
0.0
146
0.0
 13
0.0
 23
0.0
 33
0.0
 16
1.0
 26
0.0
 36
0.0
 17
0.0
 27
1.0
 37
0.0
 76
     0
330
1F
331
29
  0
MLINESTYLE
  5
18
102
{ACAD_REACTORS
330
17
102
}
330
17
100
AcDbMlineStyle
  2
Standard
 70
     0
  3

 62
   256
 51
90.0
 52
90.0
 71
     2
 49
0.5
 62
   256
  6
BYLAYER
 49
-0.5
 62
   256
  6
BYLAYER
  0
ACDBPLACEHOLDER
  5
F
102
{ACAD_REACTORS
330
E
102
}
330
E
  0
SCALE
  5
48
102
{ACAD_REACTORS
330
47
102
}
330
47
100
AcDbScale
 70
     0
300
1:1
140
1.0
141
1.0
290
     1
  0
SCALE
  5
49
102
{ACAD_REACTORS
330
47
102
}
330
47
100
AcDbScale
 70
     0
300
1:2
140
1.0
141
2.0
290
     0
  0
SCALE
  5
4A
102
{ACAD_REACTORS
330
47
102
}
330
47
100
AcDbScale
 70
     0
300
1:4
140
1.0
141
4.0
290
     0
  0
SCALE
  5
4B
102
{ACAD_REACTORS
330
47
102
}
330
47
100
AcDbScale
 70
     0
300
1:5
140
1.0
141
5.0
290
     0
  0
SCALE
  5
4C
102
{ACAD_REACTORS
330
47
102
}
330
47
100
AcDbScale
 70
     0
300
1:8
140
1.0
141
8.0
290
     0
  0
SCALE
  5
4D
102
{ACAD_REACTORS
330
47
102
}
330
47
100
AcDbScale
 70
     0
300
1:10
140
1.0
141
10.0
290
     0
  0
SCALE
  5
4E
102
{ACAD_REACTORS
330
47
102
}
330
47
100
AcDbScale
 70
     0
300
1:16
140
1.0
141
16.0
290
     0
  0
SCALE
  5
4F
102
{ACAD_REACTORS
330
47
102
}
330
47
100
AcDbScale
 70
     0
300
1:20
140
1.0
141
20.0
290
     0
  0
SCALE
  5
50
102
{ACAD_REACTORS
330
47
102
}
330
47
100
AcDbScale
 70
     0
300
1:30
140
1.0
141
30.0
290
     0
  0
SCALE
  5
51
102
{ACAD_REACTORS
330
47
102
}
330
47
100
AcDbScale
 70
     0
300
1:40
140
1.0
141
40.0
290
     0
  0
SCALE
  5
52
102
{ACAD_REACTORS
330
47
102
}
330
47
100
AcDbScale
 70
     0
300
1:50
140
1.0
141
50.0
290
     0
  0
SCALE
  5
53
102
{ACAD_REACTORS
330
47
102
}
330
47
100
AcDbScale
 70
     0
300
1:100
140
1.0
141
100.0
290
     0
  0
SCALE
  5
54
102
{ACAD_REACTORS
330
47
102
}
330
47
100
AcDbScale
 70
     0
300
2:1
140
2.0
141
1.0
290
     0
  0
SCALE
  5
55
102
{ACAD_REACTORS
330
47
102
}
330
47
100
AcDbScale
 70
     0
300
4:1
140
4.0
141
1.0
290
     0
  0
SCALE
  5
56
102
{ACAD_REACTORS
330
47
102
}
330
47
100
AcDbScale
 70
     0
300
8:1
140
8.0
141
1.0
290
     0
  0
SCALE
  5
57
102
{ACAD_REACTORS
330
47
102
}
330
47
100
AcDbScale
 70
     0
300
10:1
140
10.0
141
1.0
290
     0
  0
SCALE
  5
58
102
{ACAD_REACTORS
330
47
102
}
330
47
100
AcDbScale
 70
     0
300
100:1
140
100.0
141
1.0
290
     0
  0
SCALE
  5
59
102
{ACAD_REACTORS
330
47
102
}
330
47
100
AcDbScale
 70
     0
300
1/128" = 1'-0"
140
0.0078125
141
12.0
290
     0
  0
SCALE
  5
5A
102
{ACAD_REACTORS
330
47
102
}
330
47
100
AcDbScale
 70
     0
300
1/64" = 1'-0"
140
0.015625
141
12.0
290
     0
  0
SCALE
  5
5B
102
{ACAD_REACTORS
330
47
102
}
330
47
100
AcDbScale
 70
     0
300
1/32" = 1'-0"
140
0.03125
141
12.0
290
     0
  0
SCALE
  5
5C
102
{ACAD_REACTORS
330
47
102
}
330
47
100
AcDbScale
 70
     0
300
1/16" = 1'-0"
140
0.0625
141
12.0
290
     0
  0
SCALE
  5
5D
102
{ACAD_REACTORS
330
47
102
}
330
47
100
AcDbScale
 70
     0
300
3/32" = 1'-0"
140
0.09375
141
12.0
290
     0
  0
SCALE
  5
5E
102
{ACAD_REACTORS
330
47
102
}
330
47
100
AcDbScale
 70
     0
300
1/8" = 1'-0"
140
0.125
141
12.0
290
     0
  0
SCALE
  5
5F
102
{ACAD_REACTORS
330
47
102
}
330
47
100
AcDbScale
 70
     0
300
3/16" = 1'-0"
140
0.1875
141
12.0
290
     0
  0
SCALE
  5
60
102
{ACAD_REACTORS
330
47
102
}
330
47
100
AcDbScale
 70
     0
300
1/4" = 1'-0"
140
0.25
141
12.0
290
     0
  0
SCALE
  5
61
102
{ACAD_REACTORS
330
47
102
}
330
47
100
AcDbScale
 70
     0
300
3/8" = 1'-0"
140
0.375
141
12.0
290
     0
  0
SCALE
  5
62
102
{ACAD_REACTORS
330
47
102
}
330
47
100
AcDbScale
 70
     0
300
1/2" = 1'-0"
140
0.5
141
12.0
290
     0
  0
SCALE
  5
63
102
{ACAD_REACTORS
330
47
102
}
330
47
100
AcDbScale
 70
     0
300
3/4" = 1'-0"
140
0.75
141
12.0
290
     0
  0
SCALE
  5
64
102
{ACAD_REACTORS
330
47
102
}
330
47
100
AcDbScale
 70
     0
300
1" = 1'-0"
140
1.0
141
12.0
290
     0
  0
SCALE
  5
65
102
{ACAD_REACTORS
330
47
102
}
330
47
100
AcDbScale
 70
     0
300
1-1/2" = 1'-0"
140
1.5
141
12.0
290
     0
  0
SCALE
  5
66
102
{ACAD_REACTORS
330
47
102
}
330
47
100
AcDbScale
 70
     0
300
3" = 1'-0"
140
3.0
141
12.0
290
     0
  0
SCALE
  5
67
102
{ACAD_REACTORS
330
47
102
}
330
47
100
AcDbScale
 70
     0
300
6" = 1'-0"
140
6.0
141
12.0
290
     0
  0
SCALE
  5
68
102
{ACAD_REACTORS
330
47
102
}
330
47
100
AcDbScale
 70
     0
300
1'-0" = 1'-0"
140
12.0
141
12.0
290
     0
  0
ENDSEC
  0
EOF
