  0
SECTION
  2
HEADER
  9
$ACADVER
  1
AC1015
  9
$ACADMAINTVER
 70
     6
  9
$DWGCODEPAGE
  3
ANSI_1252
  9
$INSBASE
 10
0.0
 20
0.0
 30
0.0
  9
$EXTMIN
 10
-25.4
 20
-50.8
 30
0.0
  9
$EXTMAX
 10
100.4
 20
50.8
 30
0.0
  9
$LIMMIN
 10
0.0
 20
0.0
  9
$LIMMAX
 10
420.0
 20
297.0
  9
$ORTHOMODE
 70
     0
  9
$REGENMODE
 70
     1
  9
$FILLMODE
 70
     1
  9
$QTEXTMODE
 70
     0
  9
$MIRRTEXT
 70
     1
  9
$LTSCALE
 40
1.0
  9
$ATTMODE
 70
     1
  9
$TEXTSIZE
 40
3.5
  9
$TRACEWID
 40
1.0
  9
$TEXTSTYLE
  7
Standard
  9
$CLAYER
  8
0
  9
$CELTYPE
  6
ByLayer
  9
$CECOLOR
 62
   256
  9
$CELTSCALE
 40
1.0
  9
$DISPSILH
 70
     0
  9
$DIMSCALE
 40
1.0
  9
$DIMASZ
 40
3.302
  9
$DIMEXO
 40
0.0
  9
$DIMDLI
 40
3.75
  9
$DIMRND
 40
0.0
  9
$DIMDLE
 40
0.0
  9
$DIMEXE
 40
1.0
  9
$DIMTP
 40
0.0
  9
$DIMTM
 40
0.0
  9
$DIMTXT
 40
3.5
  9
$DIMCEN
 40
2.5
  9
$DIMTSZ
 40
0.0
  9
$DIMTOL
 70
     0
  9
$DIMLIM
 70
     0
  9
$DIMTIH
 70
     1
  9
$DIMTOH
 70
     1
  9
$DIMSE1
 70
     0
  9
$DIMSE2
 70
     0
  9
$DIMTAD
 70
     1
  9
$DIMZIN
 70
     1
  9
$DIMBLK
  1

  9
$DIMASO
 70
     1
  9
$DIMSHO
 70
     1
  9
$DIMPOST
  1

  9
$DIMAPOST
  1

  9
$DIMALT
 70
     0
  9
$DIMALTD
 70
     3
  9
$DIMALTF
 40
0.0393700787
  9
$DIMLFAC
 40
1.0
  9
$DIMTOFL
 70
     1
  9
$DIMTVP
 40
0.0
  9
$DIMTIX
 70
     0
  9
$DIMSOXD
 70
     0
  9
$DIMSAH
 70
     0
  9
$DIMBLK1
  1

  9
$DIMBLK2
  1

  9
$DIMSTYLE
  2
ISO-25
  9
$DIMCLRD
 70
     0
  9
$DIMCLRE
 70
     0
  9
$DIMCLRT
 70
     0
  9
$DIMTFAC
 40
1.0
  9
$DIMGAP
 40
1.524
  9
$DIMJUST
 70
     0
  9
$DIMSD1
 70
     0
  9
$DIMSD2
 70
     0
  9
$DIMTOLJ
 70
     0
  9
$DIMTZIN
 70
     1
  9
$DIMALTZ
 70
     0
  9
$DIMALTTZ
 70
     0
  9
$DIMUPT
 70
     0
  9
$DIMDEC
 70
     2
  9
$DIMTDEC
 70
     2
  9
$DIMALTU
 70
     2
  9
$DIMALTTD
 70
     3
  9
$DIMTXSTY
  7
Standard
  9
$DIMAUNIT
 70
     0
  9
$DIMADEC
 70
     2
  9
$DIMALTRND
 40
0.0
  9
$DIMAZIN
 70
     0
  9
$DIMDSEP
 70
    44
  9
$DIMATFIT
 70
     3
  9
$DIMFRAC
 70
     0
  9
$DIMLDRBLK
  1

  9
$DIMLUNIT
 70
     2
  9
$DIMLWD
 70
    -2
  9
$DIMLWE
 70
    -2
  9
$DIMTMOVE
 70
     0
  9
$LUNITS
 70
     2
  9
$LUPREC
 70
     2
  9
$SKETCHINC
 40
1.0
  9
$FILLETRAD
 40
10.0
  9
$AUNITS
 70
     0
  9
$AUPREC
 70
     2
  9
$MENU
  1
.
  9
$ELEVATION
 40
0.0
  9
$PELEVATION
 40
0.0
  9
$THICKNESS
 40
0.0
  9
$LIMCHECK
 70
     0
  9
$CHAMFERA
 40
0.0
  9
$CHAMFERB
 40
0.0
  9
$CHAMFERC
 40
0.0
  9
$CHAMFERD
 40
0.0
  9
$SKPOLY
 70
     0
  9
$TDCREATE
 40
2459600.47096331
  9
$TDUCREATE
 40
2459600.72096331
  9
$TDUPDATE
 40
2459600.470988611
  9
$TDUUPDATE
 40
2459600.720988611
  9
$TDINDWG
 40
0.0000000116
  9
$TDUSRTIMER
 40
0.0000000116
  9
$USRTIMER
 70
     1
  9
$ANGBASE
 50
0.0
  9
$ANGDIR
 70
     0
  9
$PDMODE
 70
     0
  9
$PDSIZE
 40
-1.0
  9
$PLINEWID
 40
0.0
  9
$SPLFRAME
 70
     0
  9
$SPLINETYPE
 70
     6
  9
$SPLINESEGS
 70
     8
  9
$HANDSEED
  5
123
  9
$SURFTAB1
 70
     6
  9
$SURFTAB2
 70
     6
  9
$SURFTYPE
 70
     6
  9
$SURFU
 70
     6
  9
$SURFV
 70
     6
  9
$UCSBASE
  2

  9
$UCSNAME
  2

  9
$UCSORG
 10
0.0
 20
0.0
 30
0.0
  9
$UCSXDIR
 10
1.0
 20
0.0
 30
0.0
  9
$UCSYDIR
 10
0.0
 20
1.0
 30
0.0
  9
$UCSORTHOREF
  2

  9
$UCSORTHOVIEW
 70
     0
  9
$UCSORGTOP
 10
0.0
 20
0.0
 30
0.0
  9
$UCSORGBOTTOM
 10
0.0
 20
0.0
 30
0.0
  9
$UCSORGLEFT
 10
0.0
 20
0.0
 30
0.0
  9
$UCSORGRIGHT
 10
0.0
 20
0.0
 30
0.0
  9
$UCSORGFRONT
 10
0.0
 20
0.0
 30
0.0
  9
$UCSORGBACK
 10
0.0
 20
0.0
 30
0.0
  9
$PUCSBASE
  2

  9
$PUCSNAME
  2

  9
$PUCSORG
 10
0.0
 20
0.0
 30
0.0
  9
$PUCSXDIR
 10
1.0
 20
0.0
 30
0.0
  9
$PUCSYDIR
 10
0.0
 20
1.0
 30
0.0
  9
$PUCSORTHOREF
  2

  9
$PUCSORTHOVIEW
 70
     0
  9
$PUCSORGTOP
 10
0.0
 20
0.0
 30
0.0
  9
$PUCSORGBOTTOM
 10
0.0
 20
0.0
 30
0.0
  9
$PUCSORGLEFT
 10
0.0
 20
0.0
 30
0.0
  9
$PUCSORGRIGHT
 10
0.0
 20
0.0
 30
0.0
  9
$PUCSORGFRONT
 10
0.0
 20
0.0
 30
0.0
  9
$PUCSORGBACK
 10
0.0
 20
0.0
 30
0.0
  9
$USERI1
 70
     0
  9
$USERI2
 70
     0
  9
$USERI3
 70
     0
  9
$USERI4
 70
     0
  9
$USERI5
 70
     0
  9
$USERR1
 40
0.0
  9
$USERR2
 40
0.0
  9
$USERR3
 40
0.0
  9
$USERR4
 40
0.0
  9
$USERR5
 40
0.0
  9
$WORLDVIEW
 70
     1
  9
$SHADEDGE
 70
     3
  9
$SHADEDIF
 70
    70
  9
$TILEMODE
 70
     1
  9
$MAXACTVP
 70
    64
  9
$PINSBASE
 10
0.0
 20
0.0
 30
0.0
  9
$PLIMCHECK
 70
     0
  9
$PEXTMIN
 10
1.0000000000E+20
 20
1.0000000000E+20
 30
1.0000000000E+20
  9
$PEXTMAX
 10
-1.0000000000E+20
 20
-1.0000000000E+20
 30
-1.0000000000E+20
  9
$PLIMMIN
 10
0.0
 20
0.0
  9
$PLIMMAX
 10
420.0
 20
297.0
  9
$UNITMODE
 70
     0
  9
$VISRETAIN
 70
     1
  9
$PLINEGEN
 70
     0
  9
$PSLTSCALE
 70
     1
  9
$TREEDEPTH
 70
  3020
  9
$CMLSTYLE
  2
Standard
  9
$CMLJUST
 70
     0
  9
$CMLSCALE
 40
20.0
  9
$PROXYGRAPHICS
 70
     1
  9
$MEASUREMENT
 70
     1
  9
$CELWEIGHT
370
    -1
  9
$ENDCAPS
280
     0
  9
$JOINSTYLE
280
     0
  9
$LWDISPLAY
290
     1
  9
$INSUNITS
 70
     4
  9
$HYPERLINKBASE
  1

  9
$STYLESHEET
  1

  9
$XEDIT
290
     1
  9
$CEPSNTYPE
380
     0
  9
$PSTYLEMODE
290
     1
  9
$FINGERPRINTGUID
  2
{312cf5f5-b9fd-4176-8deb-ea4494108095}
  9
$VERSIONGUID
  2
{FAEB1C32-E019-11D5-929B-00C0DF256EC4}
  9
$EXTNAMES
290
     1
  9
$PSVPSCALE
 40
0.0
  9
$OLESTARTUP
290
     0
  0
ENDSEC
  0
SECTION
  2
CLASSES
  0
CLASS
  1
ACDBDICTIONARYWDFLT
  2
AcDbDictionaryWithDefault
  3
ObjectDBX Classes
 90
        0
280
     0
281
     0
  0
CLASS
  1
VISUALSTYLE
  2
AcDbVisualStyle
  3
ObjectDBX Classes
 90
     4095
280
     0
281
     0
  0
CLASS
  1
MATERIAL
  2
AcDbMaterial
  3
ObjectDBX Classes
 90
     1153
280
     0
281
     0
  0
CLASS
  1
SCALE
  2
AcDbScale
  3
ObjectDBX Classes
 90
     1153
280
     0
281
     0
  0
CLASS
  1
TABLESTYLE
  2
AcDbTableStyle
  3
ObjectDBX Classes
 90
     4095
280
     0
281
     0
  0
CLASS
  1
MLEADERSTYLE
  2
AcDbMLeaderStyle
  3
ACDB_MLEADERSTYLE_CLASS
 90
     4095
280
     0
281
     0
  0
CLASS
  1
SUN
  2
AcDbSun
  3
SCENEOE
 90
     1153
280
     0
281
     0
  0
CLASS
  1
ACDBPLACEHOLDER
  2
AcDbPlaceHolder
  3
ObjectDBX Classes
 90
        0
280
     0
281
     0
  0
CLASS
  1
LAYOUT
  2
AcDbLayout
  3
ObjectDBX Classes
 90
        0
280
     0
281
     0
  0
ENDSEC
  0
SECTION
  2
TABLES
  0
TABLE
  2
VPORT
  5
8
330
0
100
AcDbSymbolTable
 70
     1
  0
VPORT
  5
29
330
8
100
AcDbSymbolTableRecord
100
AcDbViewportTableRecord
  2
*Active
 70
     0
 10
0.0
 20
0.0
 11
1.0
 21
1.0
 12
37.5
 22
0.0
 13
0.0
 23
0.0
 14
10.0
 24
10.0
 15
10.0
 25
10.0
 16
0.0
 26
0.0
 36
1.0
 17
0.0
 27
0.0
 37
0.0
 40
103.632
 41
1.2381889764
 42
50.0
 43
0.0
 44
0.0
 50
0.0
 51
0.0
 71
     0
 72
   100
 73
     1
 74
     3
 75
     0
 76
     0
 77
     0
 78
     0
281
     0
 65
     1
110
0.0
120
0.0
130
0.0
111
1.0
121
0.0
131
0.0
112
0.0
122
1.0
132
0.0
 79
     0
146
0.0
  0
ENDTAB
  0
TABLE
  2
LTYPE
  5
5
330
0
100
AcDbSymbolTable
 70
     6
  0
LTYPE
  5
14
330
5
100
AcDbSymbolTableRecord
100
AcDbLinetypeTableRecord
  2
ByBlock
 70
     0
  3

 72
    65
 73
     0
 40
0.0
  0
LTYPE
  5
15
330
5
100
AcDbSymbolTableRecord
100
AcDbLinetypeTableRecord
  2
ByLayer
 70
     0
  3

 72
    65
 73
     0
 40
0.0
  0
LTYPE
  5
16
330
5
100
AcDbSymbolTableRecord
100
AcDbLinetypeTableRecord
  2
Continuous
 70
     0
  3
Solid line
 72
    65
 73
     0
 40
0.0
  0
LTYPE
  5
6E
330
5
100
AcDbSymbolTableRecord
100
AcDbLinetypeTableRecord
  2
HIDDEN
 70
     0
  3
Hidden __ __ __ __ __ __ __ __ __ __ __ __ __ __
 72
    65
 73
     2
 40
1.905
 49
1.27
 74
     0
 49
-0.635
 74
     0
  0
LTYPE
  5
6F
330
5
100
AcDbSymbolTableRecord
100
AcDbLinetypeTableRecord
  2
PHANTOM
 70
     0
  3
Phantom ______  __  __  ______  __  __  ______
 72
    65
 73
     6
 40
12.7
 49
6.35
 74
     0
 49
-1.27
 74
     0
 49
1.27
 74
     0
 49
-1.27
 74
     0
 49
1.27
 74
     0
 49
-1.27
 74
     0
  0
LTYPE
  5
70
330
5
100
AcDbSymbolTableRecord
100
AcDbLinetypeTableRecord
  2
CENTER
 70
     0
  3
Center ____ _ ____ _ ____ _ ____ _ ____ _ ____
 72
    65
 73
     4
 40
10.16
 49
6.35
 74
     0
 49
-1.27
 74
     0
 49
1.27
 74
     0
 49
-1.27
 74
     0
  0
LTYPE
  5
71
330
5
100
AcDbSymbolTableRecord
100
AcDbLinetypeTableRecord
  2
CENTERX2
 70
     0
  3
Center (2x) ________  __  ________  __  _____
 72
    65
 73
     4
 40
20.32
 49
12.7
 74
     0
 49
-2.54
 74
     0
 49
2.54
 74
     0
 49
-2.54
 74
     0
  0
LTYPE
  5
72
330
5
100
AcDbSymbolTableRecord
100
AcDbLinetypeTableRecord
  2
DOT2
 70
     0
  3
Dot (.5x) ........................................
 72
    65
 73
     2
 40
0.635
 49
0.0
 74
     0
 49
-0.635
 74
     0
  0
ENDTAB
  0
TABLE
  2
LAYER
  5
2
330
0
100
AcDbSymbolTable
 70
     1
  0
LAYER
  5
10
330
2
100
AcDbSymbolTableRecord
100
AcDbLayerTableRecord
  2
0
 70
     0
 62
     7
  6
Continuous
370
    -3
390
F
  0
ENDTAB
  0
TABLE
  2
STYLE
  5
3
330
0
100
AcDbSymbolTable
 70
     2
  0
STYLE
  5
11
330
3
100
AcDbSymbolTableRecord
100
AcDbTextStyleTableRecord
  2
Standard
 70
     0
 40
0.0
 41
1.0
 50
0.0
 71
     0
 42
3.5
  3
txt
  4

  0
STYLE
  5
11F
330
3
100
AcDbSymbolTableRecord
100
AcDbTextStyleTableRecord
  2
SLDTEXTSTYLE0
 70
     0
 40
0.0
 41
0.7
 50
0.0
 71
     0
 42
3.5
  3
TXT
  4

  0
ENDTAB
  0
TABLE
  2
VIEW
  5
6
330
0
100
AcDbSymbolTable
 70
     0
  0
ENDTAB
  0
TABLE
  2
UCS
  5
7
330
0
100
AcDbSymbolTable
 70
     0
  0
ENDTAB
  0
TABLE
  2
APPID
  5
9
330
0
100
AcDbSymbolTable
 70
     1
  0
APPID
  5
12
330
9
100
AcDbSymbolTableRecord
100
AcDbRegAppTableRecord
  2
ACAD
 70
     0
  0
ENDTAB
  0
TABLE
  2
DIMSTYLE
  5
A
330
0
100
AcDbSymbolTable
 70
     1
100
AcDbDimStyleTable
  0
DIMSTYLE
105
27
330
A
100
AcDbSymbolTableRecord
100
AcDbDimStyleTableRecord
  2
ISO-25
 70
     0
 41
2.5
 42
0.625
 43
3.75
 44
1.25
 73
     0
 74
     0
 77
     1
 78
     8
140
2.5
141
2.5
143
0.0393700787
147
0.625
171
     3
172
     1
178
     0
271
     2
272
     2
274
     3
278
    44
283
     0
284
     8
340
11
  0
ENDTAB
  0
TABLE
  2
BLOCK_RECORD
  5
1
330
0
100
AcDbSymbolTable
 70
     1
  0
BLOCK_RECORD
  5
1F
330
1
100
AcDbSymbolTableRecord
100
AcDbBlockTableRecord
  2
*Model_Space
340
22
  0
BLOCK_RECORD
  5
1B
330
1
100
AcDbSymbolTableRecord
100
AcDbBlockTableRecord
  2
*Paper_Space
340
1E
  0
BLOCK_RECORD
  5
23
330
1
100
AcDbSymbolTableRecord
100
AcDbBlockTableRecord
  2
*Paper_Space0
340
26
  0
ENDTAB
  0
ENDSEC
  0
SECTION
  2
BLOCKS
  0
BLOCK
  5
20
330
1F
100
AcDbEntity
  8
0
100
AcDbBlockBegin
  2
*Model_Space
 70
     0
 10
0.0
 20
0.0
 30
0.0
  3
*Model_Space
  1

  0
ENDBLK
  5
21
330
1F
100
AcDbEntity
  8
0
100
AcDbBlockEnd
  0
BLOCK
  5
1C
330
1B
100
AcDbEntity
 67
     1
  8
0
100
AcDbBlockBegin
  2
*Paper_Space
 70
     0
 10
0.0
 20
0.0
 30
0.0
  3
*Paper_Space
  1

  0
ENDBLK
  5
1D
330
1B
100
AcDbEntity
 67
     1
  8
0
100
AcDbBlockEnd
  0
BLOCK
  5
24
330
23
100
AcDbEntity
  8
0
100
AcDbBlockBegin
  2
*Paper_Space0
 70
     0
 10
0.0
 20
0.0
 30
0.0
  3
*Paper_Space0
  1

  0
ENDBLK
  5
25
330
23
100
AcDbEntity
  8
0
100
AcDbBlockEnd
  0
ENDSEC
  0
SECTION
  2
ENTITIES
  0
LINE
  5
73
330
1F
100
AcDbEntity
  8
0
  6
Continuous
 62
     7
370
    25
100
AcDbLine
 10
88.8719301604
 20
-30.1153846154
 30
0.0
 11
88.9126053126
 21
-30.9230769231
 31
0.0
  0
LINE
  5
74
330
1F
100
AcDbEntity
  8
0
  6
Continuous
 62
     7
370
    25
100
AcDbLine
 10
88.8719301604
 20
-30.1153846154
 30
0.0
 11
92.79999684
 21
-30.1153846154
 31
0.0
  0
LINE
  5
75
330
1F
100
AcDbEntity
  8
0
  6
Continuous
 62
     7
370
    25
100
AcDbLine
 10
92.79999684
 20
-30.9230769231
 30
0.0
 11
92.79999684
 21
-30.1153846154
 31
0.0
  0
LINE
  5
76
330
1F
100
AcDbEntity
  8
0
  6
Continuous
 62
     7
370
    25
100
AcDbLine
 10
92.79999684
 20
-30.9230769231
 30
0.0
 11
88.9126053126
 21
-30.9230769231
 31
0.0
  0
LINE
  5
77
330
1F
100
AcDbEntity
  8
0
  6
Continuous
 62
     7
370
    25
100
AcDbLine
 10
87.3230769231
 20
-30.1153846154
 30
0.0
 11
88.3712965368
 21
-30.1153846154
 31
0.0
  0
LINE
  5
78
330
1F
100
AcDbEntity
  8
0
  6
Continuous
 62
     7
370
    25
100
AcDbLine
 10
88.3712965368
 20
-30.1153846154
 30
0.0
 11
88.411971689
 21
-30.9230769231
 31
0.0
  0
LINE
  5
79
330
1F
100
AcDbEntity
  8
0
  6
Continuous
 62
     7
370
    25
100
AcDbLine
 10
88.411971689
 20
-30.9230769231
 30
0.0
 11
86.4
 21
-30.9230769231
 31
0.0
  0
LINE
  5
7A
330
1F
100
AcDbEntity
  8
0
  6
Continuous
 62
     7
370
    25
100
AcDbLine
 10
86.4
 20
-30.9230769231
 30
0.0
 11
86.4
 21
-29.1057692308
 31
0.0
  0
SPLINE
  5
7B
330
1F
100
AcDbEntity
  8
0
  6
Continuous
 62
     7
370
    25
100
AcDbSpline
210
0.0
220
0.0
230
1.0
 70
     8
 71
     3
 72
    15
 73
    11
 74
     0
 42
0.00000001
 43
0.00000001
 40
0.0
 40
0.0
 40
0.0
 40
0.0
 40
0.1642892164747617
 40
0.3174059112304916
 40
0.4588436116410197
 40
0.5893665423053094
 40
0.7078313187781732
 40
0.8157700306990041
 40
0.9128799029021264
 40
1.0
 40
1.0
 40
1.0
 40
1.0
 10
86.4
 20
-29.10576923076923
 30
0.0
 10
86.40113803713248
 20
-28.94770611823865
 30
0.0
 10
86.40333671894982
 20
-28.64232900742623
 30
0.0
 10
86.41727743902696
 20
-28.20103985684693
 30
0.0
 10
86.44193863692216
 20
-27.79273875335263
 30
0.0
 10
86.477860275554
 20
-27.41876854428448
 30
0.0
 10
86.52196807629458
 20
-27.07810257060238
 30
0.0
 10
86.57725483032286
 20
-26.77169472116605
 30
0.0
 10
86.64253869702644
 20
-26.49796063942025
 30
0.0
 10
86.69819842622844
 20
-26.32961064933364
 30
0.0
 10
86.7245192307692
 20
-26.25
 30
0.0
  0
SPLINE
  5
7C
330
1F
100
AcDbEntity
  8
0
  6
Continuous
 62
     7
370
    25
100
AcDbSpline
210
0.0
220
0.0
230
1.0
 70
     8
 71
     3
 72
    23
 73
    19
 74
     0
 42
0.00000001
 43
0.00000001
 40
0.0
 40
0.0
 40
0.0
 40
0.0
 40
0.0615463740376143
 40
0.1216970805153602
 40
0.1811589999003404
 40
0.2400768215924448
 40
0.2986858982040893
 40
0.3576327280133262
 40
0.4175915188549998
 40
0.4784821097525979
 40
0.5403965361028109
 40
0.6023358963502766
 40
0.6649966639164276
 40
0.728553098822836
 40
0.7936458211788816
 40
0.860531076903308
 40
0.9292343416273776
 40
1.0
 40
1.0
 40
1.0
 40
1.0
 10
86.7245192307692
 20
-26.25
 30
0.0
 10
86.76418583148825
 20
-26.14586129229442
 30
0.0
 10
86.84261952603092
 20
-25.93994539725458
 30
0.0
 10
86.9908008256545
 20
-25.64692036651592
 30
0.0
 10
87.15800706683821
 20
-25.37013001315436
 30
0.0
 10
87.34808613007968
 20
-25.11178115609302
 30
0.0
 10
87.55855590120399
 20
-24.87122556859464
 30
0.0
 10
87.78791278736956
 20
-24.64573301698416
 30
0.0
 10
88.04125185271243
 20
-24.44086302267588
 30
0.0
 10
88.31406381220555
 20
-24.25342473405443
 30
0.0
 10
88.60285317649543
 20
-24.08437918292587
 30
0.0
 10
88.90714698308496
 20
-23.93745289111415
 30
0.0
 10
89.22537884532147
 20
-23.81542752938015
 30
0.0
 10
89.55666948849971
 20
-23.71413088223126
 30
0.0
 10
89.90174581584229
 20
-23.63429707298995
 30
0.0
 10
90.26101006310597
 20
-23.57982926567714
 30
0.0
 10
90.6330422588517
 20
-23.54390385847679
 30
0.0
 10
90.88549088063976
 20
-23.5402934414542
 30
0.0
 10
91.01358173076922
 20
-23.53846153846154
 30
0.0
  0
SPLINE
  5
7D
330
1F
100
AcDbEntity
  8
0
  6
Continuous
 62
     7
370
    25
100
AcDbSpline
210
0.0
220
0.0
230
1.0
 70
     8
 71
     3
 72
    31
 73
    27
 74
     0
 42
0.00000001
 43
0.00000001
 40
0.0
 40
0.0
 40
0.0
 40
0.0
 40
0.0460837775419482
 40
0.0908128969626277
 40
0.1343042879808949
 40
0.1770362722268296
 40
0.2188374268542866
 40
0.2602615907981601
 40
0.3011000835602816
 40
0.3416368324483725
 40
0.3816090405269683
 40
0.4201478008723691
 40
0.4579096607349634
 40
0.4947607013525773
 40
0.531219284539013
 40
0.5669607598480358
 40
0.6027421145655922
 40
0.6382320180154548
 40
0.6747611133765479
 40
0.7133778281073238
 40
0.754425315485125
 40
0.7978017847299842
 40
0.843978980652588
 40
0.8930643900142397
 40
0.9449596506617456
 40
1.0
 40
1.0
 40
1.0
 40
1.0
 10
91.01358173076923
 20
-23.53846153846154
 30
0.0
 10
91.12482491443383
 20
-23.54007888466029
 30
0.0
 10
91.34404122687116
 20
-23.54326603427202
 30
0.0
 10
91.66711783011392
 20
-23.57188425715029
 30
0.0
 10
91.98060981759394
 20
-23.61348057421308
 30
0.0
 10
92.28302466748814
 20
-23.67787970248898
 30
0.0
 10
92.57701081411865
 20
-23.7560584567287
 30
0.0
 10
92.85943914890821
 20
-23.8562488268358
 30
0.0
 10
93.13288526088115
 20
-23.97103740753337
 30
0.0
 10
93.39370761645912
 20
-24.10483732797473
 30
0.0
 10
93.64065359294963
 20
-24.25192716572517
 30
0.0
 10
93.87361877096077
 20
-24.40879406458879
 30
0.0
 10
94.08743357550753
 20
-24.57899564497418
 30
0.0
 10
94.28770092393378
 20
-24.75749445534647
 30
0.0
 10
94.46907089973749
 20
-24.94859496963827
 30
0.0
 10
94.63484963381835
 20
-25.1499705667004
 30
0.0
 10
94.78226163073427
 20
-25.36240384663811
 30
0.0
 10
94.91362332758588
 20
-25.58720983139565
 30
0.0
 10
95.03109645905032
 20
-25.82739086194866
 30
0.0
 10
95.12908314463253
 20
-26.0905018472626
 30
0.0
 10
95.21394961781753
 20
-26.37529648377879
 30
0.0
 10
95.28146090172962
 20
-26.68339888322659
 30
0.0
 10
95.33590923585588
 20
-27.01371013790328
 30
0.0
 10
95.3721611467666
 20
-27.36714654042148
 30
0.0
 10
95.39674679011803
 20
-27.7430401434183
 30
0.0
 10
95.39889454083726
 20
-28.00115914613032
 30
0.0
 10
95.39999999999999
 20
-28.13401442307692
 30
0.0
  0
LINE
  5
7E
330
1F
100
AcDbEntity
  8
0
  6
Continuous
 62
     7
370
    25
100
AcDbLine
 10
95.4
 20
-28.1340144231
 30
0.0
 11
95.4
 21
-30.9230769231
 31
0.0
  0
LINE
  5
7F
330
1F
100
AcDbEntity
  8
0
  6
Continuous
 62
     7
370
    25
100
AcDbLine
 10
95.4
 20
-30.9230769231
 30
0.0
 11
93.29999684
 21
-30.9230769231
 31
0.0
  0
LINE
  5
80
330
1F
100
AcDbEntity
  8
0
  6
Continuous
 62
     7
370
    25
100
AcDbLine
 10
93.29999684
 20
-30.9230769231
 30
0.0
 11
93.29999684
 21
-30.1153846154
 31
0.0
  0
LINE
  5
81
330
1F
100
AcDbEntity
  8
0
  6
Continuous
 62
     7
370
    25
100
AcDbLine
 10
93.29999684
 20
-30.1153846154
 30
0.0
 11
94.4769230769
 21
-30.1153846154
 31
0.0
  0
LINE
  5
82
330
1F
100
AcDbEntity
  8
0
  6
Continuous
 62
     7
370
    25
100
AcDbLine
 10
94.4769230769
 20
-30.1153846154
 30
0.0
 11
94.4769230769
 21
-29.0823317308
 31
0.0
  0
SPLINE
  5
83
330
1F
100
AcDbEntity
  8
0
  6
Continuous
 62
     7
370
    25
100
AcDbSpline
210
0.0
220
0.0
230
1.0
 70
     8
 71
     3
 72
    15
 73
    11
 74
     0
 42
0.00000001
 43
0.00000001
 40
0.0
 40
0.0
 40
0.0
 40
0.0
 40
0.1719006646132691
 40
0.330627932095881
 40
0.4755488358809185
 40
0.6067461903123633
 40
0.7250238034674906
 40
0.8297423869584566
 40
0.9213228203439755
 40
1.0
 40
1.0
 40
1.0
 40
1.0
 10
94.47692307692306
 20
-29.08233173076923
 30
0.0
 10
94.47628511481831
 20
-28.93388734886634
 30
0.0
 10
94.47505808005424
 20
-28.64837443866193
 30
0.0
 10
94.46429098628298
 20
-28.23782530277588
 30
0.0
 10
94.44669743270303
 20
-27.86270685470801
 30
0.0
 10
94.42207580405224
 20
-27.5229658305541
 30
0.0
 10
94.38949936499651
 20
-27.21879405378954
 30
0.0
 10
94.3531781865029
 20
-26.94955583980569
 30
0.0
 10
94.30792759884444
 20
-26.71613374697031
 30
0.0
 10
94.26691084606406
 20
-26.57488662340524
 30
0.0
 10
94.24795673076922
 20
-26.50961538461538
 30
0.0
  0
SPLINE
  5
84
330
1F
100
AcDbEntity
  8
0
  6
Continuous
 62
     7
370
    25
100
AcDbSpline
210
0.0
220
0.0
230
1.0
 70
     8
 71
     3
 72
    23
 73
    19
 74
     0
 42
0.00000001
 43
0.00000001
 40
0.0
 40
0.0
 40
0.0
 40
0.0
 40
0.0624119154662606
 40
0.1233331236171029
 40
0.1831169538814311
 40
0.241772981581708
 40
0.3005664345557849
 40
0.3596651793197807
 40
0.4188642935347359
 40
0.4795108054598556
 40
0.5404624589939849
 40
0.6019127741600993
 40
0.6644672098853202
 40
0.7278070973767663
 40
0.7924745597484322
 40
0.859249307785775
 40
0.9284673632662773
 40
1.0
 40
1.0
 40
1.0
 40
1.0
 10
94.24795673076922
 20
-26.50961538461538
 30
0.0
 10
94.21902415782034
 20
-26.42746244503181
 30
0.0
 10
94.16185006583153
 20
-26.26511878713454
 30
0.0
 10
94.05755885913139
 20
-26.03142469135427
 30
0.0
 10
93.93402239587436
 20
-25.81347765297756
 30
0.0
 10
93.79670121106868
 20
-25.60748210927292
 30
0.0
 10
93.64075827477541
 20
-25.41635021149136
 30
0.0
 10
93.46956098800646
 20
-25.23785438573826
 30
0.0
 10
93.28232719166542
 20
-25.07221316324674
 30
0.0
 10
93.07936049246877
 20
-24.92197786748944
 30
0.0
 10
92.86286182069537
 20
-24.78589926518674
 30
0.0
 10
92.63244828077025
 20
-24.66908149298893
 30
0.0
 10
92.39135914009806
 20
-24.5673485172549
 30
0.0
 10
92.13764264448476
 20
-24.48679442399283
 30
0.0
 10
91.87315840110611
 20
-24.42328105093782
 30
0.0
 10
91.59653494505808
 20
-24.37876172664186
 30
0.0
 10
91.30801705740012
 20
-24.35112345774732
 30
0.0
 10
91.1116015710788
 20
-24.34782844501465
 30
0.0
 10
91.01177884615383
 20
-24.34615384615384
 30
0.0
  0
SPLINE
  5
85
330
1F
100
AcDbEntity
  8
0
  6
Continuous
 62
     7
370
    25
100
AcDbSpline
210
0.0
220
0.0
230
1.0
 70
     8
 71
     3
 72
    23
 73
    19
 74
     0
 42
0.00000001
 43
0.00000001
 40
0.0
 40
0.0
 40
0.0
 40
0.0
 40
0.070151175997279
 40
0.1378126061901906
 40
0.2032262471813954
 40
0.2671740552944732
 40
0.3300240034081788
 40
0.391794271786686
 40
0.4530843989971413
 40
0.5143339076458788
 40
0.5749999928182687
 40
0.6348654826222128
 40
0.6941163151896421
 40
0.7534416217804385
 40
0.8131258003036117
 40
0.8740796856370748
 40
0.9360070132744082
 40
1.0
 40
1.0
 40
1.0
 40
1.0
 10
91.01177884615383
 20
-24.34615384615384
 30
0.0
 10
90.90652132538874
 20
-24.34747372794699
 30
0.0
 10
90.69974199415815
 20
-24.35006664741255
 30
0.0
 10
90.39633734917105
 20
-24.38265773135598
 30
0.0
 10
90.10452996210626
 20
-24.43028458835438
 30
0.0
 10
89.8243003168084
 20
-24.49915692388258
 30
0.0
 10
89.5551016969291
 20
-24.58692204091365
 30
0.0
 10
89.2984229564245
 20
-24.69645111971524
 30
0.0
 10
89.05155329360865
 20
-24.82159385497649
 30
0.0
 10
88.82019063886452
 20
-24.97048814971827
 30
0.0
 10
88.60137978681755
 20
-25.13355681835997
 30
0.0
 10
88.4009242896016
 20
-25.3145285080766
 30
0.0
 10
88.21836751745923
 20
-25.51052803572167
 30
0.0
 10
88.05086642776024
 20
-25.71941764860482
 30
0.0
 10
87.9051598326179
 20
-25.94708447524178
 30
0.0
 10
87.77482265269234
 20
-26.18816539441642
 30
0.0
 10
87.66421036067833
 20
-26.44619712031775
 30
0.0
 10
87.60537899929218
 20
-26.62571548104956
 30
0.0
 10
87.57548076923077
 20
-26.71694711538461
 30
0.0
  0
SPLINE
  5
86
330
1F
100
AcDbEntity
  8
0
  6
Continuous
 62
     7
370
    25
100
AcDbSpline
210
0.0
220
0.0
230
1.0
 70
     8
 71
     3
 72
    15
 73
    11
 74
     0
 42
0.00000001
 43
0.00000001
 40
0.0
 40
0.0
 40
0.0
 40
0.0
 40
0.0843186169585833
 40
0.1792845142139054
 40
0.2865825276465614
 40
0.4051114834342787
 40
0.5355928734189743
 40
0.6781902099934143
 40
0.8329758397604884
 40
1.0
 40
1.0
 40
1.0
 40
1.0
 10
87.57548076923077
 20
-26.71694711538461
 30
0.0
 10
87.55460995470452
 20
-26.7924214917689
 30
0.0
 10
87.51023287668123
 20
-26.95290072392118
 30
0.0
 10
87.46182477591128
 20
-27.21477363141533
 30
0.0
 10
87.41912749272514
 20
-27.50949830137666
 30
0.0
 10
87.38297824868931
 20
-27.83838324709758
 30
0.0
 10
87.35703942238139
 20
-28.20105357048644
 30
0.0
 10
87.33757032767674
 20
-28.59778819673465
 30
0.0
 10
87.32443898700775
 20
-29.02875860847999
 30
0.0
 10
87.32354231134242
 20
-29.32751369553072
 30
0.0
 10
87.32307692307691
 20
-29.48257211538461
 30
0.0
  0
LINE
  5
87
330
1F
100
AcDbEntity
  8
0
  6
Continuous
 62
     7
370
    25
100
AcDbLine
 10
87.3230769231
 20
-29.4825721154
 30
0.0
 11
87.3230769231
 21
-30.1153846154
 31
0.0
  0
LINE
  5
88
330
1F
100
AcDbEntity
  8
0
  6
Continuous
 62
     7
370
    25
100
AcDbLine
 10
88.2113804105
 20
-18.0938095134
 30
0.0
 11
86.4
 21
-18.0938095134
 31
0.0
  0
LINE
  5
89
330
1F
100
AcDbEntity
  8
0
  6
Continuous
 62
     7
370
    25
100
AcDbLine
 10
88.2113804105
 20
-18.0938095134
 30
0.0
 11
91.5923076923
 21
-19.6965144231
 31
0.0
  0
LINE
  5
8A
330
1F
100
AcDbEntity
  8
0
  6
Continuous
 62
     7
370
    25
100
AcDbLine
 10
91.5923076923
 20
-19.6965144231
 30
0.0
 11
91.5923076923
 21
-16.4801682692
 31
0.0
  0
LINE
  5
8B
330
1F
100
AcDbEntity
  8
0
  6
Continuous
 62
     7
370
    25
100
AcDbLine
 10
91.5923076923
 20
-16.4801682692
 30
0.0
 11
89.1789964961
 21
-17.5938095134
 31
0.0
  0
LINE
  5
8C
330
1F
100
AcDbEntity
  8
0
  6
Continuous
 62
     7
370
    25
100
AcDbLine
 10
89.1789964961
 20
-17.5938095134
 30
0.0
 11
87.2800793876
 21
-17.5938095134
 31
0.0
  0
LINE
  5
8D
330
1F
100
AcDbEntity
  8
0
  6
Continuous
 62
     7
370
    25
100
AcDbLine
 10
87.2800793876
 20
-17.5938095134
 30
0.0
 11
95.4
 21
-13.8461538462
 31
0.0
  0
LINE
  5
8E
330
1F
100
AcDbEntity
  8
0
  6
Continuous
 62
     7
370
    25
100
AcDbLine
 10
95.4
 20
-13.8461538462
 30
0.0
 11
95.4
 21
-14.7241586538
 31
0.0
  0
LINE
  5
8F
330
1F
100
AcDbEntity
  8
0
  6
Continuous
 62
     7
370
    25
100
AcDbLine
 10
95.4
 20
-14.7241586538
 30
0.0
 11
92.5153846154
 21
-16.0546875
 31
0.0
  0
LINE
  5
90
330
1F
100
AcDbEntity
  8
0
  6
Continuous
 62
     7
370
    25
100
AcDbLine
 10
92.5153846154
 20
-16.0546875
 30
0.0
 11
92.5153846154
 21
-20.1346153846
 31
0.0
  0
LINE
  5
91
330
1F
100
AcDbEntity
  8
0
  6
Continuous
 62
     7
370
    25
100
AcDbLine
 10
92.5153846154
 20
-20.1346153846
 30
0.0
 11
95.4
 21
-21.5030048077
 31
0.0
  0
LINE
  5
92
330
1F
100
AcDbEntity
  8
0
  6
Continuous
 62
     7
370
    25
100
AcDbLine
 10
95.4
 20
-21.5030048077
 30
0.0
 11
95.4
 21
-22.3846153846
 31
0.0
  0
LINE
  5
93
330
1F
100
AcDbEntity
  8
0
  6
Continuous
 62
     7
370
    25
100
AcDbLine
 10
95.4
 20
-22.3846153846
 30
0.0
 11
86.4
 21
-18.1153846154
 31
0.0
  0
LINE
  5
94
330
1F
100
AcDbEntity
  8
0
  6
Continuous
 62
     7
370
    25
100
AcDbLine
 10
86.4
 20
-18.1153846154
 30
0.0
 11
86.4
 21
-18.0938095134
 31
0.0
  0
LINE
  5
95
330
1F
100
AcDbEntity
  8
0
  6
Continuous
 62
     7
370
    25
100
AcDbLine
 10
89.3403062946
 20
-4.9615384615
 30
0.0
 11
89.3403062946
 21
-5.7692307692
 31
0.0
  0
LINE
  5
96
330
1F
100
AcDbEntity
  8
0
  6
Continuous
 62
     7
370
    25
100
AcDbLine
 10
89.3403062946
 20
-4.9615384615
 30
0.0
 11
92.8421287034
 21
-4.9615384615
 31
0.0
  0
LINE
  5
97
330
1F
100
AcDbEntity
  8
0
  6
Continuous
 62
     7
370
    25
100
AcDbLine
 10
92.8421287034
 20
-5.7692307692
 30
0.0
 11
92.8421287034
 21
-4.9615384615
 31
0.0
  0
LINE
  5
98
330
1F
100
AcDbEntity
  8
0
  6
Continuous
 62
     7
370
    25
100
AcDbLine
 10
92.8421287034
 20
-5.7692307692
 30
0.0
 11
89.3403062946
 21
-5.7692307692
 31
0.0
  0
LINE
  5
99
330
1F
100
AcDbEntity
  8
0
  6
Continuous
 62
     7
370
    25
100
AcDbLine
 10
87.3230769231
 20
-4.9615384615
 30
0.0
 11
88.8403062946
 21
-4.9615384615
 31
0.0
  0
LINE
  5
9A
330
1F
100
AcDbEntity
  8
0
  6
Continuous
 62
     7
370
    25
100
AcDbLine
 10
88.8403062946
 20
-4.9615384615
 30
0.0
 11
88.8403062946
 21
-5.7692307692
 31
0.0
  0
LINE
  5
9B
330
1F
100
AcDbEntity
  8
0
  6
Continuous
 62
     7
370
    25
100
AcDbLine
 10
88.8403062946
 20
-5.7692307692
 30
0.0
 11
86.4
 21
-5.7692307692
 31
0.0
  0
LINE
  5
9C
330
1F
100
AcDbEntity
  8
0
  6
Continuous
 62
     7
370
    25
100
AcDbLine
 10
86.4
 20
-5.7692307692
 30
0.0
 11
86.4
 21
-3.9519230769
 31
0.0
  0
SPLINE
  5
9D
330
1F
100
AcDbEntity
  8
0
  6
Continuous
 62
     7
370
    25
100
AcDbSpline
210
0.0
220
0.0
230
1.0
 70
     8
 71
     3
 72
    15
 73
    11
 74
     0
 42
0.00000001
 43
0.00000001
 40
0.0
 40
0.0
 40
0.0
 40
0.0
 40
0.1642892164747622
 40
0.3174059112304911
 40
0.4588436116410203
 40
0.5893665423053097
 40
0.7078313187781726
 40
0.8157700306990048
 40
0.9128799029021267
 40
1.0
 40
1.0
 40
1.0
 40
1.0
 10
86.39999999999999
 20
-3.951923076923077
 30
0.0
 10
86.40113803713247
 20
-3.793859964392491
 30
0.0
 10
86.4033367189498
 20
-3.488482853580075
 30
0.0
 10
86.41727743902693
 20
-3.047193703000774
 30
0.0
 10
86.44193863692216
 20
-2.638892599506472
 30
0.0
 10
86.47786027555397
 20
-2.264922390438326
 30
0.0
 10
86.52196807629458
 20
-1.924256416756223
 30
0.0
 10
86.57725483032284
 20
-1.617848567319901
 30
0.0
 10
86.64253869702642
 20
-1.344114485574096
 30
0.0
 10
86.69819842622846
 20
-1.175764495487496
 30
0.0
 10
86.7245192307692
 20
-1.096153846153846
 30
0.0
  0
SPLINE
  5
9E
330
1F
100
AcDbEntity
  8
0
  6
Continuous
 62
     7
370
    25
100
AcDbSpline
210
0.0
220
0.0
230
1.0
 70
     8
 71
     3
 72
    23
 73
    19
 74
     0
 42
0.00000001
 43
0.00000001
 40
0.0
 40
0.0
 40
0.0
 40
0.0
 40
0.0615463740376143
 40
0.1216970805153599
 40
0.1811589999003405
 40
0.2400768215924449
 40
0.2986858982040893
 40
0.3576327280133262
 40
0.417591518855
 40
0.478482109752598
 40
0.5403965361028109
 40
0.6023358963502765
 40
0.6649966639164276
 40
0.7285530988228361
 40
0.7936458211788815
 40
0.860531076903308
 40
0.9292343416273776
 40
1.0
 40
1.0
 40
1.0
 40
1.0
 10
86.7245192307692
 20
-1.096153846153846
 30
0.0
 10
86.76418583148823
 20
-0.9920151384482652
 30
0.0
 10
86.84261952603093
 20
-0.7860992434084341
 30
0.0
 10
86.99080082565449
 20
-0.4930742126697619
 30
0.0
 10
87.15800706683825
 20
-0.2162838593082101
 30
0.0
 10
87.34808613007962
 20
0.0420649977531416
 30
0.0
 10
87.55855590120406
 20
0.2826205852515042
 30
0.0
 10
87.78791278736954
 20
0.5081131368620024
 30
0.0
 10
88.0412518527124
 20
0.712983131170265
 30
0.0
 10
88.31406381220555
 20
0.9004214197917243
 30
0.0
 10
88.6028531764954
 20
1.069466970920281
 30
0.0
 10
88.90714698308494
 20
1.216393262732001
 30
0.0
 10
89.22537884532146
 20
1.338418624465996
 30
0.0
 10
89.55666948849975
 20
1.439715271614885
 30
0.0
 10
89.90174581584228
 20
1.519549080856204
 30
0.0
 10
90.26101006310599
 20
1.574016888169008
 30
0.0
 10
90.63304225885169
 20
1.609942295369364
 30
0.0
 10
90.88549088063976
 20
1.613552712391958
 30
0.0
 10
91.01358173076922
 20
1.615384615384616
 30
0.0
  0
SPLINE
  5
9F
330
1F
100
AcDbEntity
  8
0
  6
Continuous
 62
     7
370
    25
100
AcDbSpline
210
0.0
220
0.0
230
1.0
 70
     8
 71
     3
 72
    31
 73
    27
 74
     0
 42
0.00000001
 43
0.00000001
 40
0.0
 40
0.0
 40
0.0
 40
0.0
 40
0.0460837775419482
 40
0.0908128969626277
 40
0.1343042879808949
 40
0.1770362722268297
 40
0.2188374268542866
 40
0.2602615907981602
 40
0.3011000835602817
 40
0.3416368324483725
 40
0.3816090405269682
 40
0.4201478008723691
 40
0.4579096607349636
 40
0.4947607013525774
 40
0.531219284539013
 40
0.566960759848036
 40
0.6027421145655923
 40
0.6382320180154549
 40
0.674761113376548
 40
0.7133778281073238
 40
0.754425315485125
 40
0.7978017847299842
 40
0.843978980652588
 40
0.89306439001424
 40
0.9449596506617457
 40
1.0
 40
1.0
 40
1.0
 40
1.0
 10
91.01358173076922
 20
1.615384615384616
 30
0.0
 10
91.12482491443382
 20
1.613767269185868
 30
0.0
 10
91.34404122687111
 20
1.610580119574138
 30
0.0
 10
91.66711783011397
 20
1.581961896695846
 30
0.0
 10
91.98060981759393
 20
1.540365579633065
 30
0.0
 10
92.28302466748815
 20
1.475966451357172
 30
0.0
 10
92.57701081411862
 20
1.397787697117444
 30
0.0
 10
92.85943914890824
 20
1.297597327010356
 30
0.0
 10
93.1328852608811
 20
1.182808746312777
 30
0.0
 10
93.39370761645912
 20
1.049008825871423
 30
0.0
 10
93.64065359294963
 20
0.9019189881209754
 30
0.0
 10
93.87361877096077
 20
0.7450520892573648
 30
0.0
 10
94.08743357550753
 20
0.5748505088719738
 30
0.0
 10
94.2877009239338
 20
0.3963516984996759
 30
0.0
 10
94.4690708997375
 20
0.2052511842078697
 30
0.0
 10
94.63484963381832
 20
0.0038755871457527
 30
0.0
 10
94.78226163073427
 20
-0.2085576927919611
 30
0.0
 10
94.91362332758588
 20
-0.4333636775495007
 30
0.0
 10
95.03109645905032
 20
-0.673544708102506
 30
0.0
 10
95.12908314463255
 20
-0.9366556934164528
 30
0.0
 10
95.21394961781755
 20
-1.221450329932638
 30
0.0
 10
95.28146090172959
 20
-1.529552729380442
 30
0.0
 10
95.33590923585592
 20
-1.859863984057136
 30
0.0
 10
95.37216114676654
 20
-2.213300386575319
 30
0.0
 10
95.39674679011807
 20
-2.589193989572157
 30
0.0
 10
95.39889454083729
 20
-2.847312992284174
 30
0.0
 10
95.4
 20
-2.980168269230769
 30
0.0
  0
LINE
  5
A0
330
1F
100
AcDbEntity
  8
0
  6
Continuous
 62
     7
370
    25
100
AcDbLine
 10
95.4
 20
-2.9801682692
 30
0.0
 11
95.4
 21
-5.7692307692
 31
0.0
  0
LINE
  5
A1
330
1F
100
AcDbEntity
  8
0
  6
Continuous
 62
     7
370
    25
100
AcDbLine
 10
95.4
 20
-5.7692307692
 30
0.0
 11
93.3421287034
 21
-5.7692307692
 31
0.0
  0
LINE
  5
A2
330
1F
100
AcDbEntity
  8
0
  6
Continuous
 62
     7
370
    25
100
AcDbLine
 10
93.3421287034
 20
-5.7692307692
 30
0.0
 11
93.3421287034
 21
-4.9615384615
 31
0.0
  0
LINE
  5
A3
330
1F
100
AcDbEntity
  8
0
  6
Continuous
 62
     7
370
    25
100
AcDbLine
 10
93.3421287034
 20
-4.9615384615
 30
0.0
 11
94.4769230769
 21
-4.9615384615
 31
0.0
  0
LINE
  5
A4
330
1F
100
AcDbEntity
  8
0
  6
Continuous
 62
     7
370
    25
100
AcDbLine
 10
94.4769230769
 20
-4.9615384615
 30
0.0
 11
94.4769230769
 21
-3.9284855769
 31
0.0
  0
SPLINE
  5
A5
330
1F
100
AcDbEntity
  8
0
  6
Continuous
 62
     7
370
    25
100
AcDbSpline
210
0.0
220
0.0
230
1.0
 70
     8
 71
     3
 72
    15
 73
    11
 74
     0
 42
0.00000001
 43
0.00000001
 40
0.0
 40
0.0
 40
0.0
 40
0.0
 40
0.171900664613269
 40
0.3306279320958805
 40
0.4755488358809179
 40
0.6067461903123627
 40
0.7250238034674895
 40
0.8297423869584565
 40
0.9213228203439753
 40
1.0
 40
1.0
 40
1.0
 40
1.0
 10
94.47692307692306
 20
-3.928485576923076
 30
0.0
 10
94.47628511481831
 20
-3.78004119502018
 30
0.0
 10
94.47505808005425
 20
-3.494528284815775
 30
0.0
 10
94.46429098628298
 20
-3.083979148929743
 30
0.0
 10
94.44669743270302
 20
-2.70886070086186
 30
0.0
 10
94.42207580405221
 20
-2.369119676707956
 30
0.0
 10
94.38949936499651
 20
-2.064947899943391
 30
0.0
 10
94.35317818650293
 20
-1.795709685959532
 30
0.0
 10
94.30792759884442
 20
-1.562287593124166
 30
0.0
 10
94.26691084606406
 20
-1.42104046955909
 30
0.0
 10
94.24795673076922
 20
-1.35576923076923
 30
0.0
  0
SPLINE
  5
A6
330
1F
100
AcDbEntity
  8
0
  6
Continuous
 62
     7
370
    25
100
AcDbSpline
210
0.0
220
0.0
230
1.0
 70
     8
 71
     3
 72
    23
 73
    19
 74
     0
 42
0.00000001
 43
0.00000001
 40
0.0
 40
0.0
 40
0.0
 40
0.0
 40
0.0624119154662606
 40
0.1233331236171022
 40
0.1831169538814308
 40
0.2417729815817076
 40
0.3005664345557845
 40
0.3596651793197801
 40
0.4188642935347356
 40
0.4795108054598552
 40
0.5404624589939847
 40
0.6019127741600993
 40
0.66446720988532
 40
0.7278070973767662
 40
0.792474559748432
 40
0.8592493077857749
 40
0.9284673632662772
 40
1.0
 40
1.0
 40
1.0
 40
1.0
 10
94.24795673076922
 20
-1.35576923076923
 30
0.0
 10
94.21902415782033
 20
-1.273616291185664
 30
0.0
 10
94.16185006583152
 20
-1.111272633288388
 30
0.0
 10
94.0575588591314
 20
-0.8775785375081255
 30
0.0
 10
93.93402239587438
 20
-0.6596314991314131
 30
0.0
 10
93.79670121106862
 20
-0.4536359554267728
 30
0.0
 10
93.64075827477544
 20
-0.2625040576452106
 30
0.0
 10
93.46956098800646
 20
-0.084008231892117
 30
0.0
 10
93.2823271916654
 20
0.0816329905994191
 30
0.0
 10
93.07936049246875
 20
0.2318682863566997
 30
0.0
 10
92.86286182069534
 20
0.3679468886594171
 30
0.0
 10
92.63244828077028
 20
0.4847646608572176
 30
0.0
 10
92.39135914009805
 20
0.5864976365912609
 30
0.0
 10
92.13764264448477
 20
0.6670517298533255
 30
0.0
 10
91.87315840110611
 20
0.7305651029083233
 30
0.0
 10
91.59653494505808
 20
0.775084427204288
 30
0.0
 10
91.30801705740015
 20
0.802722696098825
 30
0.0
 10
91.11160157107881
 20
0.806017708831502
 30
0.0
 10
91.01177884615383
 20
0.8076923076923079
 30
0.0
  0
SPLINE
  5
A7
330
1F
100
AcDbEntity
  8
0
  6
Continuous
 62
     7
370
    25
100
AcDbSpline
210
0.0
220
0.0
230
1.0
 70
     8
 71
     3
 72
    23
 73
    19
 74
     0
 42
0.00000001
 43
0.00000001
 40
0.0
 40
0.0
 40
0.0
 40
0.0
 40
0.070151175997279
 40
0.1378126061901906
 40
0.2032262471813954
 40
0.2671740552944731
 40
0.3300240034081786
 40
0.3917942717866859
 40
0.453084398997141
 40
0.5143339076458787
 40
0.5749999928182682
 40
0.6348654826222122
 40
0.694116315189642
 40
0.7534416217804385
 40
0.8131258003036113
 40
0.8740796856370745
 40
0.9360070132744076
 40
1.0
 40
1.0
 40
1.0
 40
1.0
 10
91.01177884615383
 20
0.8076923076923079
 30
0.0
 10
90.90652132538874
 20
0.8063724258991698
 30
0.0
 10
90.69974199415813
 20
0.8037795064336091
 30
0.0
 10
90.39633734917109
 20
0.771188422490155
 30
0.0
 10
90.10452996210624
 20
0.7235615654917705
 30
0.0
 10
89.8243003168084
 20
0.6546892299635797
 30
0.0
 10
89.55510169692911
 20
0.5669241129325046
 30
0.0
 10
89.29842295642449
 20
0.4573950341309101
 30
0.0
 10
89.05155329360866
 20
0.3322522988696618
 30
0.0
 10
88.82019063886452
 20
0.1833580041278748
 30
0.0
 10
88.60137978681759
 20
0.0202893354861695
 30
0.0
 10
88.40092428960156
 20
-0.1606823542304359
 30
0.0
 10
88.21836751745928
 20
-0.3566818818755307
 30
0.0
 10
88.05086642776025
 20
-0.5655714947586761
 30
0.0
 10
87.9051598326179
 20
-0.7932383213956159
 30
0.0
 10
87.77482265269236
 20
-1.034319240570265
 30
0.0
 10
87.66421036067834
 20
-1.292350966471608
 30
0.0
 10
87.60537899929217
 20
-1.471869327203424
 30
0.0
 10
87.57548076923077
 20
-1.563100961538461
 30
0.0
  0
SPLINE
  5
A8
330
1F
100
AcDbEntity
  8
0
  6
Continuous
 62
     7
370
    25
100
AcDbSpline
210
0.0
220
0.0
230
1.0
 70
     8
 71
     3
 72
    15
 73
    11
 74
     0
 42
0.00000001
 43
0.00000001
 40
0.0
 40
0.0
 40
0.0
 40
0.0
 40
0.0843186169585827
 40
0.1792845142139046
 40
0.2865825276465613
 40
0.4051114834342788
 40
0.5355928734189743
 40
0.6781902099934134
 40
0.8329758397604883
 40
1.0
 40
1.0
 40
1.0
 40
1.0
 10
87.57548076923077
 20
-1.563100961538461
 30
0.0
 10
87.5546099547045
 20
-1.638575337922751
 30
0.0
 10
87.51023287668121
 20
-1.799054570075023
 30
0.0
 10
87.46182477591128
 20
-2.060927477569178
 30
0.0
 10
87.41912749272512
 20
-2.355652147530502
 30
0.0
 10
87.38297824868934
 20
-2.684537093251436
 30
0.0
 10
87.35703942238136
 20
-3.047207416640287
 30
0.0
 10
87.33757032767676
 20
-3.443942042888504
 30
0.0
 10
87.32443898700775
 20
-3.87491245463384
 30
0.0
 10
87.32354231134246
 20
-4.173667541684578
 30
0.0
 10
87.32307692307691
 20
-4.328725961538461
 30
0.0
  0
LINE
  5
A9
330
1F
100
AcDbEntity
  8
0
  6
Continuous
 62
     7
370
    25
100
AcDbLine
 10
87.3230769231
 20
-4.3287259615
 30
0.0
 11
87.3230769231
 21
-4.9615384615
 31
0.0
  0
LINE
  5
AA
330
1F
100
AcDbEntity
  8
0
  6
Continuous
 62
     7
370
    25
100
AcDbLine
 10
88.2797153704
 20
7.0276429311
 30
0.0
 11
86.4228067939
 21
7.0276429311
 31
0.0
  0
LINE
  5
AB
330
1F
100
AcDbEntity
  8
0
  6
Continuous
 62
     7
370
    25
100
AcDbLine
 10
88.2797153704
 20
7.0276429311
 30
0.0
 11
91.5923076923
 21
5.4573317308
 31
0.0
  0
LINE
  5
AC
330
1F
100
AcDbEntity
  8
0
  6
Continuous
 62
     7
370
    25
100
AcDbLine
 10
91.5923076923
 20
5.4573317308
 30
0.0
 11
91.5923076923
 21
8.6736778846
 31
0.0
  0
LINE
  5
AD
330
1F
100
AcDbEntity
  8
0
  6
Continuous
 62
     7
370
    25
100
AcDbLine
 10
91.5923076923
 20
8.6736778846
 30
0.0
 11
89.1087978555
 21
7.5276429311
 31
0.0
  0
LINE
  5
AE
330
1F
100
AcDbEntity
  8
0
  6
Continuous
 62
     7
370
    25
100
AcDbLine
 10
89.1087978555
 20
7.5276429311
 30
0.0
 11
87.2098930173
 21
7.5276429311
 31
0.0
  0
LINE
  5
AF
330
1F
100
AcDbEntity
  8
0
  6
Continuous
 62
     7
370
    25
100
AcDbLine
 10
87.2098930173
 20
7.5276429311
 30
0.0
 11
95.4
 21
11.3076923077
 31
0.0
  0
LINE
  5
B0
330
1F
100
AcDbEntity
  8
0
  6
Continuous
 62
     7
370
    25
100
AcDbLine
 10
95.4
 20
11.3076923077
 30
0.0
 11
95.4
 21
10.4296875
 31
0.0
  0
LINE
  5
B1
330
1F
100
AcDbEntity
  8
0
  6
Continuous
 62
     7
370
    25
100
AcDbLine
 10
95.4
 20
10.4296875
 30
0.0
 11
92.5153846154
 21
9.0991586538
 31
0.0
  0
LINE
  5
B2
330
1F
100
AcDbEntity
  8
0
  6
Continuous
 62
     7
370
    25
100
AcDbLine
 10
92.5153846154
 20
9.0991586538
 30
0.0
 11
92.5153846154
 21
5.0192307692
 31
0.0
  0
LINE
  5
B3
330
1F
100
AcDbEntity
  8
0
  6
Continuous
 62
     7
370
    25
100
AcDbLine
 10
92.5153846154
 20
5.0192307692
 30
0.0
 11
95.4
 21
3.6508413462
 31
0.0
  0
LINE
  5
B4
330
1F
100
AcDbEntity
  8
0
  6
Continuous
 62
     7
370
    25
100
AcDbLine
 10
95.4
 20
3.6508413462
 30
0.0
 11
95.4
 21
2.7692307692
 31
0.0
  0
LINE
  5
B5
330
1F
100
AcDbEntity
  8
0
  6
Continuous
 62
     7
370
    25
100
AcDbLine
 10
95.4
 20
2.7692307692
 30
0.0
 11
86.4228067939
 21
7.0276429311
 31
0.0
  0
ARC
  5
B6
330
1F
100
AcDbEntity
  8
0
  6
Continuous
 62
     7
370
    25
100
AcDbCircle
 10
70.4
 20
-34.925
 30
0.0
 40
3.25
100
AcDbArc
 50
180.0
 51
0.0
  0
LINE
  5
B7
330
1F
100
AcDbEntity
  8
0
  6
Continuous
 62
     7
370
    25
100
AcDbLine
 10
67.15
 20
-9.525
 30
0.0
 11
67.15
 21
-34.925
 31
0.0
  0
ARC
  5
B8
330
1F
100
AcDbEntity
  8
0
  6
Continuous
 62
     7
370
    25
100
AcDbCircle
 10
70.4
 20
-9.525
 30
0.0
 40
3.25
100
AcDbArc
 50
0.0
 51
180.0
  0
LINE
  5
B9
330
1F
100
AcDbEntity
  8
0
  6
Continuous
 62
     7
370
    25
100
AcDbLine
 10
73.65
 20
-9.525
 30
0.0
 11
73.65
 21
-34.925
 31
0.0
  0
ARC
  5
BA
330
1F
100
AcDbEntity
  8
0
  6
Continuous
 62
     7
370
    25
100
AcDbCircle
 10
70.4
 20
9.525
 30
0.0
 40
3.25
100
AcDbArc
 50
180.0
 51
0.0
  0
LINE
  5
BB
330
1F
100
AcDbEntity
  8
0
  6
Continuous
 62
     7
370
    25
100
AcDbLine
 10
67.15
 20
34.925
 30
0.0
 11
67.15
 21
9.525
 31
0.0
  0
ARC
  5
BC
330
1F
100
AcDbEntity
  8
0
  6
Continuous
 62
     7
370
    25
100
AcDbCircle
 10
70.4
 20
34.925
 30
0.0
 40
3.25
100
AcDbArc
 50
0.0
 51
180.0
  0
LINE
  5
BD
330
1F
100
AcDbEntity
  8
0
  6
Continuous
 62
     7
370
    25
100
AcDbLine
 10
73.65
 20
34.925
 30
0.0
 11
73.65
 21
9.525
 31
0.0
  0
LINE
  5
BE
330
1F
100
AcDbEntity
  8
0
  6
Continuous
 62
     7
370
    25
100
AcDbLine
 10
90.4
 20
-38.1
 30
0.0
 11
95.4
 21
-38.1
 31
0.0
  0
ARC
  5
BF
330
1F
100
AcDbEntity
  8
0
  6
Continuous
 62
     7
370
    25
100
AcDbCircle
 10
95.4
 20
-33.1
 30
0.0
 40
5.0
100
AcDbArc
 50
270.0
 51
0.0
  0
LINE
  5
C0
330
1F
100
AcDbEntity
  8
0
  6
Continuous
 62
     7
370
    25
100
AcDbLine
 10
100.4
 20
-33.1
 30
0.0
 11
100.4
 21
33.1
 31
0.0
  0
ARC
  5
C1
330
1F
100
AcDbEntity
  8
0
  6
Continuous
 62
     7
370
    25
100
AcDbCircle
 10
95.4
 20
33.1
 30
0.0
 40
5.0
100
AcDbArc
 50
0.0
 51
90.0
  0
LINE
  5
C2
330
1F
100
AcDbEntity
  8
0
  6
Continuous
 62
     7
370
    25
100
AcDbLine
 10
95.4
 20
38.1
 30
0.0
 11
90.4
 21
38.1
 31
0.0
  0
ARC
  5
C3
330
1F
100
AcDbEntity
  8
0
  6
Continuous
 62
     7
370
    25
100
AcDbCircle
 10
90.4
 20
43.1
 30
0.0
 40
5.0
100
AcDbArc
 50
180.0
 51
270.0
  0
LINE
  5
C4
330
1F
100
AcDbEntity
  8
0
  6
Continuous
 62
     7
370
    25
100
AcDbLine
 10
85.4
 20
43.8
 30
0.0
 11
85.4
 21
43.1
 31
0.0
  0
ARC
  5
C5
330
1F
100
AcDbEntity
  8
0
  6
Continuous
 62
     7
370
    25
100
AcDbCircle
 10
78.4
 20
43.8
 30
0.0
 40
7.000000000000014
100
AcDbArc
 50
0.0
 51
90.0
  0
LINE
  5
C6
330
1F
100
AcDbEntity
  8
0
  6
Continuous
 62
     7
370
    25
100
AcDbLine
 10
26.7090169944
 20
50.8
 30
0.0
 11
78.4
 21
50.8
 31
0.0
  0
ARC
  5
C7
330
1F
100
AcDbEntity
  8
0
  6
Continuous
 62
     7
370
    25
100
AcDbCircle
 10
26.7090169944
 20
50.3
 30
0.0
 40
0.5000000000000023
100
AcDbArc
 50
90.0
 51
153.4349488229
  0
LINE
  5
C8
330
1F
100
AcDbEntity
  8
0
  6
Continuous
 62
     7
370
    25
100
AcDbLine
 10
25.8472135955
 20
49.694427191
 30
0.0
 11
26.2618033989
 21
50.5236067977
 31
0.0
  0
ARC
  5
C9
330
1F
100
AcDbEntity
  8
0
  6
Continuous
 62
     7
370
    25
100
AcDbCircle
 10
25.4
 20
49.9180339887
 30
0.0
 40
0.5000000000000024
100
AcDbArc
 50
206.5650511771
 51
333.4349488229
  0
LINE
  5
CA
330
1F
100
AcDbEntity
  8
0
  6
Continuous
 62
     7
370
    25
100
AcDbLine
 10
24.5381966011
 20
50.5236067977
 30
0.0
 11
24.9527864045
 21
49.694427191
 31
0.0
  0
ARC
  5
CB
330
1F
100
AcDbEntity
  8
0
  6
Continuous
 62
     7
370
    25
100
AcDbCircle
 10
24.0909830056
 20
50.3
 30
0.0
 40
0.5000000000000088
100
AcDbArc
 50
26.5650511771
 51
90.0
  0
LINE
  5
CC
330
1F
100
AcDbEntity
  8
0
  6
Continuous
 62
     7
370
    25
100
AcDbLine
 10
2.2071067812
 20
50.8
 30
0.0
 11
24.0909830056
 21
50.8
 31
0.0
  0
ARC
  5
CD
330
1F
100
AcDbEntity
  8
0
  6
Continuous
 62
     7
370
    25
100
AcDbCircle
 10
2.2071067812
 20
50.3
 30
0.0
 40
0.5
100
AcDbArc
 50
90.0
 51
135.0
  0
LINE
  5
CE
330
1F
100
AcDbEntity
  8
0
  6
Continuous
 62
     7
370
    25
100
AcDbLine
 10
0.3535533906
 20
49.1535533906
 30
0.0
 11
1.8535533906
 21
50.6535533906
 31
0.0
  0
ARC
  5
CF
330
1F
100
AcDbEntity
  8
0
  6
Continuous
 62
     7
370
    25
100
AcDbCircle
 10
0.0
 20
49.5071067812
 30
0.0
 40
0.5000000000000011
100
AcDbArc
 50
225.0
 51
315.0
  0
LINE
  5
D0
330
1F
100
AcDbEntity
  8
0
  6
Continuous
 62
     7
370
    25
100
AcDbLine
 10
-1.8535533906
 20
50.6535533906
 30
0.0
 11
-0.3535533906
 21
49.1535533906
 31
0.0
  0
ARC
  5
D1
330
1F
100
AcDbEntity
  8
0
  6
Continuous
 62
     7
370
    25
100
AcDbCircle
 10
-2.2071067812
 20
50.3
 30
0.0
 40
0.5
100
AcDbArc
 50
45.0
 51
90.0
  0
LINE
  5
D2
330
1F
100
AcDbEntity
  8
0
  6
Continuous
 62
     7
370
    25
100
AcDbLine
 10
-17.9
 20
50.8
 30
0.0
 11
-2.2071067812
 21
50.8
 31
0.0
  0
ARC
  5
D3
330
1F
100
AcDbEntity
  8
0
  6
Continuous
 62
     7
370
    25
100
AcDbCircle
 10
-17.9
 20
43.3
 30
0.0
 40
7.5
100
AcDbArc
 50
90.0
 51
180.0
  0
LINE
  5
D4
330
1F
100
AcDbEntity
  8
0
  6
Continuous
 62
     7
370
    25
100
AcDbLine
 10
-25.4
 20
43.3
 30
0.0
 11
-25.4
 21
-43.3
 31
0.0
  0
ARC
  5
D5
330
1F
100
AcDbEntity
  8
0
  6
Continuous
 62
     7
370
    25
100
AcDbCircle
 10
-17.9
 20
-43.3
 30
0.0
 40
7.5
100
AcDbArc
 50
180.0
 51
270.0
  0
LINE
  5
D6
330
1F
100
AcDbEntity
  8
0
  6
Continuous
 62
     7
370
    25
100
AcDbLine
 10
-17.9
 20
-50.8
 30
0.0
 11
-2.2071067812
 21
-50.8
 31
0.0
  0
ARC
  5
D7
330
1F
100
AcDbEntity
  8
0
  6
Continuous
 62
     7
370
    25
100
AcDbCircle
 10
-2.2071067812
 20
-50.3
 30
0.0
 40
0.5
100
AcDbArc
 50
270.0
 51
315.0
  0
LINE
  5
D8
330
1F
100
AcDbEntity
  8
0
  6
Continuous
 62
     7
370
    25
100
AcDbLine
 10
-1.8535533906
 20
-50.6535533906
 30
0.0
 11
-0.3535533906
 21
-49.1535533906
 31
0.0
  0
ARC
  5
D9
330
1F
100
AcDbEntity
  8
0
  6
Continuous
 62
     7
370
    25
100
AcDbCircle
 10
0.0
 20
-49.5071067812
 30
0.0
 40
0.5000000000000036
100
AcDbArc
 50
45.0
 51
135.0
  0
LINE
  5
DA
330
1F
100
AcDbEntity
  8
0
  6
Continuous
 62
     7
370
    25
100
AcDbLine
 10
0.3535533906
 20
-49.1535533906
 30
0.0
 11
1.8535533906
 21
-50.6535533906
 31
0.0
  0
ARC
  5
DB
330
1F
100
AcDbEntity
  8
0
  6
Continuous
 62
     7
370
    25
100
AcDbCircle
 10
2.2071067812
 20
-50.3
 30
0.0
 40
0.5
100
AcDbArc
 50
225.0
 51
270.0
  0
LINE
  5
DC
330
1F
100
AcDbEntity
  8
0
  6
Continuous
 62
     7
370
    25
100
AcDbLine
 10
2.2071067812
 20
-50.8
 30
0.0
 11
24.0909830056
 21
-50.8
 31
0.0
  0
ARC
  5
DD
330
1F
100
AcDbEntity
  8
0
  6
Continuous
 62
     7
370
    25
100
AcDbCircle
 10
24.0909830056
 20
-50.3
 30
0.0
 40
0.5
100
AcDbArc
 50
270.0
 51
333.4349488229
  0
LINE
  5
DE
330
1F
100
AcDbEntity
  8
0
  6
Continuous
 62
     7
370
    25
100
AcDbLine
 10
24.5381966011
 20
-50.5236067977
 30
0.0
 11
24.9527864045
 21
-49.694427191
 31
0.0
  0
ARC
  5
DF
330
1F
100
AcDbEntity
  8
0
  6
Continuous
 62
     7
370
    25
100
AcDbCircle
 10
25.4
 20
-49.9180339887
 30
0.0
 40
0.5000000000000056
100
AcDbArc
 50
26.5650511771
 51
153.4349488229
  0
LINE
  5
E0
330
1F
100
AcDbEntity
  8
0
  6
Continuous
 62
     7
370
    25
100
AcDbLine
 10
25.8472135955
 20
-49.694427191
 30
0.0
 11
26.2618033989
 21
-50.5236067977
 31
0.0
  0
ARC
  5
E1
330
1F
100
AcDbEntity
  8
0
  6
Continuous
 62
     7
370
    25
100
AcDbCircle
 10
26.7090169944
 20
-50.3
 30
0.0
 40
0.5
100
AcDbArc
 50
206.5650511771
 51
270.0
  0
LINE
  5
E2
330
1F
100
AcDbEntity
  8
0
  6
Continuous
 62
     7
370
    25
100
AcDbLine
 10
78.4
 20
-50.8
 30
0.0
 11
26.7090169944
 21
-50.8
 31
0.0
  0
ARC
  5
E3
330
1F
100
AcDbEntity
  8
0
  6
Continuous
 62
     7
370
    25
100
AcDbCircle
 10
78.4
 20
-43.8
 30
0.0
 40
7.000000000000014
100
AcDbArc
 50
270.0
 51
0.0
  0
LINE
  5
E4
330
1F
100
AcDbEntity
  8
0
  6
Continuous
 62
     7
370
    25
100
AcDbLine
 10
85.4
 20
-43.1
 30
0.0
 11
85.4
 21
-43.8
 31
0.0
  0
ARC
  5
E5
330
1F
100
AcDbEntity
  8
0
  6
Continuous
 62
     7
370
    25
100
AcDbCircle
 10
90.4
 20
-43.1
 30
0.0
 40
5.0
100
AcDbArc
 50
90.0
 51
180.0
  0
CIRCLE
  5
E6
330
1F
100
AcDbEntity
  8
0
  6
Continuous
 62
     7
370
    25
100
AcDbCircle
 10
-15.4
 20
0.0
 30
0.0
 40
2.07
  0
CIRCLE
  5
E7
330
1F
100
AcDbEntity
  8
0
  6
Continuous
 62
     7
370
    25
100
AcDbCircle
 10
-15.4
 20
30.8
 30
0.0
 40
2.069999999999999
  0
CIRCLE
  5
E8
330
1F
100
AcDbEntity
  8
0
  6
Continuous
 62
     7
370
    25
100
AcDbCircle
 10
-15.4
 20
-30.8
 30
0.0
 40
2.069999999999999
  0
CIRCLE
  5
E9
330
1F
100
AcDbEntity
  8
0
  6
Continuous
 62
     7
370
    25
100
AcDbCircle
 10
0.0
 20
22.225
 30
0.0
 40
2.07
  0
CIRCLE
  5
EA
330
1F
100
AcDbEntity
  8
0
  6
Continuous
 62
     7
370
    25
100
AcDbCircle
 10
0.0
 20
-22.225
 30
0.0
 40
2.07
  0
CIRCLE
  5
EB
330
1F
100
AcDbEntity
  8
0
  6
Continuous
 62
     7
370
    25
100
AcDbCircle
 10
15.4
 20
30.8
 30
0.0
 40
2.070000000000002
  0
CIRCLE
  5
EC
330
1F
100
AcDbEntity
  8
0
  6
Continuous
 62
     7
370
    25
100
AcDbCircle
 10
15.4
 20
-30.8
 30
0.0
 40
2.069999999999999
  0
CIRCLE
  5
ED
330
1F
100
AcDbEntity
  8
0
  6
Continuous
 62
     7
370
    25
100
AcDbCircle
 10
0.0
 20
0.0
 30
0.0
 40
2.07
  0
CIRCLE
  5
EE
330
1F
100
AcDbEntity
  8
0
  6
Continuous
 62
     7
370
    25
100
AcDbCircle
 10
15.4
 20
0.0
 30
0.0
 40
2.069999999999991
  0
SPLINE
  5
EF
330
1F
100
AcDbEntity
  8
0
  6
Continuous
 62
     7
370
    25
100
AcDbSpline
210
0.0
220
0.0
230
1.0
 70
     8
 71
     3
 72
    23
 73
    19
 74
     0
 42
0.00000001
 43
0.00000001
 40
0.0
 40
0.0
 40
0.0
 40
0.0
 40
0.0614951836190231
 40
0.1217961723239036
 40
0.1809517170762319
 40
0.2402988190231609
 40
0.2997573776696878
 40
0.3607997288283898
 40
0.423165446754747
 40
0.4883458089448718
 40
0.5536421562516348
 40
0.6172806219220596
 40
0.6801815912993835
 40
0.7421415642758011
 40
0.8046284919394301
 40
0.8682355732141464
 40
0.9330083519714487
 40
1.0
 40
1.0
 40
1.0
 40
1.0
 10
93.19507211538459
 20
31.03846153846153
 30
0.0
 10
93.27575848515716
 20
31.03677003239425
 30
0.0
 10
93.43556434992037
 20
31.03341986816459
 30
0.0
 10
93.6702326911646
 20
30.99497399170089
 30
0.0
 10
93.89809441644987
 20
30.93851599542909
 30
0.0
 10
94.1161076164858
 20
30.85410659714379
 30
0.0
 10
94.32777037197322
 20
30.74940180713484
 30
0.0
 10
94.52909536795872
 20
30.61844626295654
 30
0.0
 10
94.7239939152033
 20
30.4658582672761
 30
0.0
 10
94.9070019963719
 20
30.29091145191465
 30
0.0
 10
95.07521000191106
 20
30.09957744077701
 30
0.0
 10
95.22422044693543
 20
29.89662268177135
 30
0.0
 10
95.35132755120509
 20
29.68416583946141
 30
0.0
 10
95.45255589540577
 20
29.45990614945405
 30
0.0
 10
95.53226114131564
 20
29.22625275545292
 30
0.0
 10
95.58984987364585
 20
28.98243515499182
 30
0.0
 10
95.62523373671682
 20
28.72820636533404
 30
0.0
 10
95.62890346707081
 20
28.55540415040036
 30
0.0
 10
95.63076923076922
 20
28.46754807692307
 30
0.0
  0
SPLINE
  5
F0
330
1F
100
AcDbEntity
  8
0
  6
Continuous
 62
     7
370
    25
100
AcDbSpline
210
0.0
220
0.0
230
1.0
 70
     8
 71
     3
 72
    23
 73
    19
 74
     0
 42
0.00000001
 43
0.00000001
 40
0.0
 40
0.0
 40
0.0
 40
0.0
 40
0.0572071170734856
 40
0.1136937694502306
 40
0.1691745086254588
 40
0.2241547012871646
 40
0.2787142640590441
 40
0.3337874937492412
 40
0.3892336187550355
 40
0.4458130930916446
 40
0.5036941348717192
 40
0.5642825251108615
 40
0.627962766434362
 40
0.6946433827524272
 40
0.7653774520050076
 40
0.8396146738362729
 40
0.9175394111348559
 40
1.0
 40
1.0
 40
1.0
 40
1.0
 10
95.63076923076922
 20
28.46754807692307
 30
0.0
 10
95.62945476364796
 20
28.39957148086973
 30
0.0
 10
95.6268423837645
 20
28.26447438395131
 30
0.0
 10
95.60374766497534
 20
28.06464999929968
 30
0.0
 10
95.57107224721221
 20
27.86886249421653
 30
0.0
 10
95.51919609866779
 20
27.67956858932509
 30
0.0
 10
95.45625518408151
 20
27.49432966735688
 30
0.0
 10
95.37875705354
 20
27.31395054968466
 30
0.0
 10
95.28588258610539
 20
27.13834693288224
 30
0.0
 10
95.17970176927955
 20
26.96652280141309
 30
0.0
 10
95.05609985041448
 20
26.79896121008273
 30
0.0
 10
94.9122671164484
 20
26.63705210803778
 30
0.0
 10
94.7518712612221
 20
26.47653611832812
 30
0.0
 10
94.5724344417585
 20
26.31855188693083
 30
0.0
 10
94.37198347483685
 20
26.16654613180039
 30
0.0
 10
94.15350415923601
 20
26.01686968207844
 30
0.0
 10
93.9163467855453
 20
25.87025197912441
 30
0.0
 10
93.74956921556519
 20
25.77813189513412
 30
0.0
 10
93.6638221153846
 20
25.73076923076922
 30
0.0
  0
LINE
  5
F1
330
1F
100
AcDbEntity
  8
0
  6
Continuous
 62
     7
370
    25
100
AcDbLine
 10
93.6638221154
 20
25.7307692308
 30
0.0
 11
93.2076923077
 21
26.4915865385
 31
0.0
  0
SPLINE
  5
F2
330
1F
100
AcDbEntity
  8
0
  6
Continuous
 62
     7
370
    25
100
AcDbSpline
210
0.0
220
0.0
230
1.0
 70
     8
 71
     3
 72
    15
 73
    11
 74
     0
 42
0.00000001
 43
0.00000001
 40
0.0
 40
0.0
 40
0.0
 40
0.0
 40
0.1590042985173779
 40
0.3046460998968141
 40
0.4385469045795902
 40
0.5623222987759283
 40
0.6774325425257298
 40
0.7868973929387543
 40
0.8936108891042674
 40
1.0
 40
1.0
 40
1.0
 40
1.0
 10
93.2076923076923
 20
26.49158653846153
 30
0.0
 10
93.32614358327055
 20
26.5623477199629
 30
0.0
 10
93.55309165617926
 20
26.69792341300699
 30
0.0
 10
93.85975518871047
 20
26.92408405082769
 30
0.0
 10
94.12040073466213
 20
27.15842582239718
 30
0.0
 10
94.33351201119315
 20
27.40268410866717
 30
0.0
 10
94.50129486282987
 20
27.65536797526758
 30
0.0
 10
94.62010060153472
 20
27.91812697059051
 30
0.0
 10
94.69419882391816
 20
28.19007562670565
 30
0.0
 10
94.70319904648728
 20
28.37515116765274
 30
0.0
 10
94.7076923076923
 20
28.46754807692307
 30
0.0
  0
SPLINE
  5
F3
330
1F
100
AcDbEntity
  8
0
  6
Continuous
 62
     7
370
    25
100
AcDbSpline
210
0.0
220
0.0
230
1.0
 70
     8
 71
     3
 72
    19
 73
    15
 74
     0
 42
0.00000001
 43
0.00000001
 40
0.0
 40
0.0
 40
0.0
 40
0.0
 40
0.0912948867001658
 40
0.1809923273340787
 40
0.2703787729960493
 40
0.3604775585166238
 40
0.4486941846777445
 40
0.5326233456610098
 40
0.614315552373403
 40
0.69449084727275
 40
0.7726380724942805
 40
0.849283529706531
 40
0.9239412653742143
 40
1.0
 40
1.0
 40
1.0
 40
1.0
 10
94.7076923076923
 20
28.46754807692307
 30
0.0
 10
94.70544229336464
 20
28.54644117181366
 30
0.0
 10
94.70098163467482
 20
28.70284691775355
 30
0.0
 10
94.65985214588797
 20
28.93355265837026
 30
0.0
 10
94.59256438687737
 20
29.15649297080176
 30
0.0
 10
94.50134854507513
 20
29.36945168786122
 30
0.0
 10
94.38922444393101
 20
29.56678679842005
 30
0.0
 10
94.25700908652526
 20
29.74260540825496
 30
0.0
 10
94.10423897344971
 20
29.89106558413713
 30
0.0
 10
93.93657351606545
 20
30.01414086534753
 30
0.0
 10
93.75677991418557
 20
30.10937562345281
 30
0.0
 10
93.57152814677802
 20
30.18135497930682
 30
0.0
 10
93.37827642023879
 20
30.22166729535345
 30
0.0
 10
93.24813001812333
 20
30.22771650862256
 30
0.0
 10
93.18245192307691
 20
30.23076923076922
 30
0.0
  0
SPLINE
  5
F4
330
1F
100
AcDbEntity
  8
0
  6
Continuous
 62
     7
370
    25
100
AcDbSpline
210
0.0
220
0.0
230
1.0
 70
     8
 71
     3
 72
    11
 73
     7
 74
     0
 42
0.00000001
 43
0.00000001
 40
0.0
 40
0.0
 40
0.0
 40
0.0
 40
0.2347481398292003
 40
0.4753905809434864
 40
0.7285276436074691
 40
0.9999999999999999
 40
0.9999999999999999
 40
0.9999999999999999
 40
0.9999999999999999
 10
93.18245192307691
 20
30.23076923076922
 30
0.0
 10
93.10749329891183
 20
30.22705957042093
 30
0.0
 10
92.95569391121712
 20
30.21954710370082
 30
0.0
 10
92.7313485533707
 20
30.15333923588086
 30
0.0
 10
92.50837416566233
 20
30.05224259245258
 30
0.0
 10
92.37042416414863
 20
29.95722310928487
 30
0.0
 10
92.29903846153844
 20
29.90805288461538
 30
0.0
  0
SPLINE
  5
F5
330
1F
100
AcDbEntity
  8
0
  6
Continuous
 62
     7
370
    25
100
AcDbSpline
210
0.0
220
0.0
230
1.0
 70
     8
 71
     3
 72
    15
 73
    11
 74
     0
 42
0.00000001
 43
0.00000001
 40
0.0
 40
0.0
 40
0.0
 40
0.0
 40
0.0902813137657196
 40
0.1895343252778064
 40
0.299204829161653
 40
0.4183741499680036
 40
0.548365784529753
 40
0.6881291182810494
 40
0.8390797601293764
 40
1.0
 40
1.0
 40
1.0
 40
1.0
 10
92.29903846153844
 20
29.90805288461538
 30
0.0
 10
92.2474829691569
 20
29.86776292685508
 30
0.0
 10
92.13924866179784
 20
29.78317920026705
 30
0.0
 10
91.9782753506752
 20
29.6376418722465
 30
0.0
 10
91.81189506281899
 20
29.46773316954468
 30
0.0
 10
91.63645516747825
 20
29.27577856394746
 30
0.0
 10
91.4534128440532
 20
29.06145606570675
 30
0.0
 10
91.26133972471126
 20
28.82468275288257
 30
0.0
 10
91.06416084127122
 20
28.5634379014217
 30
0.0
 10
90.93208913401537
 20
28.38007102155902
 30
0.0
 10
90.8639423076923
 20
28.28545673076922
 30
0.0
  0
SPLINE
  5
F6
330
1F
100
AcDbEntity
  8
0
  6
Continuous
 62
     7
370
    25
100
AcDbSpline
210
0.0
220
0.0
230
1.0
 70
     8
 71
     3
 72
    15
 73
    11
 74
     0
 42
0.00000001
 43
0.00000001
 40
0.0
 40
0.0
 40
0.0
 40
0.0
 40
0.1815353013762864
 40
0.3470816724816314
 40
0.4955678164315556
 40
0.6283573018772148
 40
0.7455196699921598
 40
0.845830750757656
 40
0.9307818073847592
 40
1.0
 40
1.0
 40
1.0
 40
1.0
 10
90.86394230769231
 20
28.28545673076923
 30
0.0
 10
90.79649736809976
 20
28.19076645488023
 30
0.0
 10
90.66754777947023
 20
28.00972585795975
 30
0.0
 10
90.47617104914949
 20
27.75654664621195
 30
0.0
 10
90.30120109889889
 20
27.53014659847217
 30
0.0
 10
90.14099078206381
 20
27.33153198455509
 30
0.0
 10
89.99551836990126
 20
27.1607901640938
 30
0.0
 10
89.86618081210709
 20
27.01657567862885
 30
0.0
 10
89.74948022701703
 20
26.90256224609738
 30
0.0
 10
89.67377391967236
 20
26.8391621815469
 30
0.0
 10
89.63978365384614
 20
26.81069711538461
 30
0.0
  0
SPLINE
  5
F7
330
1F
100
AcDbEntity
  8
0
  6
Continuous
 62
     7
370
    25
100
AcDbSpline
210
0.0
220
0.0
230
1.0
 70
     8
 71
     3
 72
    15
 73
    11
 74
     0
 42
0.00000001
 43
0.00000001
 40
0.0
 40
0.0
 40
0.0
 40
0.0
 40
0.1335024395772788
 40
0.2625504643424632
 40
0.3882518563240265
 40
0.5115309837160419
 40
0.6337341477948613
 40
0.7554017923417835
 40
0.8775569158628388
 40
1.0
 40
1.0
 40
1.0
 40
1.0
 10
89.63978365384614
 20
26.81069711538461
 30
0.0
 10
89.58680692938161
 20
26.77091723915333
 30
0.0
 10
89.48262109089394
 20
26.69268477382104
 30
0.0
 10
89.3198232152595
 20
26.58930573219536
 30
0.0
 10
89.15349013736991
 20
26.50212590493842
 30
0.0
 10
88.98301902914807
 20
26.43196244329735
 30
0.0
 10
88.80969108238796
 20
26.37522391012697
 30
0.0
 10
88.6322050191225
 20
26.33577607412474
 30
0.0
 10
88.45176572068056
 20
26.31146126202656
 30
0.0
 10
88.3303637790283
 20
26.30894961144251
 30
0.0
 10
88.26959134615383
 20
26.3076923076923
 30
0.0
  0
SPLINE
  5
F8
330
1F
100
AcDbEntity
  8
0
  6
Continuous
 62
     7
370
    25
100
AcDbSpline
210
0.0
220
0.0
230
1.0
 70
     8
 71
     3
 72
    19
 73
    15
 74
     0
 42
0.00000001
 43
0.00000001
 40
0.0
 40
0.0
 40
0.0
 40
0.0
 40
0.0837707315446643
 40
0.1657509226047117
 40
0.2462369774708456
 40
0.3274037132585811
 40
0.4087255283984315
 40
0.4896296774295422
 40
0.5716098684895891
 40
0.6557424551268375
 40
0.7412236787944404
 40
0.826577066521003
 40
0.9120042290982702
 40
1.0
 40
1.0
 40
1.0
 40
1.0
 10
88.26959134615383
 20
26.3076923076923
 30
0.0
 10
88.17437173967087
 20
26.31104840997565
 30
0.0
 10
87.98596777884127
 20
26.31768888021582
 30
0.0
 10
87.71074834453755
 20
26.37385237812505
 30
0.0
 10
87.44797320536534
 20
26.46248888306854
 30
0.0
 10
87.20030444241345
 20
26.5867060816029
 30
0.0
 10
86.9739647947857
 20
26.74668292811225
 30
0.0
 10
86.7669169911255
 20
26.93262093701298
 30
0.0
 10
86.59048214055683
 20
27.15203285252263
 30
0.0
 10
86.4387296316306
 20
27.39493815358057
 30
0.0
 10
86.31872304924998
 20
27.65942012238466
 30
0.0
 10
86.23175386051764
 20
27.93786212363848
 30
0.0
 10
86.18009525496568
 20
28.22826262599766
 30
0.0
 10
86.17288784801538
 20
28.42527513204426
 30
0.0
 10
86.16923076923075
 20
28.52524038461538
 30
0.0
  0
SPLINE
  5
F9
330
1F
100
AcDbEntity
  8
0
  6
Continuous
 62
     7
370
    25
100
AcDbSpline
210
0.0
220
0.0
230
1.0
 70
     8
 71
     3
 72
    19
 73
    15
 74
     0
 42
0.00000001
 43
0.00000001
 40
0.0
 40
0.0
 40
0.0
 40
0.0
 40
0.1072089520953845
 40
0.2132043881836069
 40
0.3185615182410201
 40
0.4265005918967691
 40
0.4833403687614379
 40
0.5432849061016973
 40
0.6079743443037646
 40
0.6771985633245892
 40
0.7507410804896149
 40
0.828751510486722
 40
0.9122098760173962
 40
1.0
 40
1.0
 40
1.0
 40
1.0
 10
86.16923076923075
 20
28.52524038461538
 30
0.0
 10
86.17283908908372
 20
28.63131381499495
 30
0.0
 10
86.18001488561549
 20
28.8422600129066
 30
0.0
 10
86.24395932369254
 20
29.15205472066798
 30
0.0
 10
86.34572979052632
 20
29.45154286789193
 30
0.0
 10
86.46513321067509
 20
29.69139348630382
 30
0.0
 10
86.58362961198418
 20
29.87950994414814
 30
0.0
 10
86.69179575002802
 20
30.02282876397714
 30
0.0
 10
86.81606335463
 20
30.16885038134413
 30
0.0
 10
86.95905217862877
 20
30.31600550141176
 30
0.0
 10
87.11790230144743
 20
30.46574685068854
 30
0.0
 10
87.29395840194404
 20
30.6173846849517
 30
0.0
 10
87.48563392743056
 20
30.77233807462425
 30
0.0
 10
87.62250278196998
 20
30.87199039965841
 30
0.0
 10
87.69266826923075
 20
30.92307692307691
 30
0.0
  0
LINE
  5
FA
330
1F
100
AcDbEntity
  8
0
  6
Continuous
 62
     7
370
    25
100
AcDbLine
 10
87.6926682692
 20
30.9230769231
 30
0.0
 11
88.2461538462
 21
30.1929086538
 31
0.0
  0
SPLINE
  5
FB
330
1F
100
AcDbEntity
  8
0
  6
Continuous
 62
     7
370
    25
100
AcDbSpline
210
0.0
220
0.0
230
1.0
 70
     8
 71
     3
 72
    19
 73
    15
 74
     0
 42
0.00000001
 43
0.00000001
 40
0.0
 40
0.0
 40
0.0
 40
0.0
 40
0.0984493447892922
 40
0.1895904197429202
 40
0.274128160137436
 40
0.3521113210661074
 40
0.423687272972129
 40
0.4890260149802135
 40
0.5489361917676533
 40
0.6018922049485286
 40
0.7012590333813201
 40
0.7996326823014034
 40
0.8985657937081591
 40
1.0
 40
1.0
 40
1.0
 40
1.0
 10
88.24615384615383
 20
30.19290865384615
 30
0.0
 10
88.18935106934975
 20
30.14882232758632
 30
0.0
 10
88.07996220221311
 20
30.06392237098008
 30
0.0
 10
87.92682254547086
 20
29.93497521785306
 30
0.0
 10
87.78674628222876
 20
29.8136235877623
 30
0.0
 10
87.6653991277378
 20
29.69314795897336
 30
0.0
 10
87.55369413062901
 20
29.58283456183683
 30
0.0
 10
87.45975384649941
 20
29.47386725219114
 30
0.0
 10
87.38061020884838
 20
29.37045109326463
 30
0.0
 10
87.29599512804307
 20
29.24040813140894
 30
0.0
 10
87.21465616456457
 20
29.0756734879038
 30
0.0
 10
87.14320944666096
 20
28.87060536810727
 30
0.0
 10
87.10082344045495
 20
28.65557652600461
 30
0.0
 10
87.09516979897593
 20
28.50919866750188
 30
0.0
 10
87.09230769230768
 20
28.43509615384615
 30
0.0
  0
SPLINE
  5
FC
330
1F
100
AcDbEntity
  8
0
  6
Continuous
 62
     7
370
    25
100
AcDbSpline
210
0.0
220
0.0
230
1.0
 70
     8
 71
     3
 72
    15
 73
    11
 74
     0
 42
0.00000001
 43
0.00000001
 40
0.0
 40
0.0
 40
0.0
 40
0.0
 40
0.1430311101154178
 40
0.2758220219306166
 40
0.4018686934691116
 40
0.527874504882851
 40
0.6504589547820602
 40
0.76596376591586
 40
0.8808091083575632
 40
1.0
 40
1.0
 40
1.0
 40
1.0
 10
87.09230769230767
 20
28.43509615384614
 30
0.0
 10
87.09537247263924
 20
28.34210029847812
 30
0.0
 10
87.10128261279792
 20
28.16276655186818
 30
0.0
 10
87.16752871683731
 20
27.90875828916059
 30
0.0
 10
87.2682514541749
 20
27.67881742467989
 30
0.0
 10
87.41349259143087
 20
27.48172191105468
 30
0.0
 10
87.5866480024091
 20
27.31898320208899
 30
0.0
 10
87.78411955386342
 20
27.19980341161926
 30
0.0
 10
88.00221919846719
 20
27.12854790962695
 30
0.0
 10
88.15428572956885
 20
27.1198263602661
 30
0.0
 10
88.23173076923077
 20
27.11538461538461
 30
0.0
  0
SPLINE
  5
FD
330
1F
100
AcDbEntity
  8
0
  6
Continuous
 62
     7
370
    25
100
AcDbSpline
210
0.0
220
0.0
230
1.0
 70
     8
 71
     3
 72
    15
 73
    11
 74
     0
 42
0.00000001
 43
0.00000001
 40
0.0
 40
0.0
 40
0.0
 40
0.0
 40
0.1072823902766787
 40
0.216059267522539
 40
0.3229563813613332
 40
0.4341310578746496
 40
0.5534240661724372
 40
0.6860812480879501
 40
0.8342603548210491
 40
1.0
 40
1.0
 40
1.0
 40
1.0
 10
88.23173076923075
 20
27.11538461538461
 30
0.0
 10
88.27993779984438
 20
27.11645326217901
 30
0.0
 10
88.37702340445253
 20
27.1186054424487
 30
0.0
 10
88.51977654167158
 20
27.14610682502503
 30
0.0
 10
88.66177698771416
 20
27.18329095433866
 30
0.0
 10
88.80252497451504
 20
27.24029600677424
 30
0.0
 10
88.94520764660604
 20
27.3196802637225
 30
0.0
 10
89.09184027997551
 20
27.42381540577301
 30
0.0
 10
89.24368588521084
 20
27.55499901186533
 30
0.0
 10
89.3424479505541
 20
27.65548177934774
 30
0.0
 10
89.39459134615383
 20
27.70853365384614
 30
0.0
  0
SPLINE
  5
FE
330
1F
100
AcDbEntity
  8
0
  6
Continuous
 62
     7
370
    25
100
AcDbSpline
210
0.0
220
0.0
230
1.0
 70
     8
 71
     3
 72
    15
 73
    11
 74
     0
 42
0.00000001
 43
0.00000001
 40
0.0
 40
0.0
 40
0.0
 40
0.0
 40
0.0525942815291332
 40
0.124951973975035
 40
0.218093898928591
 40
0.3335024107325195
 40
0.4687891785044425
 40
0.6249375859645964
 40
0.8016830479282241
 40
1.0
 40
1.0
 40
1.0
 40
1.0
 10
89.39459134615383
 20
27.70853365384614
 30
0.0
 10
89.41217226968024
 20
27.72823432575163
 30
0.0
 10
89.45394051966974
 20
27.77503861267514
 30
0.0
 10
89.52232066989649
 20
27.86060527886284
 30
0.0
 10
89.60667065579862
 20
27.97360104573984
 30
0.0
 10
89.71103804101955
 20
28.11107527733743
 30
0.0
 10
89.8321046578925
 20
28.2755627789213
 30
0.0
 10
89.96832251774227
 20
28.46708163757884
 30
0.0
 10
90.12411369804568
 20
28.68349700772584
 30
0.0
 10
90.23303308818555
 20
28.83706764861049
 30
0.0
 10
90.29062499999999
 20
28.91826923076922
 30
0.0
  0
SPLINE
  5
FF
330
1F
100
AcDbEntity
  8
0
  6
Continuous
 62
     7
370
    25
100
AcDbSpline
210
0.0
220
0.0
230
1.0
 70
     8
 71
     3
 72
    19
 73
    15
 74
     0
 42
0.00000001
 43
0.00000001
 40
0.0
 40
0.0
 40
0.0
 40
0.0
 40
0.0969670031886395
 40
0.1877631623194244
 40
0.2723812310585975
 40
0.3513017699454448
 40
0.4243115510541542
 40
0.4918818623485182
 40
0.5542028871937662
 40
0.6108431885375962
 40
0.7159176243565458
 40
0.8145502358482767
 40
0.9085004640969342
 40
1.0
 40
1.0
 40
1.0
 40
1.0
 10
90.29062499999999
 20
28.91826923076922
 30
0.0
 10
90.36170283197796
 20
29.01594722455625
 30
0.0
 10
90.49933520241466
 20
29.20508712162815
 30
0.0
 10
90.70611770042494
 20
29.47420754498065
 30
0.0
 10
90.90835714547538
 20
29.71821700231314
 30
0.0
 10
91.10474889418778
 20
29.93799024765665
 30
0.0
 10
91.29384715171521
 20
30.13563801838126
 30
0.0
 10
91.47778033457541
 20
30.30916790967518
 30
0.0
 10
91.6553422343151
 20
30.45936726862218
 30
0.0
 10
91.88143960240537
 20
30.62327591676262
 30
0.0
 10
92.16169556658973
 20
30.78877506288772
 30
0.0
 10
92.5052167591567
 20
30.93067697833092
 30
0.0
 10
92.84972375020902
 20
31.02095254724826
 30
0.0
 10
93.08097464291512
 20
31.03267685307028
 30
0.0
 10
93.19507211538459
 20
31.03846153846153
 30
0.0
  0
SPLINE
  5
100
330
1F
100
AcDbEntity
  8
0
  6
Continuous
 62
     7
370
    25
100
AcDbSpline
210
0.0
220
0.0
230
1.0
 70
     8
 71
     3
 72
    15
 73
    11
 74
     0
 42
0.00000001
 43
0.00000001
 40
0.0
 40
0.0
 40
0.0
 40
0.0
 40
0.0781298651584289
 40
0.1694654174977348
 40
0.2743352908540851
 40
0.3921101633539159
 40
0.523687329857516
 40
0.6683654211389647
 40
0.8271319021257815
 40
1.0
 40
1.0
 40
1.0
 40
1.0
 10
93.73233173076922
 20
18.62199519230769
 30
0.0
 10
93.68441939647116
 20
18.60868249985949
 30
0.0
 10
93.58049647636057
 20
18.57980697346279
 30
0.0
 10
93.40850264864136
 20
18.54888477951905
 30
0.0
 10
93.21046428896915
 20
18.52288999815528
 30
0.0
 10
92.98636784173715
 20
18.49844713415789
 30
0.0
 10
92.73603961333052
 20
18.48402409941204
 30
0.0
 10
92.4595881153806
 20
18.47137925705008
 30
0.0
 10
92.15667907104462
 20
18.46144938014465
 30
0.0
 10
91.94568174517083
 20
18.46150793775372
 30
0.0
 10
91.8356971153846
 20
18.46153846153846
 30
0.0
  0
LINE
  5
101
330
1F
100
AcDbEntity
  8
0
  6
Continuous
 62
     7
370
    25
100
AcDbLine
 10
91.8356971154
 20
18.4615384615
 30
0.0
 11
86.4
 21
18.4615384615
 31
0.0
  0
LINE
  5
102
330
1F
100
AcDbEntity
  8
0
  6
Continuous
 62
     7
370
    25
100
AcDbLine
 10
86.4
 20
18.4615384615
 30
0.0
 11
86.4
 21
19.2692307692
 31
0.0
  0
LINE
  5
103
330
1F
100
AcDbEntity
  8
0
  6
Continuous
 62
     7
370
    25
100
AcDbLine
 10
86.4
 20
19.2692307692
 30
0.0
 11
91.7924278846
 21
19.2692307692
 31
0.0
  0
SPLINE
  5
104
330
1F
100
AcDbEntity
  8
0
  6
Continuous
 62
     7
370
    25
100
AcDbSpline
210
0.0
220
0.0
230
1.0
 70
     8
 71
     3
 72
    15
 73
    11
 74
     0
 42
0.00000001
 43
0.00000001
 40
0.0
 40
0.0
 40
0.0
 40
0.0
 40
0.1910785917157244
 40
0.3626045563099791
 40
0.5160987502785629
 40
0.6500380260398385
 40
0.7659767209867887
 40
0.862374025799385
 40
0.9408420582211736
 40
1.0
 40
1.0
 40
1.0
 40
1.0
 10
91.79242788461536
 20
19.26923076923077
 30
0.0
 10
91.86874977653035
 20
19.26911057044372
 30
0.0
 10
92.013583718973
 20
19.26888247253146
 30
0.0
 10
92.21973077747802
 20
19.27040607962931
 30
0.0
 10
92.40300281503961
 20
19.27467302697765
 30
0.0
 10
92.56410628021503
 20
19.27736315155609
 30
0.0
 10
92.70230191653773
 20
19.28334772350357
 30
0.0
 10
92.81833842972496
 20
19.28822841553209
 30
0.0
 10
92.91166637889361
 20
19.29450413278331
 30
0.0
 10
92.96613161731017
 20
19.30204643492543
 30
0.0
 10
92.98954326923075
 20
19.30528846153846
 30
0.0
  0
SPLINE
  5
105
330
1F
100
AcDbEntity
  8
0
  6
Continuous
 62
     7
370
    25
100
AcDbSpline
210
0.0
220
0.0
230
1.0
 70
     8
 71
     3
 72
    19
 73
    15
 74
     0
 42
0.00000001
 43
0.00000001
 40
0.0
 40
0.0
 40
0.0
 40
0.0
 40
0.0868980953524821
 40
0.1677528675071858
 40
0.2449639769088309
 40
0.3181296169877299
 40
0.3923372312132491
 40
0.4700996179233179
 40
0.5542659601389661
 40
0.6443986596182018
 40
0.7369184321508727
 40
0.8261972798238673
 40
0.91369295377184
 40
1.0
 40
1.0
 40
1.0
 40
1.0
 10
92.98954326923075
 20
19.30528846153846
 30
0.0
 10
93.07465397163722
 20
19.31845027546477
 30
0.0
 10
93.23895635739517
 20
19.34385856570151
 30
0.0
 10
93.4727575079862
 20
19.41136364992074
 30
0.0
 10
93.68385872409404
 20
19.50135880154041
 30
0.0
 10
93.87702170251607
 20
19.61300316998722
 30
0.0
 10
94.05101887154795
 20
19.75406631252075
 30
0.0
 10
94.20718568111022
 20
19.92920055971523
 30
0.0
 10
94.3491016175388
 20
20.13526599118312
 30
0.0
 10
94.47283191035915
 20
20.36931029269524
 30
0.0
 10
94.57560034507837
 20
20.61868490635952
 30
0.0
 10
94.65249750994604
 20
20.87444975442473
 30
0.0
 10
94.69955852568194
 20
21.13166858157792
 30
0.0
 10
94.704993436713
 20
21.30389753340814
 30
0.0
 10
94.7076923076923
 20
21.38942307692307
 30
0.0
  0
SPLINE
  5
106
330
1F
100
AcDbEntity
  8
0
  6
Continuous
 62
     7
370
    25
100
AcDbSpline
210
0.0
220
0.0
230
1.0
 70
     8
 71
     3
 72
    19
 73
    15
 74
     0
 42
0.00000001
 43
0.00000001
 40
0.0
 40
0.0
 40
0.0
 40
0.0
 40
0.0828932334846635
 40
0.1653076974794221
 40
0.2477696055067564
 40
0.3317876140329327
 40
0.4152258305101701
 40
0.4963147778605579
 40
0.5771024156395271
 40
0.6577361231971447
 40
0.7392777688164248
 40
0.8231642336384215
 40
0.9094731293132527
 40
1.0
 40
1.0
 40
1.0
 40
1.0
 10
94.7076923076923
 20
21.38942307692307
 30
0.0
 10
94.70494628533599
 20
21.46285343602591
 30
0.0
 10
94.69947010092542
 20
21.60929003981243
 30
0.0
 10
94.66514130723976
 20
21.82675329316078
 30
0.0
 10
94.60449220111502
 20
22.03921934508613
 30
0.0
 10
94.52187704775841
 20
22.24501908764936
 30
0.0
 10
94.42028255544926
 20
22.44080792780332
 30
0.0
 10
94.29857400546896
 20
22.62156608631231
 30
0.0
 10
94.15680711634145
 20
22.78355474603763
 30
0.0
 10
93.99969027456564
 20
22.931378425551
 30
0.0
 10
93.82263776174837
 20
23.05934602293134
 30
0.0
 10
93.62992099173749
 20
23.17248938849798
 30
0.0
 10
93.41640125642535
 20
23.26234602160202
 30
0.0
 10
93.26643508252532
 20
23.30784016267128
 30
0.0
 10
93.18966346153846
 20
23.3311298076923
 30
0.0
  0
SPLINE
  5
107
330
1F
100
AcDbEntity
  8
0
  6
Continuous
 62
     7
370
    25
100
AcDbSpline
210
0.0
220
0.0
230
1.0
 70
     8
 71
     3
 72
    15
 73
    11
 74
     0
 42
0.00000001
 43
0.00000001
 40
0.0
 40
0.0
 40
0.0
 40
0.0
 40
0.069835103915442
 40
0.1556207549116672
 40
0.2578015566582748
 40
0.3738112340663698
 40
0.5064024926743697
 40
0.6555644581431028
 40
0.8200792824038488
 40
0.9999999999999999
 40
0.9999999999999999
 40
0.9999999999999999
 40
0.9999999999999999
 10
93.18966346153846
 20
23.3311298076923
 30
0.0
 10
93.15790998465712
 20
23.33884441559382
 30
0.0
 10
93.08715044158657
 20
23.35603567096783
 30
0.0
 10
92.96752426587484
 20
23.37209950093189
 30
0.0
 10
92.82638018710286
 20
23.38883056628666
 30
0.0
 10
92.66270409701889
 20
23.40043946057469
 30
0.0
 10
92.47704445317919
 20
23.41175688449734
 30
0.0
 10
92.26843407679321
 20
23.41852764311664
 30
0.0
 10
92.03763046327887
 20
23.42165715635015
 30
0.0
 10
91.87656347585553
 20
23.42258976297595
 30
0.0
 10
91.79242788461536
 20
23.42307692307692
 30
0.0
  0
LINE
  5
108
330
1F
100
AcDbEntity
  8
0
  6
Continuous
 62
     7
370
    25
100
AcDbLine
 10
91.7924278846
 20
23.4230769231
 30
0.0
 11
86.4
 21
23.4230769231
 31
0.0
  0
LINE
  5
109
330
1F
100
AcDbEntity
  8
0
  6
Continuous
 62
     7
370
    25
100
AcDbLine
 10
86.4
 20
23.4230769231
 30
0.0
 11
86.4
 21
24.2307692308
 31
0.0
  0
LINE
  5
10A
330
1F
100
AcDbEntity
  8
0
  6
Continuous
 62
     7
370
    25
100
AcDbLine
 10
86.4
 20
24.2307692308
 30
0.0
 11
91.8356971154
 21
24.2307692308
 31
0.0
  0
SPLINE
  5
10B
330
1F
100
AcDbEntity
  8
0
  6
Continuous
 62
     7
370
    25
100
AcDbSpline
210
0.0
220
0.0
230
1.0
 70
     8
 71
     3
 72
    31
 73
    27
 74
     0
 42
0.00000001
 43
0.00000001
 40
0.0
 40
0.0
 40
0.0
 40
0.0
 40
0.0548627935283872
 40
0.1070680772313596
 40
0.1569919700126345
 40
0.2040099703472618
 40
0.2485130885712328
 40
0.290508508659976
 40
0.3301893293099512
 40
0.3675894943772979
 40
0.403882990791051
 40
0.4400373383011975
 40
0.476326152992005
 40
0.5128266023586378
 40
0.5502555280549951
 40
0.5884068145652072
 40
0.6274386312877107
 40
0.6677762669327001
 40
0.7084327600187059
 40
0.7486057888918747
 40
0.7889476363917033
 40
0.8294464130378028
 40
0.8703598020050729
 40
0.9122066130959967
 40
0.9555427192869348
 40
1.0
 40
1.0
 40
1.0
 40
1.0
 10
91.8356971153846
 20
24.23076923076923
 30
0.0
 10
91.93366435613329
 20
24.23011568532718
 30
0.0
 10
92.12485338286771
 20
24.22884025166143
 30
0.0
 10
92.4050142899329
 20
24.21778291866982
 30
0.0
 10
92.67077814667279
 20
24.20014606803644
 30
0.0
 10
92.92218612227158
 20
24.17524951868856
 30
0.0
 10
93.15831988303059
 20
24.1421862948483
 30
0.0
 10
93.38073478697818
 20
24.10575816127091
 30
0.0
 10
93.58820458120543
 20
24.05855629269973
 30
0.0
 10
93.7831229320454
 20
24.00383083824617
 30
0.0
 10
93.96960458335396
 20
23.94216272646017
 30
0.0
 10
94.14623826042046
 20
23.86088807294359
 30
0.0
 10
94.31821171036607
 20
23.76971627545831
 30
0.0
 10
94.48359928970515
 20
23.66245745888419
 30
0.0
 10
94.64135021903658
 20
23.53906085938225
 30
0.0
 10
94.79554806631026
 20
23.40425394376073
 30
0.0
 10
94.94159731981267
 20
23.25328515694243
 30
0.0
 10
95.08129926334057
 20
23.09061364494286
 30
0.0
 10
95.21122210674596
 20
22.91733313228961
 30
0.0
 10
95.32428443347676
 20
22.73232475031504
 30
0.0
 10
95.41634782432878
 20
22.53660991135659
 30
0.0
 10
95.49805589842786
 20
22.33482300006309
 30
0.0
 10
95.55613191593612
 20
22.12212605609506
 30
0.0
 10
95.60028976534079
 20
21.90116852275218
 30
0.0
 10
95.62516953091334
 20
21.67063979024234
 30
0.0
 10
95.62888684005706
 20
21.51387737516103
 30
0.0
 10
95.63076923076922
 20
21.43449519230769
 30
0.0
  0
SPLINE
  5
10C
330
1F
100
AcDbEntity
  8
0
  6
Continuous
 62
     7
370
    25
100
AcDbSpline
210
0.0
220
0.0
230
1.0
 70
     8
 71
     3
 72
    23
 73
    19
 74
     0
 42
0.00000001
 43
0.00000001
 40
0.0
 40
0.0
 40
0.0
 40
0.0
 40
0.0711836930841644
 40
0.1396621511999486
 40
0.2063438615239648
 40
0.2714082771846408
 40
0.3354613897373602
 40
0.398320234216669
 40
0.460631155554047
 40
0.5232643920666439
 40
0.5850185770939968
 40
0.6452055630551152
 40
0.7042523817819437
 40
0.7629675906211101
 40
0.821064331506224
 40
0.8800884116929053
 40
0.9393806626387816
 40
1.0
 40
1.0
 40
1.0
 40
1.0
 10
95.63076923076922
 20
21.43449519230769
 30
0.0
 10
95.6287526614224
 20
21.34791686751068
 30
0.0
 10
95.62479615957744
 20
21.17805050395826
 30
0.0
 10
95.60208928083648
 20
20.92776157318734
 30
0.0
 10
95.55942844512089
 20
20.68777814442656
 30
0.0
 10
95.50475650235336
 20
20.45575804228577
 30
0.0
 10
95.43058492152804
 20
20.23394283995202
 30
0.0
 10
95.33944783176096
 20
20.02239790465733
 30
0.0
 10
95.23540099637674
 20
19.81869425894191
 30
0.0
 10
95.1124532560476
 20
19.62742129785544
 30
0.0
 10
94.97838702096354
 20
19.44700994876328
 30
0.0
 10
94.83112996200744
 20
19.28305728275189
 30
0.0
 10
94.67629038191185
 20
19.13140134709576
 30
0.0
 10
94.50803779224873
 20
18.99872679703858
 30
0.0
 10
94.32981647670287
 20
18.88001544031092
 30
0.0
 10
94.1407881781269
 20
18.77788314163454
 30
0.0
 10
93.94120629804375
 20
18.69015506736937
 30
0.0
 10
93.80246840022306
 20
18.64488216552608
 30
0.0
 10
93.73233173076923
 20
18.62199519230769
 30
0.0
  0
LINE
  5
10D
330
1F
100
AcDbEntity
  8
0
  6
Continuous
 62
     7
370
    25
100
AcDbLine
 10
95.4
 20
16.9615384615
 30
0.0
 11
95.4
 21
12.6923076923
 31
0.0
  0
LINE
  5
10E
330
1F
100
AcDbEntity
  8
0
  6
Continuous
 62
     7
370
    25
100
AcDbLine
 10
95.4
 20
12.6923076923
 30
0.0
 11
86.4
 21
12.6923076923
 31
0.0
  0
LINE
  5
10F
330
1F
100
AcDbEntity
  8
0
  6
Continuous
 62
     7
370
    25
100
AcDbLine
 10
86.4
 20
12.6923076923
 30
0.0
 11
86.4
 21
13.5
 31
0.0
  0
LINE
  5
110
330
1F
100
AcDbEntity
  8
0
  6
Continuous
 62
     7
370
    25
100
AcDbLine
 10
86.4
 20
13.5
 30
0.0
 11
94.4769230769
 21
13.5
 31
0.0
  0
LINE
  5
111
330
1F
100
AcDbEntity
  8
0
  6
Continuous
 62
     7
370
    25
100
AcDbLine
 10
94.4769230769
 20
13.5
 30
0.0
 11
94.4769230769
 21
16.9615384615
 31
0.0
  0
LINE
  5
112
330
1F
100
AcDbEntity
  8
0
  6
Continuous
 62
     7
370
    25
100
AcDbLine
 10
94.4769230769
 20
16.9615384615
 30
0.0
 11
95.4
 21
16.9615384615
 31
0.0
  0
LINE
  5
113
330
1F
100
AcDbEntity
  8
0
  6
Continuous
 62
     7
370
    25
100
AcDbLine
 10
95.4
 20
-7.3846153846
 30
0.0
 11
95.4
 21
-12.4615384615
 31
0.0
  0
LINE
  5
114
330
1F
100
AcDbEntity
  8
0
  6
Continuous
 62
     7
370
    25
100
AcDbLine
 10
95.4
 20
-12.4615384615
 30
0.0
 11
86.4
 21
-12.4615384615
 31
0.0
  0
LINE
  5
115
330
1F
100
AcDbEntity
  8
0
  6
Continuous
 62
     7
370
    25
100
AcDbLine
 10
86.4
 20
-12.4615384615
 30
0.0
 11
86.4
 21
-7.3846153846
 31
0.0
  0
LINE
  5
116
330
1F
100
AcDbEntity
  8
0
  6
Continuous
 62
     7
370
    25
100
AcDbLine
 10
86.4
 20
-7.3846153846
 30
0.0
 11
87.3230769231
 21
-7.3846153846
 31
0.0
  0
LINE
  5
117
330
1F
100
AcDbEntity
  8
0
  6
Continuous
 62
     7
370
    25
100
AcDbLine
 10
87.3230769231
 20
-7.3846153846
 30
0.0
 11
87.3230769231
 21
-11.6538461538
 31
0.0
  0
LINE
  5
118
330
1F
100
AcDbEntity
  8
0
  6
Continuous
 62
     7
370
    25
100
AcDbLine
 10
87.3230769231
 20
-11.6538461538
 30
0.0
 11
90.0923076923
 21
-11.6538461538
 31
0.0
  0
LINE
  5
119
330
1F
100
AcDbEntity
  8
0
  6
Continuous
 62
     7
370
    25
100
AcDbLine
 10
90.0923076923
 20
-11.6538461538
 30
0.0
 11
90.0923076923
 21
-7.3846153846
 31
0.0
  0
LINE
  5
11A
330
1F
100
AcDbEntity
  8
0
  6
Continuous
 62
     7
370
    25
100
AcDbLine
 10
90.0923076923
 20
-7.3846153846
 30
0.0
 11
91.0153846154
 21
-7.3846153846
 31
0.0
  0
LINE
  5
11B
330
1F
100
AcDbEntity
  8
0
  6
Continuous
 62
     7
370
    25
100
AcDbLine
 10
91.0153846154
 20
-7.3846153846
 30
0.0
 11
91.0153846154
 21
-11.6538461538
 31
0.0
  0
LINE
  5
11C
330
1F
100
AcDbEntity
  8
0
  6
Continuous
 62
     7
370
    25
100
AcDbLine
 10
91.0153846154
 20
-11.6538461538
 30
0.0
 11
94.4769230769
 21
-11.6538461538
 31
0.0
  0
LINE
  5
11D
330
1F
100
AcDbEntity
  8
0
  6
Continuous
 62
     7
370
    25
100
AcDbLine
 10
94.4769230769
 20
-11.6538461538
 30
0.0
 11
94.4769230769
 21
-7.3846153846
 31
0.0
  0
LINE
  5
11E
330
1F
100
AcDbEntity
  8
0
  6
Continuous
 62
     7
370
    25
100
AcDbLine
 10
94.4769230769
 20
-7.3846153846
 30
0.0
 11
95.4
 21
-7.3846153846
 31
0.0
  0
MTEXT
  5
120
330
1F
100
AcDbEntity
  8
0
  6
Continuous
 62
     7
100
AcDbMText
 10
-25.4
 20
-51.8195663917
 30
0.0
 40
4.83362
 41
0.0
 71
     1
 72
     1
  1
SOLIDWORKS Educational Product.
  7
SLDTEXTSTYLE0
 73
     1
 44
1.0
  0
MTEXT
  5
121
330
1F
100
AcDbEntity
  8
0
  6
Continuous
 62
     7
100
AcDbMText
 10
-25.4
 20
-59.0699963917
 30
0.0
 40
4.83362
 41
0.0
 71
     1
 72
     1
  1
For Instructional Use Only.
  7
SLDTEXTSTYLE0
 73
     1
 44
1.0
  0
ENDSEC
  0
SECTION
  2
OBJECTS
  0
DICTIONARY
  5
C
330
0
100
AcDbDictionary
281
     1
  3
ACAD_GROUP
350
D
  3
ACAD_LAYOUT
350
1A
  3
ACAD_MLINESTYLE
350
17
  3
ACAD_PLOTSETTINGS
350
19
  3
ACAD_PLOTSTYLENAME
350
E
  3
ACAD_SCALELIST
350
47
  3
DWGPROPS
350
122
  0
DICTIONARY
  5
D
102
{ACAD_REACTORS
330
C
102
}
330
C
100
AcDbDictionary
281
     1
  0
DICTIONARY
  5
1A
102
{ACAD_REACTORS
330
C
102
}
330
C
100
AcDbDictionary
281
     1
  3
Layout1
350
1E
  3
Layout2
350
26
  3
Model
350
22
  0
DICTIONARY
  5
17
102
{ACAD_REACTORS
330
C
102
}
330
C
100
AcDbDictionary
281
     1
  3
Standard
350
18
  0
DICTIONARY
  5
19
102
{ACAD_REACTORS
330
C
102
}
330
C
100
AcDbDictionary
281
     1
  0
ACDBDICTIONARYWDFLT
  5
E
102
{ACAD_REACTORS
330
C
102
}
330
C
100
AcDbDictionary
281
     1
  3
Normal
350
F
100
AcDbDictionaryWithDefault
340
F
  0
DICTIONARY
  5
47
102
{ACAD_REACTORS
330
C
102
}
330
C
100
AcDbDictionary
281
     1
  3
A0
350
48
  3
A1
350
49
  3
A2
350
4A
  3
A3
350
4B
  3
A4
350
4C
  3
A5
350
4D
  3
A6
350
4E
  3
A7
350
4F
  3
A8
350
50
  3
A9
350
51
  3
B0
350
52
  3
B1
350
53
  3
B2
350
54
  3
B3
350
55
  3
B4
350
56
  3
B5
350
57
  3
B6
350
58
  3
B7
350
59
  3
B8
350
5A
  3
B9
350
5B
  3
C0
350
5C
  3
C1
350
5D
  3
C2
350
5E
  3
C3
350
5F
  3
C4
350
60
  3
C5
350
61
  3
C6
350
62
  3
C7
350
63
  3
C8
350
64
  3
C9
350
65
  3
D0
350
66
  3
D1
350
67
  3
D2
350
68
  0
XRECORD
  5
122
102
{ACAD_REACTORS
330
C
102
}
330
C
100
AcDbXrecord
280
     1
  1
DWGPROPS COOKIE
  2

  3

  4

  6

  7

  8
Pitip
  9

300
=
301
=
302
=
303
=
304
=
305
=
306
=
307
=
308
=
309
=
 40
0.0
 41
2459600.72096331
 42
2459600.720988611
  1

 90
        0
  0
LAYOUT
  5
1E
102
{ACAD_REACTORS
330
1A
102
}
330
1A
100
AcDbPlotSettings
  1

  2
none_device
  4

  6

 40
0.0
 41
0.0
 42
0.0
 43
0.0
 44
0.0
 45
0.0
 46
0.0
 47
0.0
 48
0.0
 49
0.0
140
0.0
141
0.0
142
1.0
143
1.0
 70
   688
 72
     1
 73
     0
 74
     5
  7

 75
    16
147
1.0
148
0.0
149
0.0
100
AcDbLayout
  1
Layout1
 70
     1
 71
     1
 10
0.0
 20
0.0
 11
420.0
 21
297.0
 12
0.0
 22
0.0
 32
0.0
 14
1.0000000000E+20
 24
1.0000000000E+20
 34
1.0000000000E+20
 15
-1.0000000000E+20
 25
-1.0000000000E+20
 35
-1.0000000000E+20
146
0.0
 13
0.0
 23
0.0
 33
0.0
 16
1.0
 26
0.0
 36
0.0
 17
0.0
 27
1.0
 37
0.0
 76
     0
330
1B
  0
LAYOUT
  5
26
102
{ACAD_REACTORS
330
1A
102
}
330
1A
100
AcDbPlotSettings
  1

  2
none_device
  4

  6

 40
0.0
 41
0.0
 42
0.0
 43
0.0
 44
0.0
 45
0.0
 46
0.0
 47
0.0
 48
0.0
 49
0.0
140
0.0
141
0.0
142
1.0
143
1.0
 70
   688
 72
     1
 73
     0
 74
     5
  7

 75
    16
147
1.0
148
0.0
149
0.0
100
AcDbLayout
  1
Layout2
 70
     1
 71
     2
 10
0.0
 20
0.0
 11
0.0
 21
0.0
 12
0.0
 22
0.0
 32
0.0
 14
0.0
 24
0.0
 34
0.0
 15
0.0
 25
0.0
 35
0.0
146
0.0
 13
0.0
 23
0.0
 33
0.0
 16
1.0
 26
0.0
 36
0.0
 17
0.0
 27
1.0
 37
0.0
 76
     0
330
23
  0
LAYOUT
  5
22
102
{ACAD_REACTORS
330
1A
102
}
330
1A
100
AcDbPlotSettings
  1

  2
none_device
  4
ANSI_A_(11.00_x_8.50_Inches)
  6

 40
6.35
 41
19.05
 42
6.35000508
 43
19.05000254
 44
279.4
 45
215.9
 46
54.45937246
 47
88.89999873
 48
0.0
 49
0.0
140
0.0
141
0.0
142
0.0828248031
143
1.0
 70
  1696
 72
     0
 73
     0
 74
     0
  7

 75
     0
147
0.0179189148
148
-1300.4909072572
149
0.0
100
AcDbLayout
  1
Model
 70
     1
 71
     0
 10
0.0
 20
0.0
 11
420.0
 21
297.0
 12
0.0
 22
0.0
 32
0.0
 14
-25.4
 24
-50.8
 34
0.0
 15
100.4
 25
50.8
 35
0.0
146
0.0
 13
0.0
 23
0.0
 33
0.0
 16
1.0
 26
0.0
 36
0.0
 17
0.0
 27
1.0
 37
0.0
 76
     0
330
1F
331
29
  0
MLINESTYLE
  5
18
102
{ACAD_REACTORS
330
17
102
}
330
17
100
AcDbMlineStyle
  2
Standard
 70
     0
  3

 62
   256
 51
90.0
 52
90.0
 71
     2
 49
0.5
 62
   256
  6
BYLAYER
 49
-0.5
 62
   256
  6
BYLAYER
  0
ACDBPLACEHOLDER
  5
F
102
{ACAD_REACTORS
330
E
102
}
330
E
  0
SCALE
  5
48
102
{ACAD_REACTORS
330
47
102
}
330
47
100
AcDbScale
 70
     0
300
1:1
140
1.0
141
1.0
290
     1
  0
SCALE
  5
49
102
{ACAD_REACTORS
330
47
102
}
330
47
100
AcDbScale
 70
     0
300
1:2
140
1.0
141
2.0
290
     0
  0
SCALE
  5
4A
102
{ACAD_REACTORS
330
47
102
}
330
47
100
AcDbScale
 70
     0
300
1:4
140
1.0
141
4.0
290
     0
  0
SCALE
  5
4B
102
{ACAD_REACTORS
330
47
102
}
330
47
100
AcDbScale
 70
     0
300
1:5
140
1.0
141
5.0
290
     0
  0
SCALE
  5
4C
102
{ACAD_REACTORS
330
47
102
}
330
47
100
AcDbScale
 70
     0
300
1:8
140
1.0
141
8.0
290
     0
  0
SCALE
  5
4D
102
{ACAD_REACTORS
330
47
102
}
330
47
100
AcDbScale
 70
     0
300
1:10
140
1.0
141
10.0
290
     0
  0
SCALE
  5
4E
102
{ACAD_REACTORS
330
47
102
}
330
47
100
AcDbScale
 70
     0
300
1:16
140
1.0
141
16.0
290
     0
  0
SCALE
  5
4F
102
{ACAD_REACTORS
330
47
102
}
330
47
100
AcDbScale
 70
     0
300
1:20
140
1.0
141
20.0
290
     0
  0
SCALE
  5
50
102
{ACAD_REACTORS
330
47
102
}
330
47
100
AcDbScale
 70
     0
300
1:30
140
1.0
141
30.0
290
     0
  0
SCALE
  5
51
102
{ACAD_REACTORS
330
47
102
}
330
47
100
AcDbScale
 70
     0
300
1:40
140
1.0
141
40.0
290
     0
  0
SCALE
  5
52
102
{ACAD_REACTORS
330
47
102
}
330
47
100
AcDbScale
 70
     0
300
1:50
140
1.0
141
50.0
290
     0
  0
SCALE
  5
53
102
{ACAD_REACTORS
330
47
102
}
330
47
100
AcDbScale
 70
     0
300
1:100
140
1.0
141
100.0
290
     0
  0
SCALE
  5
54
102
{ACAD_REACTORS
330
47
102
}
330
47
100
AcDbScale
 70
     0
300
2:1
140
2.0
141
1.0
290
     0
  0
SCALE
  5
55
102
{ACAD_REACTORS
330
47
102
}
330
47
100
AcDbScale
 70
     0
300
4:1
140
4.0
141
1.0
290
     0
  0
SCALE
  5
56
102
{ACAD_REACTORS
330
47
102
}
330
47
100
AcDbScale
 70
     0
300
8:1
140
8.0
141
1.0
290
     0
  0
SCALE
  5
57
102
{ACAD_REACTORS
330
47
102
}
330
47
100
AcDbScale
 70
     0
300
10:1
140
10.0
141
1.0
290
     0
  0
SCALE
  5
58
102
{ACAD_REACTORS
330
47
102
}
330
47
100
AcDbScale
 70
     0
300
100:1
140
100.0
141
1.0
290
     0
  0
SCALE
  5
59
102
{ACAD_REACTORS
330
47
102
}
330
47
100
AcDbScale
 70
     0
300
1/128" = 1'-0"
140
0.0078125
141
12.0
290
     0
  0
SCALE
  5
5A
102
{ACAD_REACTORS
330
47
102
}
330
47
100
AcDbScale
 70
     0
300
1/64" = 1'-0"
140
0.015625
141
12.0
290
     0
  0
SCALE
  5
5B
102
{ACAD_REACTORS
330
47
102
}
330
47
100
AcDbScale
 70
     0
300
1/32" = 1'-0"
140
0.03125
141
12.0
290
     0
  0
SCALE
  5
5C
102
{ACAD_REACTORS
330
47
102
}
330
47
100
AcDbScale
 70
     0
300
1/16" = 1'-0"
140
0.0625
141
12.0
290
     0
  0
SCALE
  5
5D
102
{ACAD_REACTORS
330
47
102
}
330
47
100
AcDbScale
 70
     0
300
3/32" = 1'-0"
140
0.09375
141
12.0
290
     0
  0
SCALE
  5
5E
102
{ACAD_REACTORS
330
47
102
}
330
47
100
AcDbScale
 70
     0
300
1/8" = 1'-0"
140
0.125
141
12.0
290
     0
  0
SCALE
  5
5F
102
{ACAD_REACTORS
330
47
102
}
330
47
100
AcDbScale
 70
     0
300
3/16" = 1'-0"
140
0.1875
141
12.0
290
     0
  0
SCALE
  5
60
102
{ACAD_REACTORS
330
47
102
}
330
47
100
AcDbScale
 70
     0
300
1/4" = 1'-0"
140
0.25
141
12.0
290
     0
  0
SCALE
  5
61
102
{ACAD_REACTORS
330
47
102
}
330
47
100
AcDbScale
 70
     0
300
3/8" = 1'-0"
140
0.375
141
12.0
290
     0
  0
SCALE
  5
62
102
{ACAD_REACTORS
330
47
102
}
330
47
100
AcDbScale
 70
     0
300
1/2" = 1'-0"
140
0.5
141
12.0
290
     0
  0
SCALE
  5
63
102
{ACAD_REACTORS
330
47
102
}
330
47
100
AcDbScale
 70
     0
300
3/4" = 1'-0"
140
0.75
141
12.0
290
     0
  0
SCALE
  5
64
102
{ACAD_REACTORS
330
47
102
}
330
47
100
AcDbScale
 70
     0
300
1" = 1'-0"
140
1.0
141
12.0
290
     0
  0
SCALE
  5
65
102
{ACAD_REACTORS
330
47
102
}
330
47
100
AcDbScale
 70
     0
300
1-1/2" = 1'-0"
140
1.5
141
12.0
290
     0
  0
SCALE
  5
66
102
{ACAD_REACTORS
330
47
102
}
330
47
100
AcDbScale
 70
     0
300
3" = 1'-0"
140
3.0
141
12.0
290
     0
  0
SCALE
  5
67
102
{ACAD_REACTORS
330
47
102
}
330
47
100
AcDbScale
 70
     0
300
6" = 1'-0"
140
6.0
141
12.0
290
     0
  0
SCALE
  5
68
102
{ACAD_REACTORS
330
47
102
}
330
47
100
AcDbScale
 70
     0
300
1'-0" = 1'-0"
140
12.0
141
12.0
290
     0
  0
ENDSEC
  0
EOF
