  0
SECTION
  2
HEADER
  9
$ACADVER
  1
AC1015
  9
$ACADMAINTVER
 70
     6
  9
$DWGCODEPAGE
  3
ANSI_1252
  9
$INSBASE
 10
0.0
 20
0.0
 30
0.0
  9
$EXTMIN
 10
-70.2034
 20
-58.0
 30
0.0
  9
$EXTMAX
 10
63.292
 20
58.0
 30
0.0
  9
$LIMMIN
 10
0.0
 20
0.0
  9
$LIMMAX
 10
420.0
 20
297.0
  9
$ORTHOMODE
 70
     0
  9
$REGENMODE
 70
     1
  9
$FILLMODE
 70
     1
  9
$QTEXTMODE
 70
     0
  9
$MIRRTEXT
 70
     1
  9
$LTSCALE
 40
1.0
  9
$ATTMODE
 70
     1
  9
$TEXTSIZE
 40
3.5
  9
$TRACEWID
 40
1.0
  9
$TEXTSTYLE
  7
Standard
  9
$CLAYER
  8
0
  9
$CELTYPE
  6
ByLayer
  9
$CECOLOR
 62
   256
  9
$CELTSCALE
 40
1.0
  9
$DISPSILH
 70
     0
  9
$DIMSCALE
 40
1.0
  9
$DIMASZ
 40
3.302
  9
$DIMEXO
 40
0.0
  9
$DIMDLI
 40
3.75
  9
$DIMRND
 40
0.0
  9
$DIMDLE
 40
0.0
  9
$DIMEXE
 40
1.0
  9
$DIMTP
 40
0.0
  9
$DIMTM
 40
0.0
  9
$DIMTXT
 40
3.5
  9
$DIMCEN
 40
2.5
  9
$DIMTSZ
 40
0.0
  9
$DIMTOL
 70
     0
  9
$DIMLIM
 70
     0
  9
$DIMTIH
 70
     1
  9
$DIMTOH
 70
     1
  9
$DIMSE1
 70
     0
  9
$DIMSE2
 70
     0
  9
$DIMTAD
 70
     1
  9
$DIMZIN
 70
     1
  9
$DIMBLK
  1

  9
$DIMASO
 70
     1
  9
$DIMSHO
 70
     1
  9
$DIMPOST
  1

  9
$DIMAPOST
  1

  9
$DIMALT
 70
     0
  9
$DIMALTD
 70
     3
  9
$DIMALTF
 40
0.0393700787
  9
$DIMLFAC
 40
1.0
  9
$DIMTOFL
 70
     1
  9
$DIMTVP
 40
0.0
  9
$DIMTIX
 70
     0
  9
$DIMSOXD
 70
     0
  9
$DIMSAH
 70
     0
  9
$DIMBLK1
  1

  9
$DIMBLK2
  1

  9
$DIMSTYLE
  2
ISO-25
  9
$DIMCLRD
 70
     0
  9
$DIMCLRE
 70
     0
  9
$DIMCLRT
 70
     0
  9
$DIMTFAC
 40
1.0
  9
$DIMGAP
 40
1.524
  9
$DIMJUST
 70
     0
  9
$DIMSD1
 70
     0
  9
$DIMSD2
 70
     0
  9
$DIMTOLJ
 70
     0
  9
$DIMTZIN
 70
     1
  9
$DIMALTZ
 70
     0
  9
$DIMALTTZ
 70
     0
  9
$DIMUPT
 70
     0
  9
$DIMDEC
 70
     2
  9
$DIMTDEC
 70
     2
  9
$DIMALTU
 70
     2
  9
$DIMALTTD
 70
     3
  9
$DIMTXSTY
  7
Standard
  9
$DIMAUNIT
 70
     0
  9
$DIMADEC
 70
     2
  9
$DIMALTRND
 40
0.0
  9
$DIMAZIN
 70
     0
  9
$DIMDSEP
 70
    44
  9
$DIMATFIT
 70
     3
  9
$DIMFRAC
 70
     0
  9
$DIMLDRBLK
  1

  9
$DIMLUNIT
 70
     2
  9
$DIMLWD
 70
    -2
  9
$DIMLWE
 70
    -2
  9
$DIMTMOVE
 70
     0
  9
$LUNITS
 70
     2
  9
$LUPREC
 70
     2
  9
$SKETCHINC
 40
1.0
  9
$FILLETRAD
 40
10.0
  9
$AUNITS
 70
     0
  9
$AUPREC
 70
     2
  9
$MENU
  1
.
  9
$ELEVATION
 40
0.0
  9
$PELEVATION
 40
0.0
  9
$THICKNESS
 40
0.0
  9
$LIMCHECK
 70
     0
  9
$CHAMFERA
 40
0.0
  9
$CHAMFERB
 40
0.0
  9
$CHAMFERC
 40
0.0
  9
$CHAMFERD
 40
0.0
  9
$SKPOLY
 70
     0
  9
$TDCREATE
 40
2459621.73156485
  9
$TDUCREATE
 40
2459621.98156485
  9
$TDUPDATE
 40
2459621.731589815
  9
$TDUUPDATE
 40
2459621.981589815
  9
$TDINDWG
 40
0.0000000116
  9
$TDUSRTIMER
 40
0.0000000116
  9
$USRTIMER
 70
     1
  9
$ANGBASE
 50
0.0
  9
$ANGDIR
 70
     0
  9
$PDMODE
 70
     0
  9
$PDSIZE
 40
-1.0
  9
$PLINEWID
 40
0.0
  9
$SPLFRAME
 70
     0
  9
$SPLINETYPE
 70
     6
  9
$SPLINESEGS
 70
     8
  9
$HANDSEED
  5
FC
  9
$SURFTAB1
 70
     6
  9
$SURFTAB2
 70
     6
  9
$SURFTYPE
 70
     6
  9
$SURFU
 70
     6
  9
$SURFV
 70
     6
  9
$UCSBASE
  2

  9
$UCSNAME
  2

  9
$UCSORG
 10
0.0
 20
0.0
 30
0.0
  9
$UCSXDIR
 10
1.0
 20
0.0
 30
0.0
  9
$UCSYDIR
 10
0.0
 20
1.0
 30
0.0
  9
$UCSORTHOREF
  2

  9
$UCSORTHOVIEW
 70
     0
  9
$UCSORGTOP
 10
0.0
 20
0.0
 30
0.0
  9
$UCSORGBOTTOM
 10
0.0
 20
0.0
 30
0.0
  9
$UCSORGLEFT
 10
0.0
 20
0.0
 30
0.0
  9
$UCSORGRIGHT
 10
0.0
 20
0.0
 30
0.0
  9
$UCSORGFRONT
 10
0.0
 20
0.0
 30
0.0
  9
$UCSORGBACK
 10
0.0
 20
0.0
 30
0.0
  9
$PUCSBASE
  2

  9
$PUCSNAME
  2

  9
$PUCSORG
 10
0.0
 20
0.0
 30
0.0
  9
$PUCSXDIR
 10
1.0
 20
0.0
 30
0.0
  9
$PUCSYDIR
 10
0.0
 20
1.0
 30
0.0
  9
$PUCSORTHOREF
  2

  9
$PUCSORTHOVIEW
 70
     0
  9
$PUCSORGTOP
 10
0.0
 20
0.0
 30
0.0
  9
$PUCSORGBOTTOM
 10
0.0
 20
0.0
 30
0.0
  9
$PUCSORGLEFT
 10
0.0
 20
0.0
 30
0.0
  9
$PUCSORGRIGHT
 10
0.0
 20
0.0
 30
0.0
  9
$PUCSORGFRONT
 10
0.0
 20
0.0
 30
0.0
  9
$PUCSORGBACK
 10
0.0
 20
0.0
 30
0.0
  9
$USERI1
 70
     0
  9
$USERI2
 70
     0
  9
$USERI3
 70
     0
  9
$USERI4
 70
     0
  9
$USERI5
 70
     0
  9
$USERR1
 40
0.0
  9
$USERR2
 40
0.0
  9
$USERR3
 40
0.0
  9
$USERR4
 40
0.0
  9
$USERR5
 40
0.0
  9
$WORLDVIEW
 70
     1
  9
$SHADEDGE
 70
     3
  9
$SHADEDIF
 70
    70
  9
$TILEMODE
 70
     1
  9
$MAXACTVP
 70
    64
  9
$PINSBASE
 10
0.0
 20
0.0
 30
0.0
  9
$PLIMCHECK
 70
     0
  9
$PEXTMIN
 10
1.0000000000E+20
 20
1.0000000000E+20
 30
1.0000000000E+20
  9
$PEXTMAX
 10
-1.0000000000E+20
 20
-1.0000000000E+20
 30
-1.0000000000E+20
  9
$PLIMMIN
 10
0.0
 20
0.0
  9
$PLIMMAX
 10
420.0
 20
297.0
  9
$UNITMODE
 70
     0
  9
$VISRETAIN
 70
     1
  9
$PLINEGEN
 70
     0
  9
$PSLTSCALE
 70
     1
  9
$TREEDEPTH
 70
  3020
  9
$CMLSTYLE
  2
Standard
  9
$CMLJUST
 70
     0
  9
$CMLSCALE
 40
20.0
  9
$PROXYGRAPHICS
 70
     1
  9
$MEASUREMENT
 70
     1
  9
$CELWEIGHT
370
    -1
  9
$ENDCAPS
280
     0
  9
$JOINSTYLE
280
     0
  9
$LWDISPLAY
290
     1
  9
$INSUNITS
 70
     4
  9
$HYPERLINKBASE
  1

  9
$STYLESHEET
  1

  9
$XEDIT
290
     1
  9
$CEPSNTYPE
380
     0
  9
$PSTYLEMODE
290
     1
  9
$FINGERPRINTGUID
  2
{8a3b03b1-2d37-4e4d-bca4-31a8431dc1e4}
  9
$VERSIONGUID
  2
{FAEB1C32-E019-11D5-929B-00C0DF256EC4}
  9
$EXTNAMES
290
     1
  9
$PSVPSCALE
 40
0.0
  9
$OLESTARTUP
290
     0
  0
ENDSEC
  0
SECTION
  2
CLASSES
  0
CLASS
  1
ACDBDICTIONARYWDFLT
  2
AcDbDictionaryWithDefault
  3
ObjectDBX Classes
 90
        0
280
     0
281
     0
  0
CLASS
  1
VISUALSTYLE
  2
AcDbVisualStyle
  3
ObjectDBX Classes
 90
     4095
280
     0
281
     0
  0
CLASS
  1
MATERIAL
  2
AcDbMaterial
  3
ObjectDBX Classes
 90
     1153
280
     0
281
     0
  0
CLASS
  1
SCALE
  2
AcDbScale
  3
ObjectDBX Classes
 90
     1153
280
     0
281
     0
  0
CLASS
  1
TABLESTYLE
  2
AcDbTableStyle
  3
ObjectDBX Classes
 90
     4095
280
     0
281
     0
  0
CLASS
  1
MLEADERSTYLE
  2
AcDbMLeaderStyle
  3
ACDB_MLEADERSTYLE_CLASS
 90
     4095
280
     0
281
     0
  0
CLASS
  1
SUN
  2
AcDbSun
  3
SCENEOE
 90
     1153
280
     0
281
     0
  0
CLASS
  1
ACDBPLACEHOLDER
  2
AcDbPlaceHolder
  3
ObjectDBX Classes
 90
        0
280
     0
281
     0
  0
CLASS
  1
LAYOUT
  2
AcDbLayout
  3
ObjectDBX Classes
 90
        0
280
     0
281
     0
  0
ENDSEC
  0
SECTION
  2
TABLES
  0
TABLE
  2
VPORT
  5
8
330
0
100
AcDbSymbolTable
 70
     1
  0
VPORT
  5
29
330
8
100
AcDbSymbolTableRecord
100
AcDbViewportTableRecord
  2
*Active
 70
     0
 10
0.0
 20
0.0
 11
1.0
 21
1.0
 12
-3.4557
 22
0.0
 13
0.0
 23
0.0
 14
10.0
 24
10.0
 15
10.0
 25
10.0
 16
0.0
 26
0.0
 36
1.0
 17
0.0
 27
0.0
 37
0.0
 40
118.32
 41
1.1508224138
 42
50.0
 43
0.0
 44
0.0
 50
0.0
 51
0.0
 71
     0
 72
   100
 73
     1
 74
     3
 75
     0
 76
     0
 77
     0
 78
     0
281
     0
 65
     1
110
0.0
120
0.0
130
0.0
111
1.0
121
0.0
131
0.0
112
0.0
122
1.0
132
0.0
 79
     0
146
0.0
  0
ENDTAB
  0
TABLE
  2
LTYPE
  5
5
330
0
100
AcDbSymbolTable
 70
     6
  0
LTYPE
  5
14
330
5
100
AcDbSymbolTableRecord
100
AcDbLinetypeTableRecord
  2
ByBlock
 70
     0
  3

 72
    65
 73
     0
 40
0.0
  0
LTYPE
  5
15
330
5
100
AcDbSymbolTableRecord
100
AcDbLinetypeTableRecord
  2
ByLayer
 70
     0
  3

 72
    65
 73
     0
 40
0.0
  0
LTYPE
  5
16
330
5
100
AcDbSymbolTableRecord
100
AcDbLinetypeTableRecord
  2
Continuous
 70
     0
  3
Solid line
 72
    65
 73
     0
 40
0.0
  0
LTYPE
  5
6E
330
5
100
AcDbSymbolTableRecord
100
AcDbLinetypeTableRecord
  2
HIDDEN
 70
     0
  3
Hidden __ __ __ __ __ __ __ __ __ __ __ __ __ __
 72
    65
 73
     2
 40
1.905
 49
1.27
 74
     0
 49
-0.635
 74
     0
  0
LTYPE
  5
6F
330
5
100
AcDbSymbolTableRecord
100
AcDbLinetypeTableRecord
  2
PHANTOM
 70
     0
  3
Phantom ______  __  __  ______  __  __  ______
 72
    65
 73
     6
 40
12.7
 49
6.35
 74
     0
 49
-1.27
 74
     0
 49
1.27
 74
     0
 49
-1.27
 74
     0
 49
1.27
 74
     0
 49
-1.27
 74
     0
  0
LTYPE
  5
70
330
5
100
AcDbSymbolTableRecord
100
AcDbLinetypeTableRecord
  2
CENTER
 70
     0
  3
Center ____ _ ____ _ ____ _ ____ _ ____ _ ____
 72
    65
 73
     4
 40
10.16
 49
6.35
 74
     0
 49
-1.27
 74
     0
 49
1.27
 74
     0
 49
-1.27
 74
     0
  0
LTYPE
  5
71
330
5
100
AcDbSymbolTableRecord
100
AcDbLinetypeTableRecord
  2
CENTERX2
 70
     0
  3
Center (2x) ________  __  ________  __  _____
 72
    65
 73
     4
 40
20.32
 49
12.7
 74
     0
 49
-2.54
 74
     0
 49
2.54
 74
     0
 49
-2.54
 74
     0
  0
LTYPE
  5
72
330
5
100
AcDbSymbolTableRecord
100
AcDbLinetypeTableRecord
  2
DOT2
 70
     0
  3
Dot (.5x) ........................................
 72
    65
 73
     2
 40
0.635
 49
0.0
 74
     0
 49
-0.635
 74
     0
  0
ENDTAB
  0
TABLE
  2
LAYER
  5
2
330
0
100
AcDbSymbolTable
 70
     1
  0
LAYER
  5
10
330
2
100
AcDbSymbolTableRecord
100
AcDbLayerTableRecord
  2
0
 70
     0
 62
     7
  6
Continuous
370
    -3
390
F
  0
ENDTAB
  0
TABLE
  2
STYLE
  5
3
330
0
100
AcDbSymbolTable
 70
     2
  0
STYLE
  5
11
330
3
100
AcDbSymbolTableRecord
100
AcDbTextStyleTableRecord
  2
Standard
 70
     0
 40
0.0
 41
1.0
 50
0.0
 71
     0
 42
3.5
  3
txt
  4

  0
STYLE
  5
F8
330
3
100
AcDbSymbolTableRecord
100
AcDbTextStyleTableRecord
  2
SLDTEXTSTYLE0
 70
     0
 40
0.0
 41
0.7
 50
0.0
 71
     0
 42
3.5
  3
TXT
  4

  0
ENDTAB
  0
TABLE
  2
VIEW
  5
6
330
0
100
AcDbSymbolTable
 70
     0
  0
ENDTAB
  0
TABLE
  2
UCS
  5
7
330
0
100
AcDbSymbolTable
 70
     0
  0
ENDTAB
  0
TABLE
  2
APPID
  5
9
330
0
100
AcDbSymbolTable
 70
     1
  0
APPID
  5
12
330
9
100
AcDbSymbolTableRecord
100
AcDbRegAppTableRecord
  2
ACAD
 70
     0
  0
ENDTAB
  0
TABLE
  2
DIMSTYLE
  5
A
330
0
100
AcDbSymbolTable
 70
     1
100
AcDbDimStyleTable
  0
DIMSTYLE
105
27
330
A
100
AcDbSymbolTableRecord
100
AcDbDimStyleTableRecord
  2
ISO-25
 70
     0
 41
2.5
 42
0.625
 43
3.75
 44
1.25
 73
     0
 74
     0
 77
     1
 78
     8
140
2.5
141
2.5
143
0.0393700787
147
0.625
171
     3
172
     1
178
     0
271
     2
272
     2
274
     3
278
    44
283
     0
284
     8
340
11
  0
ENDTAB
  0
TABLE
  2
BLOCK_RECORD
  5
1
330
0
100
AcDbSymbolTable
 70
     1
  0
BLOCK_RECORD
  5
1F
330
1
100
AcDbSymbolTableRecord
100
AcDbBlockTableRecord
  2
*Model_Space
340
22
  0
BLOCK_RECORD
  5
1B
330
1
100
AcDbSymbolTableRecord
100
AcDbBlockTableRecord
  2
*Paper_Space
340
1E
  0
BLOCK_RECORD
  5
23
330
1
100
AcDbSymbolTableRecord
100
AcDbBlockTableRecord
  2
*Paper_Space0
340
26
  0
ENDTAB
  0
ENDSEC
  0
SECTION
  2
BLOCKS
  0
BLOCK
  5
20
330
1F
100
AcDbEntity
  8
0
100
AcDbBlockBegin
  2
*Model_Space
 70
     0
 10
0.0
 20
0.0
 30
0.0
  3
*Model_Space
  1

  0
ENDBLK
  5
21
330
1F
100
AcDbEntity
  8
0
100
AcDbBlockEnd
  0
BLOCK
  5
1C
330
1B
100
AcDbEntity
 67
     1
  8
0
100
AcDbBlockBegin
  2
*Paper_Space
 70
     0
 10
0.0
 20
0.0
 30
0.0
  3
*Paper_Space
  1

  0
ENDBLK
  5
1D
330
1B
100
AcDbEntity
 67
     1
  8
0
100
AcDbBlockEnd
  0
BLOCK
  5
24
330
23
100
AcDbEntity
  8
0
100
AcDbBlockBegin
  2
*Paper_Space0
 70
     0
 10
0.0
 20
0.0
 30
0.0
  3
*Paper_Space0
  1

  0
ENDBLK
  5
25
330
23
100
AcDbEntity
  8
0
100
AcDbBlockEnd
  0
ENDSEC
  0
SECTION
  2
ENTITIES
  0
LINE
  5
73
330
1F
100
AcDbEntity
  8
0
  6
Continuous
 62
     7
370
    25
100
AcDbLine
 10
-22.4730897879
 20
-27.6923076923
 30
0.0
 11
-22.4730897879
 21
-29.7435897436
 31
0.0
  0
LINE
  5
74
330
1F
100
AcDbEntity
  8
0
  6
Continuous
 62
     7
370
    25
100
AcDbLine
 10
-22.4730897879
 20
-29.7435897436
 30
0.0
 11
-24.1397564546
 21
-28.671875
 31
0.0
  0
LINE
  5
75
330
1F
100
AcDbEntity
  8
0
  6
Continuous
 62
     7
370
    25
100
AcDbLine
 10
-24.1397564546
 20
-28.671875
 30
0.0
 11
-24.1397564546
 21
-25.8974358974
 31
0.0
  0
LINE
  5
76
330
1F
100
AcDbEntity
  8
0
  6
Continuous
 62
     7
370
    25
100
AcDbLine
 10
-24.1397564546
 20
-25.8974358974
 30
0.0
 11
-14.1397564546
 21
-25.8974358974
 31
0.0
  0
LINE
  5
77
330
1F
100
AcDbEntity
  8
0
  6
Continuous
 62
     7
370
    25
100
AcDbLine
 10
-14.1397564546
 20
-25.8974358974
 30
0.0
 11
-14.1397564546
 21
-27.6923076923
 31
0.0
  0
LINE
  5
78
330
1F
100
AcDbEntity
  8
0
  6
Continuous
 62
     7
370
    25
100
AcDbLine
 10
-14.1397564546
 20
-27.6923076923
 30
0.0
 11
-22.4730897879
 21
-27.6923076923
 31
0.0
  0
LINE
  5
79
330
1F
100
AcDbEntity
  8
0
  6
Continuous
 62
     7
370
    25
100
AcDbLine
 10
-22.4730897879
 20
-33.8541666667
 30
0.0
 11
-22.4730897879
 21
-37.9487179487
 31
0.0
  0
LINE
  5
7A
330
1F
100
AcDbEntity
  8
0
  6
Continuous
 62
     7
370
    25
100
AcDbLine
 10
-22.4730897879
 20
-37.9487179487
 30
0.0
 11
-24.1397564546
 21
-37.9487179487
 31
0.0
  0
LINE
  5
7B
330
1F
100
AcDbEntity
  8
0
  6
Continuous
 62
     7
370
    25
100
AcDbLine
 10
-24.1397564546
 20
-37.9487179487
 30
0.0
 11
-24.1397564546
 21
-31.5384615385
 31
0.0
  0
LINE
  5
7C
330
1F
100
AcDbEntity
  8
0
  6
Continuous
 62
     7
370
    25
100
AcDbLine
 10
-24.1397564546
 20
-31.5384615385
 30
0.0
 11
-23.20826607
 21
-31.5384615385
 31
0.0
  0
LINE
  5
7D
330
1F
100
AcDbEntity
  8
0
  6
Continuous
 62
     7
370
    25
100
AcDbLine
 10
-23.20826607
 20
-31.5384615385
 30
0.0
 11
-13.8833461982
 21
-35.9495192308
 31
0.0
  0
LINE
  5
7E
330
1F
100
AcDbEntity
  8
0
  6
Continuous
 62
     7
370
    25
100
AcDbLine
 10
-13.8833461982
 20
-35.9495192308
 30
0.0
 11
-14.6846282494
 21
-37.5400641026
 31
0.0
  0
LINE
  5
7F
330
1F
100
AcDbEntity
  8
0
  6
Continuous
 62
     7
370
    25
100
AcDbLine
 10
-14.6846282494
 20
-37.5400641026
 30
0.0
 11
-22.4730897879
 21
-33.8541666667
 31
0.0
  0
LINE
  5
80
330
1F
100
AcDbEntity
  8
0
  6
Continuous
 62
     7
370
    25
100
AcDbLine
 10
-3.542
 20
-32.062
 30
0.0
 11
-3.542
 21
-52.062
 31
0.0
  0
ARC
  5
81
330
1F
100
AcDbEntity
  8
0
  6
Continuous
 62
     7
370
    25
100
AcDbCircle
 10
-0.042
 20
-32.062
 30
0.0
 40
3.500000000000214
100
AcDbArc
 50
0.0
 51
180.0
  0
LINE
  5
82
330
1F
100
AcDbEntity
  8
0
  6
Continuous
 62
     7
370
    25
100
AcDbLine
 10
3.458
 20
-52.062
 30
0.0
 11
3.458
 21
-32.062
 31
0.0
  0
ARC
  5
83
330
1F
100
AcDbEntity
  8
0
  6
Continuous
 62
     7
370
    25
100
AcDbCircle
 10
-0.042
 20
-52.062
 30
0.0
 40
3.5
100
AcDbArc
 50
180.0
 51
0.0
  0
LINE
  5
84
330
1F
100
AcDbEntity
  8
0
  6
Continuous
 62
     7
370
    25
100
AcDbLine
 10
-47.8034
 20
-16.3
 30
0.0
 11
-47.8034
 21
-41.7
 31
0.0
  0
ARC
  5
85
330
1F
100
AcDbEntity
  8
0
  6
Continuous
 62
     7
370
    25
100
AcDbCircle
 10
-44.8034
 20
-16.3
 30
0.0
 40
3.000000000000014
100
AcDbArc
 50
0.0
 51
180.0
  0
LINE
  5
86
330
1F
100
AcDbEntity
  8
0
  6
Continuous
 62
     7
370
    25
100
AcDbLine
 10
-41.8034
 20
-41.7
 30
0.0
 11
-41.8034
 21
-16.3
 31
0.0
  0
ARC
  5
87
330
1F
100
AcDbEntity
  8
0
  6
Continuous
 62
     7
370
    25
100
AcDbCircle
 10
-44.8034
 20
-41.7
 30
0.0
 40
3.000000000000014
100
AcDbArc
 50
180.0
 51
0.0
  0
LINE
  5
88
330
1F
100
AcDbEntity
  8
0
  6
Continuous
 62
     7
370
    25
100
AcDbLine
 10
-41.8034
 20
16.3
 30
0.0
 11
-41.8034
 21
41.7
 31
0.0
  0
ARC
  5
89
330
1F
100
AcDbEntity
  8
0
  6
Continuous
 62
     7
370
    25
100
AcDbCircle
 10
-44.8034
 20
16.3
 30
0.0
 40
3.000000000000014
100
AcDbArc
 50
180.0
 51
0.0
  0
LINE
  5
8A
330
1F
100
AcDbEntity
  8
0
  6
Continuous
 62
     7
370
    25
100
AcDbLine
 10
-47.8034
 20
41.7
 30
0.0
 11
-47.8034
 21
16.3
 31
0.0
  0
ARC
  5
8B
330
1F
100
AcDbEntity
  8
0
  6
Continuous
 62
     7
370
    25
100
AcDbCircle
 10
-44.8034
 20
41.7
 30
0.0
 40
3.000000000000007
100
AcDbArc
 50
0.0
 51
180.0
  0
LINE
  5
8C
330
1F
100
AcDbEntity
  8
0
  6
Continuous
 62
     7
370
    25
100
AcDbLine
 10
-3.542
 20
49.538
 30
0.0
 11
-3.542
 21
29.538
 31
0.0
  0
ARC
  5
8D
330
1F
100
AcDbEntity
  8
0
  6
Continuous
 62
     7
370
    25
100
AcDbCircle
 10
-0.042
 20
49.538
 30
0.0
 40
3.500000000000075
100
AcDbArc
 50
0.0
 51
180.0
  0
LINE
  5
8E
330
1F
100
AcDbEntity
  8
0
  6
Continuous
 62
     7
370
    25
100
AcDbLine
 10
3.458
 20
29.538
 30
0.0
 11
3.458
 21
49.538
 31
0.0
  0
ARC
  5
8F
330
1F
100
AcDbEntity
  8
0
  6
Continuous
 62
     7
370
    25
100
AcDbCircle
 10
-0.042
 20
29.538
 30
0.0
 40
3.500000000000001
100
AcDbArc
 50
180.0
 51
0.0
  0
LINE
  5
90
330
1F
100
AcDbEntity
  8
0
  6
Continuous
 62
     7
370
    25
100
AcDbLine
 10
58.292
 20
58.0
 30
0.0
 11
-65.2034
 21
58.0
 31
0.0
  0
ARC
  5
91
330
1F
100
AcDbEntity
  8
0
  6
Continuous
 62
     7
370
    25
100
AcDbCircle
 10
-65.2034
 20
53.0
 30
0.0
 40
5.000000000000014
100
AcDbArc
 50
90.0
 51
180.0
  0
LINE
  5
92
330
1F
100
AcDbEntity
  8
0
  6
Continuous
 62
     7
370
    25
100
AcDbLine
 10
-70.2034
 20
53.0
 30
0.0
 11
-70.2034
 21
-53.0
 31
0.0
  0
ARC
  5
93
330
1F
100
AcDbEntity
  8
0
  6
Continuous
 62
     7
370
    25
100
AcDbCircle
 10
-65.2034
 20
-53.0
 30
0.0
 40
5.000000000000014
100
AcDbArc
 50
180.0
 51
270.0
  0
LINE
  5
94
330
1F
100
AcDbEntity
  8
0
  6
Continuous
 62
     7
370
    25
100
AcDbLine
 10
-65.2034
 20
-58.0
 30
0.0
 11
58.292
 21
-58.0
 31
0.0
  0
ARC
  5
95
330
1F
100
AcDbEntity
  8
0
  6
Continuous
 62
     7
370
    25
100
AcDbCircle
 10
58.292
 20
-53.0
 30
0.0
 40
5.0
100
AcDbArc
 50
270.0
 51
0.0
  0
LINE
  5
96
330
1F
100
AcDbEntity
  8
0
  6
Continuous
 62
     7
370
    25
100
AcDbLine
 10
63.292
 20
-53.0
 30
0.0
 11
63.292
 21
53.0
 31
0.0
  0
ARC
  5
97
330
1F
100
AcDbEntity
  8
0
  6
Continuous
 62
     7
370
    25
100
AcDbCircle
 10
58.292
 20
53.0
 30
0.0
 40
5.000000000000007
100
AcDbArc
 50
0.0
 51
90.0
  0
LINE
  5
98
330
1F
100
AcDbEntity
  8
0
  6
Continuous
 62
     7
370
    25
100
AcDbLine
 10
10.292
 20
-27.39
 30
0.0
 11
34.892
 21
-27.39
 31
0.0
  0
LINE
  5
99
330
1F
100
AcDbEntity
  8
0
  6
Continuous
 62
     7
370
    25
100
AcDbLine
 10
10.292
 20
-27.39
 30
0.0
 11
10.292
 21
-25.4
 31
0.0
  0
LINE
  5
9A
330
1F
100
AcDbEntity
  8
0
  6
Continuous
 62
     7
370
    25
100
AcDbLine
 10
10.292
 20
-25.4
 30
0.0
 11
34.892
 21
-25.4
 31
0.0
  0
LINE
  5
9B
330
1F
100
AcDbEntity
  8
0
  6
Continuous
 62
     7
370
    25
100
AcDbLine
 10
34.892
 20
-16.3
 30
0.0
 11
34.892
 21
-25.4
 31
0.0
  0
ARC
  5
9C
330
1F
100
AcDbEntity
  8
0
  6
Continuous
 62
     7
370
    25
100
AcDbCircle
 10
37.892
 20
-16.3
 30
0.0
 40
3.000000000000021
100
AcDbArc
 50
0.0
 51
180.0
  0
LINE
  5
9D
330
1F
100
AcDbEntity
  8
0
  6
Continuous
 62
     7
370
    25
100
AcDbLine
 10
40.892
 20
-25.4
 30
0.0
 11
40.892
 21
-16.3
 31
0.0
  0
LINE
  5
9E
330
1F
100
AcDbEntity
  8
0
  6
Continuous
 62
     7
370
    25
100
AcDbLine
 10
40.892
 20
-25.4
 30
0.0
 11
55.292
 21
-25.4
 31
0.0
  0
LINE
  5
9F
330
1F
100
AcDbEntity
  8
0
  6
Continuous
 62
     7
370
    25
100
AcDbLine
 10
55.292
 20
-27.39
 30
0.0
 11
55.292
 21
-25.4
 31
0.0
  0
LINE
  5
A0
330
1F
100
AcDbEntity
  8
0
  6
Continuous
 62
     7
370
    25
100
AcDbLine
 10
40.892
 20
-27.39
 30
0.0
 11
55.292
 21
-27.39
 31
0.0
  0
LINE
  5
A1
330
1F
100
AcDbEntity
  8
0
  6
Continuous
 62
     7
370
    25
100
AcDbLine
 10
40.892
 20
-41.7
 30
0.0
 11
40.892
 21
-27.39
 31
0.0
  0
ARC
  5
A2
330
1F
100
AcDbEntity
  8
0
  6
Continuous
 62
     7
370
    25
100
AcDbCircle
 10
37.892
 20
-41.7
 30
0.0
 40
3.000000000000014
100
AcDbArc
 50
180.0
 51
0.0
  0
LINE
  5
A3
330
1F
100
AcDbEntity
  8
0
  6
Continuous
 62
     7
370
    25
100
AcDbLine
 10
34.892
 20
-27.39
 30
0.0
 11
34.892
 21
-41.7
 31
0.0
  0
LINE
  5
A4
330
1F
100
AcDbEntity
  8
0
  6
Continuous
 62
     7
370
    25
100
AcDbLine
 10
10.292
 20
23.41
 30
0.0
 11
34.892
 21
23.41
 31
0.0
  0
LINE
  5
A5
330
1F
100
AcDbEntity
  8
0
  6
Continuous
 62
     7
370
    25
100
AcDbLine
 10
10.292
 20
23.41
 30
0.0
 11
10.292
 21
25.4
 31
0.0
  0
LINE
  5
A6
330
1F
100
AcDbEntity
  8
0
  6
Continuous
 62
     7
370
    25
100
AcDbLine
 10
10.292
 20
25.4
 30
0.0
 11
34.892
 21
25.4
 31
0.0
  0
LINE
  5
A7
330
1F
100
AcDbEntity
  8
0
  6
Continuous
 62
     7
370
    25
100
AcDbLine
 10
34.892
 20
41.7
 30
0.0
 11
34.892
 21
25.4
 31
0.0
  0
ARC
  5
A8
330
1F
100
AcDbEntity
  8
0
  6
Continuous
 62
     7
370
    25
100
AcDbCircle
 10
37.892
 20
41.7
 30
0.0
 40
3.000000000000021
100
AcDbArc
 50
0.0
 51
180.0
  0
LINE
  5
A9
330
1F
100
AcDbEntity
  8
0
  6
Continuous
 62
     7
370
    25
100
AcDbLine
 10
40.892
 20
25.4
 30
0.0
 11
40.892
 21
41.7
 31
0.0
  0
LINE
  5
AA
330
1F
100
AcDbEntity
  8
0
  6
Continuous
 62
     7
370
    25
100
AcDbLine
 10
40.892
 20
25.4
 30
0.0
 11
55.292
 21
25.4
 31
0.0
  0
LINE
  5
AB
330
1F
100
AcDbEntity
  8
0
  6
Continuous
 62
     7
370
    25
100
AcDbLine
 10
55.292
 20
23.41
 30
0.0
 11
55.292
 21
25.4
 31
0.0
  0
LINE
  5
AC
330
1F
100
AcDbEntity
  8
0
  6
Continuous
 62
     7
370
    25
100
AcDbLine
 10
40.892
 20
23.41
 30
0.0
 11
55.292
 21
23.41
 31
0.0
  0
LINE
  5
AD
330
1F
100
AcDbEntity
  8
0
  6
Continuous
 62
     7
370
    25
100
AcDbLine
 10
40.892
 20
16.3
 30
0.0
 11
40.892
 21
23.41
 31
0.0
  0
ARC
  5
AE
330
1F
100
AcDbEntity
  8
0
  6
Continuous
 62
     7
370
    25
100
AcDbCircle
 10
37.892
 20
16.3
 30
0.0
 40
3.000000000000021
100
AcDbArc
 50
180.0
 51
0.0
  0
LINE
  5
AF
330
1F
100
AcDbEntity
  8
0
  6
Continuous
 62
     7
370
    25
100
AcDbLine
 10
34.892
 20
23.41
 30
0.0
 11
34.892
 21
16.3
 31
0.0
  0
SPLINE
  5
B0
330
1F
100
AcDbEntity
  8
0
  6
Continuous
 62
     7
370
    25
100
AcDbSpline
210
0.0
220
0.0
230
1.0
 70
     8
 71
     3
 72
    15
 73
    11
 74
     0
 42
0.00000001
 43
0.00000001
 40
0.0
 40
0.0
 40
0.0
 40
0.0
 40
0.1610711239484215
 40
0.3107888083803549
 40
0.4499038238309446
 40
0.5783763165061853
 40
0.6966172119048397
 40
0.8059873227104103
 40
0.9065617032890814
 40
1.0
 40
1.0
 40
1.0
 40
1.0
 10
-19.04159940329453
 20
-22.6923076923077
 30
0.0
 10
-19.26336444701427
 20
-22.69059524134227
 30
0.0
 10
-19.69126295537848
 20
-22.68729104514678
 30
0.0
 10
-20.30945188894292
 20
-22.64541784416415
 30
0.0
 10
-20.88086047197611
 20
-22.58395860537469
 30
0.0
 10
-21.40453287890913
 20
-22.49368954204413
 30
0.0
 10
-21.88240863959193
 20
-22.38207309367673
 30
0.0
 10
-22.31133975868625
 20
-22.23914241962882
 30
0.0
 10
-22.69726146011057
 20
-22.07642624459874
 30
0.0
 10
-22.92588379943567
 20
-21.93777115911942
 30
0.0
 10
-23.03599042893554
 20
-21.87099358974359
 30
0.0
  0
SPLINE
  5
B1
330
1F
100
AcDbEntity
  8
0
  6
Continuous
 62
     7
370
    25
100
AcDbSpline
210
0.0
220
0.0
230
1.0
 70
     8
 71
     3
 72
    15
 73
    11
 74
     0
 42
0.00000001
 43
0.00000001
 40
0.0
 40
0.0
 40
0.0
 40
0.0
 40
0.1323140339085657
 40
0.2587000085531556
 40
0.3809118214856539
 40
0.5005348689728937
 40
0.6209226176484487
 40
0.7423757653984726
 40
0.8682808341788554
 40
0.9999999999999999
 40
0.9999999999999999
 40
0.9999999999999999
 40
0.9999999999999999
 10
-23.03599042893554
 20
-21.87099358974359
 30
0.0
 10
-23.14415914741202
 20
-21.79334781277614
 30
0.0
 10
-23.35565030650091
 20
-21.64153501883263
 30
0.0
 10
-23.63329866556985
 20
-21.37608610514163
 30
0.0
 10
-23.87075713812398
 20
-21.09089580831098
 30
0.0
 10
-24.06265182629497
 20
-20.78010648225509
 30
0.0
 10
-24.21397999296663
 20
-20.44863338963201
 30
0.0
 10
-24.32086137274837
 20
-20.09363066544034
 30
0.0
 10
-24.38313544503346
 20
-19.71640927509028
 30
0.0
 10
-24.3917580900134
 20
-19.45736505405277
 30
0.0
 10
-24.39616671098683
 20
-19.32491987179487
 30
0.0
  0
SPLINE
  5
B2
330
1F
100
AcDbEntity
  8
0
  6
Continuous
 62
     7
370
    25
100
AcDbSpline
210
0.0
220
0.0
230
1.0
 70
     8
 71
     3
 72
    31
 73
    27
 74
     0
 42
0.00000001
 43
0.00000001
 40
0.0
 40
0.0
 40
0.0
 40
0.0
 40
0.036632820323852
 40
0.0720299123098581
 40
0.1066199460655969
 40
0.1402977664368922
 40
0.1736096607083631
 40
0.2064140091812372
 40
0.2389207650785341
 40
0.2717347853577574
 40
0.3048616021674082
 40
0.3383587354624621
 40
0.3726516360718758
 40
0.4075817245203302
 40
0.443750336749684
 40
0.4813408158407997
 40
0.5201401125474413
 40
0.5609377119732781
 40
0.6040469738719301
 40
0.6500943352256912
 40
0.699589202438026
 40
0.7523765310112519
 40
0.808799521096894
 40
0.8689616168220095
 40
0.9326785239264824
 40
1.0
 40
1.0
 40
1.0
 40
1.0
 10
-24.39616671098683
 20
-19.32491987179487
 30
0.0
 10
-24.39487722955643
 20
-19.23804049092952
 30
0.0
 10
-24.39234176454075
 20
-19.0672124157242
 30
0.0
 10
-24.36487117554464
 20
-18.81561715563392
 30
0.0
 10
-24.32339033670392
 20
-18.57325237610715
 30
0.0
 10
-24.26546972855024
 20
-18.33921178798671
 30
0.0
 10
-24.18906275449937
 20
-18.11502790249917
 30
0.0
 10
-24.09684093974137
 20
-17.89991645954052
 30
0.0
 10
-23.98793383063545
 20
-17.69407152470033
 30
0.0
 10
-23.86184071063081
 20
-17.49727506926028
 30
0.0
 10
-23.71661463793719
 20
-17.31128486148005
 30
0.0
 10
-23.55649408616215
 20
-17.1330937117793
 30
0.0
 10
-23.37529091322692
 20
-16.96984632024494
 30
0.0
 10
-23.17769458268227
 20
-16.81660982317024
 30
0.0
 10
-22.9625236944159
 20
-16.67443076973926
 30
0.0
 10
-22.73040493096432
 20
-16.54239095398706
 30
0.0
 10
-22.47990570713185
 20
-16.42180660752563
 30
0.0
 10
-22.21065788241515
 20
-16.31123951316209
 30
0.0
 10
-21.91860160653179
 20
-16.21237513140917
 30
0.0
 10
-21.60039378371844
 20
-16.12910037086314
 30
0.0
 10
-21.2559597247917
 20
-16.05767875302032
 30
0.0
 10
-20.88444267900699
 20
-15.99739374384052
 30
0.0
 10
-20.48534863429593
 20
-15.9518280545009
 30
0.0
 10
-20.05894278119643
 20
-15.92111585335845
 30
0.0
 10
-19.60604715206782
 20
-15.90003968990859
 30
0.0
 10
-19.2953644723912
 20
-15.89831960018358
 30
0.0
 10
-19.13575004432017
 20
-15.8974358974359
 30
0.0
  0
SPLINE
  5
B3
330
1F
100
AcDbEntity
  8
0
  6
Continuous
 62
     7
370
    25
100
AcDbSpline
210
0.0
220
0.0
230
1.0
 70
     8
 71
     3
 72
    31
 73
    27
 74
     0
 42
0.00000001
 43
0.00000001
 40
0.0
 40
0.0
 40
0.0
 40
0.0
 40
0.0684926832263551
 40
0.1330800548196584
 40
0.1938341058908269
 40
0.2510894881242198
 40
0.3044088758702466
 40
0.3544177030569119
 40
0.4010321292838846
 40
0.4444391783288863
 40
0.4854320683977053
 40
0.5246720342028978
 40
0.5620566706522125
 40
0.5979359670945243
 40
0.632463843268077
 40
0.6657432159676312
 40
0.6979773238475164
 40
0.7295790829732987
 40
0.7608188806681098
 40
0.7923495960062752
 40
0.824307964352482
 40
0.8571524997152085
 40
0.8909240067069878
 40
0.9259584876554754
 40
0.9620603210973543
 40
1.0
 40
1.0
 40
1.0
 40
1.0
 10
-19.13575004432017
 20
-15.8974358974359
 30
0.0
 10
-18.9741387042869
 20
-15.89839109844128
 30
0.0
 10
-18.66013076974552
 20
-15.90024703685941
 30
0.0
 10
-18.20309212535193
 20
-15.92023802610975
 30
0.0
 10
-17.77359239825754
 20
-15.9546746105733
 30
0.0
 10
-17.37166411589621
 20
-15.99902395350649
 30
0.0
 10
-16.9975598866318
 20
-16.05989089102663
 30
0.0
 10
-16.65080636768421
 20
-16.13065514569861
 30
0.0
 10
-16.33133809521676
 20
-16.2160026175665
 30
0.0
 10
-16.03912895334097
 20
-16.31755334061961
 30
0.0
 10
-15.76914951812278
 20
-16.42829063424176
 30
0.0
 10
-15.51814510631235
 20
-16.5472860670166
 30
0.0
 10
-15.28797799356153
 20
-16.67970002670762
 30
0.0
 10
-15.07135854129337
 20
-16.81346468028358
 30
0.0
 10
-14.87775678138975
 20
-16.96350580008964
 30
0.0
 10
-14.69955519142212
 20
-17.11871316936134
 30
0.0
 10
-14.54357365250995
 20
-17.28697465565281
 30
0.0
 10
-14.4016501723544
 20
-17.46100860326568
 30
0.0
 10
-14.27900560426607
 20
-17.64724193567575
 30
0.0
 10
-14.17174113506746
 20
-17.84374076349336
 30
0.0
 10
-14.08473730786377
 20
-18.05401188075501
 30
0.0
 10
-14.00906591093285
 20
-18.27422144109545
 30
0.0
 10
-13.95474204063579
 20
-18.50812322759844
 30
0.0
 10
-13.91163782646177
 20
-18.7520004991201
 30
0.0
 10
-13.88781579565668
 20
-19.00860660162022
 30
0.0
 10
-13.88486051580949
 20
-19.18331437095666
 30
0.0
 10
-13.88334619816632
 20
-19.27283653846154
 30
0.0
  0
SPLINE
  5
B4
330
1F
100
AcDbEntity
  8
0
  6
Continuous
 62
     7
370
    25
100
AcDbSpline
210
0.0
220
0.0
230
1.0
 70
     8
 71
     3
 72
    31
 73
    27
 74
     0
 42
0.00000001
 43
0.00000001
 40
0.0
 40
0.0
 40
0.0
 40
0.0
 40
0.0382216122657728
 40
0.0748755763241955
 40
0.1101704018334413
 40
0.1444700826493756
 40
0.1780996430348584
 40
0.2111943903171517
 40
0.2438477638841063
 40
0.2760360427075917
 40
0.3085434605589807
 40
0.3414349477137615
 40
0.3751176430310061
 40
0.4096264233575063
 40
0.4453686667297762
 40
0.4822888952058719
 40
0.5207954903857084
 40
0.5607778862689775
 40
0.6030673334616841
 40
0.648928234640683
 40
0.6979138958060996
 40
0.750739892431795
 40
0.8072878515788225
 40
0.8676407691493012
 40
0.9318536013346203
 40
1.0
 40
1.0
 40
1.0
 40
1.0
 10
-13.88334619816632
 20
-19.27283653846154
 30
0.0
 10
-13.8848900312603
 20
-19.3623561282712
 30
0.0
 10
-13.88791437758711
 20
-19.53772368819244
 30
0.0
 10
-13.91145731143292
 20
-19.79502594780914
 30
0.0
 10
-13.95492870927375
 20
-20.04018748332845
 30
0.0
 10
-14.00943968441863
 20
-20.27596906399625
 30
0.0
 10
-14.08472701704076
 20
-20.50055718482623
 30
0.0
 10
-14.17372403962755
 20
-20.71594555309555
 30
0.0
 10
-14.28317142177552
 20
-20.91787504055031
 30
0.0
 10
-14.40557423967295
 20
-21.11050641506159
 30
0.0
 10
-14.54663626088925
 20
-21.29079734775274
 30
0.0
 10
-14.7041410607349
 20
-21.46142042112174
 30
0.0
 10
-14.87588082054545
 20
-21.62476232500506
 30
0.0
 10
-15.06782317032274
 20
-21.77500370783667
 30
0.0
 10
-15.27646193194406
 20
-21.91483173060063
 30
0.0
 10
-15.5017681990067
 20
-22.04573032722065
 30
0.0
 10
-15.74447844629418
 20
-22.16504066634568
 30
0.0
 10
-16.00452706751555
 20
-22.27675287291103
 30
0.0
 10
-16.28815388500275
 20
-22.37558717703661
 30
0.0
 10
-16.59802584057998
 20
-22.4608126599402
 30
0.0
 10
-16.93646353086729
 20
-22.53299932764666
 30
0.0
 10
-17.30312827712315
 20
-22.589734549465
 30
0.0
 10
-17.69806885426134
 20
-22.63548645411762
 30
0.0
 10
-18.12096838610995
 20
-22.6694151747828
 30
0.0
 10
-18.5719830410267
 20
-22.68952801273849
 30
0.0
 10
-18.88198960121501
 20
-22.69136295498265
 30
0.0
 10
-19.04159940329452
 20
-22.69230769230769
 30
0.0
  0
SPLINE
  5
B5
330
1F
100
AcDbEntity
  8
0
  6
Continuous
 62
     7
370
    25
100
AcDbSpline
210
0.0
220
0.0
230
1.0
 70
     8
 71
     3
 72
    15
 73
    11
 74
     0
 42
0.00000001
 43
0.00000001
 40
0.0
 40
0.0
 40
0.0
 40
0.0
 40
0.1327548717475875
 40
0.2572338481110658
 40
0.3786007316763541
 40
0.5014062774984538
 40
0.6239419536469537
 40
0.7436418348746466
 40
0.8681208112381233
 40
1.0
 40
1.0
 40
1.0
 40
1.0
 10
-21.27116671098683
 20
-10.25641025641025
 30
0.0
 10
-21.3638484294888
 20
-10.25988736795733
 30
0.0
 10
-21.54343411840526
 20
-10.2666248290523
 30
0.0
 10
-21.798893804734
 20
-10.34066406704948
 30
0.0
 10
-22.03018647287115
 20
-10.45536822248521
 30
0.0
 10
-22.23040083708737
 20
-10.61700257710267
 30
0.0
 10
-22.39493025623985
 20
-10.81279240388691
 30
0.0
 10
-22.51730261582258
 20
-11.03904594003582
 30
0.0
 10
-22.58791090641119
 20
-11.29391855370672
 30
0.0
 10
-22.59674854177869
 20
-11.47258911194889
 30
0.0
 10
-22.60129491611504
 20
-11.5645032051282
 30
0.0
  0
SPLINE
  5
B6
330
1F
100
AcDbEntity
  8
0
  6
Continuous
 62
     7
370
    25
100
AcDbSpline
210
0.0
220
0.0
230
1.0
 70
     8
 71
     3
 72
    23
 73
    19
 74
     0
 42
0.00000001
 43
0.00000001
 40
0.0
 40
0.0
 40
0.0
 40
0.0
 40
0.0564668684718624
 40
0.1111640986969632
 40
0.1649370968759848
 40
0.2183217523125937
 40
0.2723929232482767
 40
0.3279763434477042
 40
0.3852910519840215
 40
0.4449029182928193
 40
0.5068438192198357
 40
0.5694881852629685
 40
0.6341532155537234
 40
0.7009760953100502
 40
0.7708974968462685
 40
0.8436256105557796
 40
0.9196596761155398
 40
1.0
 40
1.0
 40
1.0
 40
1.0
 10
-22.60129491611504
 20
-11.5645032051282
 30
0.0
 10
-22.59961543095929
 20
-11.61198719647518
 30
0.0
 10
-22.59630909471883
 20
-11.70546705897634
 30
0.0
 10
-22.57429970893907
 20
-11.84287515022132
 30
0.0
 10
-22.53551046387394
 20
-11.97362882106953
 30
0.0
 10
-22.48353833504911
 20
-12.09918343263748
 30
0.0
 10
-22.41464890515524
 20
-12.21819903306941
 30
0.0
 10
-22.32973170736131
 20
-12.33037542731581
 30
0.0
 10
-22.23094468059128
 20
-12.43689453543318
 30
0.0
 10
-22.11859671876657
 20
-12.53726781805735
 30
0.0
 10
-21.99321636039734
 20
-12.62862060851021
 30
0.0
 10
-21.85594869865673
 20
-12.70975982295151
 30
0.0
 10
-21.70687893965966
 20
-12.77684844565225
 30
0.0
 10
-21.54797503191659
 20
-12.83591570745857
 30
0.0
 10
-21.37753021792263
 20
-12.88147120619388
 30
0.0
 10
-21.19656459085844
 20
-12.91464126061639
 30
0.0
 10
-21.00537255812314
 20
-12.93985823789367
 30
0.0
 10
-20.87394601397263
 20
-12.94571098718549
 30
0.0
 10
-20.80642312124324
 20
-12.94871794871795
 30
0.0
  0
LINE
  5
B7
330
1F
100
AcDbEntity
  8
0
  6
Continuous
 62
     7
370
    25
100
AcDbLine
 10
-20.8064231212
 20
-12.9487179487
 30
0.0
 11
-20.8064231212
 21
-14.7435897436
 31
0.0
  0
SPLINE
  5
B8
330
1F
100
AcDbEntity
  8
0
  6
Continuous
 62
     7
370
    25
100
AcDbSpline
210
0.0
220
0.0
230
1.0
 70
     8
 71
     3
 72
    23
 73
    19
 74
     0
 42
0.00000001
 43
0.00000001
 40
0.0
 40
0.0
 40
0.0
 40
0.0
 40
0.0749330030622093
 40
0.1464145890375248
 40
0.2147331780636012
 40
0.2803956905112224
 40
0.3439118344860921
 40
0.4055207421763735
 40
0.466476199394644
 40
0.5268093209306766
 40
0.5861676109153181
 40
0.6441223785331938
 40
0.7016405780206493
 40
0.758775822883545
 40
0.8166463504748904
 40
0.875666935669119
 40
0.9366301735601215
 40
1.0
 40
1.0
 40
1.0
 40
1.0
 10
-20.80642312124324
 20
-14.74358974358974
 30
0.0
 10
-20.94219709767075
 20
-14.73584101107063
 30
0.0
 10
-21.20749129579757
 20
-14.72070045295894
 30
0.0
 10
-21.59281578582532
 20
-14.66040908165289
 30
0.0
 10
-21.95699414425905
 20
-14.57982830039465
 30
0.0
 10
-22.29893150865191
 20
-14.4713645783154
 30
0.0
 10
-22.61877153535152
 20
-14.33776717195586
 30
0.0
 10
-22.9154547731964
 20
-14.17571099697542
 30
0.0
 10
-23.19110709639711
 20
-13.99003447214023
 30
0.0
 10
-23.4408941130941
 20
-13.77699493839941
 30
0.0
 10
-23.66546023691978
 20
-13.54523864008861
 30
0.0
 10
-23.86178183702744
 20
-13.29535972043727
 30
0.0
 10
-24.02612869152478
 20
-13.02806799467315
 30
0.0
 10
-24.16094316587655
 20
-12.745150781494
 30
0.0
 10
-24.26881210883223
 20
-12.44771934646211
 30
0.0
 10
-24.34089325899711
 20
-12.13276856703888
 30
0.0
 10
-24.38971788105141
 20
-11.80307747042396
 30
0.0
 10
-24.39398954028866
 20
-11.57737521545881
 30
0.0
 10
-24.39616671098683
 20
-11.46233974358974
 30
0.0
  0
SPLINE
  5
B9
330
1F
100
AcDbEntity
  8
0
  6
Continuous
 62
     7
370
    25
100
AcDbSpline
210
0.0
220
0.0
230
1.0
 70
     8
 71
     3
 72
    19
 73
    15
 74
     0
 42
0.00000001
 43
0.00000001
 40
0.0
 40
0.0
 40
0.0
 40
0.0
 40
0.0896145153620098
 40
0.175025406236369
 40
0.2574931588838818
 40
0.3388458082257681
 40
0.4199981943754372
 40
0.5013464233386337
 40
0.5838697534962047
 40
0.6699881905162243
 40
0.7564733033990254
 40
0.8392066183086808
 40
0.920120478709211
 40
1.0
 40
1.0
 40
1.0
 40
1.0
 10
-24.39616671098683
 20
-11.46233974358974
 30
0.0
 10
-24.392056944722
 20
-11.32107192362869
 30
0.0
 10
-24.384030192503
 20
-11.04516285379857
 30
0.0
 10
-24.30651075578072
 20
-10.6455776920973
 30
0.0
 10
-24.1878024383956
 20
-10.27039006211344
 30
0.0
 10
-24.0153356299197
 20
-9.923590895187994
 30
0.0
 10
-23.79785359085875
 20
-9.605783144152468
 30
0.0
 10
-23.53803704687811
 20
-9.318733715929094
 30
0.0
 10
-23.23272967184762
 20
-9.068040986106706
 30
0.0
 10
-22.89072354137229
 20
-8.855660071286145
 30
0.0
 10
-22.52786389134654
 20
-8.680032244890718
 30
0.0
 10
-22.15333722530524
 20
-8.555778404657515
 30
0.0
 10
-21.77680990848336
 20
-8.474538020521223
 30
0.0
 10
-21.52330548438237
 20
-8.46585302514603
 30
0.0
 10
-21.39736863406376
 20
-8.46153846153846
 30
0.0
  0
SPLINE
  5
BA
330
1F
100
AcDbEntity
  8
0
  6
Continuous
 62
     7
370
    25
100
AcDbSpline
210
0.0
220
0.0
230
1.0
 70
     8
 71
     3
 72
    23
 73
    19
 74
     0
 42
0.00000001
 43
0.00000001
 40
0.0
 40
0.0
 40
0.0
 40
0.0
 40
0.0455173509851557
 40
0.0916151841761509
 40
0.1392453293275406
 40
0.1882399067429494
 40
0.2386709784729283
 40
0.2906613157764544
 40
0.3448368201549494
 40
0.4004280819698023
 40
0.4591396760395259
 40
0.5225464478831829
 40
0.5900956640101138
 40
0.6625851602661843
 40
0.7396835984345498
 40
0.821577041952255
 40
0.9083308536014615
 40
1.0
 40
1.0
 40
1.0
 40
1.0
 10
-21.39736863406375
 20
-8.461538461538458
 30
0.0
 10
-21.32119165712216
 20
-8.463216170354128
 30
0.0
 10
-21.16786621920813
 20
-8.466592983784938
 30
0.0
 10
-20.93584719868101
 20
-8.49007241259741
 30
0.0
 10
-20.69950870642574
 20
-8.52529620592719
 30
0.0
 10
-20.45905334845503
 20
-8.578405060675237
 30
0.0
 10
-20.21441384714269
 20
-8.644636310623094
 30
0.0
 10
-19.96485758808418
 20
-8.724983790357019
 30
0.0
 10
-19.71180139797598
 20
-8.821314086361653
 30
0.0
 10
-19.45238954339451
 20
-8.932008511851018
 30
0.0
 10
-19.18581040399172
 20
-9.064104515417558
 30
0.0
 10
-18.90794168386636
 20
-9.217758657217951
 30
0.0
 10
-18.61907919544063
 20
-9.398107946359795
 30
0.0
 10
-18.31638960227147
 20
-9.59928146621438
 30
0.0
 10
-18.00449462798169
 20
-9.82919343605315
 30
0.0
 10
-17.67993092478727
 20
-10.08175370493251
 30
0.0
 10
-17.34320991259801
 20
-10.35823359563188
 30
0.0
 10
-17.11802884723479
 20
-10.55430936708752
 30
0.0
 10
-17.00233658278171
 20
-10.65504807692307
 30
0.0
  0
LINE
  5
BB
330
1F
100
AcDbEntity
  8
0
  6
Continuous
 62
     7
370
    25
100
AcDbLine
 10
-17.0023365828
 20
-10.6550480769
 30
0.0
 11
-15.8064231212
 21
-11.6987179487
 31
0.0
  0
LINE
  5
BC
330
1F
100
AcDbEntity
  8
0
  6
Continuous
 62
     7
370
    25
100
AcDbLine
 10
-15.8064231212
 20
-11.6987179487
 30
0.0
 11
-15.8064231212
 21
-8.3333333333
 31
0.0
  0
LINE
  5
BD
330
1F
100
AcDbEntity
  8
0
  6
Continuous
 62
     7
370
    25
100
AcDbLine
 10
-15.8064231212
 20
-8.3333333333
 30
0.0
 11
-14.1397564546
 21
-8.3333333333
 31
0.0
  0
LINE
  5
BE
330
1F
100
AcDbEntity
  8
0
  6
Continuous
 62
     7
370
    25
100
AcDbLine
 10
-14.1397564546
 20
-8.3333333333
 30
0.0
 11
-14.1397564546
 21
-15.0
 31
0.0
  0
LINE
  5
BF
330
1F
100
AcDbEntity
  8
0
  6
Continuous
 62
     7
370
    25
100
AcDbLine
 10
-14.1397564546
 20
-15.0
 30
0.0
 11
-15.0492115828
 21
-15.0
 31
0.0
  0
LINE
  5
C0
330
1F
100
AcDbEntity
  8
0
  6
Continuous
 62
     7
370
    25
100
AcDbLine
 10
-15.0492115828
 20
-15.0
 30
0.0
 11
-18.2002532494
 21
-12.0392628205
 31
0.0
  0
SPLINE
  5
C1
330
1F
100
AcDbEntity
  8
0
  6
Continuous
 62
     7
370
    25
100
AcDbSpline
210
0.0
220
0.0
230
1.0
 70
     8
 71
     3
 72
    19
 73
    15
 74
     0
 42
0.00000001
 43
0.00000001
 40
0.0
 40
0.0
 40
0.0
 40
0.0
 40
0.1038493619451091
 40
0.2011254171233877
 40
0.2911309633583706
 40
0.3743680063455612
 40
0.4507309970211887
 40
0.5205205643535405
 40
0.5832754154787962
 40
0.6400800077829347
 40
0.7420435568440586
 40
0.8350514117686061
 40
0.9208688166387036
 40
1.0
 40
1.0
 40
1.0
 40
1.0
 10
-18.20025324944837
 20
-12.03926282051282
 30
0.0
 10
-18.29216919855279
 20
-11.95354051330743
 30
0.0
 10
-18.47018313390746
 20
-11.78752182556069
 30
0.0
 10
-18.73163047370459
 20
-11.55131638730233
 30
0.0
 10
-18.97968420390215
 20
-11.3374926682132
 30
0.0
 10
-19.21722092773751
 20
-11.15083173460601
 30
0.0
 10
-19.43619795999155
 20
-10.98004006798014
 30
0.0
 10
-19.64489347097099
 20
-10.83716027645796
 30
0.0
 10
-19.8374302255661
 20
-10.71272948352649
 30
0.0
 10
-20.07212487036751
 20
-10.58274837532031
 30
0.0
 10
-20.34992587350272
 20
-10.4564682896133
 30
0.0
 10
-20.66976621857544
 20
-10.3406714648392
 30
0.0
 10
-20.97567428837046
 20
-10.27079284316139
 30
0.0
 10
-21.17536743633432
 20
-10.26107312175951
 30
0.0
 10
-21.27116671098683
 20
-10.25641025641025
 30
0.0
  0
LINE
  5
C2
330
1F
100
AcDbEntity
  8
0
  6
Continuous
 62
     7
370
    25
100
AcDbLine
 10
-16.9602692751
 20
1.0256410256
 30
0.0
 11
-16.9602692751
 21
-2.4358974359
 31
0.0
  0
LINE
  5
C3
330
1F
100
AcDbEntity
  8
0
  6
Continuous
 62
     7
370
    25
100
AcDbLine
 10
-16.9602692751
 20
-2.4358974359
 30
0.0
 11
-18.6269359418
 21
-2.4358974359
 31
0.0
  0
LINE
  5
C4
330
1F
100
AcDbEntity
  8
0
  6
Continuous
 62
     7
370
    25
100
AcDbLine
 10
-18.6269359418
 20
-2.4358974359
 30
0.0
 11
-18.6269359418
 21
1.0256410256
 31
0.0
  0
LINE
  5
C5
330
1F
100
AcDbEntity
  8
0
  6
Continuous
 62
     7
370
    25
100
AcDbLine
 10
-18.6269359418
 20
1.0256410256
 30
0.0
 11
-16.9602692751
 21
1.0256410256
 31
0.0
  0
SPLINE
  5
C6
330
1F
100
AcDbEntity
  8
0
  6
Continuous
 62
     7
370
    25
100
AcDbSpline
210
0.0
220
0.0
230
1.0
 70
     8
 71
     3
 72
    15
 73
    11
 74
     0
 42
0.00000001
 43
0.00000001
 40
0.0
 40
0.0
 40
0.0
 40
0.0
 40
0.1327548717475875
 40
0.2572338481110658
 40
0.3786007316763541
 40
0.5014062774984538
 40
0.6239419536469537
 40
0.7436418348746466
 40
0.8681208112381233
 40
1.0
 40
1.0
 40
1.0
 40
1.0
 10
-21.27116671098683
 20
11.02564102564102
 30
0.0
 10
-21.3638484294888
 20
11.02216391409395
 30
0.0
 10
-21.54343411840526
 20
11.01542645299898
 30
0.0
 10
-21.798893804734
 20
10.94138721500179
 30
0.0
 10
-22.03018647287115
 20
10.82668305956606
 30
0.0
 10
-22.23040083708737
 20
10.66504870494861
 30
0.0
 10
-22.39493025623985
 20
10.46925887816436
 30
0.0
 10
-22.51730261582258
 20
10.24300534201546
 30
0.0
 10
-22.58791090641119
 20
9.988132728344562
 30
0.0
 10
-22.59674854177869
 20
9.809462170102387
 30
0.0
 10
-22.60129491611504
 20
9.717548076923075
 30
0.0
  0
SPLINE
  5
C7
330
1F
100
AcDbEntity
  8
0
  6
Continuous
 62
     7
370
    25
100
AcDbSpline
210
0.0
220
0.0
230
1.0
 70
     8
 71
     3
 72
    23
 73
    19
 74
     0
 42
0.00000001
 43
0.00000001
 40
0.0
 40
0.0
 40
0.0
 40
0.0
 40
0.0564668684718624
 40
0.1111640986969632
 40
0.1649370968759848
 40
0.2183217523125937
 40
0.2723929232482767
 40
0.3279763434477042
 40
0.3852910519840215
 40
0.4449029182928193
 40
0.5068438192198357
 40
0.5694881852629685
 40
0.6341532155537234
 40
0.7009760953100502
 40
0.7708974968462685
 40
0.8436256105557796
 40
0.9196596761155398
 40
1.0
 40
1.0
 40
1.0
 40
1.0
 10
-22.60129491611504
 20
9.717548076923075
 30
0.0
 10
-22.59961543095929
 20
9.670064085576099
 30
0.0
 10
-22.59630909471883
 20
9.576584223074939
 30
0.0
 10
-22.57429970893907
 20
9.439176131829942
 30
0.0
 10
-22.53551046387394
 20
9.308422460981745
 30
0.0
 10
-22.48353833504911
 20
9.182867849413785
 30
0.0
 10
-22.41464890515524
 20
9.063852248981869
 30
0.0
 10
-22.32973170736131
 20
8.951675854735466
 30
0.0
 10
-22.23094468059128
 20
8.84515674661809
 30
0.0
 10
-22.11859671876657
 20
8.74478346399392
 30
0.0
 10
-21.99321636039734
 20
8.653430673541065
 30
0.0
 10
-21.85594869865673
 20
8.572291459099768
 30
0.0
 10
-21.70687893965966
 20
8.505202836399027
 30
0.0
 10
-21.54797503191659
 20
8.446135574592706
 30
0.0
 10
-21.37753021792263
 20
8.400580075857391
 30
0.0
 10
-21.19656459085844
 20
8.36741002143489
 30
0.0
 10
-21.00537255812314
 20
8.3421930441576
 30
0.0
 10
-20.87394601397263
 20
8.33634029486578
 30
0.0
 10
-20.80642312124324
 20
8.33333333333333
 30
0.0
  0
LINE
  5
C8
330
1F
100
AcDbEntity
  8
0
  6
Continuous
 62
     7
370
    25
100
AcDbLine
 10
-20.8064231212
 20
8.3333333333
 30
0.0
 11
-20.8064231212
 21
6.5384615385
 31
0.0
  0
SPLINE
  5
C9
330
1F
100
AcDbEntity
  8
0
  6
Continuous
 62
     7
370
    25
100
AcDbSpline
210
0.0
220
0.0
230
1.0
 70
     8
 71
     3
 72
    23
 73
    19
 74
     0
 42
0.00000001
 43
0.00000001
 40
0.0
 40
0.0
 40
0.0
 40
0.0
 40
0.0749330030622093
 40
0.1464145890375248
 40
0.2147331780636012
 40
0.2803956905112223
 40
0.3439118344860922
 40
0.4055207421763735
 40
0.4664761993946439
 40
0.5268093209306766
 40
0.5861676109153181
 40
0.6441223785331938
 40
0.7016405780206493
 40
0.758775822883545
 40
0.8166463504748904
 40
0.875666935669119
 40
0.9366301735601215
 40
1.0
 40
1.0
 40
1.0
 40
1.0
 10
-20.80642312124324
 20
6.538461538461535
 30
0.0
 10
-20.94219709767075
 20
6.546210270980643
 30
0.0
 10
-21.20749129579757
 20
6.561350829092332
 30
0.0
 10
-21.59281578582532
 20
6.621642200398387
 30
0.0
 10
-21.95699414425906
 20
6.702222981656624
 30
0.0
 10
-22.29893150865191
 20
6.810686703735878
 30
0.0
 10
-22.61877153535152
 20
6.944284110095414
 30
0.0
 10
-22.91545477319641
 20
7.106340285075849
 30
0.0
 10
-23.1911070963971
 20
7.292016809911046
 30
0.0
 10
-23.44089411309411
 20
7.50505634365186
 30
0.0
 10
-23.66546023691978
 20
7.736812641962659
 30
0.0
 10
-23.86178183702744
 20
7.986691561614011
 30
0.0
 10
-24.02612869152478
 20
8.253983287378123
 30
0.0
 10
-24.16094316587655
 20
8.536900500557278
 30
0.0
 10
-24.26881210883223
 20
8.834331935589162
 30
0.0
 10
-24.34089325899711
 20
9.149282715012399
 30
0.0
 10
-24.38971788105141
 20
9.478973811627311
 30
0.0
 10
-24.39398954028866
 20
9.704676066592459
 30
0.0
 10
-24.39616671098683
 20
9.819711538461535
 30
0.0
  0
SPLINE
  5
CA
330
1F
100
AcDbEntity
  8
0
  6
Continuous
 62
     7
370
    25
100
AcDbSpline
210
0.0
220
0.0
230
1.0
 70
     8
 71
     3
 72
    19
 73
    15
 74
     0
 42
0.00000001
 43
0.00000001
 40
0.0
 40
0.0
 40
0.0
 40
0.0
 40
0.0896145153620098
 40
0.175025406236369
 40
0.2574931588838818
 40
0.3388458082257681
 40
0.4199981943754372
 40
0.5013464233386337
 40
0.5838697534962047
 40
0.6699881905162243
 40
0.7564733033990254
 40
0.8392066183086808
 40
0.920120478709211
 40
1.0
 40
1.0
 40
1.0
 40
1.0
 10
-24.39616671098683
 20
9.819711538461537
 30
0.0
 10
-24.392056944722
 20
9.960979358422588
 30
0.0
 10
-24.384030192503
 20
10.23688842825271
 30
0.0
 10
-24.30651075578072
 20
10.63647358995397
 30
0.0
 10
-24.1878024383956
 20
11.01166121993784
 30
0.0
 10
-24.0153356299197
 20
11.35846038686327
 30
0.0
 10
-23.79785359085875
 20
11.67626813789881
 30
0.0
 10
-23.53803704687811
 20
11.96331756612218
 30
0.0
 10
-23.23272967184762
 20
12.21401029594457
 30
0.0
 10
-22.89072354137229
 20
12.42639121076513
 30
0.0
 10
-22.52786389134654
 20
12.60201903716055
 30
0.0
 10
-22.15333722530524
 20
12.72627287739377
 30
0.0
 10
-21.77680990848336
 20
12.80751326153005
 30
0.0
 10
-21.52330548438237
 20
12.81619825690525
 30
0.0
 10
-21.39736863406376
 20
12.82051282051282
 30
0.0
  0
SPLINE
  5
CB
330
1F
100
AcDbEntity
  8
0
  6
Continuous
 62
     7
370
    25
100
AcDbSpline
210
0.0
220
0.0
230
1.0
 70
     8
 71
     3
 72
    23
 73
    19
 74
     0
 42
0.00000001
 43
0.00000001
 40
0.0
 40
0.0
 40
0.0
 40
0.0
 40
0.0455173509851557
 40
0.0916151841761509
 40
0.1392453293275406
 40
0.1882399067429494
 40
0.2386709784729283
 40
0.2906613157764544
 40
0.3448368201549494
 40
0.4004280819698023
 40
0.4591396760395259
 40
0.5225464478831829
 40
0.5900956640101138
 40
0.6625851602661843
 40
0.7396835984345498
 40
0.821577041952255
 40
0.9083308536014615
 40
1.0
 40
1.0
 40
1.0
 40
1.0
 10
-21.39736863406375
 20
12.82051282051282
 30
0.0
 10
-21.32119165712216
 20
12.81883511169715
 30
0.0
 10
-21.16786621920813
 20
12.81545829826634
 30
0.0
 10
-20.93584719868101
 20
12.79197886945386
 30
0.0
 10
-20.69950870642574
 20
12.75675507612408
 30
0.0
 10
-20.45905334845503
 20
12.70364622137604
 30
0.0
 10
-20.21441384714269
 20
12.63741497142818
 30
0.0
 10
-19.96485758808418
 20
12.55706749169426
 30
0.0
 10
-19.71180139797598
 20
12.46073719568962
 30
0.0
 10
-19.45238954339451
 20
12.35004277020025
 30
0.0
 10
-19.18581040399172
 20
12.21794676663372
 30
0.0
 10
-18.90794168386636
 20
12.06429262483333
 30
0.0
 10
-18.61907919544063
 20
11.88394333569147
 30
0.0
 10
-18.31638960227147
 20
11.6827698158369
 30
0.0
 10
-18.00449462798169
 20
11.45285784599812
 30
0.0
 10
-17.67993092478727
 20
11.20029757711876
 30
0.0
 10
-17.34320991259801
 20
10.92381768641939
 30
0.0
 10
-17.11802884723479
 20
10.72774191496376
 30
0.0
 10
-17.00233658278171
 20
10.6270032051282
 30
0.0
  0
LINE
  5
CC
330
1F
100
AcDbEntity
  8
0
  6
Continuous
 62
     7
370
    25
100
AcDbLine
 10
-17.0023365828
 20
10.6270032051
 30
0.0
 11
-15.8064231212
 21
9.5833333333
 31
0.0
  0
LINE
  5
CD
330
1F
100
AcDbEntity
  8
0
  6
Continuous
 62
     7
370
    25
100
AcDbLine
 10
-15.8064231212
 20
9.5833333333
 30
0.0
 11
-15.8064231212
 21
12.9487179487
 31
0.0
  0
LINE
  5
CE
330
1F
100
AcDbEntity
  8
0
  6
Continuous
 62
     7
370
    25
100
AcDbLine
 10
-15.8064231212
 20
12.9487179487
 30
0.0
 11
-14.1397564546
 21
12.9487179487
 31
0.0
  0
LINE
  5
CF
330
1F
100
AcDbEntity
  8
0
  6
Continuous
 62
     7
370
    25
100
AcDbLine
 10
-14.1397564546
 20
12.9487179487
 30
0.0
 11
-14.1397564546
 21
6.2820512821
 31
0.0
  0
LINE
  5
D0
330
1F
100
AcDbEntity
  8
0
  6
Continuous
 62
     7
370
    25
100
AcDbLine
 10
-14.1397564546
 20
6.2820512821
 30
0.0
 11
-15.0492115828
 21
6.2820512821
 31
0.0
  0
LINE
  5
D1
330
1F
100
AcDbEntity
  8
0
  6
Continuous
 62
     7
370
    25
100
AcDbLine
 10
-15.0492115828
 20
6.2820512821
 30
0.0
 11
-18.2002532494
 21
9.2427884615
 31
0.0
  0
SPLINE
  5
D2
330
1F
100
AcDbEntity
  8
0
  6
Continuous
 62
     7
370
    25
100
AcDbSpline
210
0.0
220
0.0
230
1.0
 70
     8
 71
     3
 72
    19
 73
    15
 74
     0
 42
0.00000001
 43
0.00000001
 40
0.0
 40
0.0
 40
0.0
 40
0.0
 40
0.1038493619451091
 40
0.2011254171233877
 40
0.2911309633583706
 40
0.3743680063455612
 40
0.4507309970211887
 40
0.5205205643535405
 40
0.5832754154787962
 40
0.6400800077829347
 40
0.7420435568440586
 40
0.8350514117686061
 40
0.9208688166387036
 40
1.0
 40
1.0
 40
1.0
 40
1.0
 10
-18.20025324944837
 20
9.242788461538458
 30
0.0
 10
-18.29216919855279
 20
9.328510768743847
 30
0.0
 10
-18.47018313390746
 20
9.494529456490584
 30
0.0
 10
-18.73163047370459
 20
9.730734894748943
 30
0.0
 10
-18.97968420390215
 20
9.94455861383807
 30
0.0
 10
-19.21722092773751
 20
10.13121954744526
 30
0.0
 10
-19.43619795999155
 20
10.30201121407114
 30
0.0
 10
-19.64489347097099
 20
10.44489100559332
 30
0.0
 10
-19.8374302255661
 20
10.56932179852478
 30
0.0
 10
-20.07212487036751
 20
10.69930290673096
 30
0.0
 10
-20.34992587350272
 20
10.82558299243798
 30
0.0
 10
-20.66976621857544
 20
10.94137981721207
 30
0.0
 10
-20.97567428837046
 20
11.01125843888989
 30
0.0
 10
-21.17536743633432
 20
11.02097816029177
 30
0.0
 10
-21.27116671098683
 20
11.02564102564102
 30
0.0
  0
LINE
  5
D3
330
1F
100
AcDbEntity
  8
0
  6
Continuous
 62
     7
370
    25
100
AcDbLine
 10
-14.1397564546
 20
16.7948717949
 30
0.0
 11
-14.1397564546
 21
15.0
 31
0.0
  0
LINE
  5
D4
330
1F
100
AcDbEntity
  8
0
  6
Continuous
 62
     7
370
    25
100
AcDbLine
 10
-14.1397564546
 20
15.0
 30
0.0
 11
-24.1397564546
 21
15.0
 31
0.0
  0
LINE
  5
D5
330
1F
100
AcDbEntity
  8
0
  6
Continuous
 62
     7
370
    25
100
AcDbLine
 10
-24.1397564546
 20
15.0
 30
0.0
 11
-24.1397564546
 21
16.7948717949
 31
0.0
  0
LINE
  5
D6
330
1F
100
AcDbEntity
  8
0
  6
Continuous
 62
     7
370
    25
100
AcDbLine
 10
-24.1397564546
 20
16.7948717949
 30
0.0
 11
-20.6201250443
 21
16.7948717949
 31
0.0
  0
LINE
  5
D7
330
1F
100
AcDbEntity
  8
0
  6
Continuous
 62
     7
370
    25
100
AcDbLine
 10
-20.6201250443
 20
16.7948717949
 30
0.0
 11
-24.1397564546
 21
19.6314102564
 31
0.0
  0
LINE
  5
D8
330
1F
100
AcDbEntity
  8
0
  6
Continuous
 62
     7
370
    25
100
AcDbLine
 10
-24.1397564546
 20
19.6314102564
 30
0.0
 11
-24.1397564546
 21
21.8970352564
 31
0.0
  0
LINE
  5
D9
330
1F
100
AcDbEntity
  8
0
  6
Continuous
 62
     7
370
    25
100
AcDbLine
 10
-24.1397564546
 20
21.8970352564
 30
0.0
 11
-19.7166795315
 21
18.3333333333
 31
0.0
  0
LINE
  5
DA
330
1F
100
AcDbEntity
  8
0
  6
Continuous
 62
     7
370
    25
100
AcDbLine
 10
-19.7166795315
 20
18.3333333333
 30
0.0
 11
-14.1397564546
 21
22.2435897436
 31
0.0
  0
LINE
  5
DB
330
1F
100
AcDbEntity
  8
0
  6
Continuous
 62
     7
370
    25
100
AcDbLine
 10
-14.1397564546
 20
22.2435897436
 30
0.0
 11
-14.1397564546
 21
20.0821314103
 31
0.0
  0
LINE
  5
DC
330
1F
100
AcDbEntity
  8
0
  6
Continuous
 62
     7
370
    25
100
AcDbLine
 10
-14.1397564546
 20
20.0821314103
 30
0.0
 11
-18.8292596597
 21
16.7948717949
 31
0.0
  0
LINE
  5
DD
330
1F
100
AcDbEntity
  8
0
  6
Continuous
 62
     7
370
    25
100
AcDbLine
 10
-18.8292596597
 20
16.7948717949
 30
0.0
 11
-14.1397564546
 21
16.7948717949
 31
0.0
  0
SPLINE
  5
DE
330
1F
100
AcDbEntity
  8
0
  6
Continuous
 62
     7
370
    25
100
AcDbSpline
210
0.0
220
0.0
230
1.0
 70
     8
 71
     3
 72
    15
 73
    11
 74
     0
 42
0.00000001
 43
0.00000001
 40
0.0
 40
0.0
 40
0.0
 40
0.0
 40
0.1327548717475876
 40
0.257233848111066
 40
0.3786007316763543
 40
0.5014062774984547
 40
0.6239419536469536
 40
0.7436418348746473
 40
0.868120811238124
 40
1.0
 40
1.0
 40
1.0
 40
1.0
 10
-21.27116671098683
 20
27.43589743589745
 30
0.0
 10
-21.36384842948879
 20
27.43242032435036
 30
0.0
 10
-21.54343411840525
 20
27.42568286325541
 30
0.0
 10
-21.798893804734
 20
27.35164362525821
 30
0.0
 10
-22.03018647287116
 20
27.23693946982249
 30
0.0
 10
-22.23040083708737
 20
27.07530511520502
 30
0.0
 10
-22.39493025623985
 20
26.87951528842078
 30
0.0
 10
-22.51730261582258
 20
26.65326175227188
 30
0.0
 10
-22.58791090641119
 20
26.39838913860098
 30
0.0
 10
-22.59674854177869
 20
26.2197185803588
 30
0.0
 10
-22.60129491611503
 20
26.1278044871795
 30
0.0
  0
SPLINE
  5
DF
330
1F
100
AcDbEntity
  8
0
  6
Continuous
 62
     7
370
    25
100
AcDbSpline
210
0.0
220
0.0
230
1.0
 70
     8
 71
     3
 72
    23
 73
    19
 74
     0
 42
0.00000001
 43
0.00000001
 40
0.0
 40
0.0
 40
0.0
 40
0.0
 40
0.056466868471863
 40
0.1111640986969638
 40
0.1649370968759853
 40
0.2183217523125948
 40
0.2723929232482774
 40
0.3279763434477048
 40
0.3852910519840221
 40
0.4449029182928198
 40
0.5068438192198365
 40
0.5694881852629693
 40
0.6341532155537237
 40
0.7009760953100502
 40
0.7708974968462686
 40
0.8436256105557797
 40
0.9196596761155397
 40
1.0
 40
1.0
 40
1.0
 40
1.0
 10
-22.60129491611503
 20
26.1278044871795
 30
0.0
 10
-22.59961543095928
 20
26.08032049583252
 30
0.0
 10
-22.59630909471883
 20
25.98684063333137
 30
0.0
 10
-22.57429970893907
 20
25.84943254208635
 30
0.0
 10
-22.53551046387394
 20
25.71867887123817
 30
0.0
 10
-22.4835383350491
 20
25.5931242596702
 30
0.0
 10
-22.41464890515525
 20
25.47410865923829
 30
0.0
 10
-22.3297317073613
 20
25.36193226499189
 30
0.0
 10
-22.23094468059128
 20
25.25541315687452
 30
0.0
 10
-22.11859671876657
 20
25.15503987425033
 30
0.0
 10
-21.99321636039734
 20
25.06368708379748
 30
0.0
 10
-21.85594869865673
 20
24.98254786935619
 30
0.0
 10
-21.70687893965966
 20
24.91545924665545
 30
0.0
 10
-21.54797503191659
 20
24.85639198484914
 30
0.0
 10
-21.37753021792262
 20
24.8108364861138
 30
0.0
 10
-21.19656459085844
 20
24.77766643169131
 30
0.0
 10
-21.00537255812314
 20
24.75244945441403
 30
0.0
 10
-20.87394601397263
 20
24.7465967051222
 30
0.0
 10
-20.80642312124324
 20
24.74358974358975
 30
0.0
  0
LINE
  5
E0
330
1F
100
AcDbEntity
  8
0
  6
Continuous
 62
     7
370
    25
100
AcDbLine
 10
-20.8064231212
 20
24.7435897436
 30
0.0
 11
-20.8064231212
 21
22.9487179487
 31
0.0
  0
SPLINE
  5
E1
330
1F
100
AcDbEntity
  8
0
  6
Continuous
 62
     7
370
    25
100
AcDbSpline
210
0.0
220
0.0
230
1.0
 70
     8
 71
     3
 72
    23
 73
    19
 74
     0
 42
0.00000001
 43
0.00000001
 40
0.0
 40
0.0
 40
0.0
 40
0.0
 40
0.0749330030622093
 40
0.1464145890375248
 40
0.2147331780636011
 40
0.2803956905112223
 40
0.3439118344860921
 40
0.4055207421763733
 40
0.4664761993946437
 40
0.5268093209306766
 40
0.5861676109153181
 40
0.644122378533194
 40
0.7016405780206495
 40
0.758775822883545
 40
0.8166463504748904
 40
0.875666935669119
 40
0.9366301735601215
 40
1.0
 40
1.0
 40
1.0
 40
1.0
 10
-20.80642312124324
 20
22.94871794871796
 30
0.0
 10
-20.94219709767075
 20
22.95646668123706
 30
0.0
 10
-21.20749129579757
 20
22.97160723934875
 30
0.0
 10
-21.59281578582532
 20
23.03189861065482
 30
0.0
 10
-21.95699414425905
 20
23.11247939191303
 30
0.0
 10
-22.29893150865191
 20
23.22094311399231
 30
0.0
 10
-22.61877153535152
 20
23.35454052035183
 30
0.0
 10
-22.9154547731964
 20
23.51659669533227
 30
0.0
 10
-23.1911070963971
 20
23.70227322016747
 30
0.0
 10
-23.44089411309411
 20
23.91531275390828
 30
0.0
 10
-23.66546023691978
 20
24.14706905221908
 30
0.0
 10
-23.86178183702744
 20
24.39694797187043
 30
0.0
 10
-24.02612869152478
 20
24.66423969763455
 30
0.0
 10
-24.16094316587654
 20
24.94715691081369
 30
0.0
 10
-24.26881210883223
 20
25.24458834584558
 30
0.0
 10
-24.34089325899711
 20
25.55953912526883
 30
0.0
 10
-24.38971788105141
 20
25.88923022188373
 30
0.0
 10
-24.39398954028866
 20
26.11493247684888
 30
0.0
 10
-24.39616671098683
 20
26.22996794871796
 30
0.0
  0
SPLINE
  5
E2
330
1F
100
AcDbEntity
  8
0
  6
Continuous
 62
     7
370
    25
100
AcDbSpline
210
0.0
220
0.0
230
1.0
 70
     8
 71
     3
 72
    19
 73
    15
 74
     0
 42
0.00000001
 43
0.00000001
 40
0.0
 40
0.0
 40
0.0
 40
0.0
 40
0.0896145153620098
 40
0.1750254062363686
 40
0.2574931588838818
 40
0.3388458082257678
 40
0.4199981943754375
 40
0.5013464233386337
 40
0.5838697534962047
 40
0.6699881905162243
 40
0.7564733033990254
 40
0.8392066183086808
 40
0.920120478709211
 40
1.0
 40
1.0
 40
1.0
 40
1.0
 10
-24.39616671098683
 20
26.22996794871796
 30
0.0
 10
-24.39205694472201
 20
26.37123576867901
 30
0.0
 10
-24.38403019250299
 20
26.64714483850913
 30
0.0
 10
-24.30651075578073
 20
27.04673000021038
 30
0.0
 10
-24.18780243839559
 20
27.42191763019426
 30
0.0
 10
-24.01533562991971
 20
27.76871679711968
 30
0.0
 10
-23.79785359085875
 20
28.08652454815524
 30
0.0
 10
-23.5380370468781
 20
28.37357397637859
 30
0.0
 10
-23.23272967184762
 20
28.62426670620099
 30
0.0
 10
-22.89072354137229
 20
28.83664762102154
 30
0.0
 10
-22.52786389134654
 20
29.01227544741697
 30
0.0
 10
-22.15333722530524
 20
29.13652928765019
 30
0.0
 10
-21.77680990848336
 20
29.21776967178647
 30
0.0
 10
-21.52330548438237
 20
29.22645466716168
 30
0.0
 10
-21.39736863406376
 20
29.23076923076924
 30
0.0
  0
SPLINE
  5
E3
330
1F
100
AcDbEntity
  8
0
  6
Continuous
 62
     7
370
    25
100
AcDbSpline
210
0.0
220
0.0
230
1.0
 70
     8
 71
     3
 72
    23
 73
    19
 74
     0
 42
0.00000001
 43
0.00000001
 40
0.0
 40
0.0
 40
0.0
 40
0.0
 40
0.0455173509851557
 40
0.0916151841761509
 40
0.1392453293275406
 40
0.1882399067429494
 40
0.2386709784729283
 40
0.2906613157764544
 40
0.3448368201549494
 40
0.4004280819698023
 40
0.459139676039526
 40
0.5225464478831829
 40
0.5900956640101139
 40
0.6625851602661843
 40
0.7396835984345498
 40
0.821577041952255
 40
0.9083308536014615
 40
1.0
 40
1.0
 40
1.0
 40
1.0
 10
-21.39736863406375
 20
29.23076923076924
 30
0.0
 10
-21.32119165712216
 20
29.22909152195357
 30
0.0
 10
-21.16786621920813
 20
29.22571470852277
 30
0.0
 10
-20.93584719868101
 20
29.20223527971029
 30
0.0
 10
-20.69950870642574
 20
29.1670114863805
 30
0.0
 10
-20.45905334845503
 20
29.11390263163246
 30
0.0
 10
-20.21441384714269
 20
29.04767138168459
 30
0.0
 10
-19.96485758808418
 20
28.96732390195068
 30
0.0
 10
-19.71180139797598
 20
28.87099360594604
 30
0.0
 10
-19.45238954339452
 20
28.76029918045667
 30
0.0
 10
-19.18581040399172
 20
28.62820317689014
 30
0.0
 10
-18.90794168386636
 20
28.47454903508975
 30
0.0
 10
-18.61907919544062
 20
28.29419974594789
 30
0.0
 10
-18.31638960227146
 20
28.09302622609332
 30
0.0
 10
-18.00449462798169
 20
27.86311425625454
 30
0.0
 10
-17.67993092478727
 20
27.61055398737518
 30
0.0
 10
-17.34320991259801
 20
27.33407409667582
 30
0.0
 10
-17.11802884723479
 20
27.13799832522018
 30
0.0
 10
-17.00233658278171
 20
27.03725961538463
 30
0.0
  0
LINE
  5
E4
330
1F
100
AcDbEntity
  8
0
  6
Continuous
 62
     7
370
    25
100
AcDbLine
 10
-17.0023365828
 20
27.0372596154
 30
0.0
 11
-15.8064231212
 21
25.9935897436
 31
0.0
  0
LINE
  5
E5
330
1F
100
AcDbEntity
  8
0
  6
Continuous
 62
     7
370
    25
100
AcDbLine
 10
-15.8064231212
 20
25.9935897436
 30
0.0
 11
-15.8064231212
 21
29.358974359
 31
0.0
  0
LINE
  5
E6
330
1F
100
AcDbEntity
  8
0
  6
Continuous
 62
     7
370
    25
100
AcDbLine
 10
-15.8064231212
 20
29.358974359
 30
0.0
 11
-14.1397564546
 21
29.358974359
 31
0.0
  0
LINE
  5
E7
330
1F
100
AcDbEntity
  8
0
  6
Continuous
 62
     7
370
    25
100
AcDbLine
 10
-14.1397564546
 20
29.358974359
 30
0.0
 11
-14.1397564546
 21
22.6923076923
 31
0.0
  0
LINE
  5
E8
330
1F
100
AcDbEntity
  8
0
  6
Continuous
 62
     7
370
    25
100
AcDbLine
 10
-14.1397564546
 20
22.6923076923
 30
0.0
 11
-15.0492115828
 21
22.6923076923
 31
0.0
  0
LINE
  5
E9
330
1F
100
AcDbEntity
  8
0
  6
Continuous
 62
     7
370
    25
100
AcDbLine
 10
-15.0492115828
 20
22.6923076923
 30
0.0
 11
-18.2002532494
 21
25.6530448718
 31
0.0
  0
SPLINE
  5
EA
330
1F
100
AcDbEntity
  8
0
  6
Continuous
 62
     7
370
    25
100
AcDbSpline
210
0.0
220
0.0
230
1.0
 70
     8
 71
     3
 72
    19
 73
    15
 74
     0
 42
0.00000001
 43
0.00000001
 40
0.0
 40
0.0
 40
0.0
 40
0.0
 40
0.1038493619451091
 40
0.2011254171233876
 40
0.2911309633583705
 40
0.3743680063455608
 40
0.4507309970211887
 40
0.5205205643535404
 40
0.5832754154787962
 40
0.6400800077829347
 40
0.7420435568440589
 40
0.8350514117686061
 40
0.9208688166387036
 40
0.9999999999999999
 40
0.9999999999999999
 40
0.9999999999999999
 40
0.9999999999999999
 10
-18.20025324944837
 20
25.65304487179488
 30
0.0
 10
-18.29216919855279
 20
25.73876717900028
 30
0.0
 10
-18.47018313390746
 20
25.90478586674701
 30
0.0
 10
-18.73163047370459
 20
26.14099130500536
 30
0.0
 10
-18.97968420390215
 20
26.35481502409449
 30
0.0
 10
-19.21722092773752
 20
26.5414759577017
 30
0.0
 10
-19.43619795999155
 20
26.71226762432756
 30
0.0
 10
-19.64489347097099
 20
26.85514741584974
 30
0.0
 10
-19.8374302255661
 20
26.97957820878121
 30
0.0
 10
-20.07212487036751
 20
27.10955931698738
 30
0.0
 10
-20.34992587350272
 20
27.2358394026944
 30
0.0
 10
-20.66976621857544
 20
27.35163622746849
 30
0.0
 10
-20.97567428837047
 20
27.42151484914632
 30
0.0
 10
-21.17536743633433
 20
27.4312345705482
 30
0.0
 10
-21.27116671098683
 20
27.43589743589745
 30
0.0
  0
SPLINE
  5
EB
330
1F
100
AcDbEntity
  8
0
  6
Continuous
 62
     7
370
    25
100
AcDbSpline
210
0.0
220
0.0
230
1.0
 70
     8
 71
     3
 72
    15
 73
    11
 74
     0
 42
0.00000001
 43
0.00000001
 40
0.0
 40
0.0
 40
0.0
 40
0.0
 40
0.1327548717475874
 40
0.2572338481110648
 40
0.3786007316763537
 40
0.5014062774984529
 40
0.623941953646954
 40
0.7436418348746461
 40
0.8681208112381227
 40
1.0
 40
1.0
 40
1.0
 40
1.0
 10
-21.27116671098683
 20
35.25641025641024
 30
0.0
 10
-21.36384842948879
 20
35.25293314486316
 30
0.0
 10
-21.54343411840526
 20
35.24619568376821
 30
0.0
 10
-21.798893804734
 20
35.17215644577102
 30
0.0
 10
-22.03018647287116
 20
35.0574522903353
 30
0.0
 10
-22.23040083708738
 20
34.89581793571783
 30
0.0
 10
-22.39493025623985
 20
34.70002810893359
 30
0.0
 10
-22.51730261582258
 20
34.47377457278467
 30
0.0
 10
-22.58791090641119
 20
34.21890195911379
 30
0.0
 10
-22.59674854177868
 20
34.0402314008716
 30
0.0
 10
-22.60129491611503
 20
33.94831730769229
 30
0.0
  0
SPLINE
  5
EC
330
1F
100
AcDbEntity
  8
0
  6
Continuous
 62
     7
370
    25
100
AcDbSpline
210
0.0
220
0.0
230
1.0
 70
     8
 71
     3
 72
    23
 73
    19
 74
     0
 42
0.00000001
 43
0.00000001
 40
0.0
 40
0.0
 40
0.0
 40
0.0
 40
0.0564668684718631
 40
0.1111640986969626
 40
0.1649370968759843
 40
0.2183217523125938
 40
0.2723929232482764
 40
0.3279763434477039
 40
0.3852910519840202
 40
0.4449029182928181
 40
0.5068438192198349
 40
0.5694881852629677
 40
0.6341532155537236
 40
0.7009760953100502
 40
0.7708974968462683
 40
0.8436256105557794
 40
0.9196596761155394
 40
0.9999999999999999
 40
0.9999999999999999
 40
0.9999999999999999
 40
0.9999999999999999
 10
-22.60129491611503
 20
33.94831730769229
 30
0.0
 10
-22.59961543095929
 20
33.90083331634532
 30
0.0
 10
-22.59630909471882
 20
33.80735345384416
 30
0.0
 10
-22.57429970893908
 20
33.66994536259917
 30
0.0
 10
-22.53551046387394
 20
33.53919169175097
 30
0.0
 10
-22.48353833504911
 20
33.413637080183
 30
0.0
 10
-22.41464890515525
 20
33.29462147975109
 30
0.0
 10
-22.3297317073613
 20
33.18244508550467
 30
0.0
 10
-22.23094468059128
 20
33.07592597738732
 30
0.0
 10
-22.11859671876656
 20
32.97555269476313
 30
0.0
 10
-21.99321636039735
 20
32.88419990431029
 30
0.0
 10
-21.85594869865672
 20
32.80306068986899
 30
0.0
 10
-21.70687893965966
 20
32.73597206716825
 30
0.0
 10
-21.54797503191658
 20
32.67690480536192
 30
0.0
 10
-21.37753021792263
 20
32.63134930662662
 30
0.0
 10
-21.19656459085844
 20
32.5981792522041
 30
0.0
 10
-21.00537255812314
 20
32.57296227492683
 30
0.0
 10
-20.87394601397263
 20
32.56710952563501
 30
0.0
 10
-20.80642312124325
 20
32.56410256410256
 30
0.0
  0
LINE
  5
ED
330
1F
100
AcDbEntity
  8
0
  6
Continuous
 62
     7
370
    25
100
AcDbLine
 10
-20.8064231212
 20
32.5641025641
 30
0.0
 11
-20.8064231212
 21
30.7692307692
 31
0.0
  0
SPLINE
  5
EE
330
1F
100
AcDbEntity
  8
0
  6
Continuous
 62
     7
370
    25
100
AcDbSpline
210
0.0
220
0.0
230
1.0
 70
     8
 71
     3
 72
    23
 73
    19
 74
     0
 42
0.00000001
 43
0.00000001
 40
0.0
 40
0.0
 40
0.0
 40
0.0
 40
0.0749330030622093
 40
0.1464145890375248
 40
0.2147331780636011
 40
0.2803956905112224
 40
0.3439118344860921
 40
0.4055207421763733
 40
0.4664761993946441
 40
0.5268093209306769
 40
0.5861676109153177
 40
0.6441223785331939
 40
0.7016405780206488
 40
0.7587758228835456
 40
0.8166463504748904
 40
0.875666935669119
 40
0.9366301735601209
 40
0.9999999999999999
 40
0.9999999999999999
 40
0.9999999999999999
 40
0.9999999999999999
 10
-20.80642312124324
 20
30.76923076923076
 30
0.0
 10
-20.94219709767075
 20
30.77697950174987
 30
0.0
 10
-21.20749129579757
 20
30.79212005986155
 30
0.0
 10
-21.59281578582532
 20
30.85241143116761
 30
0.0
 10
-21.95699414425906
 20
30.93299221242586
 30
0.0
 10
-22.29893150865191
 20
31.0414559345051
 30
0.0
 10
-22.61877153535152
 20
31.17505334086464
 30
0.0
 10
-22.9154547731964
 20
31.33710951584506
 30
0.0
 10
-23.19110709639711
 20
31.52278604068029
 30
0.0
 10
-23.4408941130941
 20
31.73582557442107
 30
0.0
 10
-23.66546023691978
 20
31.96758187273187
 30
0.0
 10
-23.86178183702744
 20
32.21746079238324
 30
0.0
 10
-24.02612869152478
 20
32.48475251814734
 30
0.0
 10
-24.16094316587654
 20
32.7676697313265
 30
0.0
 10
-24.26881210883225
 20
33.06510116635839
 30
0.0
 10
-24.3408932589971
 20
33.38005194578161
 30
0.0
 10
-24.38971788105141
 20
33.70974304239654
 30
0.0
 10
-24.39398954028865
 20
33.93544529736167
 30
0.0
 10
-24.39616671098683
 20
34.05048076923076
 30
0.0
  0
SPLINE
  5
EF
330
1F
100
AcDbEntity
  8
0
  6
Continuous
 62
     7
370
    25
100
AcDbSpline
210
0.0
220
0.0
230
1.0
 70
     8
 71
     3
 72
    19
 73
    15
 74
     0
 42
0.00000001
 43
0.00000001
 40
0.0
 40
0.0
 40
0.0
 40
0.0
 40
0.0896145153620098
 40
0.1750254062363694
 40
0.2574931588838819
 40
0.3388458082257685
 40
0.4199981943754371
 40
0.5013464233386339
 40
0.5838697534962044
 40
0.6699881905162245
 40
0.7564733033990253
 40
0.8392066183086807
 40
0.9201204787092109
 40
1.0
 40
1.0
 40
1.0
 40
1.0
 10
-24.39616671098683
 20
34.05048076923076
 30
0.0
 10
-24.392056944722
 20
34.1917485891918
 30
0.0
 10
-24.38403019250298
 20
34.46765765902192
 30
0.0
 10
-24.30651075578074
 20
34.8672428207232
 30
0.0
 10
-24.1878024383956
 20
35.24243045070707
 30
0.0
 10
-24.01533562991971
 20
35.58922961763249
 30
0.0
 10
-23.79785359085874
 20
35.90703736866803
 30
0.0
 10
-23.53803704687811
 20
36.1940867968914
 30
0.0
 10
-23.2327296718476
 20
36.44477952671377
 30
0.0
 10
-22.89072354137231
 20
36.65716044153437
 30
0.0
 10
-22.52786389134654
 20
36.83278826792976
 30
0.0
 10
-22.15333722530524
 20
36.95704210816299
 30
0.0
 10
-21.77680990848335
 20
37.03828249229926
 30
0.0
 10
-21.52330548438237
 20
37.04696748767446
 30
0.0
 10
-21.39736863406375
 20
37.05128205128204
 30
0.0
  0
SPLINE
  5
F0
330
1F
100
AcDbEntity
  8
0
  6
Continuous
 62
     7
370
    25
100
AcDbSpline
210
0.0
220
0.0
230
1.0
 70
     8
 71
     3
 72
    23
 73
    19
 74
     0
 42
0.00000001
 43
0.00000001
 40
0.0
 40
0.0
 40
0.0
 40
0.0
 40
0.0455173509851557
 40
0.0916151841761509
 40
0.1392453293275404
 40
0.1882399067429494
 40
0.2386709784729286
 40
0.2906613157764547
 40
0.3448368201549494
 40
0.4004280819698022
 40
0.4591396760395256
 40
0.5225464478831828
 40
0.5900956640101136
 40
0.6625851602661843
 40
0.7396835984345494
 40
0.8215770419522547
 40
0.9083308536014615
 40
1.0
 40
1.0
 40
1.0
 40
1.0
 10
-21.39736863406375
 20
37.05128205128204
 30
0.0
 10
-21.32119165712216
 20
37.04960434246637
 30
0.0
 10
-21.16786621920813
 20
37.04622752903557
 30
0.0
 10
-20.93584719868101
 20
37.02274810022309
 30
0.0
 10
-20.69950870642573
 20
36.98752430689331
 30
0.0
 10
-20.45905334845502
 20
36.93441545214525
 30
0.0
 10
-20.21441384714271
 20
36.8681842021974
 30
0.0
 10
-19.96485758808418
 20
36.78783672246348
 30
0.0
 10
-19.71180139797598
 20
36.69150642645883
 30
0.0
 10
-19.45238954339452
 20
36.58081200096949
 30
0.0
 10
-19.18581040399171
 20
36.44871599740293
 30
0.0
 10
-18.90794168386636
 20
36.29506185560255
 30
0.0
 10
-18.61907919544063
 20
36.1147125664607
 30
0.0
 10
-18.31638960227146
 20
35.91353904660612
 30
0.0
 10
-18.0044946279817
 20
35.68362707676735
 30
0.0
 10
-17.67993092478726
 20
35.43106680788799
 30
0.0
 10
-17.34320991259801
 20
35.15458691718862
 30
0.0
 10
-17.11802884723478
 20
34.95851114573298
 30
0.0
 10
-17.00233658278171
 20
34.85777243589743
 30
0.0
  0
LINE
  5
F1
330
1F
100
AcDbEntity
  8
0
  6
Continuous
 62
     7
370
    25
100
AcDbLine
 10
-17.0023365828
 20
34.8577724359
 30
0.0
 11
-15.8064231212
 21
33.8141025641
 31
0.0
  0
LINE
  5
F2
330
1F
100
AcDbEntity
  8
0
  6
Continuous
 62
     7
370
    25
100
AcDbLine
 10
-15.8064231212
 20
33.8141025641
 30
0.0
 11
-15.8064231212
 21
37.1794871795
 31
0.0
  0
LINE
  5
F3
330
1F
100
AcDbEntity
  8
0
  6
Continuous
 62
     7
370
    25
100
AcDbLine
 10
-15.8064231212
 20
37.1794871795
 30
0.0
 11
-14.1397564546
 21
37.1794871795
 31
0.0
  0
LINE
  5
F4
330
1F
100
AcDbEntity
  8
0
  6
Continuous
 62
     7
370
    25
100
AcDbLine
 10
-14.1397564546
 20
37.1794871795
 30
0.0
 11
-14.1397564546
 21
30.5128205128
 31
0.0
  0
LINE
  5
F5
330
1F
100
AcDbEntity
  8
0
  6
Continuous
 62
     7
370
    25
100
AcDbLine
 10
-14.1397564546
 20
30.5128205128
 30
0.0
 11
-15.0492115828
 21
30.5128205128
 31
0.0
  0
LINE
  5
F6
330
1F
100
AcDbEntity
  8
0
  6
Continuous
 62
     7
370
    25
100
AcDbLine
 10
-15.0492115828
 20
30.5128205128
 30
0.0
 11
-18.2002532494
 21
33.4735576923
 31
0.0
  0
SPLINE
  5
F7
330
1F
100
AcDbEntity
  8
0
  6
Continuous
 62
     7
370
    25
100
AcDbSpline
210
0.0
220
0.0
230
1.0
 70
     8
 71
     3
 72
    19
 73
    15
 74
     0
 42
0.00000001
 43
0.00000001
 40
0.0
 40
0.0
 40
0.0
 40
0.0
 40
0.1038493619451097
 40
0.2011254171233875
 40
0.2911309633583705
 40
0.3743680063455619
 40
0.4507309970211892
 40
0.5205205643535415
 40
0.5832754154787972
 40
0.6400800077829357
 40
0.742043556844059
 40
0.8350514117686064
 40
0.9208688166387036
 40
1.0
 40
1.0
 40
1.0
 40
1.0
 10
-18.20025324944837
 20
33.47355769230768
 30
0.0
 10
-18.29216919855279
 20
33.55927999951306
 30
0.0
 10
-18.47018313390745
 20
33.72529868725981
 30
0.0
 10
-18.73163047370459
 20
33.96150412551816
 30
0.0
 10
-18.97968420390215
 20
34.17532784460729
 30
0.0
 10
-19.21722092773751
 20
34.36198877821449
 30
0.0
 10
-19.43619795999155
 20
34.53278044484036
 30
0.0
 10
-19.64489347097099
 20
34.67566023636255
 30
0.0
 10
-19.8374302255661
 20
34.80009102929401
 30
0.0
 10
-20.07212487036752
 20
34.93007213750019
 30
0.0
 10
-20.34992587350272
 20
35.05635222320719
 30
0.0
 10
-20.66976621857544
 20
35.1721490479813
 30
0.0
 10
-20.97567428837046
 20
35.24202766965909
 30
0.0
 10
-21.17536743633432
 20
35.25174739106099
 30
0.0
 10
-21.27116671098683
 20
35.25641025641024
 30
0.0
  0
MTEXT
  5
F9
330
1F
100
AcDbEntity
  8
0
  6
Continuous
 62
     7
100
AcDbMText
 10
-70.2034
 20
-59.0195663917
 30
0.0
 40
4.83362
 41
0.0
 71
     1
 72
     1
  1
SOLIDWORKS Educational Product.
  7
SLDTEXTSTYLE0
 73
     1
 44
1.0
  0
MTEXT
  5
FA
330
1F
100
AcDbEntity
  8
0
  6
Continuous
 62
     7
100
AcDbMText
 10
-70.2034
 20
-66.2699963917
 30
0.0
 40
4.83362
 41
0.0
 71
     1
 72
     1
  1
For Instructional Use Only.
  7
SLDTEXTSTYLE0
 73
     1
 44
1.0
  0
ENDSEC
  0
SECTION
  2
OBJECTS
  0
DICTIONARY
  5
C
330
0
100
AcDbDictionary
281
     1
  3
ACAD_GROUP
350
D
  3
ACAD_LAYOUT
350
1A
  3
ACAD_MLINESTYLE
350
17
  3
ACAD_PLOTSETTINGS
350
19
  3
ACAD_PLOTSTYLENAME
350
E
  3
ACAD_SCALELIST
350
47
  3
DWGPROPS
350
FB
  0
DICTIONARY
  5
D
102
{ACAD_REACTORS
330
C
102
}
330
C
100
AcDbDictionary
281
     1
  0
DICTIONARY
  5
1A
102
{ACAD_REACTORS
330
C
102
}
330
C
100
AcDbDictionary
281
     1
  3
Layout1
350
1E
  3
Layout2
350
26
  3
Model
350
22
  0
DICTIONARY
  5
17
102
{ACAD_REACTORS
330
C
102
}
330
C
100
AcDbDictionary
281
     1
  3
Standard
350
18
  0
DICTIONARY
  5
19
102
{ACAD_REACTORS
330
C
102
}
330
C
100
AcDbDictionary
281
     1
  0
ACDBDICTIONARYWDFLT
  5
E
102
{ACAD_REACTORS
330
C
102
}
330
C
100
AcDbDictionary
281
     1
  3
Normal
350
F
100
AcDbDictionaryWithDefault
340
F
  0
DICTIONARY
  5
47
102
{ACAD_REACTORS
330
C
102
}
330
C
100
AcDbDictionary
281
     1
  3
A0
350
48
  3
A1
350
49
  3
A2
350
4A
  3
A3
350
4B
  3
A4
350
4C
  3
A5
350
4D
  3
A6
350
4E
  3
A7
350
4F
  3
A8
350
50
  3
A9
350
51
  3
B0
350
52
  3
B1
350
53
  3
B2
350
54
  3
B3
350
55
  3
B4
350
56
  3
B5
350
57
  3
B6
350
58
  3
B7
350
59
  3
B8
350
5A
  3
B9
350
5B
  3
C0
350
5C
  3
C1
350
5D
  3
C2
350
5E
  3
C3
350
5F
  3
C4
350
60
  3
C5
350
61
  3
C6
350
62
  3
C7
350
63
  3
C8
350
64
  3
C9
350
65
  3
D0
350
66
  3
D1
350
67
  3
D2
350
68
  0
XRECORD
  5
FB
102
{ACAD_REACTORS
330
C
102
}
330
C
100
AcDbXrecord
280
     1
  1
DWGPROPS COOKIE
  2

  3

  4

  6

  7

  8
Pitip
  9

300
=
301
=
302
=
303
=
304
=
305
=
306
=
307
=
308
=
309
=
 40
0.0
 41
2459621.98156485
 42
2459621.981589815
  1

 90
        0
  0
LAYOUT
  5
1E
102
{ACAD_REACTORS
330
1A
102
}
330
1A
100
AcDbPlotSettings
  1

  2
none_device
  4

  6

 40
0.0
 41
0.0
 42
0.0
 43
0.0
 44
0.0
 45
0.0
 46
0.0
 47
0.0
 48
0.0
 49
0.0
140
0.0
141
0.0
142
1.0
143
1.0
 70
   688
 72
     1
 73
     0
 74
     5
  7

 75
    16
147
1.0
148
0.0
149
0.0
100
AcDbLayout
  1
Layout1
 70
     1
 71
     1
 10
0.0
 20
0.0
 11
420.0
 21
297.0
 12
0.0
 22
0.0
 32
0.0
 14
1.0000000000E+20
 24
1.0000000000E+20
 34
1.0000000000E+20
 15
-1.0000000000E+20
 25
-1.0000000000E+20
 35
-1.0000000000E+20
146
0.0
 13
0.0
 23
0.0
 33
0.0
 16
1.0
 26
0.0
 36
0.0
 17
0.0
 27
1.0
 37
0.0
 76
     0
330
1B
  0
LAYOUT
  5
26
102
{ACAD_REACTORS
330
1A
102
}
330
1A
100
AcDbPlotSettings
  1

  2
none_device
  4

  6

 40
0.0
 41
0.0
 42
0.0
 43
0.0
 44
0.0
 45
0.0
 46
0.0
 47
0.0
 48
0.0
 49
0.0
140
0.0
141
0.0
142
1.0
143
1.0
 70
   688
 72
     1
 73
     0
 74
     5
  7

 75
    16
147
1.0
148
0.0
149
0.0
100
AcDbLayout
  1
Layout2
 70
     1
 71
     2
 10
0.0
 20
0.0
 11
0.0
 21
0.0
 12
0.0
 22
0.0
 32
0.0
 14
0.0
 24
0.0
 34
0.0
 15
0.0
 25
0.0
 35
0.0
146
0.0
 13
0.0
 23
0.0
 33
0.0
 16
1.0
 26
0.0
 36
0.0
 17
0.0
 27
1.0
 37
0.0
 76
     0
330
23
  0
LAYOUT
  5
22
102
{ACAD_REACTORS
330
1A
102
}
330
1A
100
AcDbPlotSettings
  1

  2
none_device
  4
ANSI_A_(11.00_x_8.50_Inches)
  6

 40
6.35
 41
19.05
 42
6.35000508
 43
19.05000254
 44
279.4
 45
215.9
 46
139.7174524057
 47
88.89999873
 48
0.0
 49
0.0
140
0.0
141
0.0
142
0.0725431034
143
1.0
 70
  1696
 72
     0
 73
     0
 74
     0
  7

 75
     0
147
0.0179189148
148
-1300.4909072572
149
0.0
100
AcDbLayout
  1
Model
 70
     1
 71
     0
 10
0.0
 20
0.0
 11
420.0
 21
297.0
 12
0.0
 22
0.0
 32
0.0
 14
-70.2034
 24
-58.0
 34
0.0
 15
63.292
 25
58.0
 35
0.0
146
0.0
 13
0.0
 23
0.0
 33
0.0
 16
1.0
 26
0.0
 36
0.0
 17
0.0
 27
1.0
 37
0.0
 76
     0
330
1F
331
29
  0
MLINESTYLE
  5
18
102
{ACAD_REACTORS
330
17
102
}
330
17
100
AcDbMlineStyle
  2
Standard
 70
     0
  3

 62
   256
 51
90.0
 52
90.0
 71
     2
 49
0.5
 62
   256
  6
BYLAYER
 49
-0.5
 62
   256
  6
BYLAYER
  0
ACDBPLACEHOLDER
  5
F
102
{ACAD_REACTORS
330
E
102
}
330
E
  0
SCALE
  5
48
102
{ACAD_REACTORS
330
47
102
}
330
47
100
AcDbScale
 70
     0
300
1:1
140
1.0
141
1.0
290
     1
  0
SCALE
  5
49
102
{ACAD_REACTORS
330
47
102
}
330
47
100
AcDbScale
 70
     0
300
1:2
140
1.0
141
2.0
290
     0
  0
SCALE
  5
4A
102
{ACAD_REACTORS
330
47
102
}
330
47
100
AcDbScale
 70
     0
300
1:4
140
1.0
141
4.0
290
     0
  0
SCALE
  5
4B
102
{ACAD_REACTORS
330
47
102
}
330
47
100
AcDbScale
 70
     0
300
1:5
140
1.0
141
5.0
290
     0
  0
SCALE
  5
4C
102
{ACAD_REACTORS
330
47
102
}
330
47
100
AcDbScale
 70
     0
300
1:8
140
1.0
141
8.0
290
     0
  0
SCALE
  5
4D
102
{ACAD_REACTORS
330
47
102
}
330
47
100
AcDbScale
 70
     0
300
1:10
140
1.0
141
10.0
290
     0
  0
SCALE
  5
4E
102
{ACAD_REACTORS
330
47
102
}
330
47
100
AcDbScale
 70
     0
300
1:16
140
1.0
141
16.0
290
     0
  0
SCALE
  5
4F
102
{ACAD_REACTORS
330
47
102
}
330
47
100
AcDbScale
 70
     0
300
1:20
140
1.0
141
20.0
290
     0
  0
SCALE
  5
50
102
{ACAD_REACTORS
330
47
102
}
330
47
100
AcDbScale
 70
     0
300
1:30
140
1.0
141
30.0
290
     0
  0
SCALE
  5
51
102
{ACAD_REACTORS
330
47
102
}
330
47
100
AcDbScale
 70
     0
300
1:40
140
1.0
141
40.0
290
     0
  0
SCALE
  5
52
102
{ACAD_REACTORS
330
47
102
}
330
47
100
AcDbScale
 70
     0
300
1:50
140
1.0
141
50.0
290
     0
  0
SCALE
  5
53
102
{ACAD_REACTORS
330
47
102
}
330
47
100
AcDbScale
 70
     0
300
1:100
140
1.0
141
100.0
290
     0
  0
SCALE
  5
54
102
{ACAD_REACTORS
330
47
102
}
330
47
100
AcDbScale
 70
     0
300
2:1
140
2.0
141
1.0
290
     0
  0
SCALE
  5
55
102
{ACAD_REACTORS
330
47
102
}
330
47
100
AcDbScale
 70
     0
300
4:1
140
4.0
141
1.0
290
     0
  0
SCALE
  5
56
102
{ACAD_REACTORS
330
47
102
}
330
47
100
AcDbScale
 70
     0
300
8:1
140
8.0
141
1.0
290
     0
  0
SCALE
  5
57
102
{ACAD_REACTORS
330
47
102
}
330
47
100
AcDbScale
 70
     0
300
10:1
140
10.0
141
1.0
290
     0
  0
SCALE
  5
58
102
{ACAD_REACTORS
330
47
102
}
330
47
100
AcDbScale
 70
     0
300
100:1
140
100.0
141
1.0
290
     0
  0
SCALE
  5
59
102
{ACAD_REACTORS
330
47
102
}
330
47
100
AcDbScale
 70
     0
300
1/128" = 1'-0"
140
0.0078125
141
12.0
290
     0
  0
SCALE
  5
5A
102
{ACAD_REACTORS
330
47
102
}
330
47
100
AcDbScale
 70
     0
300
1/64" = 1'-0"
140
0.015625
141
12.0
290
     0
  0
SCALE
  5
5B
102
{ACAD_REACTORS
330
47
102
}
330
47
100
AcDbScale
 70
     0
300
1/32" = 1'-0"
140
0.03125
141
12.0
290
     0
  0
SCALE
  5
5C
102
{ACAD_REACTORS
330
47
102
}
330
47
100
AcDbScale
 70
     0
300
1/16" = 1'-0"
140
0.0625
141
12.0
290
     0
  0
SCALE
  5
5D
102
{ACAD_REACTORS
330
47
102
}
330
47
100
AcDbScale
 70
     0
300
3/32" = 1'-0"
140
0.09375
141
12.0
290
     0
  0
SCALE
  5
5E
102
{ACAD_REACTORS
330
47
102
}
330
47
100
AcDbScale
 70
     0
300
1/8" = 1'-0"
140
0.125
141
12.0
290
     0
  0
SCALE
  5
5F
102
{ACAD_REACTORS
330
47
102
}
330
47
100
AcDbScale
 70
     0
300
3/16" = 1'-0"
140
0.1875
141
12.0
290
     0
  0
SCALE
  5
60
102
{ACAD_REACTORS
330
47
102
}
330
47
100
AcDbScale
 70
     0
300
1/4" = 1'-0"
140
0.25
141
12.0
290
     0
  0
SCALE
  5
61
102
{ACAD_REACTORS
330
47
102
}
330
47
100
AcDbScale
 70
     0
300
3/8" = 1'-0"
140
0.375
141
12.0
290
     0
  0
SCALE
  5
62
102
{ACAD_REACTORS
330
47
102
}
330
47
100
AcDbScale
 70
     0
300
1/2" = 1'-0"
140
0.5
141
12.0
290
     0
  0
SCALE
  5
63
102
{ACAD_REACTORS
330
47
102
}
330
47
100
AcDbScale
 70
     0
300
3/4" = 1'-0"
140
0.75
141
12.0
290
     0
  0
SCALE
  5
64
102
{ACAD_REACTORS
330
47
102
}
330
47
100
AcDbScale
 70
     0
300
1" = 1'-0"
140
1.0
141
12.0
290
     0
  0
SCALE
  5
65
102
{ACAD_REACTORS
330
47
102
}
330
47
100
AcDbScale
 70
     0
300
1-1/2" = 1'-0"
140
1.5
141
12.0
290
     0
  0
SCALE
  5
66
102
{ACAD_REACTORS
330
47
102
}
330
47
100
AcDbScale
 70
     0
300
3" = 1'-0"
140
3.0
141
12.0
290
     0
  0
SCALE
  5
67
102
{ACAD_REACTORS
330
47
102
}
330
47
100
AcDbScale
 70
     0
300
6" = 1'-0"
140
6.0
141
12.0
290
     0
  0
SCALE
  5
68
102
{ACAD_REACTORS
330
47
102
}
330
47
100
AcDbScale
 70
     0
300
1'-0" = 1'-0"
140
12.0
141
12.0
290
     0
  0
ENDSEC
  0
EOF
