  0
SECTION
  2
HEADER
  9
$ACADVER
  1
AC1015
  9
$ACADMAINTVER
 70
     6
  9
$DWGCODEPAGE
  3
ANSI_1252
  9
$INSBASE
 10
0.0
 20
0.0
 30
0.0
  9
$EXTMIN
 10
-50.0
 20
-22.225
 30
0.0
  9
$EXTMAX
 10
50.0
 20
22.225
 30
0.0
  9
$LIMMIN
 10
0.0
 20
0.0
  9
$LIMMAX
 10
420.0
 20
297.0
  9
$ORTHOMODE
 70
     0
  9
$REGENMODE
 70
     1
  9
$FILLMODE
 70
     1
  9
$QTEXTMODE
 70
     0
  9
$MIRRTEXT
 70
     1
  9
$LTSCALE
 40
1.0
  9
$ATTMODE
 70
     1
  9
$TEXTSIZE
 40
3.5
  9
$TRACEWID
 40
1.0
  9
$TEXTSTYLE
  7
Standard
  9
$CLAYER
  8
0
  9
$CELTYPE
  6
ByLayer
  9
$CECOLOR
 62
   256
  9
$CELTSCALE
 40
1.0
  9
$DISPSILH
 70
     0
  9
$DIMSCALE
 40
1.0
  9
$DIMASZ
 40
3.302
  9
$DIMEXO
 40
0.0
  9
$DIMDLI
 40
3.75
  9
$DIMRND
 40
0.0
  9
$DIMDLE
 40
0.0
  9
$DIMEXE
 40
1.0
  9
$DIMTP
 40
0.0
  9
$DIMTM
 40
0.0
  9
$DIMTXT
 40
3.5
  9
$DIMCEN
 40
2.5
  9
$DIMTSZ
 40
0.0
  9
$DIMTOL
 70
     0
  9
$DIMLIM
 70
     0
  9
$DIMTIH
 70
     1
  9
$DIMTOH
 70
     1
  9
$DIMSE1
 70
     0
  9
$DIMSE2
 70
     0
  9
$DIMTAD
 70
     1
  9
$DIMZIN
 70
     1
  9
$DIMBLK
  1

  9
$DIMASO
 70
     1
  9
$DIMSHO
 70
     1
  9
$DIMPOST
  1

  9
$DIMAPOST
  1

  9
$DIMALT
 70
     0
  9
$DIMALTD
 70
     3
  9
$DIMALTF
 40
0.0393700787
  9
$DIMLFAC
 40
1.0
  9
$DIMTOFL
 70
     1
  9
$DIMTVP
 40
0.0
  9
$DIMTIX
 70
     0
  9
$DIMSOXD
 70
     0
  9
$DIMSAH
 70
     0
  9
$DIMBLK1
  1

  9
$DIMBLK2
  1

  9
$DIMSTYLE
  2
ISO-25
  9
$DIMCLRD
 70
     0
  9
$DIMCLRE
 70
     0
  9
$DIMCLRT
 70
     0
  9
$DIMTFAC
 40
1.0
  9
$DIMGAP
 40
1.524
  9
$DIMJUST
 70
     0
  9
$DIMSD1
 70
     0
  9
$DIMSD2
 70
     0
  9
$DIMTOLJ
 70
     0
  9
$DIMTZIN
 70
     1
  9
$DIMALTZ
 70
     0
  9
$DIMALTTZ
 70
     0
  9
$DIMUPT
 70
     0
  9
$DIMDEC
 70
     2
  9
$DIMTDEC
 70
     2
  9
$DIMALTU
 70
     2
  9
$DIMALTTD
 70
     3
  9
$DIMTXSTY
  7
Standard
  9
$DIMAUNIT
 70
     0
  9
$DIMADEC
 70
     2
  9
$DIMALTRND
 40
0.0
  9
$DIMAZIN
 70
     0
  9
$DIMDSEP
 70
    44
  9
$DIMATFIT
 70
     3
  9
$DIMFRAC
 70
     0
  9
$DIMLDRBLK
  1

  9
$DIMLUNIT
 70
     2
  9
$DIMLWD
 70
    -2
  9
$DIMLWE
 70
    -2
  9
$DIMTMOVE
 70
     0
  9
$LUNITS
 70
     2
  9
$LUPREC
 70
     2
  9
$SKETCHINC
 40
1.0
  9
$FILLETRAD
 40
10.0
  9
$AUNITS
 70
     0
  9
$AUPREC
 70
     2
  9
$MENU
  1
.
  9
$ELEVATION
 40
0.0
  9
$PELEVATION
 40
0.0
  9
$THICKNESS
 40
0.0
  9
$LIMCHECK
 70
     0
  9
$CHAMFERA
 40
0.0
  9
$CHAMFERB
 40
0.0
  9
$CHAMFERC
 40
0.0
  9
$CHAMFERD
 40
0.0
  9
$SKPOLY
 70
     0
  9
$TDCREATE
 40
2459599.406114641
  9
$TDUCREATE
 40
2459599.656114641
  9
$TDUPDATE
 40
2459599.406151748
  9
$TDUUPDATE
 40
2459599.656151748
  9
$TDINDWG
 40
0.0000000116
  9
$TDUSRTIMER
 40
0.0000000116
  9
$USRTIMER
 70
     1
  9
$ANGBASE
 50
0.0
  9
$ANGDIR
 70
     0
  9
$PDMODE
 70
     0
  9
$PDSIZE
 40
-1.0
  9
$PLINEWID
 40
0.0
  9
$SPLFRAME
 70
     0
  9
$SPLINETYPE
 70
     6
  9
$SPLINESEGS
 70
     8
  9
$HANDSEED
  5
E3
  9
$SURFTAB1
 70
     6
  9
$SURFTAB2
 70
     6
  9
$SURFTYPE
 70
     6
  9
$SURFU
 70
     6
  9
$SURFV
 70
     6
  9
$UCSBASE
  2

  9
$UCSNAME
  2

  9
$UCSORG
 10
0.0
 20
0.0
 30
0.0
  9
$UCSXDIR
 10
1.0
 20
0.0
 30
0.0
  9
$UCSYDIR
 10
0.0
 20
1.0
 30
0.0
  9
$UCSORTHOREF
  2

  9
$UCSORTHOVIEW
 70
     0
  9
$UCSORGTOP
 10
0.0
 20
0.0
 30
0.0
  9
$UCSORGBOTTOM
 10
0.0
 20
0.0
 30
0.0
  9
$UCSORGLEFT
 10
0.0
 20
0.0
 30
0.0
  9
$UCSORGRIGHT
 10
0.0
 20
0.0
 30
0.0
  9
$UCSORGFRONT
 10
0.0
 20
0.0
 30
0.0
  9
$UCSORGBACK
 10
0.0
 20
0.0
 30
0.0
  9
$PUCSBASE
  2

  9
$PUCSNAME
  2

  9
$PUCSORG
 10
0.0
 20
0.0
 30
0.0
  9
$PUCSXDIR
 10
1.0
 20
0.0
 30
0.0
  9
$PUCSYDIR
 10
0.0
 20
1.0
 30
0.0
  9
$PUCSORTHOREF
  2

  9
$PUCSORTHOVIEW
 70
     0
  9
$PUCSORGTOP
 10
0.0
 20
0.0
 30
0.0
  9
$PUCSORGBOTTOM
 10
0.0
 20
0.0
 30
0.0
  9
$PUCSORGLEFT
 10
0.0
 20
0.0
 30
0.0
  9
$PUCSORGRIGHT
 10
0.0
 20
0.0
 30
0.0
  9
$PUCSORGFRONT
 10
0.0
 20
0.0
 30
0.0
  9
$PUCSORGBACK
 10
0.0
 20
0.0
 30
0.0
  9
$USERI1
 70
     0
  9
$USERI2
 70
     0
  9
$USERI3
 70
     0
  9
$USERI4
 70
     0
  9
$USERI5
 70
     0
  9
$USERR1
 40
0.0
  9
$USERR2
 40
0.0
  9
$USERR3
 40
0.0
  9
$USERR4
 40
0.0
  9
$USERR5
 40
0.0
  9
$WORLDVIEW
 70
     1
  9
$SHADEDGE
 70
     3
  9
$SHADEDIF
 70
    70
  9
$TILEMODE
 70
     1
  9
$MAXACTVP
 70
    64
  9
$PINSBASE
 10
0.0
 20
0.0
 30
0.0
  9
$PLIMCHECK
 70
     0
  9
$PEXTMIN
 10
1.0000000000E+20
 20
1.0000000000E+20
 30
1.0000000000E+20
  9
$PEXTMAX
 10
-1.0000000000E+20
 20
-1.0000000000E+20
 30
-1.0000000000E+20
  9
$PLIMMIN
 10
0.0
 20
0.0
  9
$PLIMMAX
 10
420.0
 20
297.0
  9
$UNITMODE
 70
     0
  9
$VISRETAIN
 70
     1
  9
$PLINEGEN
 70
     0
  9
$PSLTSCALE
 70
     1
  9
$TREEDEPTH
 70
  3020
  9
$CMLSTYLE
  2
Standard
  9
$CMLJUST
 70
     0
  9
$CMLSCALE
 40
20.0
  9
$PROXYGRAPHICS
 70
     1
  9
$MEASUREMENT
 70
     1
  9
$CELWEIGHT
370
    -1
  9
$ENDCAPS
280
     0
  9
$JOINSTYLE
280
     0
  9
$LWDISPLAY
290
     1
  9
$INSUNITS
 70
     4
  9
$HYPERLINKBASE
  1

  9
$STYLESHEET
  1

  9
$XEDIT
290
     1
  9
$CEPSNTYPE
380
     0
  9
$PSTYLEMODE
290
     1
  9
$FINGERPRINTGUID
  2
{3c38769b-e139-410d-9a2f-97e848295118}
  9
$VERSIONGUID
  2
{FAEB1C32-E019-11D5-929B-00C0DF256EC4}
  9
$EXTNAMES
290
     1
  9
$PSVPSCALE
 40
0.0
  9
$OLESTARTUP
290
     0
  0
ENDSEC
  0
SECTION
  2
CLASSES
  0
CLASS
  1
ACDBDICTIONARYWDFLT
  2
AcDbDictionaryWithDefault
  3
ObjectDBX Classes
 90
        0
280
     0
281
     0
  0
CLASS
  1
VISUALSTYLE
  2
AcDbVisualStyle
  3
ObjectDBX Classes
 90
     4095
280
     0
281
     0
  0
CLASS
  1
MATERIAL
  2
AcDbMaterial
  3
ObjectDBX Classes
 90
     1153
280
     0
281
     0
  0
CLASS
  1
SCALE
  2
AcDbScale
  3
ObjectDBX Classes
 90
     1153
280
     0
281
     0
  0
CLASS
  1
TABLESTYLE
  2
AcDbTableStyle
  3
ObjectDBX Classes
 90
     4095
280
     0
281
     0
  0
CLASS
  1
MLEADERSTYLE
  2
AcDbMLeaderStyle
  3
ACDB_MLEADERSTYLE_CLASS
 90
     4095
280
     0
281
     0
  0
CLASS
  1
SUN
  2
AcDbSun
  3
SCENEOE
 90
     1153
280
     0
281
     0
  0
CLASS
  1
ACDBPLACEHOLDER
  2
AcDbPlaceHolder
  3
ObjectDBX Classes
 90
        0
280
     0
281
     0
  0
CLASS
  1
LAYOUT
  2
AcDbLayout
  3
ObjectDBX Classes
 90
        0
280
     0
281
     0
  0
ENDSEC
  0
SECTION
  2
TABLES
  0
TABLE
  2
VPORT
  5
8
330
0
100
AcDbSymbolTable
 70
     1
  0
VPORT
  5
29
330
8
100
AcDbSymbolTableRecord
100
AcDbViewportTableRecord
  2
*Active
 70
     0
 10
0.0
 20
0.0
 11
1.0
 21
1.0
 12
0.0
 22
0.0
 13
0.0
 23
0.0
 14
10.0
 24
10.0
 15
10.0
 25
10.0
 16
0.0
 26
0.0
 36
1.0
 17
0.0
 27
0.0
 37
0.0
 40
45.339
 41
2.2497187852
 42
50.0
 43
0.0
 44
0.0
 50
0.0
 51
0.0
 71
     0
 72
   100
 73
     1
 74
     3
 75
     0
 76
     0
 77
     0
 78
     0
281
     0
 65
     1
110
0.0
120
0.0
130
0.0
111
1.0
121
0.0
131
0.0
112
0.0
122
1.0
132
0.0
 79
     0
146
0.0
  0
ENDTAB
  0
TABLE
  2
LTYPE
  5
5
330
0
100
AcDbSymbolTable
 70
     6
  0
LTYPE
  5
14
330
5
100
AcDbSymbolTableRecord
100
AcDbLinetypeTableRecord
  2
ByBlock
 70
     0
  3

 72
    65
 73
     0
 40
0.0
  0
LTYPE
  5
15
330
5
100
AcDbSymbolTableRecord
100
AcDbLinetypeTableRecord
  2
ByLayer
 70
     0
  3

 72
    65
 73
     0
 40
0.0
  0
LTYPE
  5
16
330
5
100
AcDbSymbolTableRecord
100
AcDbLinetypeTableRecord
  2
Continuous
 70
     0
  3
Solid line
 72
    65
 73
     0
 40
0.0
  0
LTYPE
  5
6E
330
5
100
AcDbSymbolTableRecord
100
AcDbLinetypeTableRecord
  2
HIDDEN
 70
     0
  3
Hidden __ __ __ __ __ __ __ __ __ __ __ __ __ __
 72
    65
 73
     2
 40
1.905
 49
1.27
 74
     0
 49
-0.635
 74
     0
  0
LTYPE
  5
6F
330
5
100
AcDbSymbolTableRecord
100
AcDbLinetypeTableRecord
  2
PHANTOM
 70
     0
  3
Phantom ______  __  __  ______  __  __  ______
 72
    65
 73
     6
 40
12.7
 49
6.35
 74
     0
 49
-1.27
 74
     0
 49
1.27
 74
     0
 49
-1.27
 74
     0
 49
1.27
 74
     0
 49
-1.27
 74
     0
  0
LTYPE
  5
70
330
5
100
AcDbSymbolTableRecord
100
AcDbLinetypeTableRecord
  2
CENTER
 70
     0
  3
Center ____ _ ____ _ ____ _ ____ _ ____ _ ____
 72
    65
 73
     4
 40
10.16
 49
6.35
 74
     0
 49
-1.27
 74
     0
 49
1.27
 74
     0
 49
-1.27
 74
     0
  0
LTYPE
  5
71
330
5
100
AcDbSymbolTableRecord
100
AcDbLinetypeTableRecord
  2
CENTERX2
 70
     0
  3
Center (2x) ________  __  ________  __  _____
 72
    65
 73
     4
 40
20.32
 49
12.7
 74
     0
 49
-2.54
 74
     0
 49
2.54
 74
     0
 49
-2.54
 74
     0
  0
LTYPE
  5
72
330
5
100
AcDbSymbolTableRecord
100
AcDbLinetypeTableRecord
  2
DOT2
 70
     0
  3
Dot (.5x) ........................................
 72
    65
 73
     2
 40
0.635
 49
0.0
 74
     0
 49
-0.635
 74
     0
  0
ENDTAB
  0
TABLE
  2
LAYER
  5
2
330
0
100
AcDbSymbolTable
 70
     1
  0
LAYER
  5
10
330
2
100
AcDbSymbolTableRecord
100
AcDbLayerTableRecord
  2
0
 70
     0
 62
     7
  6
Continuous
370
    -3
390
F
  0
ENDTAB
  0
TABLE
  2
STYLE
  5
3
330
0
100
AcDbSymbolTable
 70
     2
  0
STYLE
  5
11
330
3
100
AcDbSymbolTableRecord
100
AcDbTextStyleTableRecord
  2
Standard
 70
     0
 40
0.0
 41
1.0
 50
0.0
 71
     0
 42
3.5
  3
txt
  4

  0
STYLE
  5
DF
330
3
100
AcDbSymbolTableRecord
100
AcDbTextStyleTableRecord
  2
SLDTEXTSTYLE0
 70
     0
 40
0.0
 41
0.7
 50
0.0
 71
     0
 42
3.5
  3
TXT
  4

  0
ENDTAB
  0
TABLE
  2
VIEW
  5
6
330
0
100
AcDbSymbolTable
 70
     0
  0
ENDTAB
  0
TABLE
  2
UCS
  5
7
330
0
100
AcDbSymbolTable
 70
     0
  0
ENDTAB
  0
TABLE
  2
APPID
  5
9
330
0
100
AcDbSymbolTable
 70
     1
  0
APPID
  5
12
330
9
100
AcDbSymbolTableRecord
100
AcDbRegAppTableRecord
  2
ACAD
 70
     0
  0
ENDTAB
  0
TABLE
  2
DIMSTYLE
  5
A
330
0
100
AcDbSymbolTable
 70
     1
100
AcDbDimStyleTable
  0
DIMSTYLE
105
27
330
A
100
AcDbSymbolTableRecord
100
AcDbDimStyleTableRecord
  2
ISO-25
 70
     0
 41
2.5
 42
0.625
 43
3.75
 44
1.25
 73
     0
 74
     0
 77
     1
 78
     8
140
2.5
141
2.5
143
0.0393700787
147
0.625
171
     3
172
     1
178
     0
271
     2
272
     2
274
     3
278
    44
283
     0
284
     8
340
11
  0
ENDTAB
  0
TABLE
  2
BLOCK_RECORD
  5
1
330
0
100
AcDbSymbolTable
 70
     1
  0
BLOCK_RECORD
  5
1F
330
1
100
AcDbSymbolTableRecord
100
AcDbBlockTableRecord
  2
*Model_Space
340
22
  0
BLOCK_RECORD
  5
1B
330
1
100
AcDbSymbolTableRecord
100
AcDbBlockTableRecord
  2
*Paper_Space
340
1E
  0
BLOCK_RECORD
  5
23
330
1
100
AcDbSymbolTableRecord
100
AcDbBlockTableRecord
  2
*Paper_Space0
340
26
  0
ENDTAB
  0
ENDSEC
  0
SECTION
  2
BLOCKS
  0
BLOCK
  5
20
330
1F
100
AcDbEntity
  8
0
100
AcDbBlockBegin
  2
*Model_Space
 70
     0
 10
0.0
 20
0.0
 30
0.0
  3
*Model_Space
  1

  0
ENDBLK
  5
21
330
1F
100
AcDbEntity
  8
0
100
AcDbBlockEnd
  0
BLOCK
  5
1C
330
1B
100
AcDbEntity
 67
     1
  8
0
100
AcDbBlockBegin
  2
*Paper_Space
 70
     0
 10
0.0
 20
0.0
 30
0.0
  3
*Paper_Space
  1

  0
ENDBLK
  5
1D
330
1B
100
AcDbEntity
 67
     1
  8
0
100
AcDbBlockEnd
  0
BLOCK
  5
24
330
23
100
AcDbEntity
  8
0
100
AcDbBlockBegin
  2
*Paper_Space0
 70
     0
 10
0.0
 20
0.0
 30
0.0
  3
*Paper_Space0
  1

  0
ENDBLK
  5
25
330
23
100
AcDbEntity
  8
0
100
AcDbBlockEnd
  0
ENDSEC
  0
SECTION
  2
ENTITIES
  0
SPLINE
  5
73
330
1F
100
AcDbEntity
  8
0
  6
Continuous
 62
     7
370
    25
100
AcDbSpline
210
0.0
220
0.0
230
1.0
 70
     8
 71
     3
 72
     9
 73
     5
 74
     0
 42
0.00000001
 43
0.00000001
 40
0.0
 40
0.0
 40
0.0
 40
0.0
 40
0.4786682837467983
 40
1.0
 40
1.0
 40
1.0
 40
1.0
 10
-1.659139162323894
 20
-15.66429260760472
 30
0.0
 10
-1.682112214194764
 20
-15.66398187306524
 30
0.0
 10
-1.730105893013522
 20
-15.6633327083931
 30
0.0
 10
-1.77804048166221
 20
-15.66085532783313
 30
0.0
 10
-1.803030303030322
 20
-15.65956379077399
 30
0.0
  0
LINE
  5
74
330
1F
100
AcDbEntity
  8
0
  6
Continuous
 62
     7
370
    25
100
AcDbLine
 10
-1.5409187416
 20
-15.6642926076
 30
0.0
 11
-1.6591391623
 21
-15.6642926076
 31
0.0
  0
LINE
  5
75
330
1F
100
AcDbEntity
  8
0
  6
Continuous
 62
     7
370
    25
100
AcDbLine
 10
-1.2511098244
 20
-15.6298397993
 30
0.0
 11
-1.5409187416
 21
-15.6642926076
 31
0.0
  0
SPLINE
  5
76
330
1F
100
AcDbEntity
  8
0
  6
Continuous
 62
     7
370
    25
100
AcDbSpline
210
0.0
220
0.0
230
1.0
 70
     8
 71
     3
 72
    15
 73
    11
 74
     0
 42
0.00000001
 43
0.00000001
 40
0.0
 40
0.0
 40
0.0
 40
0.0
 40
0.1168049404887142
 40
0.2356766233738895
 40
0.3596360618810904
 40
0.4934659651521776
 40
0.6276082790494902
 40
0.7527186741362702
 40
0.8751128534236319
 40
1.0
 40
1.0
 40
1.0
 40
1.0
 10
-0.9822428102683068
 20
-15.90613781123337
 30
0.0
 10
-0.9830251370714256
 20
-15.88955680553739
 30
0.0
 10
-0.9846036331398494
 20
-15.85610141042977
 30
0.0
 10
-1.001809224029203
 20
-15.80770961286916
 30
0.0
 10
-1.025935523469216
 20
-15.76003741348817
 30
0.0
 10
-1.061070637142468
 20
-15.71674477269832
 30
0.0
 10
-1.101687423041008
 20
-15.67850871368437
 30
0.0
 10
-1.147832399697963
 20
-15.6497673749673
 30
0.0
 10
-1.198403264292955
 20
-15.63287815559902
 30
0.0
 10
-1.23342328619113
 20
-15.63085936884524
 30
0.0
 10
-1.25110982435825
 20
-15.62983979926656
 30
0.0
  0
SPLINE
  5
77
330
1F
100
AcDbEntity
  8
0
  6
Continuous
 62
     7
370
    25
100
AcDbSpline
210
0.0
220
0.0
230
1.0
 70
     8
 71
     3
 72
    15
 73
    11
 74
     0
 42
0.00000001
 43
0.00000001
 40
0.0
 40
0.0
 40
0.0
 40
0.0
 40
0.1916220001244851
 40
0.357940226688625
 40
0.5015116601071831
 40
0.6230756547922944
 40
0.7274930945822056
 40
0.8202346546050564
 40
0.9079336491516278
 40
1.0
 40
1.0
 40
1.0
 40
1.0
 10
-1.46525767226406
 20
-16.13649874541596
 30
0.0
 10
-1.427398918625526
 20
-16.13599925793007
 30
0.0
 10
-1.356680677240285
 20
-16.13506624051134
 30
0.0
 10
-1.258010901083948
 20
-16.12457167149573
 30
0.0
 10
-1.17446072446604
 20
-16.10692316324496
 30
0.0
 10
-1.105373643695974
 20
-16.08253566560517
 30
0.0
 10
-1.050649724865323
 20
-16.0501622711915
 30
0.0
 10
-1.011155885639226
 20
-16.00925182118728
 30
0.0
 10
-0.9858692730160666
 20
-15.96020451141558
 30
0.0
 10
-0.9834710525825326
 20
-15.92444959700736
 30
0.0
 10
-0.9822428102683068
 20
-15.90613781123337
 30
0.0
  0
SPLINE
  5
78
330
1F
100
AcDbEntity
  8
0
  6
Continuous
 62
     7
370
    25
100
AcDbSpline
210
0.0
220
0.0
230
1.0
 70
     8
 71
     3
 72
    11
 73
     7
 74
     0
 42
0.00000001
 43
0.00000001
 40
0.0
 40
0.0
 40
0.0
 40
0.0
 40
0.3166056059560534
 40
0.5879243214602817
 40
0.815720757246372
 40
1.0
 40
1.0
 40
1.0
 40
1.0
 10
-1.900984365952537
 20
-16.11555684230845
 30
0.0
 10
-1.855059786286182
 20
-16.1189214487082
 30
0.0
 10
-1.769779624372568
 20
-16.12516939219798
 30
0.0
 10
-1.651277528358527
 20
-16.1307944023245
 30
0.0
 10
-1.551988622786679
 20
-16.13550628308947
 30
0.0
 10
-1.492058346350806
 20
-16.13619206528394
 30
0.0
 10
-1.46525767226406
 20
-16.13649874541595
 30
0.0
  0
SPLINE
  5
79
330
1F
100
AcDbEntity
  8
0
  6
Continuous
 62
     7
370
    25
100
AcDbSpline
210
0.0
220
0.0
230
1.0
 70
     8
 71
     3
 72
    11
 73
     7
 74
     0
 42
0.00000001
 43
0.00000001
 40
0.0
 40
0.0
 40
0.0
 40
0.0
 40
0.2092488255507931
 40
0.4453293215511567
 40
0.7096720287180175
 40
1.0
 40
1.0
 40
1.0
 40
1.0
 10
-2.429936305732503
 20
-16.09731712024707
 30
0.0
 10
-2.393005825198565
 20
-16.09658849345307
 30
0.0
 10
-2.314409322697552
 20
-16.09503780911835
 30
0.0
 10
-2.189173350522894
 20
-16.09859211350545
 30
0.0
 10
-2.049701890392083
 20
-16.10409776800699
 30
0.0
 10
-1.952081319987157
 20
-16.11161968833102
 30
0.0
 10
-1.900984365952537
 20
-16.11555684230845
 30
0.0
  0
LINE
  5
7A
330
1F
100
AcDbEntity
  8
0
  6
Continuous
 62
     7
370
    25
100
AcDbLine
 10
-2.5596409959
 20
-16.1020459371
 30
0.0
 11
-2.4299363057
 21
-16.0973171202
 31
0.0
  0
SPLINE
  5
7B
330
1F
100
AcDbEntity
  8
0
  6
Continuous
 62
     7
370
    25
100
AcDbSpline
210
0.0
220
0.0
230
1.0
 70
     8
 71
     3
 72
    11
 73
     7
 74
     0
 42
0.00000001
 43
0.00000001
 40
0.0
 40
0.0
 40
0.0
 40
0.0
 40
0.1980727154994748
 40
0.4287149341157818
 40
0.6979688512470256
 40
0.9999999999999999
 40
0.9999999999999999
 40
0.9999999999999999
 40
0.9999999999999999
 10
-2.78797529434474
 20
-16.11082802547772
 30
0.0
 10
-2.772887726031179
 20
-16.1106292188943
 30
0.0
 10
-2.740231709581841
 20
-16.11019891555292
 30
0.0
 10
-2.687075061942198
 20
-16.10889486820475
 30
0.0
 10
-2.626042780160949
 20
-16.10614850004661
 30
0.0
 10
-2.582605652767867
 20
-16.10346478375159
 30
0.0
 10
-2.559640995946747
 20
-16.1020459370778
 30
0.0
  0
SPLINE
  5
7C
330
1F
100
AcDbEntity
  8
0
  6
Continuous
 62
     7
370
    25
100
AcDbSpline
210
0.0
220
0.0
230
1.0
 70
     8
 71
     3
 72
    15
 73
    11
 74
     0
 42
0.00000001
 43
0.00000001
 40
0.0
 40
0.0
 40
0.0
 40
0.0
 40
0.1258595737479858
 40
0.237861732171943
 40
0.3456387923535489
 40
0.4518845333566903
 40
0.5661573641726504
 40
0.6929964046285613
 40
0.83649839762947
 40
1.0
 40
1.0
 40
1.0
 40
1.0
 10
-3.148040918741574
 20
-15.83520555877245
 30
0.0
 10
-3.147232293300643
 20
-15.85696327685986
 30
0.0
 10
-3.145704073854709
 20
-15.89808314051634
 30
0.0
 10
-3.128024809011741
 20
-15.95565070881903
 30
0.0
 10
-3.099577747671918
 20
-16.00480046626077
 30
0.0
 10
-3.058416837442344
 20
-16.04452370864744
 30
0.0
 10
-3.006520469427608
 20
-16.07549238307278
 30
0.0
 10
-2.942876656843055
 20
-16.09522362632038
 30
0.0
 10
-2.869215990974884
 20
-16.10942513267418
 30
0.0
 10
-2.816206617060141
 20
-16.1103405171092
 30
0.0
 10
-2.78797529434474
 20
-16.11082802547772
 30
0.0
  0
SPLINE
  5
7D
330
1F
100
AcDbEntity
  8
0
  6
Continuous
 62
     7
370
    25
100
AcDbSpline
210
0.0
220
0.0
230
1.0
 70
     8
 71
     3
 72
    15
 73
    11
 74
     0
 42
0.00000001
 43
0.00000001
 40
0.0
 40
0.0
 40
0.0
 40
0.0
 40
0.140741517631382
 40
0.2564657434645765
 40
0.3646438214024793
 40
0.4838649078415256
 40
0.6072286984942719
 40
0.7335886656398533
 40
0.8644263811424389
 40
0.9999999999999999
 40
0.9999999999999999
 40
0.9999999999999999
 40
0.9999999999999999
 10
-2.828508010036691
 20
-15.63929743292802
 30
0.0
 10
-2.848781304944845
 20
-15.63973629557931
 30
0.0
 10
-2.885724246435031
 20
-15.64053601152692
 30
0.0
 10
-2.938151585738995
 20
-15.63864654996879
 30
0.0
 10
-2.98783406755199
 20
-15.64082681785881
 30
0.0
 10
-3.036407264589114
 20
-15.65613203130255
 30
0.0
 10
-3.08366523374161
 20
-15.68221658565871
 30
0.0
 10
-3.11917549348602
 20
-15.72507263539498
 30
0.0
 10
-3.144488362298697
 20
-15.7768885663648
 30
0.0
 10
-3.146842782022025
 20
-15.81553754473783
 30
0.0
 10
-3.148040918741574
 20
-15.83520555877245
 30
0.0
  0
LINE
  5
7E
330
1F
100
AcDbEntity
  8
0
  6
Continuous
 62
     7
370
    25
100
AcDbLine
 10
-2.6717815094
 20
-15.6345686161
 30
0.0
 11
-2.82850801
 21
-15.6392974329
 31
0.0
  0
SPLINE
  5
7F
330
1F
100
AcDbEntity
  8
0
  6
Continuous
 62
     7
370
    25
100
AcDbSpline
210
0.0
220
0.0
230
1.0
 70
     8
 71
     3
 72
     9
 73
     5
 74
     0
 42
0.00000001
 43
0.00000001
 40
0.0
 40
0.0
 40
0.0
 40
0.0
 40
0.4667923253173851
 40
1.0
 40
1.0
 40
1.0
 40
1.0
 10
-2.518432734993264
 20
-15.62983979926657
 30
0.0
 10
-2.542305760449493
 20
-15.63016522483422
 30
0.0
 10
-2.593448472446734
 20
-15.63086237761504
 30
0.0
 10
-2.644539422621261
 20
-15.63327968777037
 30
0.0
 10
-2.671781509361146
 20
-15.63456861609729
 30
0.0
  0
LINE
  5
80
330
1F
100
AcDbEntity
  8
0
  6
Continuous
 62
     7
370
    25
100
AcDbLine
 10
-2.2657788072
 20
-15.6298397993
 30
0.0
 11
-2.518432735
 21
-15.6298397993
 31
0.0
  0
SPLINE
  5
81
330
1F
100
AcDbEntity
  8
0
  6
Continuous
 62
     7
370
    25
100
AcDbSpline
210
0.0
220
0.0
230
1.0
 70
     8
 71
     3
 72
     9
 73
     5
 74
     0
 42
0.00000001
 43
0.00000001
 40
0.0
 40
0.0
 40
0.0
 40
0.0
 40
0.4448760957478759
 40
1.0
 40
1.0
 40
1.0
 40
1.0
 10
-2.281316348195348
 20
-15.48121984172941
 30
0.0
 10
-2.279400889678322
 20
-15.50329913621653
 30
0.0
 10
-2.27509528968018
 20
-15.55292934718574
 30
0.0
 10
-2.269104459962621
 20
-15.60238550426141
 30
0.0
 10
-2.2657788071801
 20
-15.62983979926656
 30
0.0
  0
SPLINE
  5
82
330
1F
100
AcDbEntity
  8
0
  6
Continuous
 62
     7
370
    25
100
AcDbSpline
210
0.0
220
0.0
230
1.0
 70
     8
 71
     3
 72
    39
 73
    35
 74
     0
 42
0.00000001
 43
0.00000001
 40
0.0
 40
0.0
 40
0.0
 40
0.0
 40
0.0093493509745962
 40
0.019840117404064
 40
0.0320416574796983
 40
0.0469238973567561
 40
0.0643570360543089
 40
0.0845621551379953
 40
0.1078885722862572
 40
0.1340593866705662
 40
0.1633402358576382
 40
0.1956792784324647
 40
0.2311821124376501
 40
0.2697949766740866
 40
0.3116013371524869
 40
0.3565494222640126
 40
0.40470884285092
 40
0.4560308155976004
 40
0.5077879505975228
 40
0.5570015923190184
 40
0.6041089525564357
 40
0.6486726837037722
 40
0.6908877732345183
 40
0.7308038721904125
 40
0.7681763139741689
 40
0.8034029529689126
 40
0.836131146990459
 40
0.8667629647530232
 40
0.8948110176768117
 40
0.920563666387882
 40
0.944021733260245
 40
0.9649051863152737
 40
0.9837183254881922
 40
0.9999999999999999
 40
0.9999999999999999
 40
0.9999999999999999
 40
0.9999999999999999
 10
-2.983883420189172
 20
-12.91212121212122
 30
0.0
 10
-2.975374853456735
 20
-12.91288175142586
 30
0.0
 10
-2.957318951675901
 20
-12.91449568047134
 30
0.0
 10
-2.932017148928435
 20
-12.92998688880101
 30
0.0
 10
-2.906413714237055
 20
-12.9522252122428
 30
0.0
 10
-2.881404840791459
 20
-12.9839512549087
 30
0.0
 10
-2.854882777317472
 20
-13.02325579810399
 30
0.0
 10
-2.8286139865771
 20
-13.07173516052484
 30
0.0
 10
-2.802859364154427
 20
-13.12917074366256
 30
0.0
 10
-2.775743720224784
 20
-13.1949281558216
 30
0.0
 10
-2.748030420385365
 20
-13.26920604793879
 30
0.0
 10
-2.720675715035973
 20
-13.35252364259537
 30
0.0
 10
-2.692108717021017
 20
-13.44429556157021
 30
0.0
 10
-2.664107156444743
 20
-13.54514385604473
 30
0.0
 10
-2.634821420960477
 20
-13.65447508280021
 30
0.0
 10
-2.606133544826315
 20
-13.77285531253067
 30
0.0
 10
-2.576172862524365
 20
-13.89975920596958
 30
0.0
 10
-2.547240521438932
 20
-14.03320246018886
 30
0.0
 10
-2.519044674362008
 20
-14.16776840047591
 30
0.0
 10
-2.490841975524086
 20
-14.29844653025005
 30
0.0
 10
-2.465659727113135
 20
-14.42312061108409
 30
0.0
 10
-2.440951839332631
 20
-14.54144122042011
 30
0.0
 10
-2.418825653840811
 20
-14.65366244445261
 30
0.0
 10
-2.398108922776274
 20
-14.75953999398948
 30
0.0
 10
-2.377742255303803
 20
-14.85906503568066
 30
0.0
 10
-2.3617725993249
 20
-14.95281340861822
 30
0.0
 10
-2.344864666673636
 20
-15.04019985928272
 30
0.0
 10
-2.330877415609661
 20
-15.12153336067107
 30
0.0
 10
-2.318744866330299
 20
-15.19678708190555
 30
0.0
 10
-2.307940669756459
 20
-15.26569433473357
 30
0.0
 10
-2.298361154321396
 20
-15.32824611702608
 30
0.0
 10
-2.290725893275705
 20
-15.38475551290608
 30
0.0
 10
-2.285478597742712
 20
-15.43502462071524
 30
0.0
 10
-2.282635402781326
 20
-15.46658015772305
 30
0.0
 10
-2.281316348195348
 20
-15.48121984172941
 30
0.0
  0
SPLINE
  5
83
330
1F
100
AcDbEntity
  8
0
  6
Continuous
 62
     7
370
    25
100
AcDbSpline
210
0.0
220
0.0
230
1.0
 70
     8
 71
     3
 72
    19
 73
    15
 74
     0
 42
0.00000001
 43
0.00000001
 40
0.0
 40
0.0
 40
0.0
 40
0.0
 40
0.0498217734027672
 40
0.1001814641042667
 40
0.1520950174305471
 40
0.2065469560827408
 40
0.2654287387895941
 40
0.3284296518503748
 40
0.3966680509353724
 40
0.4700961362411521
 40
0.6165492284851289
 40
0.7515717988977701
 40
0.8778787462959468
 40
1.0
 40
1.0
 40
1.0
 40
1.0
 10
-3.654024319629434
 20
-13.42350897510134
 30
0.0
 10
-3.653430457786927
 20
-13.40835359880203
 30
0.0
 10
-3.652236322275591
 20
-13.37787921615726
 30
0.0
 10
-3.640625442116006
 20
-13.33286907472799
 30
0.0
 10
-3.622933716265411
 20
-13.28859044169416
 30
0.0
 10
-3.598106581867835
 20
-13.24479602835534
 30
0.0
 10
-3.566099742422601
 20
-13.20174383838966
 30
0.0
 10
-3.527286403972878
 20
-13.15887930520937
 30
0.0
 10
-3.481048586083425
 20
-13.11721329784836
 30
0.0
 10
-3.41191879418117
 20
-13.06353925126023
 30
0.0
 10
-3.321377322494314
 20
-13.00446757670458
 30
0.0
 10
-3.209136570928573
 20
-12.95147921606425
 30
0.0
 10
-3.0965830723968
 20
-12.91804746181754
 30
0.0
 10
-3.021025622508161
 20
-12.91407431455679
 30
0.0
 10
-2.983883420189172
 20
-12.91212121212122
 30
0.0
  0
LINE
  5
84
330
1F
100
AcDbEntity
  8
0
  6
Continuous
 62
     7
370
    25
100
AcDbLine
 10
-3.6452422312
 20
-13.5410538506
 30
0.0
 11
-3.6540243196
 21
-13.4235089751
 31
0.0
  0
SPLINE
  5
85
330
1F
100
AcDbEntity
  8
0
  6
Continuous
 62
     7
370
    25
100
AcDbSpline
210
0.0
220
0.0
230
1.0
 70
     8
 71
     3
 72
    15
 73
    11
 74
     0
 42
0.00000001
 43
0.00000001
 40
0.0
 40
0.0
 40
0.0
 40
0.0
 40
0.1461990055245727
 40
0.2738736048370601
 40
0.3921042991794119
 40
0.5020154375737732
 40
0.611926575968136
 40
0.7282340725460313
 40
0.8559086718585187
 40
1.0
 40
1.0
 40
1.0
 40
1.0
 10
-3.84317699285854
 20
-13.73763752171397
 30
0.0
 10
-3.827597244512996
 20
-13.73696126390126
 30
0.0
 10
-3.798411807672717
 20
-13.73569443473028
 30
0.0
 10
-3.757263243771666
 20
-13.72710337091448
 30
0.0
 10
-3.722257907290009
 20
-13.71169203288411
 30
0.0
 10
-3.69349657580366
 20
-13.68937256857146
 30
0.0
 10
-3.671385054281681
 20
-13.66075878127615
 30
0.0
 10
-3.655618456326632
 20
-13.62614023887169
 30
0.0
 10
-3.647268360646702
 20
-13.58534974394679
 30
0.0
 10
-3.645944269428392
 20
-13.55640203563188
 30
0.0
 10
-3.645242231229511
 20
-13.541053850608
 30
0.0
  0
SPLINE
  5
86
330
1F
100
AcDbEntity
  8
0
  6
Continuous
 62
     7
370
    25
100
AcDbSpline
210
0.0
220
0.0
230
1.0
 70
     8
 71
     3
 72
    15
 73
    11
 74
     0
 42
0.00000001
 43
0.00000001
 40
0.0
 40
0.0
 40
0.0
 40
0.0
 40
0.168610338952499
 40
0.3169966955937737
 40
0.4468748457666673
 40
0.5618386826088282
 40
0.6681878008443562
 40
0.7723547019001155
 40
0.8807744859485256
 40
1.0
 40
1.0
 40
1.0
 40
1.0
 10
-4.126230457440667
 20
-13.33636363636365
 30
0.0
 10
-4.125298960680186
 20
-13.36770430504321
 30
0.0
 10
-4.123547695622165
 20
-13.42662648307122
 30
0.0
 10
-4.111440576454101
 20
-13.50908594636264
 30
0.0
 10
-4.089491887451076
 20
-13.57918259284315
 30
0.0
 10
-4.058236011685637
 20
-13.63704407216829
 30
0.0
 10
-4.017435606758982
 20
-13.68259155527585
 30
0.0
 10
-3.967238918132052
 20
-13.71531958439063
 30
0.0
 10
-3.907822497941806
 20
-13.73480173561239
 30
0.0
 10
-3.86539677412773
 20
-13.73666281284871
 30
0.0
 10
-3.84317699285854
 20
-13.73763752171397
 30
0.0
  0
SPLINE
  5
87
330
1F
100
AcDbEntity
  8
0
  6
Continuous
 62
     7
370
    25
100
AcDbSpline
210
0.0
220
0.0
230
1.0
 70
     8
 71
     3
 72
    23
 73
    19
 74
     0
 42
0.00000001
 43
0.00000001
 40
0.0
 40
0.0
 40
0.0
 40
0.0
 40
0.062915147969567
 40
0.1250183726599396
 40
0.1877276193599702
 40
0.2505820030660118
 40
0.3152178044575265
 40
0.3807597946006762
 40
0.4486630352421072
 40
0.5188704636736482
 40
0.5882058383982459
 40
0.6539508193412162
 40
0.7160335309923204
 40
0.7751095875174924
 40
0.8323390591784469
 40
0.8881944003400514
 40
0.943669553252147
 40
1.0
 40
1.0
 40
1.0
 40
1.0
 10
-3.058868944219281
 20
-12.44059061957152
 30
0.0
 10
-3.090888285958152
 20
-12.44130613823869
 30
0.0
 10
-3.154513758154014
 20
-12.44272794176715
 30
0.0
 10
-3.249279448914458
 20
-12.45616810230902
 30
0.0
 10
-3.342336054566077
 20
-12.47783027619428
 30
0.0
 10
-3.434573422907429
 20
-12.5075776311144
 30
0.0
 10
-3.524518598651971
 20
-12.54724691455512
 30
0.0
 10
-3.614024895005166
 20
-12.59376560389307
 30
0.0
 10
-3.700877594826362
 20
-12.65047414186576
 30
0.0
 10
-3.785563520548939
 20
-12.71353723381204
 30
0.0
 10
-3.864489908713931
 20
-12.78210266201682
 30
0.0
 10
-3.934332394931245
 20
-12.85427732891642
 30
0.0
 10
-3.993608766874173
 20
-12.92882370952763
 30
0.0
 10
-4.042253662933394
 20
-13.00565740883346
 30
0.0
 10
-4.079759844064037
 20
-13.08508924117995
 30
0.0
 10
-4.106049509822634
 20
-13.16686759237665
 30
0.0
 10
-4.123249652021491
 20
-13.25075419160793
 30
0.0
 10
-4.125231801265991
 20
-13.30768199211213
 30
0.0
 10
-4.126230457440667
 20
-13.33636363636365
 30
0.0
  0
SPLINE
  5
88
330
1F
100
AcDbEntity
  8
0
  6
Continuous
 62
     7
370
    25
100
AcDbSpline
210
0.0
220
0.0
230
1.0
 70
     8
 71
     3
 72
    39
 73
    35
 74
     0
 42
0.00000001
 43
0.00000001
 40
0.0
 40
0.0
 40
0.0
 40
0.0
 40
0.026907033703635
 40
0.0573008759289991
 40
0.0908531221368262
 40
0.1279003259496057
 40
0.1680856019445522
 40
0.2118069678347691
 40
0.2588307226058121
 40
0.3092387896199532
 40
0.3603617880783339
 40
0.4093337133346184
 40
0.4564501149038696
 40
0.5016241838935379
 40
0.5447764838871412
 40
0.5858706479468865
 40
0.625052209505029
 40
0.6624621641450478
 40
0.6976835093470266
 40
0.7302232177712523
 40
0.7600901481141479
 40
0.7876174111002658
 40
0.8126839263318777
 40
0.8353701698530724
 40
0.8556276615356551
 40
0.8739198184966372
 40
0.890837595303976
 40
0.9071985978719167
 40
0.9230149960644916
 40
0.9385299308616091
 40
0.9538768641833556
 40
0.9691450274384327
 40
0.9843419485511145
 40
1.0
 40
1.0
 40
1.0
 40
1.0
 10
-1.83478093032235
 20
-15.39137232194558
 30
0.0
 10
-1.838791816804877
 20
-15.36141786503555
 30
0.0
 10
-1.847333349522011
 20
-15.29762723549876
 30
0.0
 10
-1.861790666483603
 20
-15.19659829538653
 30
0.0
 10
-1.881459571655166
 20
-15.08487064871703
 30
0.0
 10
-1.902612259490589
 20
-14.9622481010431
 30
0.0
 10
-1.927900689868735
 20
-14.82875993797424
 30
0.0
 10
-1.956426378385277
 20
-14.68449213449529
 30
0.0
 10
-1.987156797746673
 20
-14.52895199871113
 30
0.0
 10
-2.021845987446904
 20
-14.36573391641217
 30
0.0
 10
-2.058360774253332
 20
-14.20068052978194
 30
0.0
 10
-2.095087786663549
 20
-14.0394506967431
 30
0.0
 10
-2.134101400513267
 20
-13.88564832155209
 30
0.0
 10
-2.171987478304307
 20
-13.738304550937
 30
0.0
 10
-2.211976274218007
 20
-13.59852773514218
 30
0.0
 10
-2.252760781065682
 20
-13.46602514552988
 30
0.0
 10
-2.292913424849286
 20
-13.34007736942515
 30
0.0
 10
-2.334598137551145
 20
-13.2215799536603
 30
0.0
 10
-2.377198661168122
 20
-13.11139760342574
 30
0.0
 10
-2.418396834473412
 20
-13.00973999212123
 30
0.0
 10
-2.461404690338527
 20
-12.91830015680897
 30
0.0
 10
-2.503568291212086
 20
-12.83580187832074
 30
0.0
 10
-2.54608804376779
 20
-12.76267136810946
 30
0.0
 10
-2.588245162064434
 20
-12.69887735998461
 30
0.0
 10
-2.631135935889251
 20
-12.64500747035749
 30
0.0
 10
-2.673961715583962
 20
-12.59960529994424
 30
0.0
 10
-2.718185161865352
 20
-12.56207821968193
 30
0.0
 10
-2.762609309314342
 20
-12.52929655308586
 30
0.0
 10
-2.808937663107144
 20
-12.50220813239106
 30
0.0
 10
-2.85639868821458
 20
-12.47981073744584
 30
0.0
 10
-2.905144033480824
 20
-12.46192090498379
 30
0.0
 10
-2.955297517989286
 20
-12.45006910842016
 30
0.0
 10
-3.006605382575085
 20
-12.44219415667854
 30
0.0
 10
-3.041275043273538
 20
-12.44113043109864
 30
0.0
 10
-3.058868944219281
 20
-12.44059061957152
 30
0.0
  0
LINE
  5
89
330
1F
100
AcDbEntity
  8
0
  6
Continuous
 62
     7
370
    25
100
AcDbLine
 10
-1.803030303
 20
-15.6595637908
 30
0.0
 11
-1.8347809303
 21
-15.3913723219
 31
0.0
  0
SPLINE
  5
8A
330
1F
100
AcDbEntity
  8
0
  6
Continuous
 62
     7
370
    25
100
AcDbSpline
210
0.0
220
0.0
230
1.0
 70
     8
 71
     3
 72
    23
 73
    19
 74
     0
 42
0.00000001
 43
0.00000001
 40
0.0
 40
0.0
 40
0.0
 40
0.0
 40
0.0697194321990904
 40
0.1368592370292783
 40
0.2017752092494655
 40
0.2636069602059882
 40
0.3245182954369648
 40
0.3838819149368227
 40
0.4419362335286407
 40
0.4996022616654475
 40
0.5572014629002647
 40
0.6156936425283399
 40
0.6747455686864459
 40
0.735598915701626
 40
0.7978780446891169
 40
0.8627396090598716
 40
0.9297645876593725
 40
1.0
 40
1.0
 40
1.0
 40
1.0
 10
4.30727658753134
 20
-15.41366531557616
 30
0.0
 10
4.306713415048915
 20
-15.38595291837928
 30
0.0
 10
4.305607907533585
 20
-15.33155348601175
 30
0.0
 10
4.298224961364071
 20
-15.25160731499926
 30
0.0
 10
4.285449602485648
 20
-15.17554012346516
 30
0.0
 10
4.267788452313457
 20
-15.10300129906365
 30
0.0
 10
4.245049101726721
 20
-15.03418131369333
 30
0.0
 10
4.216535034466628
 20
-14.96917329680343
 30
0.0
 10
4.183153957696372
 20
-14.90803488043552
 30
0.0
 10
4.145472202282939
 20
-14.85023913983548
 30
0.0
 10
4.101747730039057
 20
-14.79662936214755
 30
0.0
 10
4.053156774760827
 20
-14.7466562397116
 30
0.0
 10
3.999274325288034
 20
-14.7004233545321
 30
0.0
 10
3.940549118942072
 20
-14.65790991473922
 30
0.0
 10
3.876493235060849
 20
-14.61928304037289
 30
0.0
 10
3.807668322662691
 20
-14.58423492483385
 30
0.0
 10
3.733573948678505
 20
-14.55295526688684
 30
0.0
 10
3.681844892961127
 20
-14.53557022215228
 30
0.0
 10
3.655375410152456
 20
-14.52667438718395
 30
0.0
  0
SPLINE
  5
8B
330
1F
100
AcDbEntity
  8
0
  6
Continuous
 62
     7
370
    25
100
AcDbSpline
210
0.0
220
0.0
230
1.0
 70
     8
 71
     3
 72
    23
 73
    19
 74
     0
 42
0.00000001
 43
0.00000001
 40
0.0
 40
0.0
 40
0.0
 40
0.0
 40
0.0835143120861707
 40
0.1617456236590107
 40
0.2365030117722101
 40
0.3065489345413463
 40
0.3732218932124768
 40
0.4361713479796279
 40
0.4973581325172308
 40
0.5558067263786024
 40
0.6122181544029237
 40
0.6670053341742259
 40
0.7205195503189342
 40
0.7741093448805321
 40
0.8278123076341105
 40
0.8825994874054142
 40
0.9400726512590784
 40
0.9999999999999999
 40
0.9999999999999999
 40
0.9999999999999999
 40
0.9999999999999999
 10
3.347326770893625
 20
-16.11555684230845
 30
0.0
 10
3.38472598967481
 20
-16.11513018628581
 30
0.0
 10
3.457158604097605
 20
-16.11430386391369
 30
0.0
 10
3.562755520563556
 20
-16.10529530958878
 30
0.0
 10
3.661615203093782
 20
-16.09072036658765
 30
0.0
 10
3.754137445770343
 20
-16.07031505221294
 30
0.0
 10
3.8400635722989
 20
-16.04523281364457
 30
0.0
 10
3.919308446968648
 20
-16.01296449947895
 30
0.0
 10
3.992123951048594
 20
-15.97554625192118
 30
0.0
 10
4.058149645031841
 20
-15.93219527052328
 30
0.0
 10
4.116565927406873
 20
-15.88336917369932
 30
0.0
 10
4.167366656210368
 20
-15.82972691600798
 30
0.0
 10
4.211478809019347
 20
-15.77196708701264
 30
0.0
 10
4.246514039947968
 20
-15.70878869594937
 30
0.0
 10
4.273573482705607
 20
-15.641294685728
 30
0.0
 10
4.293513260325793
 20
-15.56954823003694
 30
0.0
 10
4.304853511985738
 20
-15.49306585410215
 30
0.0
 10
4.306457717376627
 20
-15.44049845801992
 30
0.0
 10
4.30727658753134
 20
-15.41366531557616
 30
0.0
  0
SPLINE
  5
8C
330
1F
100
AcDbEntity
  8
0
  6
Continuous
 62
     7
370
    25
100
AcDbSpline
210
0.0
220
0.0
230
1.0
 70
     8
 71
     3
 72
    23
 73
    19
 74
     0
 42
0.00000001
 43
0.00000001
 40
0.0
 40
0.0
 40
0.0
 40
0.0
 40
0.0432410793326855
 40
0.087812963696281
 40
0.1365396756849674
 40
0.1898275962522959
 40
0.2507520703639338
 40
0.3184782167495054
 40
0.3944414596437918
 40
0.4790620466209649
 40
0.564576829122105
 40
0.6443826897821839
 40
0.7176674832148109
 40
0.7854330733029656
 40
0.8472602243866303
 40
0.9033336346314651
 40
0.9545730175489385
 40
1.0
 40
1.0
 40
1.0
 40
1.0
 10
2.419803126809471
 20
-15.58457826674388
 30
0.0
 10
2.42073061918023
 20
-15.60097066719541
 30
0.0
 10
2.422614148803886
 20
-15.63425996727671
 30
0.0
 10
2.442355558058256
 20
-15.68257170083247
 30
0.0
 10
2.470549521345091
 20
-15.73033601544426
 30
0.0
 10
2.51219633689001
 20
-15.77603639484789
 30
0.0
 10
2.564241007221729
 20
-15.82092501547495
 30
0.0
 10
2.627902218998585
 20
-15.86481304725631
 30
0.0
 10
2.702547865225265
 20
-15.9079268997305
 30
0.0
 10
2.786002694533599
 20
-15.94871702353125
 30
0.0
 10
2.872240461287236
 20
-15.98689450017317
 30
0.0
 10
2.95583391635714
 20
-16.02030209693779
 30
0.0
 10
3.033709069916197
 20
-16.04997907669847
 30
0.0
 10
3.106551481261683
 20
-16.07355441488847
 30
0.0
 10
3.174134478040378
 20
-16.09213554090678
 30
0.0
 10
3.236666808074788
 20
-16.10489658984943
 30
0.0
 10
3.293709297130961
 20
-16.11374506470615
 30
0.0
 10
3.330185362959602
 20
-16.11497762033495
 30
0.0
 10
3.347326770893625
 20
-16.11555684230845
 30
0.0
  0
SPLINE
  5
8D
330
1F
100
AcDbEntity
  8
0
  6
Continuous
 62
     7
370
    25
100
AcDbSpline
210
0.0
220
0.0
230
1.0
 70
     8
 71
     3
 72
    15
 73
    11
 74
     0
 42
0.00000001
 43
0.00000001
 40
0.0
 40
0.0
 40
0.0
 40
0.0
 40
0.1302898199603539
 40
0.2541951357712779
 40
0.3774519404060075
 40
0.5027241959367812
 40
0.6285549929561554
 40
0.7486627186433275
 40
0.8719398408920801
 40
0.9999999999999999
 40
0.9999999999999999
 40
0.9999999999999999
 40
0.9999999999999999
 10
2.608955800038578
 20
-15.39069677668405
 30
0.0
 10
2.595812923849865
 20
-15.39124947557167
 30
0.0
 10
2.570171202967668
 20
-15.39232778981618
 30
0.0
 10
2.533492137184132
 20
-15.40364844442573
 30
0.0
 10
2.500545366631501
 20
-15.42210557886038
 30
0.0
 10
2.47245276651681
 20
-15.44750033834323
 30
0.0
 10
2.44861480061771
 20
-15.47657597277027
 30
0.0
 10
2.432244798258567
 20
-15.5101858391457
 30
0.0
 10
2.421596005860866
 20
-15.54632338197416
 30
0.0
 10
2.420408287393322
 20
-15.57166587960636
 30
0.0
 10
2.419803126809471
 20
-15.58457826674388
 30
0.0
  0
SPLINE
  5
8E
330
1F
100
AcDbEntity
  8
0
  6
Continuous
 62
     7
370
    25
100
AcDbSpline
210
0.0
220
0.0
230
1.0
 70
     8
 71
     3
 72
    11
 73
     7
 74
     0
 42
0.00000001
 43
0.00000001
 40
0.0
 40
0.0
 40
0.0
 40
0.0
 40
0.3589555622813508
 40
0.6492097364894736
 40
0.8591189468461423
 40
0.9999999999999999
 40
0.9999999999999999
 40
0.9999999999999999
 40
0.9999999999999999
 10
2.733931673422095
 20
-15.44338930708359
 30
0.0
 10
2.71958240880763
 20
-15.43560202202336
 30
0.0
 10
2.693630220631557
 20
-15.42151787954682
 30
0.0
 10
2.658476991117458
 20
-15.40458245247038
 30
0.0
 10
2.6311181794919
 20
-15.39397616751978
 30
0.0
 10
2.615306097995679
 20
-15.39163643702009
 30
0.0
 10
2.608955800038578
 20
-15.39069677668405
 30
0.0
  0
LINE
  5
8F
330
1F
100
AcDbEntity
  8
0
  6
Continuous
 62
     7
370
    25
100
AcDbLine
 10
3.0190117738
 20
-15.600791353
 30
0.0
 11
2.7339316734
 21
-15.4433893071
 31
0.0
  0
SPLINE
  5
90
330
1F
100
AcDbEntity
  8
0
  6
Continuous
 62
     7
370
    25
100
AcDbSpline
210
0.0
220
0.0
230
1.0
 70
     8
 71
     3
 72
    11
 73
     7
 74
     0
 42
0.00000001
 43
0.00000001
 40
0.0
 40
0.0
 40
0.0
 40
0.0
 40
0.2421160371997906
 40
0.4877208040116986
 40
0.73956450593912
 40
1.0
 40
1.0
 40
1.0
 40
1.0
 10
3.331789229878377
 20
-15.67577687705078
 30
0.0
 10
3.305596300590306
 20
-15.67488177271568
 30
0.0
 10
3.252833019481178
 20
-15.67307866619273
 30
0.0
 10
3.174150680564017
 20
-15.65777042766036
 30
0.0
 10
3.095071121242881
 20
-15.63559580152882
 30
0.0
 10
3.044646790163214
 20
-15.61252183240648
 30
0.0
 10
3.019011773788819
 20
-15.60079135302066
 30
0.0
  0
SPLINE
  5
91
330
1F
100
AcDbEntity
  8
0
  6
Continuous
 62
     7
370
    25
100
AcDbSpline
210
0.0
220
0.0
230
1.0
 70
     8
 71
     3
 72
    19
 73
    15
 74
     0
 42
0.00000001
 43
0.00000001
 40
0.0
 40
0.0
 40
0.0
 40
0.0
 40
0.0526670055467874
 40
0.1044208296949955
 40
0.1540242939301744
 40
0.2031361529779505
 40
0.2543192822760963
 40
0.3066619805178695
 40
0.3609136086786602
 40
0.4190513747443896
 40
0.5432606897889737
 40
0.6795496262468119
 40
0.8309408203318831
 40
1.0
 40
1.0
 40
1.0
 40
1.0
 10
3.887762980119644
 20
-15.32719552209999
 30
0.0
 10
3.887494805618938
 20
-15.34007128445567
 30
0.0
 10
3.886963106435053
 20
-15.36559955921092
 30
0.0
 10
3.87909268390939
 20
-15.40255184434697
 30
0.0
 10
3.867546482709289
 20
-15.43744891734863
 30
0.0
 10
3.851908405294821
 20
-15.47068891499293
 30
0.0
 10
3.830647029927174
 20
-15.5014006786154
 30
0.0
 10
3.805758469170613
 20
-15.53092248853364
 30
0.0
 10
3.77520226833647
 20
-15.55721939904106
 30
0.0
 10
3.728599305041323
 20
-15.59143199963398
 30
0.0
 10
3.658208609888375
 20
-15.62586291170969
 30
0.0
 10
3.561841631020755
 20
-15.65542616908213
 30
0.0
 10
3.451284214396676
 20
-15.67257939586227
 30
0.0
 10
3.373058545085655
 20
-15.67467258083642
 30
0.0
 10
3.331789229878377
 20
-15.67577687705077
 30
0.0
  0
SPLINE
  5
92
330
1F
100
AcDbEntity
  8
0
  6
Continuous
 62
     7
370
    25
100
AcDbSpline
210
0.0
220
0.0
230
1.0
 70
     8
 71
     3
 72
    15
 73
    11
 74
     0
 42
0.00000001
 43
0.00000001
 40
0.0
 40
0.0
 40
0.0
 40
0.0
 40
0.123385766484794
 40
0.2455464297356827
 40
0.3675229244674529
 40
0.4934379402825981
 40
0.6182213526732704
 40
0.740841227053463
 40
0.8670746662443334
 40
1.0
 40
1.0
 40
1.0
 40
1.0
 10
3.499999999999976
 20
-14.86444701795022
 30
0.0
 10
3.525979825024758
 20
-14.87146849647164
 30
0.0
 10
3.577681520137048
 20
-14.88544173691518
 30
0.0
 10
3.649569438864193
 20
-14.92164770218028
 30
0.0
 10
3.71598594956401
 20
-14.96750820968618
 30
0.0
 10
3.775849149650631
 20
-15.02276472394556
 30
0.0
 10
3.8254290337726
 20
-15.08767211070094
 30
0.0
 10
3.862405019005256
 20
-15.1606808797122
 30
0.0
 10
3.88339564301816
 20
-15.24183063283781
 30
0.0
 10
3.886282354580596
 20
-15.29825490399734
 30
0.0
 10
3.887762980119643
 20
-15.32719552209999
 30
0.0
  0
LINE
  5
93
330
1F
100
AcDbEntity
  8
0
  6
Continuous
 62
     7
370
    25
100
AcDbLine
 10
2.9345686161
 20
-14.7320401467
 30
0.0
 11
3.5
 21
-14.864447018
 31
0.0
  0
SPLINE
  5
94
330
1F
100
AcDbEntity
  8
0
  6
Continuous
 62
     7
370
    25
100
AcDbSpline
210
0.0
220
0.0
230
1.0
 70
     8
 71
     3
 72
    15
 73
    11
 74
     0
 42
0.00000001
 43
0.00000001
 40
0.0
 40
0.0
 40
0.0
 40
0.0
 40
0.1120170871070182
 40
0.2185649905652614
 40
0.327734268033484
 40
0.4394153751179687
 40
0.5600768949542659
 40
0.6928412336650716
 40
0.8383633841030356
 40
1.0
 40
1.0
 40
1.0
 40
1.0
 10
2.704207681914664
 20
-14.49289712410733
 30
0.0
 10
2.70474848309453
 20
-14.50626819243442
 30
0.0
 10
2.705803681081085
 20
-14.53235749272096
 30
0.0
 10
2.717406465975041
 20
-14.57001631548472
 30
0.0
 10
2.735719138415678
 20
-14.60464189160037
 30
0.0
 10
2.761499189633392
 20
-14.63639536871352
 30
0.0
 10
2.794554125257547
 20
-14.66491019302412
 30
0.0
 10
2.834817257316046
 20
-14.69030120279071
 30
0.0
 10
2.881873612030149
 20
-14.71354943699941
 30
0.0
 10
2.916399831900761
 20
-14.72566470901879
 30
0.0
 10
2.934568616097254
 20
-14.73204014668984
 30
0.0
  0
SPLINE
  5
95
330
1F
100
AcDbEntity
  8
0
  6
Continuous
 62
     7
370
    25
100
AcDbSpline
210
0.0
220
0.0
230
1.0
 70
     8
 71
     3
 72
    15
 73
    11
 74
     0
 42
0.00000001
 43
0.00000001
 40
0.0
 40
0.0
 40
0.0
 40
0.0
 40
0.1690579909633738
 40
0.3198457014788704
 40
0.4514272538489435
 40
0.5684733721135137
 40
0.677603443464368
 40
0.7812951793945583
 40
0.8864571518181893
 40
1.0
 40
1.0
 40
1.0
 40
1.0
 10
2.925786527697331
 20
-14.3219841729396
 30
0.0
 10
2.908368298417594
 20
-14.3240062172985
 30
0.0
 10
2.875414246788619
 20
-14.32783178148926
 30
0.0
 10
2.830104060437248
 20
-14.34012634174869
 30
0.0
 10
2.791659647043633
 20
-14.3555954789822
 30
0.0
 10
2.759366602026207
 20
-14.37435288069154
 30
0.0
 10
2.734766498961403
 20
-14.39850919107273
 30
0.0
 10
2.716290887581333
 20
-14.42613905938251
 30
0.0
 10
2.705964816058084
 20
-14.45842572289381
 30
0.0
 10
2.704808167739018
 20
-14.48111681248351
 30
0.0
 10
2.704207681914664
 20
-14.49289712410733
 30
0.0
  0
SPLINE
  5
96
330
1F
100
AcDbEntity
  8
0
  6
Continuous
 62
     7
370
    25
100
AcDbSpline
210
0.0
220
0.0
230
1.0
 70
     8
 71
     3
 72
    23
 73
    19
 74
     0
 42
0.00000001
 43
0.00000001
 40
0.0
 40
0.0
 40
0.0
 40
0.0
 40
0.0615886646090866
 40
0.1198769400501162
 40
0.1769382500548413
 40
0.2321626040466874
 40
0.2874778923237221
 40
0.3425418372379068
 40
0.3995714298705713
 40
0.4574964271670727
 40
0.5173569410229055
 40
0.5784737553263967
 40
0.6419970738504776
 40
0.7077014548610134
 40
0.7754871364929151
 40
0.8473077737492025
 40
0.9220581495610476
 40
1.0
 40
1.0
 40
1.0
 40
1.0
 10
3.660104226983183
 20
-13.70386025863734
 30
0.0
 10
3.659373419634667
 20
-13.72572988162167
 30
0.0
 10
3.657950967154777
 20
-13.76829718682385
 30
0.0
 10
3.649223380605645
 20
-13.83067366861681
 30
0.0
 10
3.633753480978868
 20
-13.88939668704975
 30
0.0
 10
3.61173291702187
 20
-13.94481960177526
 30
0.0
 10
3.584239816568725
 20
-13.99697000920019
 30
0.0
 10
3.549767589095009
 20
-14.04559555579059
 30
0.0
 10
3.509367856430161
 20
-14.09064496850046
 30
0.0
 10
3.462894378260279
 20
-14.13195360961909
 30
0.0
 10
3.411792836907015
 20
-14.16988599791014
 30
0.0
 10
3.355055061695003
 20
-14.20287459670604
 30
0.0
 10
3.294222215662042
 20
-14.23241629584773
 30
0.0
 10
3.229459699030255
 20
-14.25910213023214
 30
0.0
 10
3.159671694697157
 20
-14.28048181980352
 30
0.0
 10
3.08572149268168
 20
-14.29865600050062
 30
0.0
 10
3.0072090925925
 20
-14.31295087403707
 30
0.0
 10
2.953302953138452
 20
-14.31893140622734
 30
0.0
 10
2.925786527697331
 20
-14.3219841729396
 30
0.0
  0
SPLINE
  5
97
330
1F
100
AcDbEntity
  8
0
  6
Continuous
 62
     7
370
    25
100
AcDbSpline
210
0.0
220
0.0
230
1.0
 70
     8
 71
     3
 72
    23
 73
    19
 74
     0
 42
0.00000001
 43
0.00000001
 40
0.0
 40
0.0
 40
0.0
 40
0.0
 40
0.0636517286596565
 40
0.1259225877164426
 40
0.187342577227089
 40
0.2486786956799338
 40
0.310952616460008
 40
0.3736506620361411
 40
0.4380616826990308
 40
0.503765125772701
 40
0.5693552994824462
 40
0.631870622563247
 40
0.6928888544146558
 40
0.7528670877400631
 40
0.8129564772417573
 40
0.873777537361946
 40
0.9357045255218177
 40
1.0
 40
1.0
 40
1.0
 40
1.0
 10
2.925786527697331
 20
-13.0465547191662
 30
0.0
 10
2.94900539484837
 20
-13.0470228174019
 30
0.0
 10
2.994939415762971
 20
-13.04794885888398
 30
0.0
 10
3.062838953465546
 20
-13.0568837074481
 30
0.0
 10
3.128570547048752
 20
-13.07228713972065
 30
0.0
 10
3.193398660553034
 20
-13.09134472208203
 30
0.0
 10
3.255961658704433
 20
-13.11814695421775
 30
0.0
 10
3.317319747341042
 20
-13.1499817205617
 30
0.0
 10
3.376590198209949
 20
-13.18797235699082
 30
0.0
 10
3.43372234549171
 20
-13.23083855718996
 30
0.0
 10
3.486561700422516
 20
-13.27795056801638
 30
0.0
 10
3.532993698330119
 20
-13.32910376860162
 30
0.0
 10
3.572623847864923
 20
-13.38323478001516
 30
0.0
 10
3.60442906998215
 20
-13.44127454037148
 30
0.0
 10
3.629853617816157
 20
-13.50232887182677
 30
0.0
 10
3.646997749995828
 20
-13.56689318592053
 30
0.0
 10
3.658476995323406
 20
-13.63432009069892
 30
0.0
 10
3.659555073274955
 20
-13.68039203217756
 30
0.0
 10
3.660104226983183
 20
-13.70386025863734
 30
0.0
  0
SPLINE
  5
98
330
1F
100
AcDbEntity
  8
0
  6
Continuous
 62
     7
370
    25
100
AcDbSpline
210
0.0
220
0.0
230
1.0
 70
     8
 71
     3
 72
    15
 73
    11
 74
     0
 42
0.00000001
 43
0.00000001
 40
0.0
 40
0.0
 40
0.0
 40
0.0
 40
0.1045968571999738
 40
0.2090888800976037
 40
0.3167473994177983
 40
0.4310345578800289
 40
0.554930594045589
 40
0.6899183963013735
 40
0.8375221881158319
 40
1.0
 40
1.0
 40
1.0
 40
1.0
 10
2.408318857363418
 20
-13.27218683651806
 30
0.0
 10
2.418706614061418
 20
-13.25416611219515
 30
0.0
 10
2.439471716119493
 20
-13.21814272518248
 30
0.0
 10
2.48266303369661
 20
-13.17186226259293
 30
0.0
 10
2.533982298937801
 20
-13.1319821412567
 30
0.0
 10
2.595173759482807
 20
-13.10021937224941
 30
0.0
 10
2.665421079959156
 20
-13.07631126870002
 30
0.0
 10
2.744283598837786
 20
-13.05906735901135
 30
0.0
 10
2.832027297553644
 20
-13.04804590419154
 30
0.0
 10
2.893549746341693
 20
-13.04706742608102
 30
0.0
 10
2.925786527697331
 20
-13.0465547191662
 30
0.0
  0
LINE
  5
99
330
1F
100
AcDbEntity
  8
0
  6
Continuous
 62
     7
370
    25
100
AcDbLine
 10
2.3286045165
 20
-13.4295888825
 30
0.0
 11
2.4083188574
 21
-13.2721868365
 31
0.0
  0
SPLINE
  5
9A
330
1F
100
AcDbEntity
  8
0
  6
Continuous
 62
     7
370
    25
100
AcDbSpline
210
0.0
220
0.0
230
1.0
 70
     8
 71
     3
 72
    11
 73
     7
 74
     0
 42
0.00000001
 43
0.00000001
 40
0.0
 40
0.0
 40
0.0
 40
0.0
 40
0.2508863105266715
 40
0.4900525326235405
 40
0.7313302801584595
 40
1.0
 40
1.0
 40
1.0
 40
1.0
 10
2.189442192626881
 20
-13.5140320401467
 30
0.0
 10
2.203774341890289
 20
-13.512998192227
 30
0.0
 10
2.231769117809817
 20
-13.51097879232296
 30
0.0
 10
2.271058404229397
 20
-13.49485335059691
 30
0.0
 10
2.304300745195523
 20
-13.46694865699422
 30
0.0
 10
2.320218254889874
 20
-13.44248024977085
 30
0.0
 10
2.328604516502581
 20
-13.42958888245514
 30
0.0
  0
SPLINE
  5
9B
330
1F
100
AcDbEntity
  8
0
  6
Continuous
 62
     7
370
    25
100
AcDbSpline
210
0.0
220
0.0
230
1.0
 70
     8
 71
     3
 72
    15
 73
    11
 74
     0
 42
0.00000001
 43
0.00000001
 40
0.0
 40
0.0
 40
0.0
 40
0.0
 40
0.1062760686142695
 40
0.2149255787637626
 40
0.3327045104136808
 40
0.4649469868121573
 40
0.5994919425664984
 40
0.7296581421548558
 40
0.8621024231517289
 40
1.0
 40
1.0
 40
1.0
 40
1.0
 10
1.917872997490807
 20
-13.26070256707201
 30
0.0
 10
1.917574818926427
 20
-13.27541540699901
 30
0.0
 10
1.916971802637246
 20
-13.30516966567456
 30
0.0
 10
1.930255508992248
 20
-13.3497852464442
 30
0.0
 10
1.954846708519187
 20
-13.39297706138322
 30
0.0
 10
1.989343241559773
 20
-13.433547620364
 30
0.0
 10
2.031125541187671
 20
-13.46928663896788
 30
0.0
 10
2.07948735824381
 20
-13.49583346891222
 30
0.0
 10
2.133185706759788
 20
-13.5107135646802
 30
0.0
 10
2.170439537753774
 20
-13.51291110550205
 30
0.0
 10
2.189442192626881
 20
-13.5140320401467
 30
0.0
  0
LINE
  5
9C
330
1F
100
AcDbEntity
  8
0
  6
Continuous
 62
     7
370
    25
100
AcDbLine
 10
1.9226018143
 20
-13.2201698514
 30
0.0
 11
1.9178729975
 21
-13.2607025671
 31
0.0
  0
SPLINE
  5
9D
330
1F
100
AcDbEntity
  8
0
  6
Continuous
 62
     7
370
    25
100
AcDbSpline
210
0.0
220
0.0
230
1.0
 70
     8
 71
     3
 72
    23
 73
    19
 74
     0
 42
0.00000001
 43
0.00000001
 40
0.0
 40
0.0
 40
0.0
 40
0.0
 40
0.0774953803168228
 40
0.1513126455689344
 40
0.2223250406588689
 40
0.2914155189365853
 40
0.3573408318935677
 40
0.4219191799881297
 40
0.4852249714114504
 40
0.5469660660184203
 40
0.6076057761372954
 40
0.6656950744772426
 40
0.7220805979872065
 40
0.7773647791227577
 40
0.8321296894697813
 40
0.8874784369139835
 40
0.9428159608464737
 40
1.0
 40
1.0
 40
1.0
 40
1.0
 10
2.854854275236416
 20
-12.61353020652385
 30
0.0
 10
2.823540697492715
 20
-12.61408708079568
 30
0.0
 10
2.762399758881186
 20
-12.61517439876194
 30
0.0
 10
2.672788562355458
 20
-12.62255037993519
 30
0.0
 10
2.587267214275347
 20
-12.63544676722012
 30
0.0
 10
2.505839324503862
 20
-12.65322576500719
 30
0.0
 10
2.428836885694477
 20
-12.67744741830768
 30
0.0
 10
2.355625698800695
 20
-12.70545790321131
 30
0.0
 10
2.286793982481731
 20
-12.73933926980417
 30
0.0
 10
2.222258124754206
 20
-12.77781173347463
 30
0.0
 10
2.163408918214955
 20
-12.82099070531871
 30
0.0
 10
2.109238715941432
 20
-12.86669228805684
 30
0.0
 10
2.062577452601381
 20
-12.91718040956397
 30
0.0
 10
2.02174334645005
 20
-12.97073189059598
 30
0.0
 10
1.986919954376862
 20
-13.02794127634215
 30
0.0
 10
1.958687199849229
 20
-13.08866594917854
 30
0.0
 10
1.936540723820976
 20
-13.15297150694322
 30
0.0
 10
1.927298672504498
 20
-13.19752668162833
 30
0.0
 10
1.922601814321535
 20
-13.22016985138005
 30
0.0
  0
SPLINE
  5
9E
330
1F
100
AcDbEntity
  8
0
  6
Continuous
 62
     7
370
    25
100
AcDbSpline
210
0.0
220
0.0
230
1.0
 70
     8
 71
     3
 72
    23
 73
    19
 74
     0
 42
0.00000001
 43
0.00000001
 40
0.0
 40
0.0
 40
0.0
 40
0.0
 40
0.0639080291480918
 40
0.1259903444384499
 40
0.1869255632337091
 40
0.2474145399244316
 40
0.3081735730487809
 40
0.3700132865395795
 40
0.4331877702502791
 40
0.4986228354237334
 40
0.5641646608017022
 40
0.6279367065275749
 40
0.689933561335687
 40
0.7514710445929029
 40
0.8122530874191363
 40
0.8736872840198529
 40
0.9361074711124459
 40
1.0
 40
1.0
 40
1.0
 40
1.0
 10
4.131634819532884
 20
-13.85923566878982
 30
0.0
 10
4.130442427681704
 20
-13.81706663143645
 30
0.0
 10
4.128091708029756
 20
-13.73393323471603
 30
0.0
 10
4.110172631145439
 20
-13.61163116134623
 30
0.0
 10
4.080445793581736
 20
-13.4940842055824
 30
0.0
 10
4.038381916881495
 20
-13.38121488421307
 30
0.0
 10
3.983602890179924
 20
-13.27335794927011
 30
0.0
 10
3.918229998518492
 20
-13.16943719682446
 30
0.0
 10
3.839455389926519
 20
-13.07128533425951
 30
0.0
 10
3.751224394734941
 20
-12.97827130979809
 30
0.0
 10
3.654851281476023
 20
-12.89303289660989
 30
0.0
 10
3.552679861044858
 20
-12.81864732916742
 30
0.0
 10
3.446472741461427
 20
-12.75517020118635
 30
0.0
 10
3.336443248361574
 20
-12.70296240325045
 30
0.0
 10
3.221850980555898
 20
-12.66266846961769
 30
0.0
 10
3.10315143644701
 20
-12.63476440337245
 30
0.0
 10
2.980416678011836
 20
-12.61615774865508
 30
0.0
 10
2.897032394205215
 20
-12.61441283366507
 30
0.0
 10
2.854854275236416
 20
-12.61353020652385
 30
0.0
  0
SPLINE
  5
9F
330
1F
100
AcDbEntity
  8
0
  6
Continuous
 62
     7
370
    25
100
AcDbSpline
210
0.0
220
0.0
230
1.0
 70
     8
 71
     3
 72
    15
 73
    11
 74
     0
 42
0.00000001
 43
0.00000001
 40
0.0
 40
0.0
 40
0.0
 40
0.0
 40
0.137914109151599
 40
0.2657490262622363
 40
0.3870831437673463
 40
0.5044964699959842
 40
0.6202460242147987
 40
0.7397672645070731
 40
0.8656708723221979
 40
0.9999999999999999
 40
0.9999999999999999
 40
0.9999999999999999
 40
0.9999999999999999
 10
3.655375410152456
 20
-14.52667438718395
 30
0.0
 10
3.693014542239363
 20
-14.51147066883175
 30
0.0
 10
3.765542021574026
 20
-14.48217436715153
 30
0.0
 10
3.863328541539858
 20
-14.423125323881
 30
0.0
 10
3.94739851652083
 20
-14.35493264328151
 30
0.0
 10
4.014682116104949
 20
-14.27464388566586
 30
0.0
 10
4.068146414039088
 20
-14.18523546727247
 30
0.0
 10
4.105020019229827
 20
-14.08515612241127
 30
0.0
 10
4.127756531841516
 20
-13.97532390974041
 30
0.0
 10
4.130314451167127
 20
-13.89875806970112
 30
0.0
 10
4.131634819532884
 20
-13.85923566878982
 30
0.0
  0
SPLINE
  5
A0
330
1F
100
AcDbEntity
  8
0
  6
Continuous
 62
     7
370
    25
100
AcDbSpline
210
0.0
220
0.0
230
1.0
 70
     8
 71
     3
 72
    11
 73
     7
 74
     0
 42
0.00000001
 43
0.00000001
 40
0.0
 40
0.0
 40
0.0
 40
0.0
 40
0.3270468892676372
 40
0.6015770647665346
 40
0.8250222731261989
 40
1.0
 40
1.0
 40
1.0
 40
1.0
 10
1.182204207681892
 20
-16.11555684230845
 30
0.0
 10
1.22095990336489
 20
-16.11509227811713
 30
0.0
 10
1.292247961490657
 20
-16.11423774877659
 30
0.0
 10
1.389674577193876
 20
-16.10699416857314
 30
0.0
 10
1.469007003001157
 20
-16.09609688872083
 30
0.0
 10
1.51381093795373
 20
-16.08098524858909
 30
0.0
 10
1.533487743678804
 20
-16.07434858135496
 30
0.0
  0
SPLINE
  5
A1
330
1F
100
AcDbEntity
  8
0
  6
Continuous
 62
     7
370
    25
100
AcDbSpline
210
0.0
220
0.0
230
1.0
 70
     8
 71
     3
 72
    39
 73
    35
 74
     0
 42
0.00000001
 43
0.00000001
 40
0.0
 40
0.0
 40
0.0
 40
0.0
 40
0.0264079355760808
 40
0.0531210255728441
 40
0.0804145949510034
 40
0.1082188615946819
 40
0.1368235558436704
 40
0.1662556332074912
 40
0.1964658980822864
 40
0.2276353778299569
 40
0.2598163085619354
 40
0.2930705322642247
 40
0.3274418669869791
 40
0.3628038918121297
 40
0.3994700528082684
 40
0.4372075652055918
 40
0.4763254893738919
 40
0.5168570015515986
 40
0.5570294308322116
 40
0.5957667855720945
 40
0.6328203444004151
 40
0.6685084521011199
 40
0.7024634883283133
 40
0.7351378205921746
 40
0.7664626868273117
 40
0.7963983534605992
 40
0.8250691302583814
 40
0.8526171500108269
 40
0.8790619767838125
 40
0.9046709893377837
 40
0.9294877116355582
 40
0.953454915527947
 40
0.976906930250072
 40
1.0
 40
1.0
 40
1.0
 40
1.0
 10
-0.9309013703918392
 20
-13.66873190503765
 30
0.0
 10
-0.9304402474594956
 20
-13.69915462227834
 30
0.0
 10
-0.9295126731320488
 20
-13.76035160361309
 30
0.0
 10
-0.9200302965246067
 20
-13.85256561133926
 30
0.0
 10
-0.9061627213123593
 20
-13.94579085387877
 30
0.0
 10
-0.8856682384939212
 20
-14.04006353275722
 30
0.0
 10
-0.8590133936472977
 20
-14.13529591131707
 30
0.0
 10
-0.8275286065514745
 20
-14.23197431859238
 30
0.0
 10
-0.7892585853707335
 20
-14.32936034630868
 30
0.0
 10
-0.7458914537487739
 20
-14.42801034490061
 30
0.0
 10
-0.6975964504228032
 20
-14.52829389556772
 30
0.0
 10
-0.6415817498846123
 20
-14.62871441030091
 30
0.0
 10
-0.5810061195003051
 20
-14.73069939987093
 30
0.0
 10
-0.514530405863034
 20
-14.83367411785761
 30
0.0
 10
-0.4422863373408246
 20
-14.93743380986658
 30
0.0
 10
-0.3643704009289213
 20
-15.04244279041097
 30
0.0
 10
-0.2804856553837749
 20
-15.14848338179304
 30
0.0
 10
-0.1919359659116955
 20
-15.25434422566426
 30
0.0
 10
-0.1007848036238475
 20
-15.35737605498788
 30
0.0
 10
-0.0101077723638562
 20
-15.45546080191191
 30
0.0
 10
0.0809173905462704
 20
-15.54603456535429
 30
0.0
 10
0.1702095939888189
 20
-15.6304829777661
 30
0.0
 10
0.2592165792080066
 20
-15.70775162227589
 30
0.0
 10
0.3468609344302843
 20
-15.77880568449408
 30
0.0
 10
0.4337976208240011
 20
-15.84328818169811
 30
0.0
 10
0.5206412316521555
 20
-15.89980252079443
 30
0.0
 10
0.605718390730637
 20
-15.95090371341806
 30
0.0
 10
0.6901077281715857
 20
-15.995152296845
 30
0.0
 10
0.7743412571287805
 20
-16.03148361842977
 30
0.0
 10
0.8574025702938738
 20
-16.06226893404632
 30
0.0
 10
0.9398422754812361
 20
-16.08592434992481
 30
0.0
 10
1.02132710671712
 20
-16.1029592677208
 30
0.0
 10
1.101983570280728
 20
-16.11356417833695
 30
0.0
 10
1.155601825760862
 20
-16.11489604466676
 30
0.0
 10
1.182204207681892
 20
-16.11555684230845
 30
0.0
  0
SPLINE
  5
A2
330
1F
100
AcDbEntity
  8
0
  6
Continuous
 62
     7
370
    25
100
AcDbSpline
210
0.0
220
0.0
230
1.0
 70
     8
 71
     3
 72
    23
 73
    19
 74
     0
 42
0.00000001
 43
0.00000001
 40
0.0
 40
0.0
 40
0.0
 40
0.0
 40
0.0681519816448503
 40
0.1332677624434737
 40
0.1963842184999795
 40
0.2578779050288936
 40
0.3187716707907455
 40
0.3797806317371304
 40
0.4418959004285865
 40
0.5052376201453356
 40
0.5688353564389664
 40
0.63070306593001
 40
0.6918696560617937
 40
0.7520359547786433
 40
0.8129396029509514
 40
0.874006080001022
 40
0.9358948624289789
 40
1.0
 40
1.0
 40
1.0
 40
1.0
 10
0.0108087241844973
 20
-12.70000000000001
 30
0.0
 10
-0.0234681758729178
 20
-12.70090342067792
 30
0.0
 10
-0.0904949249695884
 20
-12.70267001424403
 30
0.0
 10
-0.1884330355808039
 20
-12.71664733097515
 30
0.0
 10
-0.281458699786704
 20
-12.73847121013726
 30
0.0
 10
-0.3692112424837576
 20
-12.77068835442789
 30
0.0
 10
-0.4521245733075827
 20
-12.81138830530513
 30
0.0
 10
-0.5304292616151784
 20
-12.8610182197641
 30
0.0
 10
-0.603567010171288
 20
-12.92001172543496
 30
0.0
 10
-0.6704962602752803
 20
-12.98769034135112
 30
0.0
 10
-0.7317210761214915
 20
-13.0604124565017
 30
0.0
 10
-0.7844707117857938
 20
-13.13816399953297
 30
0.0
 10
-0.8301475207896593
 20
-13.21830387420122
 30
0.0
 10
-0.866701958865535
 20
-13.3024714152319
 30
0.0
 10
-0.8960448015064919
 20
-13.38936746823475
 30
0.0
 10
-0.9160122087915892
 20
-13.47975710309426
 30
0.0
 10
-0.9287125328261163
 20
-13.57311700406438
 30
0.0
 10
-0.9301632513550335
 20
-13.63648868164095
 30
0.0
 10
-0.9309013703918392
 20
-13.66873190503765
 30
0.0
  0
SPLINE
  5
A3
330
1F
100
AcDbEntity
  8
0
  6
Continuous
 62
     7
370
    25
100
AcDbSpline
210
0.0
220
0.0
230
1.0
 70
     8
 71
     3
 72
    27
 73
    23
 74
     0
 42
0.00000001
 43
0.00000001
 40
0.0
 40
0.0
 40
0.0
 40
0.0
 40
0.0196861264240625
 40
0.0403730653127893
 40
0.0628290585843276
 40
0.0866703658186126
 40
0.1012460813497031
 40
0.1207850502802692
 40
0.1440304433889528
 40
0.1722341740182729
 40
0.2048289244692041
 40
0.2427194378531418
 40
0.2844809781923069
 40
0.3313496048669221
 40
0.4274934750842087
 40
0.5190518426806475
 40
0.6066728185472444
 40
0.6901891799431077
 40
0.7708856393307731
 40
0.849109186929246
 40
0.9250519031799186
 40
1.0
 40
1.0
 40
1.0
 40
1.0
 10
1.43350704497199
 20
-13.44850414977805
 30
0.0
 10
1.43302286410295
 20
-13.43741028592242
 30
0.0
 10
1.432029887352325
 20
-13.41465856319311
 30
0.0
 10
1.422305305240148
 20
-13.38042938727792
 30
0.0
 10
1.408180678955875
 20
-13.34550316954776
 30
0.0
 10
1.39178762415881
 20
-13.31527980103945
 30
0.0
 10
1.372079354256976
 20
-13.28920365138327
 30
0.0
 10
1.349040325190969
 20
-13.26653535753334
 30
0.0
 10
1.319620151440828
 20
-13.23954306998423
 30
0.0
 10
1.282320127230527
 20
-13.21045838628518
 30
0.0
 10
1.238087463382046
 20
-13.17694926975115
 30
0.0
 10
1.186587108242471
 20
-13.14043170888217
 30
0.0
 10
1.127982664482865
 20
-13.10008126751727
 30
0.0
 10
1.040882991755033
 20
-13.04340036506381
 30
0.0
 10
0.9283733297658503
 20
-12.97447677434826
 30
0.0
 10
0.7925326617695688
 20
-12.89996334314221
 30
0.0
 10
0.6579945843266124
 20
-12.8386329981273
 30
0.0
 10
0.5255752701576452
 20
-12.7881894075628
 30
0.0
 10
0.3949870084220991
 20
-12.74846031993178
 30
0.0
 10
0.2656833191823744
 20
-12.72106478649447
 30
0.0
 10
0.137873761409133
 20
-12.70296540742716
 30
0.0
 10
0.0529772004535447
 20
-12.70098411581543
 30
0.0
 10
0.0108087241844973
 20
-12.70000000000001
 30
0.0
  0
SPLINE
  5
A4
330
1F
100
AcDbEntity
  8
0
  6
Continuous
 62
     7
370
    25
100
AcDbSpline
210
0.0
220
0.0
230
1.0
 70
     8
 71
     3
 72
    15
 73
    11
 74
     0
 42
0.00000001
 43
0.00000001
 40
0.0
 40
0.0
 40
0.0
 40
0.0
 40
0.1305568368368355
 40
0.2553946121712571
 40
0.3766077671459502
 40
0.5006227286974378
 40
0.6252233603853615
 40
0.7473341258056881
 40
0.8715690372105372
 40
1.0
 40
1.0
 40
1.0
 40
1.0
 10
1.234896738081428
 20
-13.6511677282378
 30
0.0
 10
1.248729779822723
 20
-13.65068089985104
 30
0.0
 10
1.27578990487065
 20
-13.64972856866685
 30
0.0
 10
1.314051753805213
 20
-13.63750546499458
 30
0.0
 10
1.348818388419071
 20
-13.61917236342648
 30
0.0
 10
1.378363092115482
 20
-13.59316510942546
 30
0.0
 10
1.402708692444535
 20
-13.56223450099023
 30
0.0
 10
1.420491552475735
 20
-13.52712061918474
 30
0.0
 10
1.431838319816459
 20
-13.48883132386343
 30
0.0
 10
1.432944678776427
 20
-13.46209454804888
 30
0.0
 10
1.43350704497199
 20
-13.44850414977805
 30
0.0
  0
SPLINE
  5
A5
330
1F
100
AcDbEntity
  8
0
  6
Continuous
 62
     7
370
    25
100
AcDbSpline
210
0.0
220
0.0
230
1.0
 70
     8
 71
     3
 72
    11
 73
     7
 74
     0
 42
0.00000001
 43
0.00000001
 40
0.0
 40
0.0
 40
0.0
 40
0.0
 40
0.3450400745949391
 40
0.625387741205443
 40
0.8403801642959982
 40
1.0
 40
1.0
 40
1.0
 40
1.0
 10
1.024802161744814
 20
-13.55794248214632
 30
0.0
 10
1.047578320799879
 20
-13.57182833013041
 30
0.0
 10
1.088860281109866
 20
-13.59699653447795
 30
0.0
 10
1.14688174008916
 20
-13.62585132184048
 30
0.0
 10
1.193796654620647
 20
-13.64597983631617
 30
0.0
 10
1.222616703547771
 20
-13.64961767075397
 30
0.0
 10
1.234896738081428
 20
-13.6511677282378
 30
0.0
  0
SPLINE
  5
A6
330
1F
100
AcDbEntity
  8
0
  6
Continuous
 62
     7
370
    25
100
AcDbSpline
210
0.0
220
0.0
230
1.0
 70
     8
 71
     3
 72
    19
 73
    15
 74
     0
 42
0.00000001
 43
0.00000001
 40
0.0
 40
0.0
 40
0.0
 40
0.0
 40
0.0964891173947805
 40
0.1919019869814137
 40
0.2885645611903642
 40
0.3863893826791348
 40
0.4388928606834426
 40
0.4986141799710441
 40
0.564735218311669
 40
0.6376026662891823
 40
0.718136382393852
 40
0.8052546800963831
 40
0.8992051025465313
 40
1.0
 40
1.0
 40
1.0
 40
1.0
 10
0.08106543138388
 20
-13.16747732098052
 30
0.0
 10
0.1144388434527762
 20
-13.16838811445088
 30
0.0
 10
0.180813417718673
 20
-13.17019954232391
 30
0.0
 10
0.2797914396736124
 20
-13.18479806366667
 30
0.0
 10
0.3770097711693448
 20
-13.20960385341986
 30
0.0
 10
0.4580837425396934
 20
-13.23694751727645
 30
0.0
 10
0.5245433134928505
 20
-13.26630259044876
 30
0.0
 10
0.5805136378486101
 20
-13.29222536659456
 30
0.0
 10
0.6412028628157654
 20
-13.32449085877414
 30
0.0
 10
0.7077140903310983
 20
-13.36106299806282
 30
0.0
 10
0.7797386683238678
 20
-13.40267529646403
 30
0.0
 10
0.8566275288382417
 20
-13.45033868673802
 30
0.0
 10
0.939103555358306
 20
-13.50227063020767
 30
0.0
 10
0.9955743892274906
 20
-13.53895542631553
 30
0.0
 10
1.024802161744814
 20
-13.55794248214632
 30
0.0
  0
SPLINE
  5
A7
330
1F
100
AcDbEntity
  8
0
  6
Continuous
 62
     7
370
    25
100
AcDbSpline
210
0.0
220
0.0
230
1.0
 70
     8
 71
     3
 72
    23
 73
    19
 74
     0
 42
0.00000001
 43
0.00000001
 40
0.0
 40
0.0
 40
0.0
 40
0.0
 40
0.0629509585191408
 40
0.1249084731185574
 40
0.1861572390666414
 40
0.2467980032893087
 40
0.3076090539245847
 40
0.3686464141053941
 40
0.4315014768720125
 40
0.4957844244581482
 40
0.5601343637054829
 40
0.6219572837473877
 40
0.6831309669017571
 40
0.7438143475258895
 40
0.8054697759053182
 40
0.8681601046772942
 40
0.9324743237224616
 40
0.9999999999999999
 40
0.9999999999999999
 40
0.9999999999999999
 40
0.9999999999999999
 10
-0.4661262304574638
 20
-13.75047288168308
 30
0.0
 10
-0.465876604847416
 20
-13.73175001521857
 30
0.0
 10
-0.4653812930279324
 20
-13.69459975225991
 30
0.0
 10
-0.4571456124958012
 20
-13.63980993310665
 30
0.0
 10
-0.4463824402199836
 20
-13.5861846413693
 30
0.0
 10
-0.4287853982890806
 20
-13.53472263019477
 30
0.0
 10
-0.408158355971287
 20
-13.48454577360667
 30
0.0
 10
-0.3822287988602258
 20
-13.43604593646461
 30
0.0
 10
-0.3508000090189219
 20
-13.38974232209898
 30
0.0
 10
-0.3161651163649934
 20
-13.34455594417921
 30
0.0
 10
-0.2775811172014779
 20
-13.30301599766328
 30
0.0
 10
-0.2352249042798737
 20
-13.26670429181908
 30
0.0
 10
-0.1897732832432764
 20
-13.23630228270378
 30
0.0
 10
-0.1413795445665615
 20
-13.21093174816495
 30
0.0
 10
-0.0898386154026446
 20
-13.19148119457182
 30
0.0
 10
-0.0355622342756984
 20
-13.17709509277303
 30
0.0
 10
0.0218206978331351
 20
-13.1689697792681
 30
0.0
 10
0.0609990745561412
 20
-13.16798282077357
 30
0.0
 10
0.08106543138388
 20
-13.16747732098052
 30
0.0
  0
SPLINE
  5
A8
330
1F
100
AcDbEntity
  8
0
  6
Continuous
 62
     7
370
    25
100
AcDbSpline
210
0.0
220
0.0
230
1.0
 70
     8
 71
     3
 72
    31
 73
    27
 74
     0
 42
0.00000001
 43
0.00000001
 40
0.0
 40
0.0
 40
0.0
 40
0.0
 40
0.0194553242402652
 40
0.0398978580729762
 40
0.0610073199965747
 40
0.0833701099103756
 40
0.1070432389865325
 40
0.1320667236926677
 40
0.1584133899881693
 40
0.1866483333685323
 40
0.2161295638463099
 40
0.2474825734571365
 40
0.2805520697566015
 40
0.3153844903468471
 40
0.3520195695426526
 40
0.3904914566294848
 40
0.4308296361768155
 40
0.4732301476312581
 40
0.5568133796616384
 40
0.6345350254267398
 40
0.7067522491416739
 40
0.7737360196282956
 40
0.836048086167863
 40
0.8939662816880146
 40
0.9483243925154812
 40
1.0
 40
1.0
 40
1.0
 40
1.0
 10
1.109245319436379
 20
-15.64807952132794
 30
0.0
 10
1.092329614608887
 20
-15.64752201171197
 30
0.0
 10
1.057639861712616
 20
-15.64637870311131
 30
0.0
 10
1.005118486946173
 20
-15.63800915563455
 30
0.0
 10
0.9513285310015528
 20
-15.62396691417366
 30
0.0
 10
0.8957073424192157
 20
-15.60605506553939
 30
0.0
 10
0.839011170727593
 20
-15.58131365480025
 30
0.0
 10
0.7810256232294809
 20
-15.55138170182722
 30
0.0
 10
0.7210392699058289
 20
-15.51680296185103
 30
0.0
 10
0.6601477367776528
 20
-15.47632554240766
 30
0.0
 10
0.5976179704630272
 20
-15.43063488834587
 30
0.0
 10
0.533512299755447
 20
-15.38006138276421
 30
0.0
 10
0.468015512659014
 20
-15.32385940164061
 30
0.0
 10
0.4011434372121696
 20
-15.26230193946504
 30
0.0
 10
0.3329420073578964
 20
-15.19533084362856
 30
0.0
 10
0.2633499109972097
 20
-15.12300298067046
 30
0.0
 10
0.19246898335567
 20
-15.04502454984815
 30
0.0
 10
0.0969545259596781
 20
-14.93648020139077
 30
0.0
 10
-0.015490510770189
 20
-14.79954070712057
 30
0.0
 10
-0.134487001285609
 20
-14.63495471437566
 30
0.0
 10
-0.2369089561405548
 20
-14.47645535360113
 30
0.0
 10
-0.3198803394975857
 20
-14.3219449723526
 30
0.0
 10
-0.3847125609729498
 20
-14.17242309102027
 30
0.0
 10
-0.4315250643578846
 20
-14.02782753171327
 30
0.0
 10
-0.4599403628121053
 20
-13.8875945074963
 30
0.0
 10
-0.4640993467156285
 20
-13.795402649009
 30
0.0
 10
-0.4661262304574638
 20
-13.75047288168308
 30
0.0
  0
SPLINE
  5
A9
330
1F
100
AcDbEntity
  8
0
  6
Continuous
 62
     7
370
    25
100
AcDbSpline
210
0.0
220
0.0
230
1.0
 70
     8
 71
     3
 72
    15
 73
    11
 74
     0
 42
0.00000001
 43
0.00000001
 40
0.0
 40
0.0
 40
0.0
 40
0.0
 40
0.1755342937385125
 40
0.3144081757154394
 40
0.4163295192102802
 40
0.4911357739740661
 40
0.5726276048518364
 40
0.6846615569396418
 40
0.8274892192824
 40
1.0
 40
1.0
 40
1.0
 40
1.0
 10
1.43080486392586
 20
-15.45352248600657
 30
0.0
 10
1.423255798766491
 20
-15.47760059876969
 30
0.0
 10
1.409734293910863
 20
-15.52072810022418
 30
0.0
 10
1.384724669411418
 20
-15.57517451247146
 30
0.0
 10
1.359105200399122
 20
-15.61316497748332
 30
0.0
 10
1.327443127884038
 20
-15.63490549002018
 30
0.0
 10
1.288422057197905
 20
-15.63893943836089
 30
0.0
 10
1.240784594171095
 20
-15.64538393650391
 30
0.0
 10
1.179249865061279
 20
-15.64691052472794
 30
0.0
 10
1.133999973601882
 20
-15.64766614664926
 30
0.0
 10
1.109245319436379
 20
-15.64807952132794
 30
0.0
  0
SPLINE
  5
AA
330
1F
100
AcDbEntity
  8
0
  6
Continuous
 62
     7
370
    25
100
AcDbSpline
210
0.0
220
0.0
230
1.0
 70
     8
 71
     3
 72
    15
 73
    11
 74
     0
 42
0.00000001
 43
0.00000001
 40
0.0
 40
0.0
 40
0.0
 40
0.0
 40
0.1278140719052959
 40
0.2484161441215962
 40
0.3625835299136957
 40
0.4776224351156994
 40
0.5942243673396941
 40
0.719697098288306
 40
0.8537798929808159
 40
1.0
 40
1.0
 40
1.0
 40
1.0
 10
1.622659718201097
 20
-15.2940938042849
 30
0.0
 10
1.611133025324316
 20
-15.29463162626452
 30
0.0
 10
1.588730041394304
 20
-15.29567692323699
 30
0.0
 10
1.556732777446437
 20
-15.30320529356893
 30
0.0
 10
1.527507957272542
 20
-15.31548278823769
 30
0.0
 10
1.501673738750925
 20
-15.33330321352125
 30
0.0
 10
1.478883863385511
 20
-15.35625870446911
 30
0.0
 10
1.459363914226121
 20
-15.38415866214471
 30
0.0
 10
1.443111242923646
 20
-15.41707372608934
 30
0.0
 10
1.435023722034897
 20
-15.44102716578534
 30
0.0
 10
1.43080486392586
 20
-15.45352248600657
 30
0.0
  0
SPLINE
  5
AB
330
1F
100
AcDbEntity
  8
0
  6
Continuous
 62
     7
370
    25
100
AcDbSpline
210
0.0
220
0.0
230
1.0
 70
     8
 71
     3
 72
    19
 73
    15
 74
     0
 42
0.00000001
 43
0.00000001
 40
0.0
 40
0.0
 40
0.0
 40
0.0
 40
0.1151020214262303
 40
0.2200113714193969
 40
0.3156593174114552
 40
0.4014178544568525
 40
0.4783962168960238
 40
0.5461167266171068
 40
0.605930424658284
 40
0.6574127782655685
 40
0.7484899455389601
 40
0.8330094953253155
 40
0.9143490511754158
 40
1.0
 40
1.0
 40
1.0
 40
1.0
 10
1.928006176413797
 20
-15.9277552596024
 30
0.0
 10
1.92779482785988
 20
-15.89757418800195
 30
0.0
 10
1.927390846377899
 20
-15.83988468028136
 30
0.0
 10
1.923052481328629
 20
-15.75722080812885
 30
0.0
 10
1.917430200345548
 20
-15.68234676983143
 30
0.0
 10
1.908697690663291
 20
-15.61513323262902
 30
0.0
 10
1.897537628550455
 20
-15.55570417184088
 30
0.0
 10
1.883470165997057
 20
-15.50389637980741
 30
0.0
 10
1.866889097443655
 20
-15.45988321388164
 30
0.0
 10
1.842246042940529
 20
-15.41274926862247
 30
0.0
 10
1.804795081262807
 20
-15.36567825205696
 30
0.0
 10
1.751354974507331
 20
-15.32361290574541
 30
0.0
 10
1.689075995970105
 20
-15.2985072938135
 30
0.0
 10
1.645176281217661
 20
-15.29559007324835
 30
0.0
 10
1.622659718201097
 20
-15.2940938042849
 30
0.0
  0
SPLINE
  5
AC
330
1F
100
AcDbEntity
  8
0
  6
Continuous
 62
     7
370
    25
100
AcDbSpline
210
0.0
220
0.0
230
1.0
 70
     8
 71
     3
 72
    15
 73
    11
 74
     0
 42
0.00000001
 43
0.00000001
 40
0.0
 40
0.0
 40
0.0
 40
0.0
 40
0.1128102905639857
 40
0.217484687893492
 40
0.3183207074052476
 40
0.4249982145706424
 40
0.5398430051107526
 40
0.6728494092332263
 40
0.8267301183642546
 40
1.0
 40
1.0
 40
1.0
 40
1.0
 10
1.757093225246069
 20
-16.19121791160009
 30
0.0
 10
1.77046239303978
 20
-16.19048442415862
 30
0.0
 10
1.796236542458905
 20
-16.18907034848799
 30
0.0
 10
1.83259898405657
 20
-16.17692142327509
 30
0.0
 10
1.862647128022992
 20
-16.1546415981594
 30
0.0
 10
1.887373629889721
 20
-16.12508622217635
 30
0.0
 10
1.905593932291687
 20
-16.08691846314461
 30
0.0
 10
1.918887126749069
 20
-16.04111220720949
 30
0.0
 10
1.926659141198762
 20
-15.98701118456683
 30
0.0
 10
1.92753976737352
 20
-15.94827253991171
 30
0.0
 10
1.928006176413797
 20
-15.9277552596024
 30
0.0
  0
SPLINE
  5
AD
330
1F
100
AcDbEntity
  8
0
  6
Continuous
 62
     7
370
    25
100
AcDbSpline
210
0.0
220
0.0
230
1.0
 70
     8
 71
     3
 72
    11
 73
     7
 74
     0
 42
0.00000001
 43
0.00000001
 40
0.0
 40
0.0
 40
0.0
 40
0.0
 40
0.2768174607107777
 40
0.5270459463284433
 40
0.7649369690437069
 40
1.0
 40
1.0
 40
1.0
 40
1.0
 10
1.533487743678804
 20
-16.07434858135496
 30
0.0
 10
1.549696783495121
 20
-16.09220763305209
 30
0.0
 10
1.580557946324699
 20
-16.12621033208008
 30
0.0
 10
1.636075274406065
 20
-16.1637981106092
 30
0.0
 10
1.695477123891683
 20
-16.18673455218901
 30
0.0
 10
1.73663656133988
 20
-16.18972942767093
 30
0.0
 10
1.757093225246069
 20
-16.19121791160009
 30
0.0
  0
LINE
  5
AE
330
1F
100
AcDbEntity
  8
0
  6
Continuous
 62
     7
370
    25
100
AcDbLine
 10
5.9573317308
 20
-5.9162877729
 30
0.0
 11
5.9573317308
 21
-7.5011216065
 31
0.0
  0
SPLINE
  5
AF
330
1F
100
AcDbEntity
  8
0
  6
Continuous
 62
     7
370
    25
100
AcDbSpline
210
0.0
220
0.0
230
1.0
 70
     8
 71
     3
 72
    18
 73
    14
 74
     0
 42
0.00000001
 43
0.00000001
 40
0.2202215388924469
 40
0.2202215388924469
 40
0.2202215388924469
 40
0.2202215388924469
 40
0.2253938839207292
 40
0.3395948145627006
 40
0.4596754102248636
 40
0.5217351900879328
 40
0.583925838738916
 40
0.6481741447653693
 40
0.7138810381130664
 40
0.7810044549073893
 40
0.851450927556555
 40
0.9240506926641776
 40
1.0
 40
1.0
 40
1.0
 40
1.0
 10
5.957331730775221
 20
-5.916287772949271
 30
0.0
 10
5.964551519905321
 20
-5.91384566195503
 30
0.0
 10
6.130988703620081
 20
-5.856960770657776
 30
0.0
 10
6.455934103584079
 20
-5.719475329933124
 30
0.0
 10
6.824813847636434
 20
-5.48398602099343
 30
0.0
 10
7.10545331978546
 20
-5.259721751916548
 30
0.0
 10
7.30652613452508
 20
-5.068516116289779
 30
0.0
 10
7.491077770667587
 20
-4.854419542119414
 30
0.0
 10
7.666115234330204
 20
-4.623422559626934
 30
0.0
 10
7.826654130079723
 20
-4.37111191316786
 30
0.0
 10
7.972639005916322
 20
-4.098700876313521
 30
0.0
 10
8.105853352538437
 20
-3.805432970975553
 30
0.0
 10
8.181749263753831
 20
-3.600705517622
 30
0.0
 10
8.220552884615381
 20
-3.496033653846149
 30
0.0
  0
SPLINE
  5
B0
330
1F
100
AcDbEntity
  8
0
  6
Continuous
 62
     7
370
    25
100
AcDbSpline
210
0.0
220
0.0
230
1.0
 70
     8
 71
     3
 72
    15
 73
    11
 74
     0
 42
0.00000001
 43
0.00000001
 40
0.0
 40
0.0
 40
0.0
 40
0.0
 40
0.1105883385953361
 40
0.2245417540535958
 40
0.3425034940501041
 40
0.464324098417358
 40
0.5907560327017664
 40
0.7222274753555146
 40
0.8588428362087243
 40
1.0
 40
1.0
 40
1.0
 40
1.0
 10
8.220552884615383
 20
-3.496033653846149
 30
0.0
 10
8.265774746588665
 20
-3.362191913276164
 30
0.0
 10
8.357594520156345
 20
-3.090435780804179
 30
0.0
 10
8.475930695602376
 20
-2.668877271887795
 30
0.0
 10
8.569125263618217
 20
-2.226579712153784
 30
0.0
 10
8.652968259687196
 20
-1.766186354789034
 30
0.0
 10
8.710195642104425
 20
-1.28430192188482
 30
0.0
 10
8.756257699032613
 20
-0.7824174193887603
 30
0.0
 10
8.783389214486574
 20
-0.2601544383797014
 30
0.0
 10
8.786752433363711
 20
0.0946812381713693
 30
0.0
 10
8.788461538461535
 20
0.2750000000000044
 30
0.0
  0
SPLINE
  5
B1
330
1F
100
AcDbEntity
  8
0
  6
Continuous
 62
     7
370
    25
100
AcDbSpline
210
0.0
220
0.0
230
1.0
 70
     8
 71
     3
 72
    26
 73
    22
 74
     0
 42
0.00000001
 43
0.00000001
 40
0.0
 40
0.0
 40
0.0
 40
0.0
 40
0.0656811979906387
 40
0.1284864641740648
 40
0.1881751303280077
 40
0.2451061306699862
 40
0.2994484245294753
 40
0.3508229360093822
 40
0.3999416805337777
 40
0.4466717436323718
 40
0.4912545333734981
 40
0.5333763442704366
 40
0.5738527549682237
 40
0.6125263117194527
 40
0.649597136445329
 40
0.6855320415538501
 40
0.7201057860682005
 40
0.7538376629736497
 40
0.8189254160467138
 40
0.8804934616501636
 40
0.8821145972159197
 40
0.8821145972159197
 40
0.8821145972159197
 40
0.8821145972159197
 10
8.788461538461535
 20
0.2750000000000044
 30
0.0
 10
8.786103584606098
 20
0.4552895965059007
 30
0.0
 10
8.781490922796639
 20
0.8079745884226591
 30
0.0
 10
8.763859546934643
 20
1.324481076974633
 30
0.0
 10
8.718329941968937
 20
1.815057195156711
 30
0.0
 10
8.667762289692497
 20
2.281816363718058
 30
0.0
 10
8.593202770726379
 20
2.722174803880164
 30
0.0
 10
8.512812169810832
 20
3.139818969264373
 30
0.0
 10
8.404806974281291
 20
3.529574789918727
 30
0.0
 10
8.289436510107071
 20
3.897544425825611
 30
0.0
 10
8.157391957829502
 20
4.239547230829019
 30
0.0
 10
8.012038811011351
 20
4.557177743808832
 30
0.0
 10
7.856802702001263
 20
4.851969421338007
 30
0.0
 10
7.688193100032983
 20
5.123113456665907
 30
0.0
 10
7.508211601181815
 20
5.371824354856494
 30
0.0
 10
7.312107818906535
 20
5.59311547438682
 30
0.0
 10
7.107660506860038
 20
5.793845337709148
 30
0.0
 10
6.821301139044388
 20
6.022970633944597
 30
0.0
 10
6.446411325614128
 20
6.256592186015267
 30
0.0
 10
6.125514565044718
 20
6.404489968092307
 30
0.0
 10
5.961542299701706
 20
6.461847475508521
 30
0.0
 10
5.957331730770258
 20
6.46330875482965
 30
0.0
  0
LINE
  5
B2
330
1F
100
AcDbEntity
  8
0
  6
Continuous
 62
     7
370
    25
100
AcDbLine
 10
5.957331721
 20
8.0536707074
 30
0.0
 11
5.9573317308
 21
6.4633087548
 31
0.0
  0
SPLINE
  5
B3
330
1F
100
AcDbEntity
  8
0
  6
Continuous
 62
     7
370
    25
100
AcDbSpline
210
0.0
220
0.0
230
1.0
 70
     8
 71
     3
 72
    29
 73
    25
 74
     0
 42
0.00000001
 43
0.00000001
 40
0.0951447216289421
 40
0.0951447216289421
 40
0.0951447216289421
 40
0.0951447216289421
 40
0.0998624108568252
 40
0.1325666121262583
 40
0.1651511732547863
 40
0.1979131873557921
 40
0.2313190035669618
 40
0.2650832782673733
 40
0.2992553087581147
 40
0.3343985665049787
 40
0.3699428235093078
 40
0.406283560700061
 40
0.4440638196985082
 40
0.4829977068727754
 40
0.5233544466133044
 40
0.565536589604149
 40
0.6096129240658195
 40
0.656390811376417
 40
0.7058854949364572
 40
0.7583245002617311
 40
0.8138317829411501
 40
0.8727945590393899
 40
0.934722229540074
 40
1.0
 40
1.0
 40
1.0
 40
1.0
 10
5.957331721017238
 20
8.053670707385766
 30
0.0
 10
5.973580187724409
 20
8.050020445960326
 30
0.0
 10
6.102291915052501
 20
8.020296032688451
 30
0.0
 10
6.340330372386469
 20
7.953155529069061
 30
0.0
 10
6.666580314391213
 20
7.836602629100102
 30
0.0
 10
6.983450632872575
 20
7.690514984346515
 30
0.0
 10
7.292909554195638
 20
7.520462695727367
 30
0.0
 10
7.590039357852353
 20
7.320646078698974
 30
0.0
 10
7.878101995049829
 20
7.097864894998557
 30
0.0
 10
8.150021836358828
 20
6.846024885841393
 30
0.0
 10
8.405823633062216
 20
6.567668946118573
 30
0.0
 10
8.648717799003212
 20
6.265775243747393
 30
0.0
 10
8.871813215571422
 20
5.934553451603477
 30
0.0
 10
9.084270782294693
 20
5.579764409542848
 30
0.0
 10
9.274436650444676
 20
5.19520356042653
 30
0.0
 10
9.457585258352951
 20
4.787287269679189
 30
0.0
 10
9.61567234437828
 20
4.344728731936337
 30
0.0
 10
9.7582419669739
 20
3.870022615430234
 30
0.0
 10
9.873437546580767
 20
3.357561814630197
 30
0.0
 10
9.969391570887067
 20
2.810035049079732
 30
0.0
 10
10.04372683922539
 20
2.225431549479043
 30
0.0
 10
10.09786673384776
 20
1.605004483000075
 30
0.0
 10
10.1264656697392
 20
0.9483456659682216
 30
0.0
 10
10.13185153205352
 20
0.4993834552089591
 30
0.0
 10
10.13461538461538
 20
0.2689903846153892
 30
0.0
  0
SPLINE
  5
B4
330
1F
100
AcDbEntity
  8
0
  6
Continuous
 62
     7
370
    25
100
AcDbSpline
210
0.0
220
0.0
230
1.0
 70
     8
 71
     3
 72
    29
 73
    25
 74
     0
 42
0.00000001
 43
0.00000001
 40
0.0
 40
0.0
 40
0.0
 40
0.0
 40
0.0650632896172791
 40
0.1267731664665229
 40
0.185515763226079
 40
0.2407646791677149
 40
0.292979796023598
 40
0.3422503727797673
 40
0.3889192861856603
 40
0.4327756640583103
 40
0.4746284326311177
 40
0.5147746906379533
 40
0.5536058934984424
 40
0.5914264064311728
 40
0.6280281199460672
 40
0.6638036341103204
 40
0.6989843361316638
 40
0.7335914893067053
 40
0.7676284691511398
 40
0.8012083477865919
 40
0.8342638397266231
 40
0.8669806947287763
 40
0.8997197415181605
 40
0.904729183807138
 40
0.904729183807138
 40
0.904729183807138
 40
0.904729183807138
 10
10.13461538461538
 20
0.2689903846153892
 30
0.0
 10
10.13182287942714
 20
0.039602207725796
 30
0.0
 10
10.1263817969493
 20
-0.4073513002406017
 30
0.0
 10
10.09818733937337
 20
-1.061055480182554
 30
0.0
 10
10.04265034860738
 20
-1.678189951462105
 30
0.0
 10
9.973178970141209
 20
-2.260234790570895
 30
0.0
 10
9.87696055739795
 20
-2.804767442712144
 30
0.0
 10
9.758652702035329
 20
-3.313672221860328
 30
0.0
 10
9.627294175656326
 20
-3.789146814712158
 30
0.0
 10
9.465145058042882
 20
-4.227296007326251
 30
0.0
 10
9.28767058512618
 20
-4.634231962461078
 30
0.0
 10
9.094576887231687
 20
-5.0142340267312
 30
0.0
 10
8.887706204007355
 20
-5.370660995358231
 30
0.0
 10
8.662325868280094
 20
-5.70065991077748
 30
0.0
 10
8.422096954581122
 20
-6.006568441089776
 30
0.0
 10
8.161877859754016
 20
-6.282986823882059
 30
0.0
 10
7.889003923602663
 20
-6.536575418009826
 30
0.0
 10
7.600093570028588
 20
-6.762225249990497
 30
0.0
 10
7.298329779033647
 20
-6.959731555574891
 30
0.0
 10
6.989933735069825
 20
-7.136362342951268
 30
0.0
 10
6.669433520724335
 20
-7.278788178879188
 30
0.0
 10
6.344092294740731
 20
-7.401081211640987
 30
0.0
 10
6.104405321468503
 20
-7.467961969404032
 30
0.0
 10
5.974583148201537
 20
-7.497331941354183
 30
0.0
 10
5.957331730769229
 20
-7.501121606509005
 30
0.0
  0
SPLINE
  5
B5
330
1F
100
AcDbEntity
  8
0
  6
Continuous
 62
     7
370
    25
100
AcDbSpline
210
0.0
220
0.0
230
1.0
 70
     8
 71
     3
 72
    25
 73
    21
 74
     0
 42
0.00000001
 43
0.00000001
 40
0.0
 40
0.0
 40
0.0
 40
0.0
 40
0.0729510658758665
 40
0.1415836941865451
 40
0.205926460170867
 40
0.2653013571846055
 40
0.3205972327139283
 40
0.3718165030988105
 40
0.4187897697094522
 40
0.4616987286157647
 40
0.5021335821035657
 40
0.5408043152926482
 40
0.5781805253279663
 40
0.6142968652075147
 40
0.6496782432647874
 40
0.6842994600896377
 40
0.718358952772361
 40
0.7520808646475968
 40
0.8176524386023856
 40
0.8705082966146495
 40
0.8705082966146495
 40
0.8705082966146495
 40
0.8705082966146495
 10
1.288461538461535
 20
0.2750000000000044
 30
0.0
 10
1.288973454465173
 20
0.0746484336977748
 30
0.0
 10
1.289966982908357
 20
-0.3141946154414744
 30
0.0
 10
1.315922128239301
 20
-0.879237162481221
 30
0.0
 10
1.351280265379909
 20
-1.406252857411896
 30
0.0
 10
1.396885824744822
 20
-1.895910870833892
 30
0.0
 10
1.464612746999202
 20
-2.346553781590214
 30
0.0
 10
1.540498980503556
 20
-2.761280994726502
 30
0.0
 10
1.63284793601449
 20
-3.137897725214235
 30
0.0
 10
1.742112298301653
 20
-3.478988342519365
 30
0.0
 10
1.866565570702197
 20
-3.79034149321372
 30
0.0
 10
2.0024478435739
 20
-4.080060986616599
 30
0.0
 10
2.148422370309246
 20
-4.35156928562709
 30
0.0
 10
2.311790158393444
 20
-4.602427607230474
 30
0.0
 10
2.4897118579463
 20
-4.833454024685601
 30
0.0
 10
2.678168682821301
 20
-5.048737591781135
 30
0.0
 10
2.884194043858936
 20
-5.240724654647978
 30
0.0
 10
3.169210083329836
 20
-5.470982604774283
 30
0.0
 10
3.523995763734118
 20
-5.695335504640199
 30
0.0
 10
3.821185801379732
 20
-5.82911430822388
 30
0.0
 10
3.957331729842088
 20
-5.880053241978763
 30
0.0
  0
LINE
  5
B6
330
1F
100
AcDbEntity
  8
0
  6
Continuous
 62
     7
370
    25
100
AcDbLine
 10
3.9573317308
 20
-5.8800532395
 30
0.0
 11
3.9573317405
 21
-7.5002925451
 31
0.0
  0
SPLINE
  5
B7
330
1F
100
AcDbEntity
  8
0
  6
Continuous
 62
     7
370
    25
100
AcDbSpline
210
0.0
220
0.0
230
1.0
 70
     8
 71
     3
 72
    29
 73
    25
 74
     0
 42
0.00000001
 43
0.00000001
 40
0.0959935915698491
 40
0.0959935915698491
 40
0.0959935915698491
 40
0.0959935915698491
 40
0.0992848780959722
 40
0.1313611650426505
 40
0.1635851875953431
 40
0.1961039269870679
 40
0.2289022543238168
 40
0.2621580559050074
 40
0.2959912222583163
 40
0.3302178457247997
 40
0.3650598258919538
 40
0.4009507373401076
 40
0.4376203820767376
 40
0.4757075294370918
 40
0.5153806916250482
 40
0.5564135414931641
 40
0.5997648298727309
 40
0.6464241555840872
 40
0.6964314445175666
 40
0.7497815178015574
 40
0.8065733069755323
 40
0.8674355315653995
 40
0.931886753250874
 40
1.0
 40
1.0
 40
1.0
 40
1.0
 10
3.957331740521067
 20
-7.50029254512216
 30
0.0
 10
3.946103004032634
 20
-7.497716781799022
 30
0.0
 10
3.825555490636067
 20
-7.469547044535677
 30
0.0
 10
3.597613180764506
 20
-7.405565000953153
 30
0.0
 10
3.277442401834424
 20
-7.293215702458418
 30
0.0
 10
2.968458316166726
 20
-7.146842772731349
 30
0.0
 10
2.667225386063838
 20
-6.978268191491497
 30
0.0
 10
2.374547288843488
 20
-6.786287813898855
 30
0.0
 10
2.095923741529923
 20
-6.566337743348607
 30
0.0
 10
1.829786861613479
 20
-6.323062220406509
 30
0.0
 10
1.582822494055036
 20
-6.050390457703294
 30
0.0
 10
1.352962084266492
 20
-5.752627930098789
 30
0.0
 10
1.134501706284745
 20
-5.432514034386998
 30
0.0
 10
0.933547249202245
 20
-5.085678149906625
 30
0.0
 10
0.7476721603391516
 20
-4.713495533522591
 30
0.0
 10
0.5777714860454612
 20
-4.313561630629316
 30
0.0
 10
0.4271343566958125
 20
-3.880040511230227
 30
0.0
 10
0.2940727504954348
 20
-3.407972603362421
 30
0.0
 10
0.1890120756237207
 20
-2.893191305730809
 30
0.0
 10
0.0990851241971069
 20
-2.339831160993449
 30
0.0
 10
0.0265520540106874
 20
-1.745514316482686
 30
0.0
 10
-0.0229664830680366
 20
-1.109918124253146
 30
0.0
 10
-0.0535721189355828
 20
-0.433438657426795
 30
0.0
 10
-0.056293849307517
 20
0.030574661072951
 30
0.0
 10
-0.0576923076923111
 20
0.2689903846153892
 30
0.0
  0
SPLINE
  5
B8
330
1F
100
AcDbEntity
  8
0
  6
Continuous
 62
     7
370
    25
100
AcDbSpline
210
0.0
220
0.0
230
1.0
 70
     8
 71
     3
 72
    29
 73
    25
 74
     0
 42
0.00000001
 43
0.00000001
 40
0.0
 40
0.0
 40
0.0
 40
0.0
 40
0.0685946222587425
 40
0.1332460424433009
 40
0.1943125864682562
 40
0.2512792231169663
 40
0.3045134392563467
 40
0.3542349066533249
 40
0.400480588773989
 40
0.4434107549384917
 40
0.484014868616345
 40
0.523252300773203
 40
0.5610423727283601
 40
0.5979002393643998
 40
0.6335184888561954
 40
0.6683143511696514
 40
0.7024956712863816
 40
0.7366853535134583
 40
0.7702931693607888
 40
0.803437255019249
 40
0.8359129516660287
 40
0.8684602457892908
 40
0.9008465382431826
 40
0.9041354643355672
 40
0.9041354643355672
 40
0.9041354643355672
 40
0.9041354643355672
 10
-0.0576923076923111
 20
0.2689903846153892
 30
0.0
 10
-0.0562865155888905
 20
0.5094077606193144
 30
0.0
 10
-0.0535557441652609
 20
0.9764219788227421
 30
0.0
 10
-0.0231767972699459
 20
1.656927587680457
 30
0.0
 10
0.0272889555007977
 20
2.295328826231212
 30
0.0
 10
0.0964491248591213
 20
2.891656252110185
 30
0.0
 10
0.1806118972459511
 20
3.446063814328941
 30
0.0
 10
0.2929639826801526
 20
3.957069916341655
 30
0.0
 10
0.4207331367442819
 20
4.427039658969062
 30
0.0
 10
0.5688150473607267
 20
4.857505581009145
 30
0.0
 10
0.7359055717250518
 20
5.254267165389842
 30
0.0
 10
0.9177666891053449
 20
5.624660885220252
 30
0.0
 10
1.121615808063521
 20
5.968126309533582
 30
0.0
 10
1.335802577751122
 20
6.290145411333344
 30
0.0
 10
1.568997170441752
 20
6.585446960443368
 30
0.0
 10
1.814563415301382
 20
6.858201228379905
 30
0.0
 10
2.0820857421605
 20
7.10210444465337
 30
0.0
 10
2.362470063332409
 20
7.324302883446562
 30
0.0
 10
2.658254910725491
 20
7.519086333469169
 30
0.0
 10
2.961009194196362
 20
7.690655213251003
 30
0.0
 10
3.272816790721805
 20
7.837226072926459
 30
0.0
 10
3.594529003141509
 20
7.952470798038777
 30
0.0
 10
3.824417686063736
 20
8.019039924957422
 30
0.0
 10
3.946101677733228
 20
8.047778323908625
 30
0.0
 10
3.957331730769227
 20
8.050377123319446
 30
0.0
  0
LINE
  5
B9
330
1F
100
AcDbEntity
  8
0
  6
Continuous
 62
     7
370
    25
100
AcDbLine
 10
3.9573317308
 20
8.0503771233
 30
0.0
 11
3.9573317305
 21
6.4351361331
 31
0.0
  0
SPLINE
  5
BA
330
1F
100
AcDbEntity
  8
0
  6
Continuous
 62
     7
370
    25
100
AcDbSpline
210
0.0
220
0.0
230
1.0
 70
     8
 71
     3
 72
    25
 73
    21
 74
     0
 42
0.00000001
 43
0.00000001
 40
0.1293296934650013
 40
0.1293296934650013
 40
0.1293296934650013
 40
0.1293296934650013
 40
0.1827546186251396
 40
0.2478110297583511
 40
0.2812991000432489
 40
0.3150876241506571
 40
0.3497023955502753
 40
0.3848565811185556
 40
0.4209661972261025
 40
0.458511188261139
 40
0.4971747221273122
 40
0.5376020478662695
 40
0.5805030184200116
 40
0.6274675400267048
 40
0.6783882095592435
 40
0.7339832205925605
 40
0.7937467045508348
 40
0.857713672160732
 40
0.926697864361386
 40
1.0
 40
1.0
 40
1.0
 40
1.0
 10
3.957331730520556
 20
6.435136133067801
 30
0.0
 10
3.819868009243635
 20
6.383362122390269
 30
0.0
 10
3.524054220606101
 20
6.245306598143181
 30
0.0
 10
3.169842794411728
 20
6.022196848673782
 30
0.0
 10
2.883283709379179
 20
5.797889799638134
 30
0.0
 10
2.681500737764528
 20
5.603376425101862
 30
0.0
 10
2.492302856831539
 20
5.390606763536998
 30
0.0
 10
2.318012713384472
 20
5.157455699892619
 30
0.0
 10
2.154772928274782
 20
4.906889839953509
 30
0.0
 10
2.004854302950331
 20
4.636937991130965
 30
0.0
 10
1.869780032910129
 20
4.34623214445068
 30
0.0
 10
1.745132020709407
 20
4.035018849797556
 30
0.0
 10
1.635534357739885
 20
3.693957659359508
 30
0.0
 10
1.545131658182798
 20
3.317804829673244
 30
0.0
 10
1.46161571624039
 20
2.904396722005302
 30
0.0
 10
1.402493135237994
 20
2.45131311652592
 30
0.0
 10
1.349934181973513
 20
1.961532459229224
 30
0.0
 10
1.316156976463845
 20
1.433201095389207
 30
0.0
 10
1.289880158738564
 20
0.8672108936648121
 30
0.0
 10
1.288943882898194
 20
0.4763573572249014
 30
0.0
 10
1.288461538461535
 20
0.2750000000000044
 30
0.0
  0
SPLINE
  5
BB
330
1F
100
AcDbEntity
  8
0
  6
Continuous
 62
     7
370
    25
100
AcDbSpline
210
0.0
220
0.0
230
1.0
 70
     8
 71
     3
 72
    23
 73
    19
 74
     0
 42
0.00000001
 43
0.00000001
 40
0.0
 40
0.0
 40
0.0
 40
0.0
 40
0.0619654006870622
 40
0.1221219056382956
 40
0.1809884968498415
 40
0.2399332164519023
 40
0.299905831106524
 40
0.3599888474769873
 40
0.4217757417416462
 40
0.4865758264211265
 40
0.5515348046197415
 40
0.6150175427599798
 40
0.6772586166616571
 40
0.7397299623627137
 40
0.8030501026629508
 40
0.8664951320156984
 40
0.9319734741771489
 40
1.0
 40
1.0
 40
1.0
 40
1.0
 10
18.8653846153846
 20
3.580288461538466
 30
0.0
 10
18.86266000552995
 20
3.68263731187051
 30
0.0
 10
18.85729032270888
 20
3.884347241990395
 30
0.0
 10
18.80990019059255
 20
4.180086209213044
 30
0.0
 10
18.73828373590182
 20
4.465363982709295
 30
0.0
 10
18.63566120141068
 20
4.741058064642879
 30
0.0
 10
18.50020374390207
 20
5.004396573497921
 30
0.0
 10
18.33531782996952
 20
5.255700060084783
 30
0.0
 10
18.14507470103581
 20
5.498652768085129
 30
0.0
 10
17.92499783247495
 20
5.726452616905453
 30
0.0
 10
17.68323417616102
 20
5.935086354687431
 30
0.0
 10
17.42783024936718
 20
6.11990386360615
 30
0.0
 10
17.1576155168247
 20
6.274357195601095
 30
0.0
 10
16.87372927892833
 20
6.400972183517213
 30
0.0
 10
16.57696298146395
 20
6.500295245787246
 30
0.0
 10
16.26674264522512
 20
6.569117729029125
 30
0.0
 10
15.94392543258582
 20
6.612328374514713
 30
0.0
 10
15.72349616534022
 20
6.618174825550575
 30
0.0
 10
15.61117788461537
 20
6.621153846153851
 30
0.0
  0
SPLINE
  5
BC
330
1F
100
AcDbEntity
  8
0
  6
Continuous
 62
     7
370
    25
100
AcDbSpline
210
0.0
220
0.0
230
1.0
 70
     8
 71
     3
 72
    23
 73
    19
 74
     0
 42
0.00000001
 43
0.00000001
 40
0.0
 40
0.0
 40
0.0
 40
0.0
 40
0.0644386715952427
 40
0.1265469112716774
 40
0.1868871534365702
 40
0.245877535589455
 40
0.3040408846912665
 40
0.3621912180726602
 40
0.4209759327916443
 40
0.4806602832796659
 40
0.5406002749537576
 40
0.600689098349453
 40
0.6619357897571955
 40
0.7244425059139823
 40
0.7890383938817437
 40
0.8563137570509943
 40
0.9263520282058635
 40
1.0
 40
1.0
 40
1.0
 40
1.0
 10
15.61117788461537
 20
6.621153846153851
 30
0.0
 10
15.4938743156597
 20
6.618089422165571
 30
0.0
 10
15.26350947471873
 20
6.612071399432584
 30
0.0
 10
14.92528504784785
 20
6.569974268038187
 30
0.0
 10
14.60263171560272
 20
6.497349237765607
 30
0.0
 10
14.2947378458045
 20
6.398020633249812
 30
0.0
 10
14.00108247803567
 20
6.271769709725571
 30
0.0
 10
13.72309371787572
 20
6.114519375387984
 30
0.0
 10
13.4613956210475
 20
5.92687583330566
 30
0.0
 10
13.2154962352811
 20
5.714130591916892
 30
0.0
 10
12.98893632500876
 20
5.477269443848638
 30
0.0
 10
12.78987828558769
 20
5.213226744990301
 30
0.0
 10
12.61594679640069
 20
4.926823536257043
 30
0.0
 10
12.46419293863013
 20
4.618832605245539
 30
0.0
 10
12.34095426684683
 20
4.286459262454784
 30
0.0
 10
12.24678362214211
 20
3.930883384532861
 30
0.0
 10
12.17226856476377
 20
3.553648892653367
 30
0.0
 10
12.1473749050287
 20
3.293141386125196
 30
0.0
 10
12.13461538461538
 20
3.159615384615389
 30
0.0
  0
LINE
  5
BD
330
1F
100
AcDbEntity
  8
0
  6
Continuous
 62
     7
370
    25
100
AcDbLine
 10
12.1346153846
 20
3.1596153846
 30
0.0
 11
10.7884615385
 21
3.1596153846
 31
0.0
  0
SPLINE
  5
BE
330
1F
100
AcDbEntity
  8
0
  6
Continuous
 62
     7
370
    25
100
AcDbSpline
210
0.0
220
0.0
230
1.0
 70
     8
 71
     3
 72
    23
 73
    19
 74
     0
 42
0.00000001
 43
0.00000001
 40
0.0
 40
0.0
 40
0.0
 40
0.0
 40
0.0687907943906181
 40
0.1351032894311277
 40
0.1989786743106512
 40
0.2619042997808562
 40
0.3234949693679691
 40
0.3851953779660511
 40
0.4469692387407741
 40
0.5097647767031319
 40
0.572250568847368
 40
0.6334051756611525
 40
0.6932511629217525
 40
0.75258316278567
 40
0.8125792661534209
 40
0.8732750849201917
 40
0.9355499428950289
 40
1.0
 40
1.0
 40
1.0
 40
1.0
 10
10.78846153846153
 20
3.159615384615389
 30
0.0
 10
10.79723505135266
 20
3.338204903620231
 30
0.0
 10
10.81446599717844
 20
3.688949966084106
 30
0.0
 10
10.89515866544304
 20
4.200338136365916
 30
0.0
 10
11.01061956774962
 20
4.689144416615331
 30
0.0
 10
11.17386865638451
 20
5.151444047913859
 30
0.0
 10
11.37660984682636
 20
5.591324650329537
 30
0.0
 10
11.61973853560161
 20
6.007039003292178
 30
0.0
 10
11.90771218065914
 20
6.397001240640487
 30
0.0
 10
12.23431246942526
 20
6.757596283335348
 30
0.0
 10
12.58903520823241
 20
7.088400158189646
 30
0.0
 10
12.97177494882258
 20
7.374065484501788
 30
0.0
 10
13.37396792290674
 20
7.615426933195958
 30
0.0
 10
13.79439391847272
 20
7.817203683869577
 30
0.0
 10
14.23779633372752
 20
7.968660166394701
 30
0.0
 10
14.70015143875371
 20
8.081038621842971
 30
0.0
 10
15.18349059479415
 20
8.148651532078283
 30
0.0
 10
15.5128049749953
 20
8.155919184668129
 30
0.0
 10
15.68028846153846
 20
8.159615384615392
 30
0.0
  0
SPLINE
  5
BF
330
1F
100
AcDbEntity
  8
0
  6
Continuous
 62
     7
370
    25
100
AcDbSpline
210
0.0
220
0.0
230
1.0
 70
     8
 71
     3
 72
    23
 73
    19
 74
     0
 42
0.00000001
 43
0.00000001
 40
0.0
 40
0.0
 40
0.0
 40
0.0
 40
0.0694754602496704
 40
0.1365167976177989
 40
0.2007888236092609
 40
0.263829672855826
 40
0.3257350229654195
 40
0.3872906922152906
 40
0.4495092187626022
 40
0.512967819545441
 40
0.5762752154930608
 40
0.6375801002639242
 40
0.6979026059171017
 40
0.7571720884269854
 40
0.8165985284886553
 40
0.8766531708928195
 40
0.9372896424102402
 40
1.0
 40
1.0
 40
1.0
 40
1.0
 10
15.68028846153845
 20
8.15961538461539
 30
0.0
 10
15.84476592191278
 20
8.155764856992128
 30
0.0
 10
16.16795825615454
 20
8.148198707759324
 30
0.0
 10
16.63965260380976
 20
8.083222868042625
 30
0.0
 10
17.08869815150998
 20
7.981456046748528
 30
0.0
 10
17.51421715088956
 20
7.838675691120114
 30
0.0
 10
17.91281457048063
 20
7.646742430866423
 30
0.0
 10
18.28748476143639
 20
7.416181550902921
 30
0.0
 10
18.64268823625497
 20
7.149525130736493
 30
0.0
 10
18.9624315945928
 20
6.835580215957679
 30
0.0
 10
19.25603764846248
 20
6.500427139656123
 30
0.0
 10
19.50933302765223
 20
6.142621838461194
 30
0.0
 10
19.72624658539505
 20
5.773067756825401
 30
0.0
 10
19.90705092774296
 20
5.388946892904642
 30
0.0
 10
20.04014866605351
 20
4.986642485421674
 30
0.0
 10
20.14119812903654
 20
4.572011616314618
 30
0.0
 10
20.19831561627122
 20
4.140762426286487
 30
0.0
 10
20.20708171697629
 20
3.848877187796151
 30
0.0
 10
20.21153846153845
 20
3.700480769230774
 30
0.0
  0
SPLINE
  5
C0
330
1F
100
AcDbEntity
  8
0
  6
Continuous
 62
     7
370
    25
100
AcDbSpline
210
0.0
220
0.0
230
1.0
 70
     8
 71
     3
 72
    19
 73
    15
 74
     0
 42
0.00000001
 43
0.00000001
 40
0.0
 40
0.0
 40
0.0
 40
0.0
 40
0.0987021963061526
 40
0.1956723088106642
 40
0.2924224265079542
 40
0.3913425437998245
 40
0.4444624406718917
 40
0.5042287754493158
 40
0.5703523379946781
 40
0.642545753097748
 40
0.7222875053440184
 40
0.807921122682712
 40
0.9004695379850146
 40
1.0
 40
1.0
 40
1.0
 40
1.0
 10
20.21153846153846
 20
3.700480769230774
 30
0.0
 10
20.20428162072497
 20
3.491561478195805
 30
0.0
 10
20.18989528637995
 20
3.077389133893561
 30
0.0
 10
20.06683367251959
 20
2.468754007825618
 30
0.0
 10
19.87463433925337
 20
1.879067926025588
 30
0.0
 10
19.64321709561331
 20
1.40447948852082
 30
0.0
 10
19.40976376392038
 20
1.022050229562114
 30
0.0
 10
19.19938873137619
 20
0.7071843513346442
 30
0.0
 10
18.95311096985416
 20
0.3681609153800817
 30
0.0
 10
18.66734597858549
 20
0.0061151837774237
 30
0.0
 10
18.34800509793948
 20
-0.3817886952164011
 30
0.0
 10
17.99219582641104
 20
-0.7953163897810088
 30
0.0
 10
17.59738090346219
 20
-1.230195403295523
 30
0.0
 10
17.32027304308645
 20
-1.527219409243358
 30
0.0
 10
17.17668269230768
 20
-1.681129807692303
 30
0.0
  0
LINE
  5
C1
330
1F
100
AcDbEntity
  8
0
  6
Continuous
 62
     7
370
    25
100
AcDbLine
 10
17.1766826923
 20
-1.6811298077
 30
0.0
 11
13.4236778846
 21
-5.6865384615
 31
0.0
  0
LINE
  5
C2
330
1F
100
AcDbEntity
  8
0
  6
Continuous
 62
     7
370
    25
100
AcDbLine
 10
13.4236778846
 20
-5.6865384615
 30
0.0
 11
20.4038461538
 21
-5.6865384615
 31
0.0
  0
LINE
  5
C3
330
1F
100
AcDbEntity
  8
0
  6
Continuous
 62
     7
370
    25
100
AcDbLine
 10
20.4038461538
 20
-5.6865384615
 30
0.0
 11
20.4038461538
 21
-7.225
 31
0.0
  0
LINE
  5
C4
330
1F
100
AcDbEntity
  8
0
  6
Continuous
 62
     7
370
    25
100
AcDbLine
 10
20.4038461538
 20
-7.225
 30
0.0
 11
10.2115384615
 21
-7.225
 31
0.0
  0
LINE
  5
C5
330
1F
100
AcDbEntity
  8
0
  6
Continuous
 62
     7
370
    25
100
AcDbLine
 10
10.2115384615
 20
-7.225
 30
0.0
 11
16.0288461538
 21
-1.0170673077
 31
0.0
  0
SPLINE
  5
C6
330
1F
100
AcDbEntity
  8
0
  6
Continuous
 62
     7
370
    25
100
AcDbSpline
210
0.0
220
0.0
230
1.0
 70
     8
 71
     3
 72
    19
 73
    15
 74
     0
 42
0.00000001
 43
0.00000001
 40
0.0
 40
0.0
 40
0.0
 40
0.0
 40
0.1108026438013189
 40
0.2128292023477705
 40
0.3061013098231113
 40
0.3906473211160105
 40
0.4669244693608518
 40
0.5344810392840306
 40
0.5935869409656729
 40
0.6445570045087179
 40
0.7362004526293734
 40
0.8250240256188645
 40
0.9119855848297583
 40
1.0
 40
1.0
 40
1.0
 40
1.0
 10
16.02884615384614
 20
-1.017067307692303
 30
0.0
 10
16.17047995445123
 20
-0.8692174224839833
 30
0.0
 10
16.44252949924653
 20
-0.5852280513231339
 30
0.0
 10
16.82731197128597
 20
-0.1706153650344695
 30
0.0
 10
17.17290763548198
 20
0.214025523903188
 30
0.0
 10
17.48155360450408
 20
0.5679678743795459
 30
0.0
 10
17.74655434178618
 20
0.8963888792174786
 30
0.0
 10
17.9817210501338
 20
1.18865189459356
 30
0.0
 10
18.17014501148554
 20
1.457599538770311
 30
0.0
 10
18.37463956443269
 20
1.769345026966868
 30
0.0
 10
18.57269948471081
 20
2.149969243427105
 30
0.0
 10
18.7428952963125
 20
2.615113625974451
 30
0.0
 10
18.84667321823516
 20
3.09394470887154
 30
0.0
 10
18.85912251326013
 20
3.41752486764555
 30
0.0
 10
18.8653846153846
 20
3.580288461538466
 30
0.0
  0
CIRCLE
  5
C7
330
1F
100
AcDbEntity
  8
0
  6
Continuous
 62
     7
370
    25
100
AcDbCircle
 10
44.45
 20
-12.7
 30
0.0
 40
3.000000000000007
  0
CIRCLE
  5
C8
330
1F
100
AcDbEntity
  8
0
  6
Continuous
 62
     7
370
    25
100
AcDbCircle
 10
-44.45
 20
-12.7
 30
0.0
 40
3.0
  0
LINE
  5
C9
330
1F
100
AcDbEntity
  8
0
  6
Continuous
 62
     7
370
    25
100
AcDbLine
 10
-47.0
 20
-22.225
 30
0.0
 11
47.0
 21
-22.225
 31
0.0
  0
ARC
  5
CA
330
1F
100
AcDbEntity
  8
0
  6
Continuous
 62
     7
370
    25
100
AcDbCircle
 10
47.0
 20
-19.225
 30
0.0
 40
3.0
100
AcDbArc
 50
270.0
 51
0.0
  0
LINE
  5
CB
330
1F
100
AcDbEntity
  8
0
  6
Continuous
 62
     7
370
    25
100
AcDbLine
 10
50.0
 20
-19.225
 30
0.0
 11
50.0
 21
19.225
 31
0.0
  0
ARC
  5
CC
330
1F
100
AcDbEntity
  8
0
  6
Continuous
 62
     7
370
    25
100
AcDbCircle
 10
47.0
 20
19.225
 30
0.0
 40
3.0
100
AcDbArc
 50
0.0
 51
90.0
  0
LINE
  5
CD
330
1F
100
AcDbEntity
  8
0
  6
Continuous
 62
     7
370
    25
100
AcDbLine
 10
47.0
 20
22.225
 30
0.0
 11
-47.0
 21
22.225
 31
0.0
  0
ARC
  5
CE
330
1F
100
AcDbEntity
  8
0
  6
Continuous
 62
     7
370
    25
100
AcDbCircle
 10
-47.0
 20
19.225
 30
0.0
 40
3.0
100
AcDbArc
 50
90.0
 51
180.0
  0
LINE
  5
CF
330
1F
100
AcDbEntity
  8
0
  6
Continuous
 62
     7
370
    25
100
AcDbLine
 10
-50.0
 20
19.225
 30
0.0
 11
-50.0
 21
-19.225
 31
0.0
  0
ARC
  5
D0
330
1F
100
AcDbEntity
  8
0
  6
Continuous
 62
     7
370
    25
100
AcDbCircle
 10
-47.0
 20
-19.225
 30
0.0
 40
3.0
100
AcDbArc
 50
180.0
 51
270.0
  0
CIRCLE
  5
D1
330
1F
100
AcDbEntity
  8
0
  6
Continuous
 62
     7
370
    25
100
AcDbCircle
 10
-44.45
 20
12.7
 30
0.0
 40
3.0
  0
CIRCLE
  5
D2
330
1F
100
AcDbEntity
  8
0
  6
Continuous
 62
     7
370
    25
100
AcDbCircle
 10
44.45
 20
12.7
 30
0.0
 40
3.000000000000007
  0
LINE
  5
D3
330
1F
100
AcDbEntity
  8
0
  6
Continuous
 62
     7
370
    25
100
AcDbLine
 10
-5.7115384615
 20
6.2365384615
 30
0.0
 11
-8.0192307692
 21
6.2365384615
 31
0.0
  0
LINE
  5
D4
330
1F
100
AcDbEntity
  8
0
  6
Continuous
 62
     7
370
    25
100
AcDbLine
 10
-8.0192307692
 20
6.2365384615
 30
0.0
 11
-7.1388221154
 21
7.775
 31
0.0
  0
LINE
  5
D5
330
1F
100
AcDbEntity
  8
0
  6
Continuous
 62
     7
370
    25
100
AcDbLine
 10
-7.1388221154
 20
7.775
 30
0.0
 11
-4.3653846154
 21
7.775
 31
0.0
  0
LINE
  5
D6
330
1F
100
AcDbEntity
  8
0
  6
Continuous
 62
     7
370
    25
100
AcDbLine
 10
-4.3653846154
 20
7.775
 30
0.0
 11
-4.3653846154
 21
-7.225
 31
0.0
  0
LINE
  5
D7
330
1F
100
AcDbEntity
  8
0
  6
Continuous
 62
     7
370
    25
100
AcDbLine
 10
-4.3653846154
 20
-7.225
 30
0.0
 11
-5.7115384615
 21
-7.225
 31
0.0
  0
LINE
  5
D8
330
1F
100
AcDbEntity
  8
0
  6
Continuous
 62
     7
370
    25
100
AcDbLine
 10
-5.7115384615
 20
-7.225
 30
0.0
 11
-5.7115384615
 21
6.2365384615
 31
0.0
  0
LINE
  5
D9
330
1F
100
AcDbEntity
  8
0
  6
Continuous
 62
     7
370
    25
100
AcDbLine
 10
-12.6814903846
 20
6.2365384615
 30
0.0
 11
-19.6346153846
 21
6.2365384615
 31
0.0
  0
LINE
  5
DA
330
1F
100
AcDbEntity
  8
0
  6
Continuous
 62
     7
370
    25
100
AcDbLine
 10
-19.6346153846
 20
6.2365384615
 30
0.0
 11
-19.6346153846
 21
7.775
 31
0.0
  0
LINE
  5
DB
330
1F
100
AcDbEntity
  8
0
  6
Continuous
 62
     7
370
    25
100
AcDbLine
 10
-19.6346153846
 20
7.775
 30
0.0
 11
-10.4038461538
 21
7.775
 31
0.0
  0
LINE
  5
DC
330
1F
100
AcDbEntity
  8
0
  6
Continuous
 62
     7
370
    25
100
AcDbLine
 10
-10.4038461538
 20
7.775
 30
0.0
 11
-18.2884615385
 21
-7.6096153846
 31
0.0
  0
LINE
  5
DD
330
1F
100
AcDbEntity
  8
0
  6
Continuous
 62
     7
370
    25
100
AcDbLine
 10
-18.2884615385
 20
-7.6096153846
 30
0.0
 11
-19.4513221154
 21
-6.9695913462
 31
0.0
  0
LINE
  5
DE
330
1F
100
AcDbEntity
  8
0
  6
Continuous
 62
     7
370
    25
100
AcDbLine
 10
-19.4513221154
 20
-6.9695913462
 30
0.0
 11
-12.6814903846
 21
6.2365384615
 31
0.0
  0
MTEXT
  5
E0
330
1F
100
AcDbEntity
  8
0
  6
Continuous
 62
     7
100
AcDbMText
 10
-50.0
 20
-23.2445663917
 30
0.0
 40
4.83362
 41
0.0
 71
     1
 72
     1
  1
SOLIDWORKS Educational Product.
  7
SLDTEXTSTYLE0
 73
     1
 44
1.0
  0
MTEXT
  5
E1
330
1F
100
AcDbEntity
  8
0
  6
Continuous
 62
     7
100
AcDbMText
 10
-50.0
 20
-30.4949963917
 30
0.0
 40
4.83362
 41
0.0
 71
     1
 72
     1
  1
For Instructional Use Only.
  7
SLDTEXTSTYLE0
 73
     1
 44
1.0
  0
ENDSEC
  0
SECTION
  2
OBJECTS
  0
DICTIONARY
  5
C
330
0
100
AcDbDictionary
281
     1
  3
ACAD_GROUP
350
D
  3
ACAD_LAYOUT
350
1A
  3
ACAD_MLINESTYLE
350
17
  3
ACAD_PLOTSETTINGS
350
19
  3
ACAD_PLOTSTYLENAME
350
E
  3
ACAD_SCALELIST
350
47
  3
DWGPROPS
350
E2
  0
DICTIONARY
  5
D
102
{ACAD_REACTORS
330
C
102
}
330
C
100
AcDbDictionary
281
     1
  0
DICTIONARY
  5
1A
102
{ACAD_REACTORS
330
C
102
}
330
C
100
AcDbDictionary
281
     1
  3
Layout1
350
1E
  3
Layout2
350
26
  3
Model
350
22
  0
DICTIONARY
  5
17
102
{ACAD_REACTORS
330
C
102
}
330
C
100
AcDbDictionary
281
     1
  3
Standard
350
18
  0
DICTIONARY
  5
19
102
{ACAD_REACTORS
330
C
102
}
330
C
100
AcDbDictionary
281
     1
  0
ACDBDICTIONARYWDFLT
  5
E
102
{ACAD_REACTORS
330
C
102
}
330
C
100
AcDbDictionary
281
     1
  3
Normal
350
F
100
AcDbDictionaryWithDefault
340
F
  0
DICTIONARY
  5
47
102
{ACAD_REACTORS
330
C
102
}
330
C
100
AcDbDictionary
281
     1
  3
A0
350
48
  3
A1
350
49
  3
A2
350
4A
  3
A3
350
4B
  3
A4
350
4C
  3
A5
350
4D
  3
A6
350
4E
  3
A7
350
4F
  3
A8
350
50
  3
A9
350
51
  3
B0
350
52
  3
B1
350
53
  3
B2
350
54
  3
B3
350
55
  3
B4
350
56
  3
B5
350
57
  3
B6
350
58
  3
B7
350
59
  3
B8
350
5A
  3
B9
350
5B
  3
C0
350
5C
  3
C1
350
5D
  3
C2
350
5E
  3
C3
350
5F
  3
C4
350
60
  3
C5
350
61
  3
C6
350
62
  3
C7
350
63
  3
C8
350
64
  3
C9
350
65
  3
D0
350
66
  3
D1
350
67
  3
D2
350
68
  0
XRECORD
  5
E2
102
{ACAD_REACTORS
330
C
102
}
330
C
100
AcDbXrecord
280
     1
  1
DWGPROPS COOKIE
  2

  3

  4

  6

  7

  8
Pitip
  9

300
=
301
=
302
=
303
=
304
=
305
=
306
=
307
=
308
=
309
=
 40
0.0
 41
2459599.656114641
 42
2459599.656151748
  1

 90
        0
  0
LAYOUT
  5
1E
102
{ACAD_REACTORS
330
1A
102
}
330
1A
100
AcDbPlotSettings
  1

  2
none_device
  4

  6

 40
0.0
 41
0.0
 42
0.0
 43
0.0
 44
0.0
 45
0.0
 46
0.0
 47
0.0
 48
0.0
 49
0.0
140
0.0
141
0.0
142
1.0
143
1.0
 70
   688
 72
     1
 73
     0
 74
     5
  7

 75
    16
147
1.0
148
0.0
149
0.0
100
AcDbLayout
  1
Layout1
 70
     1
 71
     1
 10
0.0
 20
0.0
 11
420.0
 21
297.0
 12
0.0
 22
0.0
 32
0.0
 14
1.0000000000E+20
 24
1.0000000000E+20
 34
1.0000000000E+20
 15
-1.0000000000E+20
 25
-1.0000000000E+20
 35
-1.0000000000E+20
146
0.0
 13
0.0
 23
0.0
 33
0.0
 16
1.0
 26
0.0
 36
0.0
 17
0.0
 27
1.0
 37
0.0
 76
     0
330
1B
  0
LAYOUT
  5
26
102
{ACAD_REACTORS
330
1A
102
}
330
1A
100
AcDbPlotSettings
  1

  2
none_device
  4

  6

 40
0.0
 41
0.0
 42
0.0
 43
0.0
 44
0.0
 45
0.0
 46
0.0
 47
0.0
 48
0.0
 49
0.0
140
0.0
141
0.0
142
1.0
143
1.0
 70
   688
 72
     1
 73
     0
 74
     5
  7

 75
    16
147
1.0
148
0.0
149
0.0
100
AcDbLayout
  1
Layout2
 70
     1
 71
     2
 10
0.0
 20
0.0
 11
0.0
 21
0.0
 12
0.0
 22
0.0
 32
0.0
 14
0.0
 24
0.0
 34
0.0
 15
0.0
 25
0.0
 35
0.0
146
0.0
 13
0.0
 23
0.0
 33
0.0
 16
1.0
 26
0.0
 36
0.0
 17
0.0
 27
1.0
 37
0.0
 76
     0
330
23
  0
LAYOUT
  5
22
102
{ACAD_REACTORS
330
1A
102
}
330
1A
100
AcDbPlotSettings
  1

  2
none_device
  4
ANSI_A_(11.00_x_8.50_Inches)
  6

 40
6.35
 41
19.05
 42
6.35000508
 43
19.05000254
 44
279.4
 45
215.9
 46
133.34999746
 47
88.89999873
 48
0.0
 49
0.0
140
0.0
141
0.0
142
0.1089
143
1.0
 70
  1696
 72
     0
 73
     0
 74
     0
  7

 75
     0
147
0.0179189148
148
-1300.4909072572
149
0.0
100
AcDbLayout
  1
Model
 70
     1
 71
     0
 10
0.0
 20
0.0
 11
420.0
 21
297.0
 12
0.0
 22
0.0
 32
0.0
 14
-50.0
 24
-22.225
 34
0.0
 15
50.0
 25
22.225
 35
0.0
146
0.0
 13
0.0
 23
0.0
 33
0.0
 16
1.0
 26
0.0
 36
0.0
 17
0.0
 27
1.0
 37
0.0
 76
     0
330
1F
331
29
  0
MLINESTYLE
  5
18
102
{ACAD_REACTORS
330
17
102
}
330
17
100
AcDbMlineStyle
  2
Standard
 70
     0
  3

 62
   256
 51
90.0
 52
90.0
 71
     2
 49
0.5
 62
   256
  6
BYLAYER
 49
-0.5
 62
   256
  6
BYLAYER
  0
ACDBPLACEHOLDER
  5
F
102
{ACAD_REACTORS
330
E
102
}
330
E
  0
SCALE
  5
48
102
{ACAD_REACTORS
330
47
102
}
330
47
100
AcDbScale
 70
     0
300
1:1
140
1.0
141
1.0
290
     1
  0
SCALE
  5
49
102
{ACAD_REACTORS
330
47
102
}
330
47
100
AcDbScale
 70
     0
300
1:2
140
1.0
141
2.0
290
     0
  0
SCALE
  5
4A
102
{ACAD_REACTORS
330
47
102
}
330
47
100
AcDbScale
 70
     0
300
1:4
140
1.0
141
4.0
290
     0
  0
SCALE
  5
4B
102
{ACAD_REACTORS
330
47
102
}
330
47
100
AcDbScale
 70
     0
300
1:5
140
1.0
141
5.0
290
     0
  0
SCALE
  5
4C
102
{ACAD_REACTORS
330
47
102
}
330
47
100
AcDbScale
 70
     0
300
1:8
140
1.0
141
8.0
290
     0
  0
SCALE
  5
4D
102
{ACAD_REACTORS
330
47
102
}
330
47
100
AcDbScale
 70
     0
300
1:10
140
1.0
141
10.0
290
     0
  0
SCALE
  5
4E
102
{ACAD_REACTORS
330
47
102
}
330
47
100
AcDbScale
 70
     0
300
1:16
140
1.0
141
16.0
290
     0
  0
SCALE
  5
4F
102
{ACAD_REACTORS
330
47
102
}
330
47
100
AcDbScale
 70
     0
300
1:20
140
1.0
141
20.0
290
     0
  0
SCALE
  5
50
102
{ACAD_REACTORS
330
47
102
}
330
47
100
AcDbScale
 70
     0
300
1:30
140
1.0
141
30.0
290
     0
  0
SCALE
  5
51
102
{ACAD_REACTORS
330
47
102
}
330
47
100
AcDbScale
 70
     0
300
1:40
140
1.0
141
40.0
290
     0
  0
SCALE
  5
52
102
{ACAD_REACTORS
330
47
102
}
330
47
100
AcDbScale
 70
     0
300
1:50
140
1.0
141
50.0
290
     0
  0
SCALE
  5
53
102
{ACAD_REACTORS
330
47
102
}
330
47
100
AcDbScale
 70
     0
300
1:100
140
1.0
141
100.0
290
     0
  0
SCALE
  5
54
102
{ACAD_REACTORS
330
47
102
}
330
47
100
AcDbScale
 70
     0
300
2:1
140
2.0
141
1.0
290
     0
  0
SCALE
  5
55
102
{ACAD_REACTORS
330
47
102
}
330
47
100
AcDbScale
 70
     0
300
4:1
140
4.0
141
1.0
290
     0
  0
SCALE
  5
56
102
{ACAD_REACTORS
330
47
102
}
330
47
100
AcDbScale
 70
     0
300
8:1
140
8.0
141
1.0
290
     0
  0
SCALE
  5
57
102
{ACAD_REACTORS
330
47
102
}
330
47
100
AcDbScale
 70
     0
300
10:1
140
10.0
141
1.0
290
     0
  0
SCALE
  5
58
102
{ACAD_REACTORS
330
47
102
}
330
47
100
AcDbScale
 70
     0
300
100:1
140
100.0
141
1.0
290
     0
  0
SCALE
  5
59
102
{ACAD_REACTORS
330
47
102
}
330
47
100
AcDbScale
 70
     0
300
1/128" = 1'-0"
140
0.0078125
141
12.0
290
     0
  0
SCALE
  5
5A
102
{ACAD_REACTORS
330
47
102
}
330
47
100
AcDbScale
 70
     0
300
1/64" = 1'-0"
140
0.015625
141
12.0
290
     0
  0
SCALE
  5
5B
102
{ACAD_REACTORS
330
47
102
}
330
47
100
AcDbScale
 70
     0
300
1/32" = 1'-0"
140
0.03125
141
12.0
290
     0
  0
SCALE
  5
5C
102
{ACAD_REACTORS
330
47
102
}
330
47
100
AcDbScale
 70
     0
300
1/16" = 1'-0"
140
0.0625
141
12.0
290
     0
  0
SCALE
  5
5D
102
{ACAD_REACTORS
330
47
102
}
330
47
100
AcDbScale
 70
     0
300
3/32" = 1'-0"
140
0.09375
141
12.0
290
     0
  0
SCALE
  5
5E
102
{ACAD_REACTORS
330
47
102
}
330
47
100
AcDbScale
 70
     0
300
1/8" = 1'-0"
140
0.125
141
12.0
290
     0
  0
SCALE
  5
5F
102
{ACAD_REACTORS
330
47
102
}
330
47
100
AcDbScale
 70
     0
300
3/16" = 1'-0"
140
0.1875
141
12.0
290
     0
  0
SCALE
  5
60
102
{ACAD_REACTORS
330
47
102
}
330
47
100
AcDbScale
 70
     0
300
1/4" = 1'-0"
140
0.25
141
12.0
290
     0
  0
SCALE
  5
61
102
{ACAD_REACTORS
330
47
102
}
330
47
100
AcDbScale
 70
     0
300
3/8" = 1'-0"
140
0.375
141
12.0
290
     0
  0
SCALE
  5
62
102
{ACAD_REACTORS
330
47
102
}
330
47
100
AcDbScale
 70
     0
300
1/2" = 1'-0"
140
0.5
141
12.0
290
     0
  0
SCALE
  5
63
102
{ACAD_REACTORS
330
47
102
}
330
47
100
AcDbScale
 70
     0
300
3/4" = 1'-0"
140
0.75
141
12.0
290
     0
  0
SCALE
  5
64
102
{ACAD_REACTORS
330
47
102
}
330
47
100
AcDbScale
 70
     0
300
1" = 1'-0"
140
1.0
141
12.0
290
     0
  0
SCALE
  5
65
102
{ACAD_REACTORS
330
47
102
}
330
47
100
AcDbScale
 70
     0
300
1-1/2" = 1'-0"
140
1.5
141
12.0
290
     0
  0
SCALE
  5
66
102
{ACAD_REACTORS
330
47
102
}
330
47
100
AcDbScale
 70
     0
300
3" = 1'-0"
140
3.0
141
12.0
290
     0
  0
SCALE
  5
67
102
{ACAD_REACTORS
330
47
102
}
330
47
100
AcDbScale
 70
     0
300
6" = 1'-0"
140
6.0
141
12.0
290
     0
  0
SCALE
  5
68
102
{ACAD_REACTORS
330
47
102
}
330
47
100
AcDbScale
 70
     0
300
1'-0" = 1'-0"
140
12.0
141
12.0
290
     0
  0
ENDSEC
  0
EOF
